<svg width="127" height="137" viewBox="0 0 127 137" fill="none" xmlns="http://www.w3.org/2000/svg">
<path d="M105.064 115.57H94.5577V126.077H105.064V115.57Z" fill="#15130C"/>
<path d="M115.57 115.57H105.064V126.077H115.57V115.57Z" fill="#15130C"/>
<path d="M94.5577 115.57H84.0512V126.077H94.5577V115.57Z" fill="#15130C"/>
<path d="M94.5576 105.064H84.0512V115.57H94.5577L94.5576 105.064Z" fill="#9C958B"/>
<path d="M94.5576 94.5577H84.0512V105.064H94.5576V94.5577Z" fill="#9C958B"/>
<path d="M94.5576 84.0512H84.0512V94.5577H94.5576V84.0512Z" fill="#9C958B"/>
<path d="M84.0512 84.0512H73.5447V94.5576L84.0512 94.5577V84.0512Z" fill="#9C958B"/>
<path d="M84.0512 94.5577L73.5447 94.5576V105.064L84.0512 105.064V94.5577Z" fill="#9C958B"/>
<path d="M84.0512 105.064L73.5447 105.064V115.571L84.0512 115.57V105.064Z" fill="#9C958B"/>
<path d="M73.5447 105.064L63.0385 105.064V115.571H73.5447V105.064Z" fill="#2E2B1F"/>
<path d="M63.0385 105.064H52.532V115.571H63.0385V105.064Z" fill="#4A3D2A"/>
<path d="M52.532 105.064H42.0255V115.571H52.532V105.064Z" fill="#4A3D2A"/>
<path d="M42.0255 105.064H31.5192V115.571H42.0255V105.064Z" fill="#4A3D2A"/>
<path d="M42.0255 115.571H31.5192V126.077H42.0257L42.0255 115.571Z" fill="#4A3D2A"/>
<path d="M73.5447 94.5576L63.0385 94.5577V105.064L73.5447 105.064V94.5576Z" fill="#9C958B"/>
<path d="M63.0385 94.5577H52.532V105.064H63.0385V94.5577Z" fill="#BBB5AB"/>
<path d="M52.532 94.5577H42.0255V105.064H52.532V94.5577Z" fill="#BBB5AB"/>
<path d="M52.5319 42.0256H42.0255V52.532H52.5319V42.0256Z" fill="#BBB5AB"/>
<path d="M31.5192 42.0256H21.0127V52.532H31.5192V42.0256Z" fill="#BBB5AB"/>
<path d="M52.5319 84.0512H42.0255V94.5577H52.532L52.5319 84.0512Z" fill="#E3D4C5"/>
<path d="M52.5319 73.5449H42.0255V84.0512H52.5319V73.5449Z" fill="#E3D4C5"/>
<path d="M63.0384 73.5449H52.5319V84.0512L63.0384 84.0513V73.5449Z" fill="#E3D4C5"/>
<path d="M63.0384 52.5321L52.5319 52.532L52.532 63.0385H63.0384V52.5321Z" fill="#E3D4C5"/>
<path d="M21.0127 52.532L10.5062 52.5321V63.0385H21.0127L21.0127 52.532Z" fill="#E3D4C5"/>
<path d="M63.0384 84.0513L52.5319 84.0512L52.532 94.5577H63.0385L63.0384 84.0513Z" fill="#E3D4C5"/>
<path d="M42.0255 73.5449H31.5192V84.0513L42.0255 84.0512V73.5449Z" fill="#E3D4C5"/>
<path d="M42.0255 84.0512L31.5192 84.0513V94.5576L42.0255 94.5577V84.0512Z" fill="#E3D4C5"/>
<path d="M42.0255 94.5577L31.5192 94.5576V105.064H42.0255V94.5577Z" fill="#AEA699"/>
<path d="M73.5447 84.0512L63.0384 84.0513L63.0385 94.5577L73.5447 94.5576V84.0512Z" fill="#9C958B"/>
<path d="M73.5449 73.5449H63.0384V84.0513L73.5447 84.0512L73.5449 73.5449Z" fill="#9C958B"/>
<path d="M84.0511 73.5449H73.5449L73.5447 84.0512H84.0512L84.0511 73.5449Z" fill="#9C958B"/>
<path d="M84.0511 63.0384H73.5447L73.5449 73.5449H84.0511V63.0384Z" fill="#8E1C1E"/>
<path d="M84.0511 63.0384H73.5447L73.5449 73.5449H84.0511V63.0384Z" fill="#8E1C1E"/>
<path d="M84.0511 52.5321H73.5447V63.0384H84.0511V52.5321Z" fill="#9C958B"/>
<path d="M84.0511 42.0256H73.5447V52.5321H84.0511V42.0256Z" fill="#9C958B"/>
<path d="M84.0511 31.5192H73.5447V42.0256H84.0511V31.5192Z" fill="#9C958B"/>
<path d="M73.5447 52.5321H63.0384V63.0385L73.5447 63.0384V52.5321Z" fill="#9C958B"/>
<path d="M73.5447 42.0256H63.0385L63.0384 52.5321H73.5447V42.0256Z" fill="#2E2B1F"/>
<path d="M73.5447 31.5192H63.0385V42.0256H73.5447V31.5192Z" fill="#2E2B1F"/>
<path d="M63.0385 31.5192H52.532L52.5319 42.0256H63.0385V31.5192Z" fill="#FEFFFB"/>
<path d="M21.0127 31.5192H10.5062V42.0256L21.0127 42.0256L21.0127 31.5192Z" fill="#FEFFFB"/>
<path d="M52.532 31.5192H42.0255V42.0256H52.5319L52.532 31.5192Z" fill="#0D7FC5"/>
<path d="M31.5192 31.5192H21.0127L21.0127 42.0256H31.5192V31.5192Z" fill="#0D7FC5"/>
<path d="M73.5449 21.0129H63.0385V31.5192H73.5447L73.5449 21.0129Z" fill="#2E2B1F"/>
<path d="M52.5319 21.0129H42.0255V31.5192H52.532L52.5319 21.0129Z" fill="#2E2B1F"/>
<path d="M42.0255 21.0129H31.5192L31.5192 31.5192H42.0255V21.0129Z" fill="#2E2B1F"/>
<path d="M42.0255 31.5192H31.5192V42.0256H42.0255V31.5192Z" fill="#2E2B1F"/>
<path d="M31.5192 52.532H21.0127L21.0127 63.0385H31.5192V52.532Z" fill="#2E2B1F"/>
<path d="M31.5192 21.0129H21.0127L21.0127 31.5192H31.5192L31.5192 21.0129Z" fill="#2E2B1F"/>
<path d="M63.0385 21.0129H52.5319L52.532 31.5192H63.0385V21.0129Z" fill="#4A3D2A"/>
<path d="M63.0385 42.0256H52.5319V52.532L63.0384 52.5321L63.0385 42.0256Z" fill="#4A3D2A"/>
<path d="M52.5319 52.532H42.0255V63.0385H52.532L52.5319 52.532Z" fill="#4A3D2A"/>
<path d="M42.0255 52.532H31.5192V63.0385H42.0255V52.532Z" fill="#4A3D2A"/>
<path d="M21.0127 42.0256L10.5062 42.0256V52.5321L21.0127 52.532V42.0256Z" fill="#4A3D2A"/>
<path d="M21.0127 21.0129H10.5062V31.5192H21.0127L21.0127 21.0129Z" fill="#4A3D2A"/>
<path d="M94.5576 52.5321H84.0511V63.0384L94.5576 63.0385V52.5321Z" fill="#9C958B"/>
<path d="M94.5576 42.0256H84.0511V52.5321H94.5576V42.0256Z" fill="#9C958B"/>
<path d="M94.5576 31.5192H84.0511V42.0256H94.5576V31.5192Z" fill="#9C958B"/>
<path d="M94.5576 21.0129H84.0512L84.0511 31.5192H94.5576V21.0129Z" fill="#9C958B"/>
<path d="M94.5576 10.5064H84.0512V21.0129H94.5576V10.5064Z" fill="#9C958B"/>
<path d="M94.5576 0H84.0512V10.5064H94.5576V0Z" fill="#FAC551"/>
<path d="M84.0512 0H73.5447V10.5064L84.0512 10.5064V0Z" fill="#FAC551"/>
<path d="M105.064 10.5064H94.5576V21.0129L105.064 21.0128V10.5064Z" fill="#FAC551"/>
<path d="M105.064 21.0128L94.5576 21.0129V31.5192L105.064 31.5193V21.0128Z" fill="#FAC551"/>
<path d="M105.064 42.0256H94.5576V52.5321L105.064 52.532V42.0256Z" fill="#FAC551"/>
<path d="M105.064 31.5193L94.5576 31.5192V42.0256H105.064V31.5193Z" fill="#FAC551"/>
<path d="M105.064 52.532L94.5576 52.5321V63.0385H105.064V52.532Z" fill="#FAC551"/>
<path d="M94.5576 63.0385L84.0511 63.0384V73.5449L94.5576 73.5449V63.0385Z" fill="#FAC551"/>
<path d="M94.5576 73.5449L84.0511 73.5449L84.0512 84.0512H94.5576V73.5449Z" fill="#FAC551"/>
<path d="M105.064 84.0512H94.5576V94.5577L105.064 94.5576V84.0512Z" fill="#FAC551"/>
<path d="M105.064 105.064H94.5576L94.5577 115.57H105.064V105.064Z" fill="#FAC551"/>
<path d="M105.064 94.5576L94.5576 94.5577V105.064H105.064V94.5576Z" fill="#FAC551"/>
<path d="M115.57 105.064H105.064V115.57H115.57V105.064Z" fill="#FAC551"/>
<path d="M126.077 115.57H115.57V126.077H126.077V115.57Z" fill="#FAC551"/>
<path d="M115.57 126.077H105.064L105.064 136.583H115.57V126.077Z" fill="#FAC551"/>
<path d="M105.064 126.077H94.5577V136.583H105.064L105.064 126.077Z" fill="#FAC551"/>
<path d="M94.5577 126.077H84.0512V136.583H94.5577V126.077Z" fill="#FAC551"/>
<path d="M84.0512 126.077L73.5447 126.077V136.583H84.0512V126.077Z" fill="#FAC551"/>
<path d="M73.5447 126.077H63.0385V136.583H73.5447V126.077Z" fill="#FAC551"/>
<path d="M63.0385 126.077H52.532V136.583H63.0385V126.077Z" fill="#FAC551"/>
<path d="M52.532 126.077L42.0257 126.077L42.0255 136.583H52.532V126.077Z" fill="#FAC551"/>
<path d="M42.0257 126.077H31.5192V136.583H42.0255L42.0257 126.077Z" fill="#FAC551"/>
<path d="M31.5192 115.571L21.0127 115.57V126.077H31.5192V115.571Z" fill="#FAC551"/>
<path d="M31.5192 105.064H21.0127V115.57L31.5192 115.571V105.064Z" fill="#FAC551"/>
<path d="M31.5192 94.5576L21.0127 94.5577V105.064H31.5192V94.5576Z" fill="#FAC551"/>
<path d="M31.5192 84.0513L21.0127 84.0512V94.5577L31.5192 94.5576V84.0513Z" fill="#FAC551"/>
<path d="M31.5192 73.5449H21.0127V84.0512L31.5192 84.0513V73.5449Z" fill="#FAC551"/>
<path d="M31.5192 63.0385H21.0127L21.0127 73.5449H31.5192L31.5192 63.0385Z" fill="#FAC551"/>
<path d="M21.0127 63.0385H10.5062V73.5449L21.0127 73.5449L21.0127 63.0385Z" fill="#FAC551"/>
<path d="M10.5062 52.5321H0V63.0385H10.5062V52.5321Z" fill="#FAC551"/>
<path d="M10.5062 42.0256L0 42.0256V52.5321H10.5062V42.0256Z" fill="#FAC551"/>
<path d="M10.5062 31.5192H0V42.0256L10.5062 42.0256V31.5192Z" fill="#FAC551"/>
<path d="M10.5062 21.0129H0V31.5192H10.5062V21.0129Z" fill="#FAC551"/>
<path d="M21.0127 10.5064H10.5062V21.0129H21.0127L21.0127 10.5064Z" fill="#FAC551"/>
<path d="M31.5192 10.5064H21.0127L21.0127 21.0129H31.5192L31.5192 10.5064Z" fill="#FAC551"/>
<path d="M42.0257 10.5064H31.5192L31.5192 21.0129H42.0255L42.0257 10.5064Z" fill="#FAC551"/>
<path d="M52.5319 0H42.0255L42.0257 10.5064L52.5319 10.5064V0Z" fill="#FAC551"/>
<path d="M63.0384 10.5064L52.5319 10.5064V21.0129H63.0385L63.0384 10.5064Z" fill="#FAC551"/>
<path d="M73.5447 10.5064L63.0384 10.5064L63.0385 21.0129H73.5449L73.5447 10.5064Z" fill="#FAC551"/>
<path d="M84.0512 21.0129H73.5449L73.5447 31.5192H84.0511L84.0512 21.0129Z" fill="#9C958B"/>
<path d="M84.0512 10.5064L73.5447 10.5064L73.5449 21.0129H84.0512V10.5064Z" fill="#4A3D2A"/>
<path d="M52.5319 10.5064L42.0257 10.5064L42.0255 21.0129H52.5319V10.5064Z" fill="#4A3D2A"/>
<path d="M73.5447 63.0384L63.0384 63.0385V73.5449H73.5449L73.5447 63.0384Z" fill="#8E1C1E"/>
<path d="M63.0384 63.0385H52.532L52.5319 73.5449H63.0384V63.0385Z" fill="#A33432"/>
<path d="M52.532 63.0385H42.0255V73.5449H52.5319L52.532 63.0385Z" fill="#A33432"/>
<path d="M42.0255 63.0385H31.5192L31.5192 73.5449H42.0255V63.0385Z" fill="#A33432"/>
<path d="M84.0512 115.57L73.5447 115.571V126.077L84.0512 126.077V115.57Z" fill="#15130C"/>
<path d="M73.5447 115.571H63.0385V126.077H73.5447V115.571Z" fill="#2E2B1F"/>
<path d="M63.0385 115.571H52.532V126.077H63.0385V115.571Z" fill="#2E2B1F"/>
<path d="M52.532 115.571H42.0255L42.0257 126.077L52.532 126.077V115.571Z" fill="#2E2B1F"/>
<path d="M42.0255 42.0256H31.5192V52.532H42.0255V42.0256Z" fill="#2E2B1F"/>
</svg>
