<svg width="100" height="100" viewBox="0 0 100 100" fill="none" xmlns="http://www.w3.org/2000/svg">
<path d="M10.6812 32.9273H16.2981V38.6182H10.6812V32.9273Z" fill="#DB823E"/>
<path d="M10.6812 38.6182H16.2981V44.3091H10.6812V38.6182Z" fill="#8C4B2B"/>
<path d="M33.1489 44.3091H38.7658V50H33.1489V44.3091Z" fill="#8C4B2B"/>
<path d="M44.3831 55.691H50V61.3819H44.3831V55.691Z" fill="#8C4B2B"/>
<path d="M33.1489 21.5456H38.7658V27.2365H33.1489V21.5456Z" fill="#8C4B2B"/>
<path d="M55.6167 15.8547H61.2337V21.5456H55.6167V15.8547Z" fill="#8C4B2B"/>
<path d="M61.2339 32.9273H66.8509V38.6182H61.2339V32.9273Z" fill="#8C4B2B"/>
<path d="M44.3831 32.9273H50V38.6182H44.3831V32.9273Z" fill="#8C4B2B"/>
<path d="M78.0845 44.3091H83.7015V50H78.0845V44.3091Z" fill="#8C4B2B"/>
<path d="M16.2981 38.6182L21.9152 38.6182V44.3091H16.2981V38.6182Z" fill="#582F1B"/>
<path d="M27.532 32.9273H33.149V38.6182H27.532V32.9273Z" fill="#582F1B"/>
<path d="M33.1489 50H38.7658V55.6909H33.1489V50Z" fill="#582F1B"/>
<path d="M27.532 61.3818H33.149V67.0727H27.532V61.3818Z" fill="#582F1B"/>
<path d="M50 55.691H55.6169V61.3819H50V55.691Z" fill="#582F1B"/>
<path d="M55.6168 67.0727H61.2338V72.7636H55.6168V67.0727Z" fill="#582F1B"/>
<path d="M66.8508 55.691H72.4677V61.3819H66.8508V55.691Z" fill="#582F1B"/>
<path d="M61.2339 38.6182H66.8509V44.3091H61.2339V38.6182Z" fill="#582F1B"/>
<path d="M50 38.6182L55.6169 38.6182V44.3091H49.9999L50 38.6182Z" fill="#582F1B"/>
<path d="M50 32.9273H55.6169V38.6182L50 38.6182V32.9273Z" fill="#582F1B"/>
<path d="M44.3831 38.6182H50L49.9999 44.3091H44.3831V38.6182Z" fill="#582F1B"/>
<path d="M38.7658 21.5456H44.3829V27.2365H38.7658V21.5456Z" fill="#582F1B"/>
<path d="M61.2337 15.8547H66.8509V21.5456H61.2337V15.8547Z" fill="#582F1B"/>
<path d="M78.0845 27.2364H83.7015V32.9273H78.0845V27.2364Z" fill="#582F1B"/>
<path d="M10.6812 44.3091H16.2981V50H10.6812V44.3091Z" fill="#DB823E"/>
<path d="M10.6812 50H16.2981V55.6909H10.6812V50Z" fill="#DB823E"/>
<path d="M16.2981 55.6909L21.9152 55.691V61.3819H16.2982L16.2981 55.6909Z" fill="#DB823E"/>
<path d="M21.9152 55.691H27.5321L27.532 61.3818L21.9152 61.3819V55.691Z" fill="#DB823E"/>
<path d="M21.9151 50H27.5321V55.691H21.9152L21.9151 50Z" fill="#DB823E"/>
<path d="M21.9152 61.3819L27.532 61.3818V67.0727H21.9151L21.9152 61.3819Z" fill="#DB823E"/>
<path d="M27.5321 55.691L33.1489 55.6909L33.149 61.3818H27.532L27.5321 55.691Z" fill="#DB823E"/>
<path d="M33.149 67.0727L38.7658 67.0727V72.7636H33.1489L33.149 67.0727Z" fill="#DB823E"/>
<path d="M38.7658 67.0727H44.3829V72.7636H38.7658V67.0727Z" fill="#DB823E"/>
<path d="M44.3829 67.0727H50V72.7636H44.3829V67.0727Z" fill="#DB823E"/>
<path d="M50 67.0727H55.6168V72.7636H50V67.0727Z" fill="#DB823E"/>
<path d="M61.2338 67.0727H66.8509V72.7636H61.2338V67.0727Z" fill="#DB823E"/>
<path d="M72.4677 61.3819L78.0846 61.3818V67.0727H72.4677L72.4677 61.3819Z" fill="#DB823E"/>
<path d="M78.0845 55.691H83.7015V61.3819L78.0846 61.3818L78.0845 55.691Z" fill="#DB823E"/>
<path d="M83.7015 50L89.3189 50V55.6909L83.7015 55.691V50Z" fill="#DB823E"/>
<path d="M83.7015 44.3091H89.3189V50L83.7015 50V44.3091Z" fill="#DB823E"/>
<path d="M83.7019 38.6182H89.3189V44.3091H83.7015L83.7019 38.6182Z" fill="#DB823E"/>
<path d="M83.7015 32.9273L89.3189 32.9273V38.6182H83.7019L83.7015 32.9273Z" fill="#DB823E"/>
<path d="M72.4677 32.9273L78.0845 32.9273L78.0846 38.6182H72.4677V32.9273Z" fill="#DB823E"/>
<path d="M72.4677 27.2364H78.0845V32.9273L72.4677 32.9273V27.2364Z" fill="#DB823E"/>
<path d="M72.4677 21.5456H78.0846L78.0845 27.2364H72.4677V21.5456Z" fill="#DB823E"/>
<path d="M66.8509 21.5456L72.4677 21.5456V27.2364L66.8508 27.2365L66.8509 21.5456Z" fill="#DB823E"/>
<path d="M61.2337 21.5456H66.8509L66.8508 27.2365H61.2339L61.2337 21.5456Z" fill="#DB823E"/>
<path d="M55.6167 21.5456H61.2337L61.2339 27.2365H55.6168L55.6167 21.5456Z" fill="#DB823E"/>
<path d="M55.6168 27.2365H61.2339V32.9273H55.6169L55.6168 27.2365Z" fill="#DB823E"/>
<path d="M49.9999 21.5456L55.6167 21.5456L55.6168 27.2365H49.9999V21.5456Z" fill="#DB823E"/>
<path d="M44.3829 21.5456H49.9999V27.2365H44.3829V21.5456Z" fill="#DB823E"/>
<path d="M44.3829 15.8547H49.9999L49.9999 21.5456H44.3829L44.3829 15.8547Z" fill="#DB823E"/>
<path d="M49.9999 15.8547H55.6167V21.5456L49.9999 21.5456L49.9999 15.8547Z" fill="#DB823E"/>
<path d="M38.7661 15.8547H44.3829L44.3829 21.5456H38.7658L38.7661 15.8547Z" fill="#DB823E"/>
<path d="M33.149 15.8547H38.7661L38.7658 21.5456H33.1489L33.149 15.8547Z" fill="#DB823E"/>
<path d="M27.532 21.5456H33.1489V27.2365H27.532V21.5456Z" fill="#DB823E"/>
<path d="M21.9151 21.5456H27.532V27.2365H21.9151V21.5456Z" fill="#DB823E"/>
<path d="M21.9151 27.2365H27.532V32.9273L21.9151 32.9273V27.2365Z" fill="#DB823E"/>
<path d="M16.2982 27.2364L21.9151 27.2365V32.9273L16.2981 32.9273L16.2982 27.2364Z" fill="#DB823E"/>
<path d="M16.2981 32.9273L21.9151 32.9273L21.9152 38.6182L16.2981 38.6182V32.9273Z" fill="#E79043"/>
<path d="M21.9151 32.9273L27.532 32.9273V38.6182L21.9152 38.6182L21.9151 32.9273Z" fill="#E79043"/>
<path d="M27.532 27.2365H33.1489L33.149 32.9273H27.532V27.2365Z" fill="#E79043"/>
<path d="M33.1489 27.2365H38.7658V32.9273L33.149 32.9273L33.1489 27.2365Z" fill="#E79043"/>
<path d="M38.7658 27.2365H44.3829L44.3831 32.9273L38.7658 32.9273V27.2365Z" fill="#E79043"/>
<path d="M44.3829 27.2365H49.9999L50 32.9273H44.3831L44.3829 27.2365Z" fill="#E79043"/>
<path d="M49.9999 27.2365H55.6168L55.6169 32.9273H50L49.9999 27.2365Z" fill="#E79043"/>
<path d="M61.2339 27.2365H66.8508L66.8509 32.9273H61.2339V27.2365Z" fill="#E79043"/>
<path d="M66.8508 27.2365L72.4677 27.2364V32.9273H66.8509L66.8508 27.2365Z" fill="#E79043"/>
<path d="M66.8509 32.9273H72.4677V38.6182H66.8509V32.9273Z" fill="#E79043"/>
<path d="M66.8509 38.6182H72.4677L72.4677 44.3091H66.8509V38.6182Z" fill="#E79043"/>
<path d="M66.8509 44.3091H72.4677V50H66.8508L66.8509 44.3091Z" fill="#E79043"/>
<path d="M66.8508 50H72.4677V55.691H66.8508V50Z" fill="#E79043"/>
<path d="M61.2339 55.691H66.8508V61.3819H61.2339V55.691Z" fill="#E79043"/>
<path d="M55.6169 55.691H61.2339V61.3819H55.6169V55.691Z" fill="#E79043"/>
<path d="M55.6169 61.3819H61.2339L61.2338 67.0727H55.6168L55.6169 61.3819Z" fill="#E79043"/>
<path d="M50 61.3819H55.6169L55.6168 67.0727H50V61.3819Z" fill="#E79043"/>
<path d="M44.3831 61.3819H50V67.0727H44.3829L44.3831 61.3819Z" fill="#E79043"/>
<path d="M38.766 61.3818L44.3831 61.3819L44.3829 67.0727H38.7658L38.766 61.3818Z" fill="#E79043"/>
<path d="M33.149 61.3818H38.766L38.7658 67.0727L33.149 67.0727V61.3818Z" fill="#E79043"/>
<path d="M33.1489 55.6909H38.7658L38.766 61.3818H33.149L33.1489 55.6909Z" fill="#E79043"/>
<path d="M27.5321 50L33.1489 50V55.6909L27.5321 55.691V50Z" fill="#E79043"/>
<path d="M27.532 44.3091H33.1489V50L27.5321 50L27.532 44.3091Z" fill="#E79043"/>
<path d="M27.532 38.6182H33.149L33.1489 44.3091H27.532V38.6182Z" fill="#E79043"/>
<path d="M33.149 32.9273L38.7658 32.9273V38.6182H33.149V32.9273Z" fill="#E79043"/>
<path d="M38.7658 32.9273L44.3831 32.9273V38.6182H38.7658V32.9273Z" fill="#E79043"/>
<path d="M21.9152 44.3091L27.532 44.3091L27.5321 50H21.9151L21.9152 44.3091Z" fill="#E79043"/>
<path d="M16.2981 44.3091H21.9152L21.9151 50L16.2981 50V44.3091Z" fill="#E79043"/>
<path d="M16.2981 50L21.9151 50L21.9152 55.691L16.2981 55.6909V50Z" fill="#E79043"/>
<path d="M38.7658 44.3091L44.3831 44.3091L44.3829 50H38.7658V44.3091Z" fill="#E79043"/>
<path d="M38.7658 50H44.3829L44.3831 55.691L38.7658 55.6909V50Z" fill="#E79043"/>
<path d="M44.3829 50L50 50V55.691H44.3831L44.3829 50Z" fill="#E79043"/>
<path d="M50 50H55.6169V55.691H50V50Z" fill="#E79043"/>
<path d="M49.9999 44.3091H55.6169V50H50L49.9999 44.3091Z" fill="#E79043"/>
<path d="M55.6169 44.3091H61.2339L61.2338 50L55.6169 50V44.3091Z" fill="#E79043"/>
<path d="M55.6169 38.6182L61.2339 38.6182V44.3091H55.6169V38.6182Z" fill="#E79043"/>
<path d="M55.6169 32.9273H61.2339V38.6182L55.6169 38.6182V32.9273Z" fill="#E79043"/>
<path d="M78.0845 32.9273H83.7015L83.7019 38.6182L78.0846 38.6182L78.0845 32.9273Z" fill="#E79043"/>
<path d="M78.0846 38.6182L83.7019 38.6182L83.7015 44.3091H78.0845L78.0846 38.6182Z" fill="#E79043"/>
<path d="M72.4677 38.6182H78.0846L78.0845 44.3091L72.4677 44.3091L72.4677 38.6182Z" fill="#E79043"/>
<path d="M72.4677 44.3091L78.0845 44.3091V50H72.4677V44.3091Z" fill="#E79043"/>
<path d="M78.0845 50H83.7015V55.691H78.0845V50Z" fill="#E79043"/>
<path d="M72.4677 55.691H78.0845L78.0846 61.3818L72.4677 61.3819V55.691Z" fill="#E79043"/>
<path d="M66.8508 61.3819H72.4677L72.4677 67.0727L66.8509 67.0727L66.8508 61.3819Z" fill="#E79043"/>
<path d="M61.2339 61.3819H66.8508L66.8509 67.0727H61.2338L61.2339 61.3819Z" fill="#E79043"/>
<path d="M21.9152 38.6182L27.532 38.6182V44.3091L21.9152 44.3091V38.6182Z" fill="#DB823E"/>
<path d="M33.149 38.6182H38.7658V44.3091H33.1489L33.149 38.6182Z" fill="#DB823E"/>
<path d="M38.7658 38.6182H44.3831V44.3091L38.7658 44.3091V38.6182Z" fill="#DB823E"/>
<path d="M44.3831 44.3091H49.9999L50 50L44.3829 50L44.3831 44.3091Z" fill="#DB823E"/>
<path d="M61.2339 44.3091H66.8509L66.8508 50H61.2338L61.2339 44.3091Z" fill="#DB823E"/>
<path d="M61.2338 50H66.8508V55.691H61.2339L61.2338 50Z" fill="#DB823E"/>
<path d="M55.6169 50L61.2338 50L61.2339 55.691H55.6169V50Z" fill="#DB823E"/>
<path d="M72.4677 50H78.0845V55.691H72.4677V50Z" fill="#DB823E"/>
<path d="M38.7658 55.6909L44.3831 55.691V61.3819L38.766 61.3818L38.7658 55.6909Z" fill="#DB823E"/>
<path d="M10.6812 55.6909H16.2981L16.2982 61.3819H10.6812V55.6909Z" fill="#B97237"/>
<path d="M16.2982 61.3819H21.9152L21.9151 67.0727H16.2982V61.3819Z" fill="#B97237"/>
<path d="M21.9151 67.0727H27.532L27.5321 72.7636H21.9151V67.0727Z" fill="#B97237"/>
<path d="M27.532 67.0727H33.149L33.1489 72.7636H27.5321L27.532 67.0727Z" fill="#B97237"/>
<path d="M33.1489 72.7636H38.7658V78.4545H33.1489V72.7636Z" fill="#B97237"/>
<path d="M38.7658 72.7636H44.3829V78.4545H38.7658V72.7636Z" fill="#B97237"/>
<path d="M44.3829 72.7636H50V78.4545H44.3829V72.7636Z" fill="#B97237"/>
<path d="M50 72.7636H55.6168L55.6169 78.4545H50V72.7636Z" fill="#B97237"/>
<path d="M55.6168 72.7636H61.2338V78.4545H55.6169L55.6168 72.7636Z" fill="#B97237"/>
<path d="M61.2338 72.7636H66.8509V78.4545H61.2338V72.7636Z" fill="#B97237"/>
<path d="M66.8509 67.0727L72.4677 67.0727L72.4677 72.7636H66.8509V67.0727Z" fill="#B97237"/>
<path d="M72.4677 67.0727H78.0846V72.7636H72.4677L72.4677 67.0727Z" fill="#B97237"/>
<path d="M78.0846 61.3818L83.7015 61.3819V67.0727H78.0846V61.3818Z" fill="#B97237"/>
<path d="M83.7015 55.691L89.3189 55.6909V61.3819H83.7015V55.691Z" fill="#B97237"/>
<path d="M10.6812 61.3819H16.2982V67.0727H10.6812V61.3819Z" fill="#452914"/>
<path d="M16.2982 67.0727H21.9151V72.7636H16.2982V67.0727Z" fill="#452914"/>
<path d="M21.9151 72.7636H27.5321V78.4545H21.9151V72.7636Z" fill="#452914"/>
<path d="M27.5321 72.7636H33.1489V78.4545H27.5321V72.7636Z" fill="#452914"/>
<path d="M33.1489 78.4545H38.7658V84.1453H33.1489V78.4545Z" fill="#452914"/>
<path d="M38.7658 78.4545H44.3829V84.1453H38.7658V78.4545Z" fill="#452914"/>
<path d="M44.3829 78.4545H50V84.1453H44.3829V78.4545Z" fill="#452914"/>
<path d="M50 78.4545H55.6169V84.1453H50V78.4545Z" fill="#452914"/>
<path d="M55.6169 78.4545H61.2338V84.1453H55.6169V78.4545Z" fill="#452914"/>
<path d="M61.2338 78.4545H66.8509V84.1453H61.2338V78.4545Z" fill="#452914"/>
<path d="M66.8509 72.7636H72.4677V78.4545H66.8509V72.7636Z" fill="#452914"/>
<path d="M72.4677 72.7636H78.0846V78.4545H72.4677V72.7636Z" fill="#452914"/>
<path d="M78.0846 67.0727H83.7015V72.7636H78.0846V67.0727Z" fill="#452914"/>
<path d="M83.7015 61.3819H89.3189V67.0727H83.7015V61.3819Z" fill="#452914"/>
</svg>
