<svg width="79" height="69" viewBox="0 0 79 69" fill="none" xmlns="http://www.w3.org/2000/svg">
<path d="M0 17.0727H5.61697V22.7636H0V17.0727Z" fill="#DB823E"/>
<path d="M0 22.7636H5.61697V28.4545H0V22.7636Z" fill="#8C4B2B"/>
<path d="M22.4677 28.4545H28.0847V34.1454H22.4677V28.4545Z" fill="#8C4B2B"/>
<path d="M33.7019 39.8363H39.3189V45.5272H33.7019V39.8363Z" fill="#8C4B2B"/>
<path d="M22.4677 5.69089H28.0847V11.3818H22.4677V5.69089Z" fill="#8C4B2B"/>
<path d="M44.9355 0H50.5525V5.69089H44.9355V0Z" fill="#8C4B2B"/>
<path d="M50.5528 17.0727H56.1697V22.7636H50.5528V17.0727Z" fill="#8C4B2B"/>
<path d="M33.7019 17.0727H39.3189V22.7636H33.7019V17.0727Z" fill="#8C4B2B"/>
<path d="M67.4034 28.4545H73.0203V34.1454H67.4034V28.4545Z" fill="#8C4B2B"/>
<path d="M5.61697 22.7636L11.2341 22.7636V28.4545H5.61697V22.7636Z" fill="#582F1B"/>
<path d="M16.8508 17.0727H22.4678V22.7636H16.8508V17.0727Z" fill="#582F1B"/>
<path d="M22.4677 34.1454H28.0847V39.8362H22.4677V34.1454Z" fill="#582F1B"/>
<path d="M16.8508 45.5271H22.4678V51.218H16.8508V45.5271Z" fill="#582F1B"/>
<path d="M39.3189 39.8363H44.9357V45.5272H39.3189V39.8363Z" fill="#582F1B"/>
<path d="M44.9357 51.218H50.5526V56.9089H44.9357V51.218Z" fill="#582F1B"/>
<path d="M56.1696 39.8363H61.7866V45.5272H56.1696V39.8363Z" fill="#582F1B"/>
<path d="M50.5528 22.7636H56.1697V28.4545H50.5528V22.7636Z" fill="#582F1B"/>
<path d="M39.3189 22.7636L44.9357 22.7636V28.4545H39.3188L39.3189 22.7636Z" fill="#582F1B"/>
<path d="M39.3189 17.0727H44.9357V22.7636L39.3189 22.7636V17.0727Z" fill="#582F1B"/>
<path d="M33.7019 22.7636H39.3189L39.3188 28.4545H33.7019V22.7636Z" fill="#582F1B"/>
<path d="M28.0847 5.69089H33.7018V11.3818H28.0847V5.69089Z" fill="#582F1B"/>
<path d="M50.5525 0H56.1697V5.69089H50.5525V0Z" fill="#582F1B"/>
<path d="M67.4034 11.3817H73.0203V17.0726H67.4034V11.3817Z" fill="#582F1B"/>
<path d="M0 28.4545H5.61697V34.1454H0V28.4545Z" fill="#DB823E"/>
<path d="M0 34.1454H5.61697V39.8362H0V34.1454Z" fill="#DB823E"/>
<path d="M5.61697 39.8362L11.2341 39.8363V45.5272H5.6171L5.61697 39.8362Z" fill="#DB823E"/>
<path d="M11.2341 39.8363H16.8509L16.8508 45.5271L11.2341 45.5272V39.8363Z" fill="#DB823E"/>
<path d="M11.234 34.1453H16.8509V39.8363H11.2341L11.234 34.1453Z" fill="#DB823E"/>
<path d="M11.2341 45.5272L16.8508 45.5271V51.218H11.234L11.2341 45.5272Z" fill="#DB823E"/>
<path d="M16.8509 39.8363L22.4677 39.8362L22.4678 45.5271H16.8508L16.8509 39.8363Z" fill="#DB823E"/>
<path d="M22.4678 51.218L28.0847 51.218V56.9089H22.4677L22.4678 51.218Z" fill="#DB823E"/>
<path d="M28.0847 51.218H33.7018V56.9089H28.0847V51.218Z" fill="#DB823E"/>
<path d="M33.7018 51.218H39.3189V56.9089H33.7018V51.218Z" fill="#DB823E"/>
<path d="M39.3189 51.218H44.9357V56.9089H39.3189V51.218Z" fill="#DB823E"/>
<path d="M50.5526 51.218H56.1697V56.9089H50.5526V51.218Z" fill="#DB823E"/>
<path d="M61.7866 45.5272L67.4035 45.5271V51.218H61.7865L61.7866 45.5272Z" fill="#DB823E"/>
<path d="M67.4034 39.8363H73.0203V45.5272L67.4035 45.5271L67.4034 39.8363Z" fill="#DB823E"/>
<path d="M73.0203 34.1454L78.6377 34.1453V39.8362L73.0203 39.8363V34.1454Z" fill="#DB823E"/>
<path d="M73.0203 28.4545H78.6377V34.1453L73.0203 34.1454V28.4545Z" fill="#DB823E"/>
<path d="M73.0207 22.7636H78.6377V28.4545H73.0203L73.0207 22.7636Z" fill="#DB823E"/>
<path d="M73.0203 17.0726L78.6377 17.0727V22.7636H73.0207L73.0203 17.0726Z" fill="#DB823E"/>
<path d="M61.7865 17.0727L67.4034 17.0726L67.4035 22.7636H61.7865V17.0727Z" fill="#DB823E"/>
<path d="M61.7865 11.3817H67.4034V17.0726L61.7865 17.0727V11.3817Z" fill="#DB823E"/>
<path d="M61.7865 5.69089H67.4035L67.4034 11.3817H61.7865V5.69089Z" fill="#DB823E"/>
<path d="M56.1697 5.69089L61.7865 5.69089V11.3817L56.1696 11.3818L56.1697 5.69089Z" fill="#DB823E"/>
<path d="M50.5525 5.69089H56.1697L56.1696 11.3818H50.5528L50.5525 5.69089Z" fill="#DB823E"/>
<path d="M44.9355 5.69089H50.5525L50.5528 11.3818H44.9357L44.9355 5.69089Z" fill="#DB823E"/>
<path d="M44.9357 11.3818H50.5528V17.0727H44.9357L44.9357 11.3818Z" fill="#DB823E"/>
<path d="M39.3188 5.69089L44.9355 5.69089L44.9357 11.3818H39.3188V5.69089Z" fill="#DB823E"/>
<path d="M33.7018 5.69089H39.3188V11.3818H33.7018V5.69089Z" fill="#DB823E"/>
<path d="M33.7018 0H39.3188L39.3188 5.69089H33.7018L33.7018 0Z" fill="#DB823E"/>
<path d="M39.3188 0H44.9355V5.69089L39.3188 5.69089L39.3188 0Z" fill="#DB823E"/>
<path d="M28.0849 0H33.7018L33.7018 5.69089H28.0847L28.0849 0Z" fill="#DB823E"/>
<path d="M22.4678 0H28.0849L28.0847 5.69089H22.4677L22.4678 0Z" fill="#DB823E"/>
<path d="M16.8508 5.69089H22.4677V11.3818H16.8508V5.69089Z" fill="#DB823E"/>
<path d="M11.234 5.69089H16.8508V11.3818H11.234V5.69089Z" fill="#DB823E"/>
<path d="M11.234 11.3818H16.8508V17.0727L11.234 17.0726V11.3818Z" fill="#DB823E"/>
<path d="M5.6171 11.3817L11.234 11.3818V17.0726L5.61697 17.0727L5.6171 11.3817Z" fill="#DB823E"/>
<path d="M5.61697 17.0727L11.234 17.0726L11.2341 22.7636L5.61697 22.7636V17.0727Z" fill="#E79043"/>
<path d="M11.234 17.0726L16.8508 17.0727V22.7636L11.2341 22.7636L11.234 17.0726Z" fill="#E79043"/>
<path d="M16.8508 11.3818H22.4677L22.4678 17.0727H16.8508V11.3818Z" fill="#E79043"/>
<path d="M22.4677 11.3818H28.0847V17.0726L22.4678 17.0727L22.4677 11.3818Z" fill="#E79043"/>
<path d="M28.0847 11.3818H33.7018L33.7019 17.0727L28.0847 17.0726V11.3818Z" fill="#E79043"/>
<path d="M33.7018 11.3818H39.3188L39.3189 17.0727H33.7019L33.7018 11.3818Z" fill="#E79043"/>
<path d="M39.3188 11.3818H44.9357L44.9357 17.0727H39.3189L39.3188 11.3818Z" fill="#E79043"/>
<path d="M50.5528 11.3818H56.1696L56.1697 17.0727H50.5528V11.3818Z" fill="#E79043"/>
<path d="M56.1696 11.3818L61.7865 11.3817V17.0727H56.1697L56.1696 11.3818Z" fill="#E79043"/>
<path d="M56.1697 17.0727H61.7865V22.7636H56.1697V17.0727Z" fill="#E79043"/>
<path d="M56.1697 22.7636H61.7865L61.7866 28.4545H56.1697V22.7636Z" fill="#E79043"/>
<path d="M56.1697 28.4545H61.7866V34.1454H56.1696L56.1697 28.4545Z" fill="#E79043"/>
<path d="M56.1696 34.1454H61.7866V39.8363H56.1696V34.1454Z" fill="#E79043"/>
<path d="M50.5528 39.8363H56.1696V45.5272H50.5528V39.8363Z" fill="#E79043"/>
<path d="M44.9357 39.8363H50.5528V45.5272H44.9357V39.8363Z" fill="#E79043"/>
<path d="M44.9357 45.5272H50.5528L50.5526 51.218H44.9357L44.9357 45.5272Z" fill="#E79043"/>
<path d="M39.3189 45.5272H44.9357L44.9357 51.218H39.3189V45.5272Z" fill="#E79043"/>
<path d="M33.7019 45.5272H39.3189V51.218H33.7018L33.7019 45.5272Z" fill="#E79043"/>
<path d="M28.0848 45.5271L33.7019 45.5272L33.7018 51.218H28.0847L28.0848 45.5271Z" fill="#E79043"/>
<path d="M22.4678 45.5271H28.0848L28.0847 51.218L22.4678 51.218V45.5271Z" fill="#E79043"/>
<path d="M22.4677 39.8362H28.0847L28.0848 45.5271H22.4678L22.4677 39.8362Z" fill="#E79043"/>
<path d="M16.8509 34.1453L22.4677 34.1454V39.8362L16.8509 39.8363V34.1453Z" fill="#E79043"/>
<path d="M16.8508 28.4545H22.4677V34.1454L16.8509 34.1453L16.8508 28.4545Z" fill="#E79043"/>
<path d="M16.8508 22.7636H22.4678L22.4677 28.4545H16.8508V22.7636Z" fill="#E79043"/>
<path d="M22.4678 17.0727L28.0847 17.0726V22.7636H22.4678V17.0727Z" fill="#E79043"/>
<path d="M28.0847 17.0726L33.7019 17.0727V22.7636H28.0847V17.0726Z" fill="#E79043"/>
<path d="M11.2341 28.4545L16.8508 28.4545L16.8509 34.1453H11.234L11.2341 28.4545Z" fill="#E79043"/>
<path d="M5.61697 28.4545H11.2341L11.234 34.1453L5.61697 34.1454V28.4545Z" fill="#E79043"/>
<path d="M5.61697 34.1454L11.234 34.1453L11.2341 39.8363L5.61697 39.8362V34.1454Z" fill="#E79043"/>
<path d="M28.0847 28.4545L33.7019 28.4545L33.7018 34.1454H28.0847V28.4545Z" fill="#E79043"/>
<path d="M28.0847 34.1454H33.7018L33.7019 39.8363L28.0847 39.8362V34.1454Z" fill="#E79043"/>
<path d="M33.7018 34.1454L39.3189 34.1453V39.8363H33.7019L33.7018 34.1454Z" fill="#E79043"/>
<path d="M39.3189 34.1453H44.9357V39.8363H39.3189V34.1453Z" fill="#E79043"/>
<path d="M39.3188 28.4545H44.9357V34.1453H39.3189L39.3188 28.4545Z" fill="#E79043"/>
<path d="M44.9357 28.4545H50.5528L50.5526 34.1454L44.9357 34.1453V28.4545Z" fill="#E79043"/>
<path d="M44.9357 22.7636L50.5528 22.7636V28.4545H44.9357V22.7636Z" fill="#E79043"/>
<path d="M44.9357 17.0727H50.5528V22.7636L44.9357 22.7636V17.0727Z" fill="#E79043"/>
<path d="M67.4034 17.0726H73.0203L73.0207 22.7636L67.4035 22.7636L67.4034 17.0726Z" fill="#E79043"/>
<path d="M67.4035 22.7636L73.0207 22.7636L73.0203 28.4545H67.4034L67.4035 22.7636Z" fill="#E79043"/>
<path d="M61.7865 22.7636H67.4035L67.4034 28.4545L61.7866 28.4545L61.7865 22.7636Z" fill="#E79043"/>
<path d="M61.7866 28.4545L67.4034 28.4545V34.1454H61.7866V28.4545Z" fill="#E79043"/>
<path d="M67.4034 34.1454H73.0203V39.8363H67.4034V34.1454Z" fill="#E79043"/>
<path d="M61.7866 39.8363H67.4034L67.4035 45.5271L61.7866 45.5272V39.8363Z" fill="#E79043"/>
<path d="M56.1696 45.5272H61.7866L61.7865 51.218L56.1697 51.218L56.1696 45.5272Z" fill="#E79043"/>
<path d="M50.5528 45.5272H56.1696L56.1697 51.218H50.5526L50.5528 45.5272Z" fill="#E79043"/>
<path d="M11.2341 22.7636L16.8508 22.7636V28.4545L11.2341 28.4545V22.7636Z" fill="#DB823E"/>
<path d="M22.4678 22.7636H28.0847V28.4545H22.4677L22.4678 22.7636Z" fill="#DB823E"/>
<path d="M28.0847 22.7636H33.7019V28.4545L28.0847 28.4545V22.7636Z" fill="#DB823E"/>
<path d="M33.7019 28.4545H39.3188L39.3189 34.1453L33.7018 34.1454L33.7019 28.4545Z" fill="#DB823E"/>
<path d="M50.5528 28.4545H56.1697L56.1696 34.1454H50.5526L50.5528 28.4545Z" fill="#DB823E"/>
<path d="M50.5526 34.1454H56.1696V39.8363H50.5528L50.5526 34.1454Z" fill="#DB823E"/>
<path d="M44.9357 34.1453L50.5526 34.1454L50.5528 39.8363H44.9357V34.1453Z" fill="#DB823E"/>
<path d="M61.7866 34.1454H67.4034V39.8363H61.7866V34.1454Z" fill="#DB823E"/>
<path d="M28.0847 39.8362L33.7019 39.8363V45.5272L28.0848 45.5271L28.0847 39.8362Z" fill="#DB823E"/>
<path d="M0 39.8362H5.61697L5.6171 45.5272H0V39.8362Z" fill="#B97237"/>
<path d="M5.6171 45.5272H11.2341L11.234 51.218H5.6171V45.5272Z" fill="#B97237"/>
<path d="M11.234 51.218H16.8508L16.8509 56.9089H11.234V51.218Z" fill="#B97237"/>
<path d="M16.8508 51.218H22.4678L22.4677 56.9089H16.8509L16.8508 51.218Z" fill="#B97237"/>
<path d="M22.4677 56.9089H28.0847V62.5998H22.4677V56.9089Z" fill="#B97237"/>
<path d="M28.0847 56.9089H33.7018V62.5998H28.0847V56.9089Z" fill="#B97237"/>
<path d="M33.7018 56.9089H39.3189V62.5998H33.7018V56.9089Z" fill="#B97237"/>
<path d="M39.3189 56.9089H44.9357L44.9357 62.5998H39.3189V56.9089Z" fill="#B97237"/>
<path d="M44.9357 56.9089H50.5526V62.5998H44.9357L44.9357 56.9089Z" fill="#B97237"/>
<path d="M50.5526 56.9089H56.1697V62.5998H50.5526V56.9089Z" fill="#B97237"/>
<path d="M56.1697 51.218L61.7865 51.218L61.7866 56.9089H56.1697V51.218Z" fill="#B97237"/>
<path d="M61.7865 51.218H67.4035V56.9089H61.7866L61.7865 51.218Z" fill="#B97237"/>
<path d="M67.4035 45.5271L73.0203 45.5272V51.218H67.4035V45.5271Z" fill="#B97237"/>
<path d="M73.0203 39.8363L78.6377 39.8362V45.5272H73.0203V39.8363Z" fill="#B97237"/>
<path d="M0 45.5272H5.6171V51.218H0V45.5272Z" fill="#452914"/>
<path d="M5.6171 51.218H11.234V56.9089H5.6171V51.218Z" fill="#452914"/>
<path d="M11.234 56.9089H16.8509V62.5998H11.234V56.9089Z" fill="#452914"/>
<path d="M16.8509 56.9089H22.4677V62.5998H16.8509V56.9089Z" fill="#452914"/>
<path d="M22.4677 62.5998H28.0847V68.2906H22.4677V62.5998Z" fill="#452914"/>
<path d="M28.0847 62.5998H33.7018V68.2906H28.0847V62.5998Z" fill="#452914"/>
<path d="M33.7018 62.5998H39.3189V68.2906H33.7018V62.5998Z" fill="#452914"/>
<path d="M39.3189 62.5998H44.9357V68.2906H39.3189V62.5998Z" fill="#452914"/>
<path d="M44.9357 62.5998H50.5526V68.2906H44.9357V62.5998Z" fill="#452914"/>
<path d="M50.5526 62.5998H56.1697V68.2906H50.5526V62.5998Z" fill="#452914"/>
<path d="M56.1697 56.9089H61.7866V62.5998H56.1697V56.9089Z" fill="#452914"/>
<path d="M61.7866 56.9089H67.4035V62.5998H61.7866V56.9089Z" fill="#452914"/>
<path d="M67.4035 51.218H73.0203V56.9089H67.4035V51.218Z" fill="#452914"/>
<path d="M73.0203 45.5272H78.6377V51.218H73.0203V45.5272Z" fill="#452914"/>
</svg>
