<svg width="14" height="14" viewBox="0 0 14 14" fill="none" xmlns="http://www.w3.org/2000/svg">
<path d="M0 1.10571e-07H2.71884V2.71884H0V1.10571e-07Z" fill="black"/>
<path d="M2.71884 2.71884L5.43778 2.71883V5.43767H2.71894L2.71884 2.71884Z" fill="black"/>
<path d="M5.43778 5.43767L8.15667 5.43766V8.1565H5.43783L5.43778 5.43767Z" fill="black"/>
<path d="M8.15667 8.1565L10.8753 8.15655V10.8754H8.15648L8.15667 8.1565Z" fill="black"/>
<path d="M10.8753 10.8754L13.5942 10.8754V13.5942H10.8754L10.8753 10.8754Z" fill="black"/>
<path d="M8.15648 2.71883H10.8753V5.43767L8.15667 5.43766L8.15648 2.71883Z" fill="black"/>
<path d="M10.8754 0H13.5942V2.71884L10.8753 2.71883L10.8754 0Z" fill="black"/>
<path d="M2.71894 8.15655L5.43783 8.1565L5.43778 10.8754H2.71894V8.15655Z" fill="black"/>
<path d="M4.57764e-05 10.8754L2.71894 10.8754L2.71889 13.5942H4.57764e-05V10.8754Z" fill="black"/>
</svg>
