<svg width="28" height="27" viewBox="0 0 28 27" fill="none" xmlns="http://www.w3.org/2000/svg">
<g clip-path="url(#clip0_11_2452)">
<path d="M23.4445 3.24825H25.7222V5.78635H23.4445V3.24825Z" fill="#D9AA52"/>
<path d="M21.1666 0.710144H23.4443L23.4445 3.24825L21.1666 3.24824V0.710144Z" fill="#D9AA52"/>
<path d="M18.8888 0.710144H21.1666V3.24824H18.8888V0.710144Z" fill="#D9AA52"/>
<path d="M16.6111 0.710144H18.8888V3.24824H16.6111V0.710144Z" fill="#D9AA52"/>
<path d="M14.3335 0.710144H16.6111V3.24824H14.3335V0.710144Z" fill="#D9AA52"/>
<path d="M12.0556 3.24825L14.3335 3.24824L14.3334 5.78635H12.0556V3.24825Z" fill="#D9AA52"/>
<path d="M9.77769 3.24825H12.0556V5.78635H9.77769V3.24825Z" fill="#D9AA52"/>
<path d="M7.5 3.24825H9.77769V5.78635H7.5V3.24825Z" fill="#D9AA52"/>
<path d="M5.22236 5.78635L7.5 5.78635L7.50013 8.32445H5.22236V5.78635Z" fill="#D9AA52"/>
<path d="M2.94467 8.32443L5.22236 8.32445L5.22244 10.8625H2.94467V8.32443Z" fill="#D9AA52"/>
<path d="M0.666748 10.8625L2.94467 10.8625L2.94452 13.4006H0.666748V10.8625Z" fill="#D9AA52"/>
<path d="M0.666748 13.4006H2.94452V15.9387H0.666748V13.4006Z" fill="#D9AA52"/>
<path d="M0.666748 15.9387H2.94452V18.4768H0.666748V15.9387Z" fill="#D9AA52"/>
<path d="M0.666748 18.4768H2.94452V21.0149H0.666748V18.4768Z" fill="#D9AA52"/>
<path d="M2.94452 21.0149L5.22244 21.0149V23.553H2.94467L2.94452 21.0149Z" fill="#D9AA52"/>
<path d="M5.22244 23.553L7.50013 23.553V26.0911H5.22236L5.22244 23.553Z" fill="#D9AA52"/>
<path d="M5.22244 21.0149H7.50013V23.553L5.22244 23.553V21.0149Z" fill="#D9AA52"/>
<path d="M23.4445 10.8625H25.7222V13.4006H23.4445V10.8625Z" fill="#D9AA52"/>
<path d="M14.3335 3.24824H16.6111L16.6113 5.78635H14.3334L14.3335 3.24824Z" fill="#D9AA52"/>
<path d="M7.5 5.78635H9.77769L9.77777 8.32445H7.50013L7.5 5.78635Z" fill="#D9AA52"/>
<path d="M16.6111 18.4768H18.8889V21.0149H16.6111V18.4768Z" fill="#D9AA52"/>
<path d="M18.8888 15.9387H21.1666V18.4768L18.8889 18.4768L18.8888 15.9387Z" fill="#D9AA52"/>
<path d="M21.1666 15.9387H23.4443V18.4768H21.1666V15.9387Z" fill="#D9AA52"/>
<path d="M21.1666 13.4006L23.4445 13.4006L23.4443 15.9387H21.1666L21.1666 13.4006Z" fill="#D9AA52"/>
<path d="M23.4445 13.4006H25.7222V15.9387L23.4443 15.9387L23.4445 13.4006Z" fill="#D9AA52"/>
<path d="M12.0556 21.0149H14.3334V23.553H12.0556V21.0149Z" fill="#D9AA52"/>
<path d="M2.94452 18.4768L5.22244 18.4768V21.0149L2.94452 21.0149V18.4768Z" fill="#D9AA52"/>
<path d="M5.22236 15.9387H7.50013V18.4768L5.22244 18.4768L5.22236 15.9387Z" fill="#D9AA52"/>
<path d="M5.22244 18.4768L7.50013 18.4768V21.0149H5.22244V18.4768Z" fill="#D9AA52"/>
<path d="M7.50013 21.0149H9.77777V23.553L7.50013 23.553V21.0149Z" fill="#D9AA52"/>
<path d="M9.77777 21.0149H12.0556V23.553H9.77777V21.0149Z" fill="#D9AA52"/>
<path d="M14.3335 15.9387H16.6113L16.6111 18.4768L14.3335 18.4768V15.9387Z" fill="#D9AA52"/>
<path d="M21.1666 3.24824L23.4445 3.24825V5.78635H21.1666V3.24824Z" fill="#D9AA52"/>
<path d="M9.77769 5.78635H12.0556L12.0555 8.32445H9.77777L9.77769 5.78635Z" fill="#D9AA52"/>
<path d="M18.8888 3.24824H21.1666V5.78635H18.8888V3.24824Z" fill="#D9AA52"/>
<path d="M16.6113 5.78635H18.8888L18.8889 8.32445H16.6111L16.6113 5.78635Z" fill="#D9AA52"/>
<path d="M23.4445 5.78635H25.7222V8.32445H23.4445V5.78635Z" fill="#D9AA52"/>
<path d="M23.4445 8.32445H25.7222V10.8625H23.4445V8.32445Z" fill="#D9AA52"/>
<path d="M21.1666 8.32443L23.4445 8.32445V10.8625L21.1666 10.8625V8.32443Z" fill="#D9AA52"/>
<path d="M21.1666 10.8625L23.4445 10.8625V13.4006L21.1666 13.4006V10.8625Z" fill="#D9AA52"/>
<path d="M18.8888 13.4006H21.1666L21.1666 15.9387H18.8888V13.4006Z" fill="#D9AA52"/>
<path d="M16.6113 15.9387H18.8888L18.8889 18.4768H16.6111L16.6113 15.9387Z" fill="#D9AA52"/>
<path d="M14.3335 18.4768L16.6111 18.4768V21.0149L14.3334 21.0149L14.3335 18.4768Z" fill="#D9AA52"/>
<path d="M12.0556 18.4768L14.3335 18.4768L14.3334 21.0149H12.0556V18.4768Z" fill="#D9AA52"/>
<path d="M7.50013 18.4768L9.77777 18.4768V21.0149H7.50013V18.4768Z" fill="#D9AA52"/>
<path d="M2.94452 15.9387L5.22236 15.9387L5.22244 18.4768L2.94452 18.4768V15.9387Z" fill="#D9AA52"/>
<path d="M2.94467 10.8625H5.22244V13.4006H2.94452L2.94467 10.8625Z" fill="#D9AA52"/>
<path d="M7.5 13.4006H9.77777V15.9387L7.50013 15.9387L7.5 13.4006Z" fill="#D9AA52"/>
<path d="M7.5 10.8625H9.77777V13.4006H7.5V10.8625Z" fill="#D9AA52"/>
<path d="M9.77777 10.8625H12.0555V13.4006L9.77777 13.4006V10.8625Z" fill="#D9AA52"/>
<path d="M9.77777 13.4006L12.0555 13.4006V15.9387H9.77777V13.4006Z" fill="#D9AA52"/>
<path d="M7.50013 15.9387L9.77777 15.9387V18.4768L7.50013 18.4768V15.9387Z" fill="#D9AA52"/>
<path d="M7.50013 8.32445H9.77777V10.8625H7.5L7.50013 8.32445Z" fill="#D9AA52"/>
<path d="M9.77777 8.32445H12.0555V10.8625H9.77777V8.32445Z" fill="#D9AA52"/>
<path d="M12.0555 8.32445L14.3334 8.32443V10.8625L12.0555 10.8625V8.32445Z" fill="#D9AA52"/>
<path d="M12.0555 10.8625L14.3334 10.8625V13.4006H12.0555V10.8625Z" fill="#D9AA52"/>
<path d="M9.77777 18.4768H12.0556V21.0149H9.77777V18.4768Z" fill="#D9AA52"/>
<path d="M9.77777 15.9387H12.0555L12.0556 18.4768H9.77777V15.9387Z" fill="#D9AA52"/>
<path d="M12.0555 15.9387L14.3335 15.9387V18.4768L12.0556 18.4768L12.0555 15.9387Z" fill="#D9AA52"/>
<path d="M12.0555 13.4006H14.3334L14.3335 15.9387L12.0555 15.9387V13.4006Z" fill="#D9AA52"/>
<path d="M14.3334 13.4006L16.6113 13.4006V15.9387H14.3335L14.3334 13.4006Z" fill="#D9AA52"/>
<path d="M16.6113 13.4006H18.8888V15.9387H16.6113V13.4006Z" fill="#D9AA52"/>
<path d="M16.6111 10.8625H18.8889L18.8888 13.4006H16.6113L16.6111 10.8625Z" fill="#D9AA52"/>
<path d="M14.3334 10.8625L16.6111 10.8625L16.6113 13.4006L14.3334 13.4006V10.8625Z" fill="#D9AA52"/>
<path d="M14.3334 8.32443L16.6111 8.32445V10.8625L14.3334 10.8625V8.32443Z" fill="#D9AA52"/>
<path d="M14.3334 5.78635H16.6113L16.6111 8.32445L14.3334 8.32443V5.78635Z" fill="#D9AA52"/>
<path d="M12.0556 5.78635H14.3334V8.32443L12.0555 8.32445L12.0556 5.78635Z" fill="#D9AA52"/>
<path d="M16.6111 3.24824H18.8888V5.78635H16.6113L16.6111 3.24824Z" fill="#D9AA52"/>
<path d="M18.8888 5.78635H21.1666V8.32443L18.8889 8.32445L18.8888 5.78635Z" fill="#D9AA52"/>
<path d="M21.1666 5.78635H23.4445V8.32445L21.1666 8.32443V5.78635Z" fill="#D9AA52"/>
<path d="M16.6111 8.32445H18.8889V10.8625H16.6111V8.32445Z" fill="#D9AA52"/>
<path d="M18.8889 8.32445L21.1666 8.32443V10.8625L18.8889 10.8625V8.32445Z" fill="#D9AA52"/>
<path d="M18.8889 10.8625L21.1666 10.8625V13.4006H18.8888L18.8889 10.8625Z" fill="#D9AA52"/>
<path d="M5.22244 13.4006L7.5 13.4006L7.50013 15.9387H5.22236L5.22244 13.4006Z" fill="#D9AA52"/>
<path d="M2.94452 13.4006H5.22244L5.22236 15.9387L2.94452 15.9387V13.4006Z" fill="#D9AA52"/>
<path d="M5.22236 8.32445H7.50013L7.5 10.8625L5.22244 10.8625L5.22236 8.32445Z" fill="#D9AA52"/>
<path d="M5.22244 10.8625L7.5 10.8625V13.4006L5.22244 13.4006V10.8625Z" fill="#D9AA52"/>
<path d="M7.50013 23.553L9.77777 23.553V26.0911H7.50013V23.553Z" fill="#D9AA52"/>
<path d="M9.77777 23.553H12.0556L12.0555 26.0911H9.77777V23.553Z" fill="#D9AA52"/>
<path d="M12.0556 23.553H14.3334V26.0911H12.0555L12.0556 23.553Z" fill="#D9AA52"/>
<path d="M14.3334 21.0149L16.6111 21.0149L16.6113 23.553H14.3334V21.0149Z" fill="#D9AA52"/>
<path d="M16.6111 21.0149H18.8889V23.553H16.6113L16.6111 21.0149Z" fill="#D9AA52"/>
<path d="M18.8889 18.4768L21.1666 18.4768V21.0149H18.8889V18.4768Z" fill="#D9AA52"/>
<path d="M21.1666 18.4768H23.4443V21.0149H21.1666V18.4768Z" fill="#D9AA52"/>
<path d="M23.4443 15.9387L25.7222 15.9387V18.4768H23.4443V15.9387Z" fill="#D9AA52"/>
<path d="M25.7222 13.4006L28.0001 13.4006V15.9387H25.7222V13.4006Z" fill="#D9AA52"/>
<path d="M25.7222 10.8625H28.0001V13.4006L25.7222 13.4006V10.8625Z" fill="#D9AA52"/>
<path d="M25.7222 8.32445L28.0001 8.32443V10.8625H25.7222V8.32445Z" fill="#D9AA52"/>
<path d="M25.7222 5.78635L28.0001 5.78635V8.32443L25.7222 8.32445V5.78635Z" fill="#D9AA52"/>
</g>
<defs>
<clipPath id="clip0_11_2452">
<rect width="28" height="27" fill="white"/>
</clipPath>
</defs>
</svg>
