<svg width="28" height="26" viewBox="0 0 28 26" fill="none" xmlns="http://www.w3.org/2000/svg">
<g clip-path="url(#clip0_11_2544)">
<path d="M0.710205 7.03261H2.65558V9.1401H0.710205V7.03261Z" fill="#DB823E"/>
<path d="M0.710205 9.1401H2.65558V11.2476H0.710205V9.1401Z" fill="#8C4B2B"/>
<path d="M8.4917 11.2476H10.4371V13.3551H8.4917V11.2476Z" fill="#8C4B2B"/>
<path d="M12.3824 15.4626H14.3278V17.57H12.3824V15.4626Z" fill="#8C4B2B"/>
<path d="M8.4917 2.81762H10.4371V4.92511H8.4917V2.81762Z" fill="#8C4B2B"/>
<path d="M16.2732 0.710144H18.2186V2.81763H16.2732V0.710144Z" fill="#8C4B2B"/>
<path d="M18.2186 7.03261H20.1639V9.1401H18.2186V7.03261Z" fill="#8C4B2B"/>
<path d="M12.3824 7.03261H14.3278V9.1401H12.3824V7.03261Z" fill="#8C4B2B"/>
<path d="M24.0547 11.2476H26.0001V13.3551H24.0547V11.2476Z" fill="#8C4B2B"/>
<path d="M2.65558 9.1401L4.60095 9.14009V11.2476H2.65558V9.1401Z" fill="#582F1B"/>
<path d="M6.54633 7.03261H8.4917V9.1401H6.54633V7.03261Z" fill="#582F1B"/>
<path d="M8.4917 13.3551H10.4371V15.4626H8.4917V13.3551Z" fill="#582F1B"/>
<path d="M6.54633 17.5701H8.4917V19.6775H6.54633V17.5701Z" fill="#582F1B"/>
<path d="M14.3278 15.4626H16.2732V17.57H14.3278V15.4626Z" fill="#582F1B"/>
<path d="M16.2732 19.6775H18.2186V21.785H16.2732V19.6775Z" fill="#582F1B"/>
<path d="M20.1639 15.4626H22.1093V17.57H20.1639V15.4626Z" fill="#582F1B"/>
<path d="M18.2186 9.1401H20.1639V11.2476H18.2186V9.1401Z" fill="#582F1B"/>
<path d="M14.3278 9.1401L16.2732 9.14009V11.2476H14.3278V9.1401Z" fill="#582F1B"/>
<path d="M14.3278 7.03261H16.2732V9.14009L14.3278 9.1401V7.03261Z" fill="#582F1B"/>
<path d="M12.3824 9.1401H14.3278V11.2476H12.3824V9.1401Z" fill="#582F1B"/>
<path d="M10.4371 2.81762H12.3824V4.92511H10.4371V2.81762Z" fill="#582F1B"/>
<path d="M18.2186 0.710144H20.1639V2.81763H18.2186V0.710144Z" fill="#582F1B"/>
<path d="M24.0547 4.92513H26.0001V7.03262H24.0547V4.92513Z" fill="#582F1B"/>
<path d="M0.710205 11.2476H2.65558V13.3551H0.710205V11.2476Z" fill="#DB823E"/>
<path d="M0.710205 13.3551H2.65558V15.4626H0.710205V13.3551Z" fill="#DB823E"/>
<path d="M2.65558 15.4626L4.60095 15.4626V17.57H2.65558V15.4626Z" fill="#DB823E"/>
<path d="M4.60095 15.4626H6.54633V17.5701L4.60095 17.57V15.4626Z" fill="#DB823E"/>
<path d="M4.60095 13.3551H6.54633V15.4626H4.60095V13.3551Z" fill="#DB823E"/>
<path d="M4.60095 17.57L6.54633 17.5701V19.6775H4.60095V17.57Z" fill="#DB823E"/>
<path d="M6.54633 15.4626L8.4917 15.4626V17.5701H6.54633V15.4626Z" fill="#DB823E"/>
<path d="M8.4917 19.6775L10.4371 19.6775V21.785H8.4917V19.6775Z" fill="#DB823E"/>
<path d="M10.4371 19.6775H12.3824V21.785H10.4371V19.6775Z" fill="#DB823E"/>
<path d="M12.3824 19.6775H14.3278V21.785H12.3824V19.6775Z" fill="#DB823E"/>
<path d="M14.3278 19.6775H16.2732V21.785H14.3278V19.6775Z" fill="#DB823E"/>
<path d="M18.2186 19.6775H20.1639V21.785H18.2186V19.6775Z" fill="#DB823E"/>
<path d="M22.1093 17.57L24.0547 17.5701V19.6775H22.1093V17.57Z" fill="#DB823E"/>
<path d="M24.0547 15.4626H26.0001V17.57L24.0547 17.5701V15.4626Z" fill="#DB823E"/>
<path d="M26.0001 13.3551L27.9454 13.3551V15.4626L26.0001 15.4626V13.3551Z" fill="#DB823E"/>
<path d="M26.0001 11.2476H27.9454V13.3551L26.0001 13.3551V11.2476Z" fill="#DB823E"/>
<path d="M26.0001 9.14009H27.9454V11.2476H26.0001V9.14009Z" fill="#DB823E"/>
<path d="M26.0001 7.03262L27.9454 7.03261V9.14009H26.0001V7.03262Z" fill="#DB823E"/>
<path d="M22.1093 7.03261L24.0547 7.03262V9.1401H22.1093V7.03261Z" fill="#DB823E"/>
<path d="M22.1093 4.92513H24.0547V7.03262L22.1093 7.03261V4.92513Z" fill="#DB823E"/>
<path d="M22.1093 2.81762H24.0547V4.92513H22.1093V2.81762Z" fill="#DB823E"/>
<path d="M20.1639 2.81763L22.1093 2.81762V4.92513L20.1639 4.92511V2.81763Z" fill="#DB823E"/>
<path d="M18.2186 2.81763H20.1639V4.92511H18.2186V2.81763Z" fill="#DB823E"/>
<path d="M16.2732 2.81763H18.2186V4.92511H16.2732V2.81763Z" fill="#DB823E"/>
<path d="M16.2732 4.92511H18.2186V7.03261H16.2732V4.92511Z" fill="#DB823E"/>
<path d="M14.3278 2.81762L16.2732 2.81763V4.92511H14.3278V2.81762Z" fill="#DB823E"/>
<path d="M12.3824 2.81762H14.3278V4.92511H12.3824V2.81762Z" fill="#DB823E"/>
<path d="M12.3824 0.710144H14.3278V2.81762H12.3824V0.710144Z" fill="#DB823E"/>
<path d="M14.3278 0.710144H16.2732V2.81763L14.3278 2.81762V0.710144Z" fill="#DB823E"/>
<path d="M10.4371 0.710144H12.3824V2.81762H10.4371V0.710144Z" fill="#DB823E"/>
<path d="M8.4917 0.710144H10.4371V2.81762H8.4917V0.710144Z" fill="#DB823E"/>
<path d="M6.54633 2.81762H8.4917V4.92511H6.54633V2.81762Z" fill="#DB823E"/>
<path d="M4.60095 2.81762H6.54633V4.92511H4.60095V2.81762Z" fill="#DB823E"/>
<path d="M4.60095 4.92511H6.54633V7.03261L4.60095 7.03262V4.92511Z" fill="#DB823E"/>
<path d="M2.65558 4.92513L4.60095 4.92511V7.03262L2.65558 7.03261V4.92513Z" fill="#DB823E"/>
<path d="M2.65558 7.03261L4.60095 7.03262V9.14009L2.65558 9.1401V7.03261Z" fill="#E79043"/>
<path d="M4.60095 7.03262L6.54633 7.03261V9.1401L4.60095 9.14009V7.03262Z" fill="#E79043"/>
<path d="M6.54633 4.92511H8.4917V7.03261H6.54633V4.92511Z" fill="#E79043"/>
<path d="M8.4917 4.92511H10.4371V7.03262L8.4917 7.03261V4.92511Z" fill="#E79043"/>
<path d="M10.4371 4.92511H12.3824V7.03261L10.4371 7.03262V4.92511Z" fill="#E79043"/>
<path d="M12.3824 4.92511H14.3278V7.03261H12.3824V4.92511Z" fill="#E79043"/>
<path d="M14.3278 4.92511H16.2732V7.03261H14.3278V4.92511Z" fill="#E79043"/>
<path d="M18.2186 4.92511H20.1639V7.03261H18.2186V4.92511Z" fill="#E79043"/>
<path d="M20.1639 4.92511L22.1093 4.92513V7.03261H20.1639V4.92511Z" fill="#E79043"/>
<path d="M20.1639 7.03261H22.1093V9.1401H20.1639V7.03261Z" fill="#E79043"/>
<path d="M20.1639 9.1401H22.1093V11.2476H20.1639V9.1401Z" fill="#E79043"/>
<path d="M20.1639 11.2476H22.1093V13.3551H20.1639V11.2476Z" fill="#E79043"/>
<path d="M20.1639 13.3551H22.1093V15.4626H20.1639V13.3551Z" fill="#E79043"/>
<path d="M18.2186 15.4626H20.1639V17.57H18.2186V15.4626Z" fill="#E79043"/>
<path d="M16.2732 15.4626H18.2186V17.57H16.2732V15.4626Z" fill="#E79043"/>
<path d="M16.2732 17.57H18.2186V19.6775H16.2732V17.57Z" fill="#E79043"/>
<path d="M14.3278 17.57H16.2732V19.6775H14.3278V17.57Z" fill="#E79043"/>
<path d="M12.3824 17.57H14.3278V19.6775H12.3824V17.57Z" fill="#E79043"/>
<path d="M10.4371 17.5701L12.3824 17.57V19.6775H10.4371V17.5701Z" fill="#E79043"/>
<path d="M8.4917 17.5701H10.4371V19.6775L8.4917 19.6775V17.5701Z" fill="#E79043"/>
<path d="M8.4917 15.4626H10.4371V17.5701H8.4917V15.4626Z" fill="#E79043"/>
<path d="M6.54633 13.3551L8.4917 13.3551V15.4626L6.54633 15.4626V13.3551Z" fill="#E79043"/>
<path d="M6.54633 11.2476H8.4917V13.3551L6.54633 13.3551V11.2476Z" fill="#E79043"/>
<path d="M6.54633 9.1401H8.4917V11.2476H6.54633V9.1401Z" fill="#E79043"/>
<path d="M8.4917 7.03261L10.4371 7.03262V9.1401H8.4917V7.03261Z" fill="#E79043"/>
<path d="M10.4371 7.03262L12.3824 7.03261V9.1401H10.4371V7.03262Z" fill="#E79043"/>
<path d="M4.60095 11.2476L6.54633 11.2476V13.3551H4.60095V11.2476Z" fill="#E79043"/>
<path d="M2.65558 11.2476H4.60095V13.3551L2.65558 13.3551V11.2476Z" fill="#E79043"/>
<path d="M2.65558 13.3551L4.60095 13.3551V15.4626L2.65558 15.4626V13.3551Z" fill="#E79043"/>
<path d="M10.4371 11.2476L12.3824 11.2476V13.3551H10.4371V11.2476Z" fill="#E79043"/>
<path d="M10.4371 13.3551H12.3824V15.4626L10.4371 15.4626V13.3551Z" fill="#E79043"/>
<path d="M12.3824 13.3551L14.3278 13.3551V15.4626H12.3824V13.3551Z" fill="#E79043"/>
<path d="M14.3278 13.3551H16.2732V15.4626H14.3278V13.3551Z" fill="#E79043"/>
<path d="M14.3278 11.2476H16.2732V13.3551H14.3278V11.2476Z" fill="#E79043"/>
<path d="M16.2732 11.2476H18.2186V13.3551L16.2732 13.3551V11.2476Z" fill="#E79043"/>
<path d="M16.2732 9.14009L18.2186 9.1401V11.2476H16.2732V9.14009Z" fill="#E79043"/>
<path d="M16.2732 7.03261H18.2186V9.1401L16.2732 9.14009V7.03261Z" fill="#E79043"/>
<path d="M24.0547 7.03262H26.0001V9.14009L24.0547 9.1401V7.03262Z" fill="#E79043"/>
<path d="M24.0547 9.1401L26.0001 9.14009V11.2476H24.0547V9.1401Z" fill="#E79043"/>
<path d="M22.1093 9.1401H24.0547V11.2476L22.1093 11.2476V9.1401Z" fill="#E79043"/>
<path d="M22.1093 11.2476L24.0547 11.2476V13.3551H22.1093V11.2476Z" fill="#E79043"/>
<path d="M24.0547 13.3551H26.0001V15.4626H24.0547V13.3551Z" fill="#E79043"/>
<path d="M22.1093 15.4626H24.0547V17.5701L22.1093 17.57V15.4626Z" fill="#E79043"/>
<path d="M20.1639 17.57H22.1093V19.6775L20.1639 19.6775V17.57Z" fill="#E79043"/>
<path d="M18.2186 17.57H20.1639V19.6775H18.2186V17.57Z" fill="#E79043"/>
<path d="M4.60095 9.14009L6.54633 9.1401V11.2476L4.60095 11.2476V9.14009Z" fill="#DB823E"/>
<path d="M8.4917 9.1401H10.4371V11.2476H8.4917V9.1401Z" fill="#DB823E"/>
<path d="M10.4371 9.1401H12.3824V11.2476L10.4371 11.2476V9.1401Z" fill="#DB823E"/>
<path d="M12.3824 11.2476H14.3278V13.3551L12.3824 13.3551V11.2476Z" fill="#DB823E"/>
<path d="M18.2186 11.2476H20.1639V13.3551H18.2186V11.2476Z" fill="#DB823E"/>
<path d="M18.2186 13.3551H20.1639V15.4626H18.2186V13.3551Z" fill="#DB823E"/>
<path d="M16.2732 13.3551L18.2186 13.3551V15.4626H16.2732V13.3551Z" fill="#DB823E"/>
<path d="M22.1093 13.3551H24.0547V15.4626H22.1093V13.3551Z" fill="#DB823E"/>
<path d="M10.4371 15.4626L12.3824 15.4626V17.57L10.4371 17.5701V15.4626Z" fill="#DB823E"/>
<path d="M0.710205 15.4626H2.65558V17.57H0.710205V15.4626Z" fill="#B97237"/>
<path d="M2.65558 17.57H4.60095V19.6775H2.65558V17.57Z" fill="#B97237"/>
<path d="M4.60095 19.6775H6.54633V21.785H4.60095V19.6775Z" fill="#B97237"/>
<path d="M6.54633 19.6775H8.4917V21.785H6.54633V19.6775Z" fill="#B97237"/>
<path d="M8.4917 21.785H10.4371V23.8925H8.4917V21.785Z" fill="#B97237"/>
<path d="M10.4371 21.785H12.3824V23.8925H10.4371V21.785Z" fill="#B97237"/>
<path d="M12.3824 21.785H14.3278V23.8925H12.3824V21.785Z" fill="#B97237"/>
<path d="M14.3278 21.785H16.2732V23.8925H14.3278V21.785Z" fill="#B97237"/>
<path d="M16.2732 21.785H18.2186V23.8925H16.2732V21.785Z" fill="#B97237"/>
<path d="M18.2186 21.785H20.1639V23.8925H18.2186V21.785Z" fill="#B97237"/>
<path d="M20.1639 19.6775L22.1093 19.6775V21.785H20.1639V19.6775Z" fill="#B97237"/>
<path d="M22.1093 19.6775H24.0547V21.785H22.1093V19.6775Z" fill="#B97237"/>
<path d="M24.0547 17.5701L26.0001 17.57V19.6775H24.0547V17.5701Z" fill="#B97237"/>
<path d="M26.0001 15.4626L27.9454 15.4626V17.57H26.0001V15.4626Z" fill="#B97237"/>
<path d="M0.710205 17.57H2.65558V19.6775H0.710205V17.57Z" fill="#452914"/>
<path d="M2.65558 19.6775H4.60095V21.785H2.65558V19.6775Z" fill="#452914"/>
<path d="M4.60095 21.785H6.54633V23.8925H4.60095V21.785Z" fill="#452914"/>
<path d="M6.54633 21.785H8.4917V23.8925H6.54633V21.785Z" fill="#452914"/>
<path d="M8.4917 23.8925H10.4371V26H8.4917V23.8925Z" fill="#452914"/>
<path d="M10.4371 23.8925H12.3824V26H10.4371V23.8925Z" fill="#452914"/>
<path d="M12.3824 23.8925H14.3278V26H12.3824V23.8925Z" fill="#452914"/>
<path d="M14.3278 23.8925H16.2732V26H14.3278V23.8925Z" fill="#452914"/>
<path d="M16.2732 23.8925H18.2186V26H16.2732V23.8925Z" fill="#452914"/>
<path d="M18.2186 23.8925H20.1639V26H18.2186V23.8925Z" fill="#452914"/>
<path d="M20.1639 21.785H22.1093V23.8925H20.1639V21.785Z" fill="#452914"/>
<path d="M22.1093 21.785H24.0547V23.8925H22.1093V21.785Z" fill="#452914"/>
<path d="M24.0547 19.6775H26.0001V21.785H24.0547V19.6775Z" fill="#452914"/>
<path d="M26.0001 17.57H27.9454V19.6775H26.0001V17.57Z" fill="#452914"/>
</g>
<defs>
<clipPath id="clip0_11_2544">
<rect width="28" height="26" fill="white"/>
</clipPath>
</defs>
</svg>
