<svg width="14" height="13" viewBox="0 0 14 13" fill="none" xmlns="http://www.w3.org/2000/svg">
<g clip-path="url(#clip0_11_3246)">
<path d="M0 3.25H1V4.33333H0V3.25Z" fill="#E79043"/>
<path d="M0 4.33333H1V5.41667H0V4.33333Z" fill="#E79043"/>
<path d="M4 5.41667H5V6.5H4V5.41667Z" fill="#E79043"/>
<path d="M6 7.58333H7V8.66667H6V7.58333Z" fill="#E79043"/>
<path d="M4 1.08333H5V2.16667H4V1.08333Z" fill="#E79043"/>
<path d="M8 0H9V1.08333H8V0Z" fill="#E79043"/>
<path d="M9 3.25H10V4.33333H9V3.25Z" fill="#E79043"/>
<path d="M6 3.25H7V4.33333H6V3.25Z" fill="#E79043"/>
<path d="M12 5.41667H13V6.5H12V5.41667Z" fill="#E79043"/>
<path d="M1 4.33333H2V5.41667H1V4.33333Z" fill="#E79043"/>
<path d="M3 3.25H4V4.33333H3V3.25Z" fill="#E79043"/>
<path d="M4 6.5H5V7.58333H4V6.5Z" fill="#E79043"/>
<path d="M3 8.66667H4V9.75H3V8.66667Z" fill="#E79043"/>
<path d="M7 7.58333H8V8.66667H7V7.58333Z" fill="#E79043"/>
<path d="M8 9.75H9V10.8333H8V9.75Z" fill="#E79043"/>
<path d="M10 7.58333H11V8.66667H10V7.58333Z" fill="#E79043"/>
<path d="M9 4.33333H10V5.41667H9V4.33333Z" fill="#E79043"/>
<path d="M7 4.33333H8V5.41667H7V4.33333Z" fill="#E79043"/>
<path d="M7 3.25H8V4.33333H7V3.25Z" fill="#E79043"/>
<path d="M6 4.33333H7V5.41667H6V4.33333Z" fill="#E79043"/>
<path d="M5 1.08333H6V2.16667H5V1.08333Z" fill="#E79043"/>
<path d="M9 0H10V1.08333H9V0Z" fill="#E79043"/>
<path d="M12 2.16667H13V3.25H12V2.16667Z" fill="#E79043"/>
<path d="M0 5.41667H1V6.5H0V5.41667Z" fill="#E79043"/>
<path d="M0 6.5H1V7.58333H0V6.5Z" fill="#E79043"/>
<path d="M1 7.58333H2V8.66667H1V7.58333Z" fill="#E79043"/>
<path d="M2 7.58333H3V8.66667H2V7.58333Z" fill="#E79043"/>
<path d="M2 6.5H3V7.58333H2V6.5Z" fill="#E79043"/>
<path d="M2 8.66667H3V9.75H2V8.66667Z" fill="#E79043"/>
<path d="M3 7.58333H4V8.66667H3V7.58333Z" fill="#E79043"/>
<path d="M4 9.75H5V10.8333H4V9.75Z" fill="#E79043"/>
<path d="M5 9.75H6V10.8333H5V9.75Z" fill="#E79043"/>
<path d="M6 9.75H7V10.8333H6V9.75Z" fill="#E79043"/>
<path d="M7 9.75H8V10.8333H7V9.75Z" fill="#E79043"/>
<path d="M9 9.75H10V10.8333H9V9.75Z" fill="#E79043"/>
<path d="M11 8.66667H12V9.75H11V8.66667Z" fill="#E79043"/>
<path d="M12 7.58333H13V8.66667H12V7.58333Z" fill="#E79043"/>
<path d="M13 6.5H14V7.58333H13V6.5Z" fill="#E79043"/>
<path d="M13 5.41667H14V6.5H13V5.41667Z" fill="#E79043"/>
<path d="M13 4.33333H14V5.41667H13V4.33333Z" fill="#E79043"/>
<path d="M13 3.25H14V4.33333H13V3.25Z" fill="#E79043"/>
<path d="M11 3.25H12V4.33333H11V3.25Z" fill="#E79043"/>
<path d="M11 2.16667H12V3.25H11V2.16667Z" fill="#E79043"/>
<path d="M11 1.08333H12V2.16667H11V1.08333Z" fill="#E79043"/>
<path d="M10 1.08333H11V2.16667H10V1.08333Z" fill="#E79043"/>
<path d="M9 1.08333H10V2.16667H9V1.08333Z" fill="#E79043"/>
<path d="M8 1.08333H9V2.16667H8V1.08333Z" fill="#E79043"/>
<path d="M8 2.16667H9V3.25H8V2.16667Z" fill="#E79043"/>
<path d="M7 1.08333H8V2.16667H7V1.08333Z" fill="#E79043"/>
<path d="M6 1.08333H7V2.16667H6V1.08333Z" fill="#E79043"/>
<path d="M6 0H7V1.08333H6V0Z" fill="#E79043"/>
<path d="M7 0H8V1.08333H7V0Z" fill="#E79043"/>
<path d="M5 0H6V1.08333H5V0Z" fill="#E79043"/>
<path d="M4 0H5V1.08333H4V0Z" fill="#E79043"/>
<path d="M3 1.08333H4V2.16667H3V1.08333Z" fill="#E79043"/>
<path d="M2 1.08333H3V2.16667H2V1.08333Z" fill="#E79043"/>
<path d="M2 2.16667H3V3.25H2V2.16667Z" fill="#E79043"/>
<path d="M1 2.16667H2V3.25H1V2.16667Z" fill="#E79043"/>
<path d="M1 3.25H2V4.33333H1V3.25Z" fill="#E79043"/>
<path d="M2 3.25H3V4.33333H2V3.25Z" fill="#E79043"/>
<path d="M3 2.16667H4V3.25H3V2.16667Z" fill="#E79043"/>
<path d="M4 2.16667H5V3.25H4V2.16667Z" fill="#E79043"/>
<path d="M5 2.16667H6V3.25H5V2.16667Z" fill="#E79043"/>
<path d="M6 2.16667H7V3.25H6V2.16667Z" fill="#E79043"/>
<path d="M7 2.16667H8V3.25H7V2.16667Z" fill="#E79043"/>
<path d="M9 2.16667H10V3.25H9V2.16667Z" fill="#E79043"/>
<path d="M10 2.16667H11V3.25H10V2.16667Z" fill="#E79043"/>
<path d="M10 3.25H11V4.33333H10V3.25Z" fill="#E79043"/>
<path d="M10 4.33333H11V5.41667H10V4.33333Z" fill="#E79043"/>
<path d="M10 5.41667H11V6.5H10V5.41667Z" fill="#E79043"/>
<path d="M10 6.5H11V7.58333H10V6.5Z" fill="#E79043"/>
<path d="M9 7.58333H10V8.66667H9V7.58333Z" fill="#E79043"/>
<path d="M8 7.58333H9V8.66667H8V7.58333Z" fill="#E79043"/>
<path d="M8 8.66667H9V9.75H8V8.66667Z" fill="#E79043"/>
<path d="M7 8.66667H8V9.75H7V8.66667Z" fill="#E79043"/>
<path d="M6 8.66667H7V9.75H6V8.66667Z" fill="#E79043"/>
<path d="M5 8.66667H6V9.75H5V8.66667Z" fill="#E79043"/>
<path d="M4 8.66667H5V9.75H4V8.66667Z" fill="#E79043"/>
<path d="M4 7.58333H5V8.66667H4V7.58333Z" fill="#E79043"/>
<path d="M3 6.5H4V7.58333H3V6.5Z" fill="#E79043"/>
<path d="M3 5.41667H4V6.5H3V5.41667Z" fill="#E79043"/>
<path d="M3 4.33333H4V5.41667H3V4.33333Z" fill="#E79043"/>
<path d="M4 3.25H5V4.33333H4V3.25Z" fill="#E79043"/>
<path d="M5 3.25H6V4.33333H5V3.25Z" fill="#E79043"/>
<path d="M2 5.41667L3 5.41667V6.5H2V5.41667Z" fill="#E79043"/>
<path d="M1 5.41667H2V6.5H1V5.41667Z" fill="#E79043"/>
<path d="M1 6.5H2V7.58333H1V6.5Z" fill="#E79043"/>
<path d="M5 5.41667L6 5.41667V6.5H5V5.41667Z" fill="#E79043"/>
<path d="M5 6.5H6V7.58333H5V6.5Z" fill="#E79043"/>
<path d="M6 6.5H7V7.58333H6V6.5Z" fill="#E79043"/>
<path d="M7 6.5H8V7.58333H7V6.5Z" fill="#E79043"/>
<path d="M7 5.41667H8V6.5H7V5.41667Z" fill="#E79043"/>
<path d="M8 5.41667H9V6.5H8V5.41667Z" fill="#E79043"/>
<path d="M8 4.33333H9V5.41667H8V4.33333Z" fill="#E79043"/>
<path d="M8 3.25H9V4.33333H8V3.25Z" fill="#E79043"/>
<path d="M12 3.25H13V4.33333H12V3.25Z" fill="#E79043"/>
<path d="M12 4.33333H13V5.41667H12V4.33333Z" fill="#E79043"/>
<path d="M11 4.33333H12V5.41667L11 5.41667V4.33333Z" fill="#E79043"/>
<path d="M11 5.41667L12 5.41667V6.5H11V5.41667Z" fill="#E79043"/>
<path d="M12 6.5H13V7.58333H12V6.5Z" fill="#E79043"/>
<path d="M11 7.58333H12V8.66667H11V7.58333Z" fill="#E79043"/>
<path d="M10 8.66667H11V9.75H10V8.66667Z" fill="#E79043"/>
<path d="M9 8.66667H10V9.75H9V8.66667Z" fill="#E79043"/>
<path d="M2 4.33333H3V5.41667L2 5.41667V4.33333Z" fill="#E79043"/>
<path d="M4 4.33333H5V5.41667H4V4.33333Z" fill="#E79043"/>
<path d="M5 4.33333H6V5.41667L5 5.41667V4.33333Z" fill="#E79043"/>
<path d="M6 5.41667H7V6.5H6V5.41667Z" fill="#E79043"/>
<path d="M9 5.41667H10V6.5H9V5.41667Z" fill="#E79043"/>
<path d="M9 6.5H10V7.58333H9V6.5Z" fill="#E79043"/>
<path d="M8 6.5H9V7.58333H8V6.5Z" fill="#E79043"/>
<path d="M11 6.5H12V7.58333H11V6.5Z" fill="#E79043"/>
<path d="M5 7.58333H6V8.66667H5V7.58333Z" fill="#E79043"/>
<path d="M0 7.58333H1V8.66667H0V7.58333Z" fill="#E79043"/>
<path d="M1 8.66667H2V9.75H1V8.66667Z" fill="#E79043"/>
<path d="M2 9.75H3V10.8333H2V9.75Z" fill="#E79043"/>
<path d="M3 9.75H4V10.8333H3V9.75Z" fill="#E79043"/>
<path d="M4 10.8333H5V11.9167H4V10.8333Z" fill="#E79043"/>
<path d="M5 10.8333H6V11.9167H5V10.8333Z" fill="#E79043"/>
<path d="M6 10.8333H7V11.9167H6V10.8333Z" fill="#E79043"/>
<path d="M7 10.8333H8V11.9167H7V10.8333Z" fill="#E79043"/>
<path d="M8 10.8333H9V11.9167H8V10.8333Z" fill="#E79043"/>
<path d="M9 10.8333H10V11.9167H9V10.8333Z" fill="#E79043"/>
<path d="M10 9.75H11V10.8333H10V9.75Z" fill="#E79043"/>
<path d="M11 9.75H12V10.8333H11V9.75Z" fill="#E79043"/>
<path d="M12 8.66667H13V9.75H12V8.66667Z" fill="#E79043"/>
<path d="M13 7.58333H14V8.66667H13V7.58333Z" fill="#E79043"/>
<path d="M0 8.66667H1V9.75H0V8.66667Z" fill="#E79043"/>
<path d="M1 9.75H2V10.8333H1V9.75Z" fill="#E79043"/>
<path d="M2 10.8333H3V11.9167H2V10.8333Z" fill="#E79043"/>
<path d="M3 10.8333H4V11.9167H3V10.8333Z" fill="#E79043"/>
<path d="M4 11.9167H5V13H4V11.9167Z" fill="#E79043"/>
<path d="M5 11.9167H6V13H5V11.9167Z" fill="#E79043"/>
<path d="M6 11.9167H7V13H6V11.9167Z" fill="#E79043"/>
<path d="M7 11.9167H8V13H7V11.9167Z" fill="#E79043"/>
<path d="M8 11.9167H9V13H8V11.9167Z" fill="#E79043"/>
<path d="M9 11.9167H10V13H9V11.9167Z" fill="#E79043"/>
<path d="M10 10.8333H11V11.9167H10V10.8333Z" fill="#E79043"/>
<path d="M11 10.8333H12V11.9167H11V10.8333Z" fill="#E79043"/>
<path d="M12 9.75H13V10.8333H12V9.75Z" fill="#E79043"/>
<path d="M13 8.66667H14V9.75H13V8.66667Z" fill="#E79043"/>
</g>
<defs>
<clipPath id="clip0_11_3246">
<rect width="14" height="13" fill="white"/>
</clipPath>
</defs>
</svg>
