<svg width="38" height="33" viewBox="0 0 38 33" fill="none" xmlns="http://www.w3.org/2000/svg">
<path d="M0 8.25H2.71428V11H0V8.25Z" fill="#DB823E"/>
<path d="M0 11H2.71428V13.75H0V11Z" fill="#8C4B2B"/>
<path d="M10.8571 13.75H13.5713V16.5H10.8571V13.75Z" fill="#8C4B2B"/>
<path d="M16.2858 19.25H19V22H16.2858V19.25Z" fill="#8C4B2B"/>
<path d="M10.8571 2.74999H13.5713V5.49999H10.8571V2.74999Z" fill="#8C4B2B"/>
<path d="M21.7142 0H24.4285V2.75H21.7142V0Z" fill="#8C4B2B"/>
<path d="M24.4286 8.25H27.1429V11H24.4286V8.25Z" fill="#8C4B2B"/>
<path d="M16.2858 8.25H19V11H16.2858V8.25Z" fill="#8C4B2B"/>
<path d="M32.5713 13.75H35.2856V16.5H32.5713V13.75Z" fill="#8C4B2B"/>
<path d="M2.71428 11L5.42864 11V13.75H2.71428V11Z" fill="#582F1B"/>
<path d="M8.14282 8.25H10.8571V11H8.14282V8.25Z" fill="#582F1B"/>
<path d="M10.8571 16.5H13.5713V19.25H10.8571V16.5Z" fill="#582F1B"/>
<path d="M8.14282 22H10.8571V24.75H8.14282V22Z" fill="#582F1B"/>
<path d="M19 19.25H21.7143V22H19V19.25Z" fill="#582F1B"/>
<path d="M21.7142 24.75H24.4285V27.5H21.7142V24.75Z" fill="#582F1B"/>
<path d="M27.1428 19.25H29.8571V22H27.1428V19.25Z" fill="#582F1B"/>
<path d="M24.4286 11H27.1429V13.75H24.4286V11Z" fill="#582F1B"/>
<path d="M19 11L21.7143 11V13.75H19L19 11Z" fill="#582F1B"/>
<path d="M19 8.25H21.7143V11L19 11V8.25Z" fill="#582F1B"/>
<path d="M16.2858 11H19L19 13.75H16.2858V11Z" fill="#582F1B"/>
<path d="M13.5713 2.74999H16.2857V5.49999H13.5713V2.74999Z" fill="#582F1B"/>
<path d="M24.4285 0H27.1428V2.75H24.4285V0Z" fill="#582F1B"/>
<path d="M32.5713 5.49998H35.2856V8.24998H32.5713V5.49998Z" fill="#582F1B"/>
<path d="M0 13.75H2.71428V16.5H0V13.75Z" fill="#DB823E"/>
<path d="M0 16.5H2.71428V19.25H0V16.5Z" fill="#DB823E"/>
<path d="M2.71428 19.25L5.42864 19.25V22H2.71436L2.71428 19.25Z" fill="#DB823E"/>
<path d="M5.42864 19.25H8.14287L8.14282 22L5.42864 22V19.25Z" fill="#DB823E"/>
<path d="M5.42859 16.5H8.14287V19.25H5.42864L5.42859 16.5Z" fill="#DB823E"/>
<path d="M5.42864 22L8.14282 22V24.75H5.42859L5.42864 22Z" fill="#DB823E"/>
<path d="M8.14287 19.25L10.8571 19.25L10.8571 22H8.14282L8.14287 19.25Z" fill="#DB823E"/>
<path d="M10.8571 24.75L13.5713 24.75V27.5H10.8571L10.8571 24.75Z" fill="#DB823E"/>
<path d="M13.5713 24.75H16.2857V27.5H13.5713V24.75Z" fill="#DB823E"/>
<path d="M16.2857 24.75H19V27.5H16.2857V24.75Z" fill="#DB823E"/>
<path d="M19 24.75H21.7142V27.5H19V24.75Z" fill="#DB823E"/>
<path d="M24.4285 24.75H27.1429V27.5H24.4285V24.75Z" fill="#DB823E"/>
<path d="M29.8571 22L32.5713 22V24.75H29.8571L29.8571 22Z" fill="#DB823E"/>
<path d="M32.5713 19.25H35.2856V22L32.5713 22L32.5713 19.25Z" fill="#DB823E"/>
<path d="M35.2856 16.5L38 16.5V19.25L35.2856 19.25V16.5Z" fill="#DB823E"/>
<path d="M35.2856 13.75H38V16.5L35.2856 16.5V13.75Z" fill="#DB823E"/>
<path d="M35.2858 11H38V13.75H35.2856L35.2858 11Z" fill="#DB823E"/>
<path d="M35.2856 8.24998L38 8.25V11H35.2858L35.2856 8.24998Z" fill="#DB823E"/>
<path d="M29.8571 8.25L32.5713 8.24998L32.5713 11H29.8571V8.25Z" fill="#DB823E"/>
<path d="M29.8571 5.49998H32.5713V8.24998L29.8571 8.25V5.49998Z" fill="#DB823E"/>
<path d="M29.8571 2.74999H32.5713L32.5713 5.49998H29.8571V2.74999Z" fill="#DB823E"/>
<path d="M27.1428 2.75L29.8571 2.74999V5.49998L27.1428 5.49999L27.1428 2.75Z" fill="#DB823E"/>
<path d="M24.4285 2.75H27.1428L27.1428 5.49999H24.4286L24.4285 2.75Z" fill="#DB823E"/>
<path d="M21.7142 2.75H24.4285L24.4286 5.49999H21.7142L21.7142 2.75Z" fill="#DB823E"/>
<path d="M21.7142 5.49999H24.4286V8.25H21.7143L21.7142 5.49999Z" fill="#DB823E"/>
<path d="M19 2.74999L21.7142 2.75L21.7142 5.49999H19V2.74999Z" fill="#DB823E"/>
<path d="M16.2857 2.74999H19V5.49999H16.2857V2.74999Z" fill="#DB823E"/>
<path d="M16.2857 0H19L19 2.74999H16.2857L16.2857 0Z" fill="#DB823E"/>
<path d="M19 0H21.7142V2.75L19 2.74999L19 0Z" fill="#DB823E"/>
<path d="M13.5715 0H16.2857L16.2857 2.74999H13.5713L13.5715 0Z" fill="#DB823E"/>
<path d="M10.8571 0H13.5715L13.5713 2.74999H10.8571L10.8571 0Z" fill="#DB823E"/>
<path d="M8.14282 2.74999H10.8571V5.49999H8.14282V2.74999Z" fill="#DB823E"/>
<path d="M5.42859 2.74999H8.14282V5.49999H5.42859V2.74999Z" fill="#DB823E"/>
<path d="M5.42859 5.49999H8.14282V8.25L5.42859 8.24998V5.49999Z" fill="#DB823E"/>
<path d="M2.71436 5.49998L5.42859 5.49999V8.24998L2.71428 8.25L2.71436 5.49998Z" fill="#DB823E"/>
<path d="M2.71428 8.25L5.42859 8.24998L5.42864 11L2.71428 11V8.25Z" fill="#E79043"/>
<path d="M5.42859 8.24998L8.14282 8.25V11L5.42864 11L5.42859 8.24998Z" fill="#E79043"/>
<path d="M8.14282 5.49999H10.8571L10.8571 8.25H8.14282V5.49999Z" fill="#E79043"/>
<path d="M10.8571 5.49999H13.5713V8.24998L10.8571 8.25L10.8571 5.49999Z" fill="#E79043"/>
<path d="M13.5713 5.49999H16.2857L16.2858 8.25L13.5713 8.24998V5.49999Z" fill="#E79043"/>
<path d="M16.2857 5.49999H19L19 8.25H16.2858L16.2857 5.49999Z" fill="#E79043"/>
<path d="M19 5.49999H21.7142L21.7143 8.25H19L19 5.49999Z" fill="#E79043"/>
<path d="M24.4286 5.49999H27.1428L27.1429 8.25H24.4286V5.49999Z" fill="#E79043"/>
<path d="M27.1428 5.49999L29.8571 5.49998V8.25H27.1429L27.1428 5.49999Z" fill="#E79043"/>
<path d="M27.1429 8.25H29.8571V11H27.1429V8.25Z" fill="#E79043"/>
<path d="M27.1429 11H29.8571L29.8571 13.75H27.1429V11Z" fill="#E79043"/>
<path d="M27.1429 13.75H29.8571V16.5H27.1428L27.1429 13.75Z" fill="#E79043"/>
<path d="M27.1428 16.5H29.8571V19.25H27.1428V16.5Z" fill="#E79043"/>
<path d="M24.4286 19.25H27.1428V22H24.4286V19.25Z" fill="#E79043"/>
<path d="M21.7143 19.25H24.4286V22H21.7143V19.25Z" fill="#E79043"/>
<path d="M21.7143 22H24.4286L24.4285 24.75H21.7142L21.7143 22Z" fill="#E79043"/>
<path d="M19 22H21.7143L21.7142 24.75H19V22Z" fill="#E79043"/>
<path d="M16.2858 22H19V24.75H16.2857L16.2858 22Z" fill="#E79043"/>
<path d="M13.5714 22L16.2858 22L16.2857 24.75H13.5713L13.5714 22Z" fill="#E79043"/>
<path d="M10.8571 22H13.5714L13.5713 24.75L10.8571 24.75V22Z" fill="#E79043"/>
<path d="M10.8571 19.25H13.5713L13.5714 22H10.8571L10.8571 19.25Z" fill="#E79043"/>
<path d="M8.14287 16.5L10.8571 16.5V19.25L8.14287 19.25V16.5Z" fill="#E79043"/>
<path d="M8.14282 13.75H10.8571V16.5L8.14287 16.5L8.14282 13.75Z" fill="#E79043"/>
<path d="M8.14282 11H10.8571L10.8571 13.75H8.14282V11Z" fill="#E79043"/>
<path d="M10.8571 8.25L13.5713 8.24998V11H10.8571V8.25Z" fill="#E79043"/>
<path d="M13.5713 8.24998L16.2858 8.25V11H13.5713V8.24998Z" fill="#E79043"/>
<path d="M5.42864 13.75L8.14282 13.75L8.14287 16.5H5.42859L5.42864 13.75Z" fill="#E79043"/>
<path d="M2.71428 13.75H5.42864L5.42859 16.5L2.71428 16.5V13.75Z" fill="#E79043"/>
<path d="M2.71428 16.5L5.42859 16.5L5.42864 19.25L2.71428 19.25V16.5Z" fill="#E79043"/>
<path d="M13.5713 13.75L16.2858 13.75L16.2857 16.5H13.5713V13.75Z" fill="#E79043"/>
<path d="M13.5713 16.5H16.2857L16.2858 19.25L13.5713 19.25V16.5Z" fill="#E79043"/>
<path d="M16.2857 16.5L19 16.5V19.25H16.2858L16.2857 16.5Z" fill="#E79043"/>
<path d="M19 16.5H21.7143V19.25H19V16.5Z" fill="#E79043"/>
<path d="M19 13.75H21.7143V16.5H19L19 13.75Z" fill="#E79043"/>
<path d="M21.7143 13.75H24.4286L24.4285 16.5L21.7143 16.5V13.75Z" fill="#E79043"/>
<path d="M21.7143 11L24.4286 11V13.75H21.7143V11Z" fill="#E79043"/>
<path d="M21.7143 8.25H24.4286V11L21.7143 11V8.25Z" fill="#E79043"/>
<path d="M32.5713 8.24998H35.2856L35.2858 11L32.5713 11L32.5713 8.24998Z" fill="#E79043"/>
<path d="M32.5713 11L35.2858 11L35.2856 13.75H32.5713L32.5713 11Z" fill="#E79043"/>
<path d="M29.8571 11H32.5713L32.5713 13.75L29.8571 13.75L29.8571 11Z" fill="#E79043"/>
<path d="M29.8571 13.75L32.5713 13.75V16.5H29.8571V13.75Z" fill="#E79043"/>
<path d="M32.5713 16.5H35.2856V19.25H32.5713V16.5Z" fill="#E79043"/>
<path d="M29.8571 19.25H32.5713L32.5713 22L29.8571 22V19.25Z" fill="#E79043"/>
<path d="M27.1428 22H29.8571L29.8571 24.75L27.1429 24.75L27.1428 22Z" fill="#E79043"/>
<path d="M24.4286 22H27.1428L27.1429 24.75H24.4285L24.4286 22Z" fill="#E79043"/>
<path d="M5.42864 11L8.14282 11V13.75L5.42864 13.75V11Z" fill="#DB823E"/>
<path d="M10.8571 11H13.5713V13.75H10.8571L10.8571 11Z" fill="#DB823E"/>
<path d="M13.5713 11H16.2858V13.75L13.5713 13.75V11Z" fill="#DB823E"/>
<path d="M16.2858 13.75H19L19 16.5L16.2857 16.5L16.2858 13.75Z" fill="#DB823E"/>
<path d="M24.4286 13.75H27.1429L27.1428 16.5H24.4285L24.4286 13.75Z" fill="#DB823E"/>
<path d="M24.4285 16.5H27.1428V19.25H24.4286L24.4285 16.5Z" fill="#DB823E"/>
<path d="M21.7143 16.5L24.4285 16.5L24.4286 19.25H21.7143V16.5Z" fill="#DB823E"/>
<path d="M29.8571 16.5H32.5713V19.25H29.8571V16.5Z" fill="#DB823E"/>
<path d="M13.5713 19.25L16.2858 19.25V22L13.5714 22L13.5713 19.25Z" fill="#DB823E"/>
<path d="M0 19.25H2.71428L2.71436 22H0V19.25Z" fill="#B97237"/>
<path d="M2.71436 22H5.42864L5.42859 24.75H2.71436V22Z" fill="#B97237"/>
<path d="M5.42859 24.75H8.14282L8.14287 27.5H5.42859V24.75Z" fill="#B97237"/>
<path d="M8.14282 24.75H10.8571L10.8571 27.5H8.14287L8.14282 24.75Z" fill="#B97237"/>
<path d="M10.8571 27.5H13.5713V30.25H10.8571V27.5Z" fill="#B97237"/>
<path d="M13.5713 27.5H16.2857V30.25H13.5713V27.5Z" fill="#B97237"/>
<path d="M16.2857 27.5H19V30.25H16.2857V27.5Z" fill="#B97237"/>
<path d="M19 27.5H21.7142L21.7143 30.25H19V27.5Z" fill="#B97237"/>
<path d="M21.7142 27.5H24.4285V30.25H21.7143L21.7142 27.5Z" fill="#B97237"/>
<path d="M24.4285 27.5H27.1429V30.25H24.4285V27.5Z" fill="#B97237"/>
<path d="M27.1429 24.75L29.8571 24.75L29.8571 27.5H27.1429V24.75Z" fill="#B97237"/>
<path d="M29.8571 24.75H32.5713V27.5H29.8571L29.8571 24.75Z" fill="#B97237"/>
<path d="M32.5713 22L35.2856 22V24.75H32.5713V22Z" fill="#B97237"/>
<path d="M35.2856 19.25L38 19.25V22H35.2856V19.25Z" fill="#B97237"/>
<path d="M0 22H2.71436V24.75H0V22Z" fill="#452914"/>
<path d="M2.71436 24.75H5.42859V27.5H2.71436V24.75Z" fill="#452914"/>
<path d="M5.42859 27.5H8.14287V30.25H5.42859V27.5Z" fill="#452914"/>
<path d="M8.14287 27.5H10.8571V30.25H8.14287V27.5Z" fill="#452914"/>
<path d="M10.8571 30.25H13.5713V33H10.8571V30.25Z" fill="#452914"/>
<path d="M13.5713 30.25H16.2857V33H13.5713V30.25Z" fill="#452914"/>
<path d="M16.2857 30.25H19V33H16.2857V30.25Z" fill="#452914"/>
<path d="M19 30.25H21.7143V33H19V30.25Z" fill="#452914"/>
<path d="M21.7143 30.25H24.4285V33H21.7143V30.25Z" fill="#452914"/>
<path d="M24.4285 30.25H27.1429V33H24.4285V30.25Z" fill="#452914"/>
<path d="M27.1429 27.5H29.8571V30.25H27.1429V27.5Z" fill="#452914"/>
<path d="M29.8571 27.5H32.5713V30.25H29.8571V27.5Z" fill="#452914"/>
<path d="M32.5713 24.75H35.2856V27.5H32.5713V24.75Z" fill="#452914"/>
<path d="M35.2856 22H38V24.75H35.2856V22Z" fill="#452914"/>
</svg>
