<svg width="14" height="13" viewBox="0 0 14 13" fill="none" xmlns="http://www.w3.org/2000/svg">
<g clip-path="url(#clip0_11_2920)">
<path d="M11.6666 1.3H12.8333V2.6H11.6666V1.3Z" fill="#995500"/>
<path d="M10.4999 0H11.6665L11.6666 1.3L10.4999 1.3V0Z" fill="#995500"/>
<path d="M9.33326 0H10.4999V1.3H9.33326V0Z" fill="#995500"/>
<path d="M8.16665 0H9.33326V1.3H8.16665V0Z" fill="#995500"/>
<path d="M7.00004 0H8.16665V1.3H7.00004V0Z" fill="#995500"/>
<path d="M5.8333 1.3L7.00004 1.3L6.99996 2.6H5.8333V1.3Z" fill="#995500"/>
<path d="M4.66657 1.3H5.8333V2.6H4.66657V1.3Z" fill="#995500"/>
<path d="M3.49996 1.3H4.66657V2.6H3.49996V1.3Z" fill="#995500"/>
<path d="M2.33335 2.6L3.49996 2.6L3.50001 3.9H2.33335V2.6Z" fill="#995500"/>
<path d="M1.16673 3.9L2.33335 3.9L2.33339 5.2H1.16673V3.9Z" fill="#995500"/>
<path d="M0 5.2L1.16673 5.2L1.16666 6.5H0V5.2Z" fill="#995500"/>
<path d="M0 6.5H1.16666V7.8H0V6.5Z" fill="#995500"/>
<path d="M0 7.8H1.16666V9.1H0V7.8Z" fill="#6E3505"/>
<path d="M0 9.1H1.16666V10.4H0V9.1Z" fill="#6E3505"/>
<path d="M1.16666 10.4L2.33339 10.4V11.7H1.16673L1.16666 10.4Z" fill="#6E3505"/>
<path d="M2.33339 11.7L3.50001 11.7V13H2.33335L2.33339 11.7Z" fill="#6E3505"/>
<path d="M2.33339 10.4H3.50001V11.7L2.33339 11.7V10.4Z" fill="#856941"/>
<path d="M11.6666 5.2H12.8333V6.5H11.6666V5.2Z" fill="#856941"/>
<path d="M7.00004 1.3H8.16665L8.1667 2.6H6.99996L7.00004 1.3Z" fill="#9D772E"/>
<path d="M3.49996 2.6H4.66657L4.66662 3.9H3.50001L3.49996 2.6Z" fill="#9D772E"/>
<path d="M8.16665 9.1H9.33331V10.4H8.16665V9.1Z" fill="#9D772E"/>
<path d="M9.33326 7.8H10.4999V9.1L9.33331 9.1L9.33326 7.8Z" fill="#9D772E"/>
<path d="M10.4999 7.8H11.6665V9.1H10.4999V7.8Z" fill="#9D772E"/>
<path d="M10.4999 6.5L11.6666 6.5L11.6665 7.8H10.4999L10.4999 6.5Z" fill="#9D772E"/>
<path d="M11.6666 6.5H12.8333V7.8L11.6665 7.8L11.6666 6.5Z" fill="#9D772E"/>
<path d="M5.8333 10.4H6.99996V11.7H5.8333V10.4Z" fill="#9D772E"/>
<path d="M1.16666 9.1L2.33339 9.1V10.4L1.16666 10.4V9.1Z" fill="#9D772E"/>
<path d="M2.33335 7.8H3.50001V9.1L2.33339 9.1L2.33335 7.8Z" fill="#B18348"/>
<path d="M2.33339 9.1L3.50001 9.1V10.4H2.33339V9.1Z" fill="#B18348"/>
<path d="M3.50001 10.4H4.66662V11.7L3.50001 11.7V10.4Z" fill="#B18348"/>
<path d="M4.66662 10.4H5.8333V11.7H4.66662V10.4Z" fill="#B18348"/>
<path d="M7.00004 7.8H8.1667L8.16665 9.1L7.00004 9.1V7.8Z" fill="#B18348"/>
<path d="M10.4999 1.3L11.6666 1.3V2.6H10.4999V1.3Z" fill="#B18348"/>
<path d="M4.66657 2.6H5.8333L5.83323 3.9H4.66662L4.66657 2.6Z" fill="#B18348"/>
<path d="M9.33326 1.3H10.4999V2.6H9.33326V1.3Z" fill="#C8973A"/>
<path d="M8.1667 2.6H9.33326L9.33331 3.9H8.16665L8.1667 2.6Z" fill="#C8973A"/>
<path d="M11.6666 2.6H12.8333V3.9H11.6666V2.6Z" fill="#C8973A"/>
<path d="M11.6666 3.9H12.8333V5.2H11.6666V3.9Z" fill="#C8973A"/>
<path d="M10.4999 3.9L11.6666 3.9V5.2L10.4999 5.2V3.9Z" fill="#C8973A"/>
<path d="M10.4999 5.2L11.6666 5.2V6.5L10.4999 6.5V5.2Z" fill="#C8973A"/>
<path d="M9.33326 6.5H10.4999L10.4999 7.8H9.33326V6.5Z" fill="#C8973A"/>
<path d="M8.1667 7.8H9.33326L9.33331 9.1H8.16665L8.1667 7.8Z" fill="#C8973A"/>
<path d="M7.00004 9.1L8.16665 9.1V10.4L6.99996 10.4L7.00004 9.1Z" fill="#C8973A"/>
<path d="M5.8333 9.1L7.00004 9.1L6.99996 10.4H5.8333V9.1Z" fill="#C8973A"/>
<path d="M3.50001 9.1L4.66662 9.1V10.4H3.50001V9.1Z" fill="#C8973A"/>
<path d="M1.16666 7.8L2.33335 7.8L2.33339 9.1L1.16666 9.1V7.8Z" fill="#C8973A"/>
<path d="M1.16673 5.2H2.33339V6.5H1.16666L1.16673 5.2Z" fill="#C8973A"/>
<path d="M3.49996 6.5H4.66662V7.8L3.50001 7.8L3.49996 6.5Z" fill="#F8D186"/>
<path d="M3.49996 5.2H4.66662V6.5H3.49996V5.2Z" fill="#F8D186"/>
<path d="M4.66662 5.2H5.83323V6.5L4.66662 6.5V5.2Z" fill="#F8D186"/>
<path d="M4.66662 6.5L5.83323 6.5V7.8H4.66662V6.5Z" fill="#F8D186"/>
<path d="M3.50001 7.8L4.66662 7.8V9.1L3.50001 9.1V7.8Z" fill="#E9BA62"/>
<path d="M3.50001 3.9H4.66662V5.2H3.49996L3.50001 3.9Z" fill="#E9BA62"/>
<path d="M4.66662 3.9H5.83323V5.2H4.66662V3.9Z" fill="#E9BA62"/>
<path d="M5.83323 3.9L6.99996 3.9V5.2L5.83323 5.2V3.9Z" fill="#E9BA62"/>
<path d="M5.83323 5.2L6.99996 5.2V6.5H5.83323V5.2Z" fill="#E9BA62"/>
<path d="M4.66662 9.1H5.8333V10.4H4.66662V9.1Z" fill="#D9AA52"/>
<path d="M4.66662 7.8H5.83323L5.8333 9.1H4.66662V7.8Z" fill="#D9AA52"/>
<path d="M5.83323 7.8L7.00004 7.8V9.1L5.8333 9.1L5.83323 7.8Z" fill="#D9AA52"/>
<path d="M5.83323 6.5H6.99996L7.00004 7.8L5.83323 7.8V6.5Z" fill="#D9AA52"/>
<path d="M6.99996 6.5L8.1667 6.5V7.8H7.00004L6.99996 6.5Z" fill="#D9AA52"/>
<path d="M8.1667 6.5H9.33326V7.8H8.1667V6.5Z" fill="#D9AA52"/>
<path d="M8.16665 5.2H9.33331L9.33326 6.5H8.1667L8.16665 5.2Z" fill="#D9AA52"/>
<path d="M6.99996 5.2L8.16665 5.2L8.1667 6.5L6.99996 6.5V5.2Z" fill="#D9AA52"/>
<path d="M6.99996 3.9L8.16665 3.9V5.2L6.99996 5.2V3.9Z" fill="#D9AA52"/>
<path d="M6.99996 2.6H8.1667L8.16665 3.9L6.99996 3.9V2.6Z" fill="#D9AA52"/>
<path d="M5.8333 2.6H6.99996V3.9L5.83323 3.9L5.8333 2.6Z" fill="#D9AA52"/>
<path d="M8.16665 1.3H9.33326V2.6H8.1667L8.16665 1.3Z" fill="#D9AA52"/>
<path d="M9.33326 2.6H10.4999V3.9L9.33331 3.9L9.33326 2.6Z" fill="#D9AA52"/>
<path d="M10.4999 2.6H11.6666V3.9L10.4999 3.9V2.6Z" fill="#D9AA52"/>
<path d="M8.16665 3.9H9.33331V5.2H8.16665V3.9Z" fill="#D9AA52"/>
<path d="M9.33331 3.9L10.4999 3.9V5.2L9.33331 5.2V3.9Z" fill="#D9AA52"/>
<path d="M9.33331 5.2L10.4999 5.2V6.5H9.33326L9.33331 5.2Z" fill="#D9AA52"/>
<path d="M2.33339 6.5L3.49996 6.5L3.50001 7.8H2.33335L2.33339 6.5Z" fill="#E9BA62"/>
<path d="M1.16666 6.5H2.33339L2.33335 7.8L1.16666 7.8V6.5Z" fill="#DBA952"/>
<path d="M2.33335 3.9H3.50001L3.49996 5.2L2.33339 5.2L2.33335 3.9Z" fill="#DBA952"/>
<path d="M2.33339 5.2L3.49996 5.2V6.5L2.33339 6.5V5.2Z" fill="#E9BA62"/>
<path d="M3.50001 11.7L4.66662 11.7V13H3.50001V11.7Z" fill="#6E3505"/>
<path d="M4.66662 11.7H5.8333L5.83323 13H4.66662V11.7Z" fill="#6E3505"/>
<path d="M5.8333 11.7H6.99996V13H5.83323L5.8333 11.7Z" fill="#6E3505"/>
<path d="M6.99996 10.4L8.16665 10.4L8.1667 11.7H6.99996V10.4Z" fill="#6E3505"/>
<path d="M8.16665 10.4H9.33331V11.7H8.1667L8.16665 10.4Z" fill="#6E3505"/>
<path d="M9.33331 9.1L10.4999 9.1V10.4H9.33331V9.1Z" fill="#6E3505"/>
<path d="M10.4999 9.1H11.6665V10.4H10.4999V9.1Z" fill="#6E3505"/>
<path d="M11.6665 7.8L12.8333 7.8V9.1H11.6665V7.8Z" fill="#6E3505"/>
<path d="M12.8333 6.5L14 6.5V7.8H12.8333V6.5Z" fill="#6E3505"/>
<path d="M12.8333 5.2H14V6.5L12.8333 6.5V5.2Z" fill="#6E3505"/>
<path d="M12.8333 3.9L14 3.9V5.2H12.8333V3.9Z" fill="#6E3505"/>
<path d="M12.8333 2.6L14 2.6V3.9L12.8333 3.9V2.6Z" fill="#995500"/>
</g>
<defs>
<clipPath id="clip0_11_2920">
<rect width="14" height="13" fill="white"/>
</clipPath>
</defs>
</svg>
