<svg width="38" height="32" viewBox="0 0 38 32" fill="none" xmlns="http://www.w3.org/2000/svg">
<path d="M31.6667 3.16667H34.8333V6.33333H31.6667V3.16667Z" fill="#995500"/>
<path d="M28.5 0H31.6667V3.16667H28.5V0Z" fill="#995500"/>
<path d="M25.3333 0H28.5V3.16667H25.3333V0Z" fill="#995500"/>
<path d="M22.1667 0H25.3333V3.16667H22.1667V0Z" fill="#995500"/>
<path d="M19 0H22.1667V3.16667H19V0Z" fill="#995500"/>
<path d="M15.8333 3.16667H19V6.33333H15.8333V3.16667Z" fill="#995500"/>
<path d="M12.6667 3.16667H15.8333V6.33333H12.6667V3.16667Z" fill="#995500"/>
<path d="M9.5 3.16667H12.6667V6.33333H9.5V3.16667Z" fill="#995500"/>
<path d="M6.33333 6.33333H9.5V9.5H6.33333V6.33333Z" fill="#995500"/>
<path d="M3.16667 9.5H6.33333V12.6667H3.16667V9.5Z" fill="#995500"/>
<path d="M0 12.6667H3.16667V15.8333H0V12.6667Z" fill="#995500"/>
<path d="M0 15.8333H3.16667V19H0V15.8333Z" fill="#995500"/>
<path d="M0 19H3.16667V22.1667H0V19Z" fill="#6E3505"/>
<path d="M0 22.1667H3.16667V25.3333H0V22.1667Z" fill="#6E3505"/>
<path d="M3.16667 25.3333L6.33333 25.3333V28.5H3.16667V25.3333Z" fill="#6E3505"/>
<path d="M6.33333 28.5H9.5V31.6667H6.33333V28.5Z" fill="#6E3505"/>
<path d="M6.33333 25.3333H9.5V28.5H6.33333V25.3333Z" fill="#856941"/>
<path d="M31.6667 12.6667H34.8333V15.8333H31.6667V12.6667Z" fill="#856941"/>
<path d="M19 3.16667H22.1667V6.33333H19V3.16667Z" fill="#9D772E"/>
<path d="M9.5 6.33333H12.6667V9.5H9.5V6.33333Z" fill="#9D772E"/>
<path d="M22.1667 22.1667H25.3333V25.3333H22.1667V22.1667Z" fill="#9D772E"/>
<path d="M25.3333 19H28.5V22.1667H25.3333L25.3333 19Z" fill="#9D772E"/>
<path d="M28.5 19H31.6667V22.1667H28.5V19Z" fill="#9D772E"/>
<path d="M28.5 15.8333L31.6667 15.8333V19H28.5V15.8333Z" fill="#9D772E"/>
<path d="M31.6667 15.8333H34.8333V19H31.6667V15.8333Z" fill="#9D772E"/>
<path d="M15.8333 25.3333H19V28.5H15.8333V25.3333Z" fill="#9D772E"/>
<path d="M3.16667 22.1667H6.33333V25.3333L3.16667 25.3333V22.1667Z" fill="#9D772E"/>
<path d="M6.33333 19H9.5V22.1667H6.33333V19Z" fill="#B18348"/>
<path d="M6.33333 22.1667H9.5V25.3333H6.33333V22.1667Z" fill="#B18348"/>
<path d="M9.5 25.3333H12.6667V28.5H9.5V25.3333Z" fill="#B18348"/>
<path d="M12.6667 25.3333H15.8333V28.5H12.6667V25.3333Z" fill="#B18348"/>
<path d="M19 19H22.1667V22.1667H19V19Z" fill="#B18348"/>
<path d="M28.5 3.16667H31.6667V6.33333H28.5V3.16667Z" fill="#B18348"/>
<path d="M12.6667 6.33333H15.8333L15.8333 9.5H12.6667V6.33333Z" fill="#B18348"/>
<path d="M25.3333 3.16667H28.5V6.33333H25.3333V3.16667Z" fill="#C8973A"/>
<path d="M22.1667 6.33333H25.3333L25.3333 9.5H22.1667V6.33333Z" fill="#C8973A"/>
<path d="M31.6667 6.33333H34.8333V9.5H31.6667V6.33333Z" fill="#C8973A"/>
<path d="M31.6667 9.5H34.8333V12.6667H31.6667V9.5Z" fill="#C8973A"/>
<path d="M28.5 9.5H31.6667V12.6667H28.5V9.5Z" fill="#C8973A"/>
<path d="M28.5 12.6667H31.6667V15.8333L28.5 15.8333V12.6667Z" fill="#C8973A"/>
<path d="M25.3333 15.8333H28.5V19H25.3333V15.8333Z" fill="#C8973A"/>
<path d="M22.1667 19H25.3333L25.3333 22.1667H22.1667V19Z" fill="#C8973A"/>
<path d="M19 22.1667H22.1667V25.3333L19 25.3333V22.1667Z" fill="#C8973A"/>
<path d="M15.8333 22.1667H19V25.3333H15.8333V22.1667Z" fill="#C8973A"/>
<path d="M9.5 22.1667H12.6667V25.3333H9.5V22.1667Z" fill="#C8973A"/>
<path d="M3.16667 19H6.33333V22.1667H3.16667V19Z" fill="#C8973A"/>
<path d="M3.16667 12.6667H6.33333V15.8333H3.16667V12.6667Z" fill="#C8973A"/>
<path d="M9.5 15.8333H12.6667V19H9.5V15.8333Z" fill="#F8D186"/>
<path d="M9.5 12.6667H12.6667V15.8333H9.5V12.6667Z" fill="#F8D186"/>
<path d="M12.6667 12.6667H15.8333V15.8333L12.6667 15.8333V12.6667Z" fill="#F8D186"/>
<path d="M12.6667 15.8333L15.8333 15.8333V19H12.6667V15.8333Z" fill="#F8D186"/>
<path d="M9.5 19H12.6667V22.1667H9.5V19Z" fill="#E9BA62"/>
<path d="M9.5 9.5H12.6667V12.6667H9.5V9.5Z" fill="#E9BA62"/>
<path d="M12.6667 9.5H15.8333V12.6667H12.6667V9.5Z" fill="#E9BA62"/>
<path d="M15.8333 9.5H19V12.6667H15.8333V9.5Z" fill="#E9BA62"/>
<path d="M15.8333 12.6667H19V15.8333H15.8333V12.6667Z" fill="#E9BA62"/>
<path d="M12.6667 22.1667H15.8333V25.3333H12.6667V22.1667Z" fill="#D9AA52"/>
<path d="M12.6667 19H15.8333L15.8333 22.1667H12.6667V19Z" fill="#D9AA52"/>
<path d="M15.8333 19H19V22.1667H15.8333L15.8333 19Z" fill="#D9AA52"/>
<path d="M15.8333 15.8333H19V19H15.8333V15.8333Z" fill="#D9AA52"/>
<path d="M19 15.8333L22.1667 15.8333V19H19V15.8333Z" fill="#D9AA52"/>
<path d="M22.1667 15.8333H25.3333V19H22.1667V15.8333Z" fill="#D9AA52"/>
<path d="M22.1667 12.6667H25.3333L25.3333 15.8333H22.1667V12.6667Z" fill="#D9AA52"/>
<path d="M19 12.6667H22.1667V15.8333L19 15.8333V12.6667Z" fill="#D9AA52"/>
<path d="M19 9.5H22.1667V12.6667H19V9.5Z" fill="#D9AA52"/>
<path d="M19 6.33333H22.1667V9.5H19V6.33333Z" fill="#D9AA52"/>
<path d="M15.8333 6.33333H19V9.5H15.8333L15.8333 6.33333Z" fill="#D9AA52"/>
<path d="M22.1667 3.16667H25.3333V6.33333H22.1667V3.16667Z" fill="#D9AA52"/>
<path d="M25.3333 6.33333H28.5V9.5H25.3333L25.3333 6.33333Z" fill="#D9AA52"/>
<path d="M28.5 6.33333H31.6667V9.5H28.5V6.33333Z" fill="#D9AA52"/>
<path d="M22.1667 9.5H25.3333V12.6667H22.1667V9.5Z" fill="#D9AA52"/>
<path d="M25.3333 9.5H28.5V12.6667H25.3333V9.5Z" fill="#D9AA52"/>
<path d="M25.3333 12.6667H28.5V15.8333H25.3333L25.3333 12.6667Z" fill="#D9AA52"/>
<path d="M6.33333 15.8333L9.5 15.8333V19H6.33333V15.8333Z" fill="#E9BA62"/>
<path d="M3.16667 15.8333H6.33333V19H3.16667V15.8333Z" fill="#DBA952"/>
<path d="M6.33333 9.5H9.5V12.6667H6.33333V9.5Z" fill="#DBA952"/>
<path d="M6.33333 12.6667H9.5V15.8333L6.33333 15.8333V12.6667Z" fill="#E9BA62"/>
<path d="M9.5 28.5H12.6667V31.6667H9.5V28.5Z" fill="#6E3505"/>
<path d="M12.6667 28.5H15.8333L15.8333 31.6667H12.6667V28.5Z" fill="#6E3505"/>
<path d="M15.8333 28.5H19V31.6667H15.8333L15.8333 28.5Z" fill="#6E3505"/>
<path d="M19 25.3333L22.1667 25.3333V28.5H19V25.3333Z" fill="#6E3505"/>
<path d="M22.1667 25.3333H25.3333V28.5H22.1667V25.3333Z" fill="#6E3505"/>
<path d="M25.3333 22.1667H28.5V25.3333H25.3333V22.1667Z" fill="#6E3505"/>
<path d="M28.5 22.1667H31.6667V25.3333H28.5V22.1667Z" fill="#6E3505"/>
<path d="M31.6667 19H34.8333V22.1667H31.6667V19Z" fill="#6E3505"/>
<path d="M34.8333 15.8333L38 15.8333V19H34.8333V15.8333Z" fill="#6E3505"/>
<path d="M34.8333 12.6667H38V15.8333L34.8333 15.8333V12.6667Z" fill="#6E3505"/>
<path d="M34.8333 9.5H38V12.6667H34.8333V9.5Z" fill="#6E3505"/>
<path d="M34.8333 6.33333H38V9.5H34.8333V6.33333Z" fill="#995500"/>
</svg>
