<svg width="67" height="73" viewBox="0 0 67 73" fill="none" xmlns="http://www.w3.org/2000/svg">
<path d="M55.8333 61.4167H50.25V67H55.8333V61.4167Z" fill="#15130C"/>
<path d="M61.4167 61.4167H55.8333V67H61.4167V61.4167Z" fill="#15130C"/>
<path d="M50.25 61.4167H44.6667V67H50.25V61.4167Z" fill="#15130C"/>
<path d="M50.25 55.8333H44.6667V61.4167H50.25V55.8333Z" fill="#9C958B"/>
<path d="M50.25 50.25H44.6667V55.8333H50.25V50.25Z" fill="#9C958B"/>
<path d="M50.25 44.6667H44.6667V50.25H50.25V44.6667Z" fill="#9C958B"/>
<path d="M44.6667 44.6667H39.0833V50.25L44.6667 50.25V44.6667Z" fill="#9C958B"/>
<path d="M44.6667 50.25L39.0833 50.25V55.8333L44.6667 55.8333V50.25Z" fill="#9C958B"/>
<path d="M44.6667 55.8333L39.0833 55.8333V61.4167L44.6667 61.4167V55.8333Z" fill="#9C958B"/>
<path d="M39.0833 55.8333L33.5 55.8333V61.4167H39.0833V55.8333Z" fill="#2E2B1F"/>
<path d="M33.5 55.8333H27.9167V61.4167H33.5V55.8333Z" fill="#4A3D2A"/>
<path d="M27.9167 55.8333H22.3333V61.4167H27.9167V55.8333Z" fill="#4A3D2A"/>
<path d="M22.3333 55.8333H16.75V61.4167H22.3333V55.8333Z" fill="#4A3D2A"/>
<path d="M22.3333 61.4167H16.75V67H22.3333L22.3333 61.4167Z" fill="#4A3D2A"/>
<path d="M39.0833 50.25L33.5 50.25V55.8333L39.0833 55.8333V50.25Z" fill="#9C958B"/>
<path d="M33.5 50.25H27.9167V55.8333H33.5V50.25Z" fill="#BBB5AB"/>
<path d="M27.9167 50.25H22.3333V55.8333H27.9167V50.25Z" fill="#BBB5AB"/>
<path d="M27.9167 22.3333H22.3333V27.9167H27.9167V22.3333Z" fill="#BBB5AB"/>
<path d="M16.75 22.3333H11.1667V27.9167H16.75V22.3333Z" fill="#BBB5AB"/>
<path d="M27.9167 44.6667H22.3333V50.25H27.9167L27.9167 44.6667Z" fill="#E3D4C5"/>
<path d="M27.9167 39.0833H22.3333V44.6667H27.9167V39.0833Z" fill="#E3D4C5"/>
<path d="M33.5 39.0833H27.9167V44.6667L33.5 44.6667V39.0833Z" fill="#E3D4C5"/>
<path d="M33.5 27.9167L27.9167 27.9167L27.9167 33.5H33.5V27.9167Z" fill="#E3D4C5"/>
<path d="M11.1667 27.9167L5.58334 27.9167V33.5H11.1667L11.1667 27.9167Z" fill="#E3D4C5"/>
<path d="M33.5 44.6667L27.9167 44.6667L27.9167 50.25H33.5V44.6667Z" fill="#E3D4C5"/>
<path d="M22.3333 39.0833H16.75V44.6667L22.3333 44.6667V39.0833Z" fill="#E3D4C5"/>
<path d="M22.3333 44.6667L16.75 44.6667V50.25L22.3333 50.25V44.6667Z" fill="#E3D4C5"/>
<path d="M22.3333 50.25L16.75 50.25V55.8333H22.3333V50.25Z" fill="#AEA699"/>
<path d="M39.0833 44.6667L33.5 44.6667V50.25L39.0833 50.25V44.6667Z" fill="#9C958B"/>
<path d="M39.0833 39.0833H33.5V44.6667L39.0833 44.6667V39.0833Z" fill="#9C958B"/>
<path d="M44.6667 39.0833H39.0833V44.6667H44.6667V39.0833Z" fill="#9C958B"/>
<path d="M44.6667 33.5H39.0833V39.0833H44.6667V33.5Z" fill="#8E1C1E"/>
<path d="M44.6667 33.5H39.0833V39.0833H44.6667V33.5Z" fill="#8E1C1E"/>
<path d="M44.6667 27.9167H39.0833V33.5H44.6667V27.9167Z" fill="#9C958B"/>
<path d="M44.6667 22.3333H39.0833V27.9167H44.6667V22.3333Z" fill="#9C958B"/>
<path d="M44.6667 16.75H39.0833V22.3333H44.6667V16.75Z" fill="#9C958B"/>
<path d="M39.0833 27.9167H33.5V33.5L39.0833 33.5V27.9167Z" fill="#9C958B"/>
<path d="M39.0833 22.3333H33.5V27.9167H39.0833V22.3333Z" fill="#2E2B1F"/>
<path d="M39.0833 16.75H33.5V22.3333H39.0833V16.75Z" fill="#2E2B1F"/>
<path d="M33.5 16.75H27.9167L27.9167 22.3333H33.5V16.75Z" fill="#FEFFFB"/>
<path d="M11.1667 16.75H5.58334V22.3333L11.1667 22.3333L11.1667 16.75Z" fill="#FEFFFB"/>
<path d="M27.9167 16.75H22.3333V22.3333H27.9167L27.9167 16.75Z" fill="#0D7FC5"/>
<path d="M16.75 16.75H11.1667L11.1667 22.3333H16.75V16.75Z" fill="#0D7FC5"/>
<path d="M39.0833 11.1667H33.5V16.75H39.0833V11.1667Z" fill="#2E2B1F"/>
<path d="M27.9167 11.1667H22.3333V16.75H27.9167L27.9167 11.1667Z" fill="#2E2B1F"/>
<path d="M22.3333 11.1667H16.75L16.75 16.75H22.3333V11.1667Z" fill="#2E2B1F"/>
<path d="M22.3333 16.75H16.75V22.3333H22.3333V16.75Z" fill="#2E2B1F"/>
<path d="M16.75 27.9167H11.1667L11.1667 33.5H16.75V27.9167Z" fill="#2E2B1F"/>
<path d="M16.75 11.1667H11.1667L11.1667 16.75H16.75L16.75 11.1667Z" fill="#2E2B1F"/>
<path d="M33.5 11.1667H27.9167L27.9167 16.75H33.5V11.1667Z" fill="#4A3D2A"/>
<path d="M33.5 22.3333H27.9167V27.9167L33.5 27.9167V22.3333Z" fill="#4A3D2A"/>
<path d="M27.9167 27.9167H22.3333V33.5H27.9167L27.9167 27.9167Z" fill="#4A3D2A"/>
<path d="M22.3333 27.9167H16.75V33.5H22.3333V27.9167Z" fill="#4A3D2A"/>
<path d="M11.1667 22.3333L5.58334 22.3333V27.9167L11.1667 27.9167V22.3333Z" fill="#4A3D2A"/>
<path d="M11.1667 11.1667H5.58334V16.75H11.1667L11.1667 11.1667Z" fill="#4A3D2A"/>
<path d="M50.25 27.9167H44.6667V33.5L50.25 33.5V27.9167Z" fill="#9C958B"/>
<path d="M50.25 22.3333H44.6667V27.9167H50.25V22.3333Z" fill="#9C958B"/>
<path d="M50.25 16.75H44.6667V22.3333H50.25V16.75Z" fill="#9C958B"/>
<path d="M50.25 11.1667H44.6667V16.75H50.25V11.1667Z" fill="#9C958B"/>
<path d="M50.25 5.58333H44.6667V11.1667H50.25V5.58333Z" fill="#9C958B"/>
<path d="M50.25 0H44.6667V5.58333H50.25V0Z" fill="#FAC551"/>
<path d="M44.6667 0H39.0833V5.58333L44.6667 5.58333V0Z" fill="#FAC551"/>
<path d="M55.8333 5.58333H50.25V11.1667L55.8333 11.1667V5.58333Z" fill="#FAC551"/>
<path d="M55.8333 11.1667L50.25 11.1667V16.75L55.8333 16.75V11.1667Z" fill="#FAC551"/>
<path d="M55.8333 22.3333H50.25V27.9167L55.8333 27.9167V22.3333Z" fill="#FAC551"/>
<path d="M55.8333 16.75L50.25 16.75V22.3333H55.8333V16.75Z" fill="#FAC551"/>
<path d="M55.8333 27.9167L50.25 27.9167V33.5H55.8333V27.9167Z" fill="#FAC551"/>
<path d="M50.25 33.5L44.6667 33.5V39.0833L50.25 39.0833V33.5Z" fill="#FAC551"/>
<path d="M50.25 39.0833L44.6667 39.0833V44.6667H50.25V39.0833Z" fill="#FAC551"/>
<path d="M55.8333 44.6667H50.25V50.25L55.8333 50.25V44.6667Z" fill="#FAC551"/>
<path d="M55.8333 55.8333H50.25V61.4167H55.8333V55.8333Z" fill="#FAC551"/>
<path d="M55.8333 50.25L50.25 50.25V55.8333H55.8333V50.25Z" fill="#FAC551"/>
<path d="M61.4167 55.8333H55.8333V61.4167H61.4167V55.8333Z" fill="#FAC551"/>
<path d="M67 61.4167H61.4167V67H67V61.4167Z" fill="#FAC551"/>
<path d="M61.4167 67H55.8333V72.5833H61.4167V67Z" fill="#FAC551"/>
<path d="M55.8333 67H50.25V72.5833H55.8333V67Z" fill="#FAC551"/>
<path d="M50.25 67H44.6667V72.5833H50.25V67Z" fill="#FAC551"/>
<path d="M44.6667 67L39.0833 67V72.5833H44.6667V67Z" fill="#FAC551"/>
<path d="M39.0833 67H33.5V72.5833H39.0833V67Z" fill="#FAC551"/>
<path d="M33.5 67H27.9167V72.5833H33.5V67Z" fill="#FAC551"/>
<path d="M27.9167 67L22.3333 67L22.3333 72.5833H27.9167V67Z" fill="#FAC551"/>
<path d="M22.3333 67H16.75V72.5833H22.3333L22.3333 67Z" fill="#FAC551"/>
<path d="M16.75 61.4167L11.1667 61.4167V67H16.75V61.4167Z" fill="#FAC551"/>
<path d="M16.75 55.8333H11.1667V61.4167L16.75 61.4167V55.8333Z" fill="#FAC551"/>
<path d="M16.75 50.25L11.1667 50.25V55.8333H16.75V50.25Z" fill="#FAC551"/>
<path d="M16.75 44.6667L11.1667 44.6667V50.25L16.75 50.25V44.6667Z" fill="#FAC551"/>
<path d="M16.75 39.0833H11.1667V44.6667L16.75 44.6667V39.0833Z" fill="#FAC551"/>
<path d="M16.75 33.5H11.1667L11.1667 39.0833H16.75L16.75 33.5Z" fill="#FAC551"/>
<path d="M11.1667 33.5H5.58334V39.0833L11.1667 39.0833L11.1667 33.5Z" fill="#FAC551"/>
<path d="M5.58334 27.9167H0V33.5H5.58334V27.9167Z" fill="#FAC551"/>
<path d="M5.58334 22.3333L0 22.3333V27.9167H5.58334V22.3333Z" fill="#FAC551"/>
<path d="M5.58334 16.75H0V22.3333L5.58334 22.3333V16.75Z" fill="#FAC551"/>
<path d="M5.58334 11.1667H0V16.75H5.58334V11.1667Z" fill="#FAC551"/>
<path d="M11.1667 5.58333H5.58334V11.1667H11.1667L11.1667 5.58333Z" fill="#FAC551"/>
<path d="M16.75 5.58333H11.1667L11.1667 11.1667H16.75L16.75 5.58333Z" fill="#FAC551"/>
<path d="M22.3333 5.58333H16.75L16.75 11.1667H22.3333L22.3333 5.58333Z" fill="#FAC551"/>
<path d="M27.9167 0H22.3333L22.3333 5.58333L27.9167 5.58333V0Z" fill="#FAC551"/>
<path d="M33.5 5.58333L27.9167 5.58333V11.1667H33.5V5.58333Z" fill="#FAC551"/>
<path d="M39.0833 5.58333L33.5 5.58333V11.1667H39.0833V5.58333Z" fill="#FAC551"/>
<path d="M44.6667 11.1667H39.0833V16.75H44.6667V11.1667Z" fill="#9C958B"/>
<path d="M44.6667 5.58333L39.0833 5.58333V11.1667H44.6667V5.58333Z" fill="#4A3D2A"/>
<path d="M27.9167 5.58333L22.3333 5.58333L22.3333 11.1667H27.9167V5.58333Z" fill="#4A3D2A"/>
<path d="M39.0833 33.5L33.5 33.5V39.0833H39.0833V33.5Z" fill="#8E1C1E"/>
<path d="M33.5 33.5H27.9167L27.9167 39.0833H33.5V33.5Z" fill="#A33432"/>
<path d="M27.9167 33.5H22.3333V39.0833H27.9167L27.9167 33.5Z" fill="#A33432"/>
<path d="M22.3333 33.5H16.75L16.75 39.0833H22.3333V33.5Z" fill="#A33432"/>
<path d="M44.6667 61.4167L39.0833 61.4167V67L44.6667 67V61.4167Z" fill="#15130C"/>
<path d="M39.0833 61.4167H33.5V67H39.0833V61.4167Z" fill="#2E2B1F"/>
<path d="M33.5 61.4167H27.9167V67H33.5V61.4167Z" fill="#2E2B1F"/>
<path d="M27.9167 61.4167H22.3333L22.3333 67L27.9167 67V61.4167Z" fill="#2E2B1F"/>
<path d="M22.3333 22.3333H16.75V27.9167H22.3333V22.3333Z" fill="#2E2B1F"/>
</svg>
