<svg width="78" height="13" viewBox="0 0 78 13" fill="none" xmlns="http://www.w3.org/2000/svg">
<path d="M0.599011 12.5122V13H0.111206V12.5122H0.599011ZM0.599011 12.0244V12.5122H0.111206V12.0244H0.599011ZM0.599011 11.5366V12.0244H0.111206V11.5366H0.599011ZM0.599011 11.0488V11.5366H0.111206V11.0488H0.599011ZM0.599011 10.561V11.0488H0.111206V10.561H0.599011ZM0.599011 10.0732V10.561H0.111206V10.0732H0.599011ZM0.599011 9.58536V10.0732H0.111206V9.58536H0.599011ZM0.599011 9.09755V9.58536H0.111206V9.09755H0.599011ZM0.599011 8.60975V9.09755H0.111206V8.60975H0.599011ZM0.599011 8.12194V8.60975H0.111206V8.12194H0.599011ZM0.599011 7.63414V8.12194H0.111206V7.63414H0.599011ZM0.599011 7.14633V7.63414H0.111206V7.14633H0.599011ZM0.599011 6.65853V7.14633H0.111206V6.65853H0.599011ZM0.599011 6.17072V6.65853H0.111206V6.17072H0.599011ZM0.599011 5.68292V6.17072H0.111206V5.68292H0.599011ZM1.08682 5.68292V6.17072H0.599011V5.68292H1.08682ZM1.08682 6.17072V6.65853H0.599011V6.17072H1.08682ZM1.08682 6.65853V7.14633H0.599011V6.65853H1.08682ZM1.08682 7.14633V7.63414H0.599011V7.14633H1.08682ZM1.08682 7.63414V8.12194H0.599011V7.63414H1.08682ZM1.08682 8.12194V8.60975H0.599011V8.12194H1.08682ZM1.08682 8.60975V9.09755H0.599011V8.60975H1.08682ZM1.57462 9.09755V9.58536H1.08682V9.09755H1.57462ZM1.57462 9.58536V10.0732H1.08682V9.58536H1.57462ZM1.57462 10.0732V10.561H1.08682V10.0732H1.57462ZM1.57462 10.561V11.0488H1.08682V10.561H1.57462ZM1.57462 11.0488V11.5366H1.08682V11.0488H1.57462ZM1.57462 11.5366V12.0244H1.08682V11.5366H1.57462ZM1.57462 12.0244V12.5122H1.08682V12.0244H1.57462ZM1.57462 12.5122V13H1.08682V12.5122H1.57462ZM2.06243 12.5122V13H1.57462V12.5122H2.06243ZM2.55023 12.5122V13H2.06243V12.5122H2.55023ZM2.55023 10.561V11.0488H2.06243V10.561H2.55023ZM2.55023 10.0732V10.561H2.06243V10.0732H2.55023ZM2.55023 9.58536V10.0732H2.06243V9.58536H2.55023ZM2.55023 9.09755V9.58536H2.06243V9.09755H2.55023ZM2.06243 9.09755V9.58536H1.57462V9.09755H2.06243ZM2.06243 8.60975V9.09755H1.57462V8.60975H2.06243ZM2.06243 9.58536V10.0732H1.57462V9.58536H2.06243ZM2.06243 10.0732V10.561H1.57462V10.0732H2.06243ZM2.06243 10.561V11.0488H1.57462V10.561H2.06243ZM2.06243 11.0488V11.5366H1.57462V11.0488H2.06243ZM2.06243 11.5366V12.0244H1.57462V11.5366H2.06243ZM2.06243 12.0244V12.5122H1.57462V12.0244H2.06243ZM1.08682 12.5122V13H0.599011V12.5122H1.08682ZM1.08682 12.0244V12.5122H0.599011V12.0244H1.08682ZM1.08682 11.5366V12.0244H0.599011V11.5366H1.08682ZM1.08682 11.0488V11.5366H0.599011V11.0488H1.08682ZM1.08682 10.561V11.0488H0.599011V10.561H1.08682ZM1.08682 10.0732V10.561H0.599011V10.0732H1.08682ZM1.08682 9.58536V10.0732H0.599011V9.58536H1.08682ZM1.08682 9.09755V9.58536H0.599011V9.09755H1.08682ZM0.599011 0.804871V1.29268H0.111206V0.804871H0.599011ZM0.599011 1.29268V1.78048H0.111206V1.29268H0.599011ZM0.599011 1.78048V2.26829H0.111206V1.78048H0.599011ZM0.599011 2.26829V2.75609H0.111206V2.26829H0.599011ZM0.599011 2.75609V3.2439H0.111206V2.75609H0.599011ZM0.599011 3.2439V3.7317H0.111206V3.2439H0.599011ZM0.599011 3.7317V4.21951H0.111206V3.7317H0.599011ZM0.599011 4.21951V4.70731H0.111206V4.21951H0.599011ZM0.599011 4.70731V5.19512H0.111206V4.70731H0.599011ZM0.599011 5.19512V5.68292H0.111206V5.19512H0.599011ZM2.06243 0.804871V1.29268H1.57462V0.804871H2.06243ZM2.06243 1.29268V1.78048H1.57462V1.29268H2.06243ZM2.06243 1.78048V2.26829H1.57462V1.78048H2.06243ZM2.06243 2.26829V2.75609H1.57462V2.26829H2.06243ZM2.06243 2.75609V3.2439H1.57462V2.75609H2.06243ZM2.06243 3.2439V3.7317H1.57462V3.2439H2.06243ZM2.06243 4.21951V4.70731H1.57462V4.21951H2.06243ZM2.06243 4.70731V5.19512H1.57462V4.70731H2.06243ZM2.06243 5.19512V5.68292H1.57462V5.19512H2.06243ZM2.06243 5.68292V6.17072H1.57462V5.68292H2.06243ZM2.06243 6.17072V6.65853H1.57462V6.17072H2.06243ZM2.06243 6.65853V7.14633H1.57462V6.65853H2.06243ZM2.06243 7.14633V7.63414H1.57462V7.14633H2.06243ZM2.55023 7.63414V8.12194H2.06243V7.63414H2.55023ZM2.55023 8.12194V8.60975H2.06243V8.12194H2.55023ZM2.55023 8.60975V9.09755H2.06243V8.60975H2.55023ZM2.55023 7.14633V7.63414H2.06243V7.14633H2.55023ZM2.55023 6.65853V7.14633H2.06243V6.65853H2.55023ZM2.55023 6.17072V6.65853H2.06243V6.17072H2.55023ZM2.55023 5.68292V6.17072H2.06243V5.68292H2.55023ZM2.55023 5.19512V5.68292H2.06243V5.19512H2.55023ZM2.55023 4.70731V5.19512H2.06243V4.70731H2.55023ZM2.55023 4.21951V4.70731H2.06243V4.21951H2.55023ZM2.55023 3.7317V4.21951H2.06243V3.7317H2.55023ZM2.55023 3.2439V3.7317H2.06243V3.2439H2.55023ZM2.55023 2.75609V3.2439H2.06243V2.75609H2.55023ZM2.06243 3.7317V4.21951H1.57462V3.7317H2.06243ZM2.55023 2.26829V2.75609H2.06243V2.26829H2.55023ZM2.55023 1.78048V2.26829H2.06243V1.78048H2.55023ZM2.55023 1.29268V1.78048H2.06243V1.29268H2.55023ZM2.55023 0.804871V1.29268H2.06243V0.804871H2.55023ZM1.57462 0.804871V1.29268H1.08682V0.804871H1.57462ZM1.08682 0.804871V1.29268H0.599011V0.804871H1.08682ZM1.08682 1.29268V1.78048H0.599011V1.29268H1.08682ZM1.57462 1.29268V1.78048H1.08682V1.29268H1.57462ZM1.57462 1.78048V2.26829H1.08682V1.78048H1.57462ZM1.57462 2.26829V2.75609H1.08682V2.26829H1.57462ZM1.57462 2.75609V3.2439H1.08682V2.75609H1.57462ZM1.57462 3.2439V3.7317H1.08682V3.2439H1.57462ZM1.57462 3.7317V4.21951H1.08682V3.7317H1.57462ZM1.57462 4.21951V4.70731H1.08682V4.21951H1.57462ZM1.08682 4.70731V5.19512H0.599011V4.70731H1.08682ZM1.08682 5.19512V5.68292H0.599011V5.19512H1.08682ZM1.08682 4.21951V4.70731H0.599011V4.21951H1.08682ZM1.08682 3.7317V4.21951H0.599011V3.7317H1.08682ZM1.08682 3.2439V3.7317H0.599011V3.2439H1.08682ZM1.08682 2.75609V3.2439H0.599011V2.75609H1.08682ZM1.08682 2.26829V2.75609H0.599011V2.26829H1.08682ZM1.08682 1.78048V2.26829H0.599011V1.78048H1.08682ZM1.57462 4.70731V5.19512H1.08682V4.70731H1.57462ZM1.57462 5.19512V5.68292H1.08682V5.19512H1.57462ZM1.57462 5.68292V6.17072H1.08682V5.68292H1.57462ZM1.57462 6.17072V6.65853H1.08682V6.17072H1.57462ZM1.57462 6.65853V7.14633H1.08682V6.65853H1.57462ZM1.57462 7.14633V7.63414H1.08682V7.14633H1.57462ZM1.57462 7.63414V8.12194H1.08682V7.63414H1.57462ZM1.57462 8.12194V8.60975H1.08682V8.12194H1.57462ZM1.57462 8.60975V9.09755H1.08682V8.60975H1.57462ZM2.06243 8.12194V8.60975H1.57462V8.12194H2.06243ZM2.06243 7.63414V8.12194H1.57462V7.63414H2.06243ZM3.03804 7.63414V8.12194H2.55023V7.63414H3.03804ZM3.52584 7.63414V8.12194H3.03804V7.63414H3.52584ZM3.52584 8.12194V8.60975H3.03804V8.12194H3.52584ZM3.03804 8.12194V8.60975H2.55023V8.12194H3.03804ZM3.03804 6.65853V7.14633H2.55023V6.65853H3.03804ZM3.52584 6.65853V7.14633H3.03804V6.65853H3.52584ZM3.03804 8.60975V9.09755H2.55023V8.60975H3.03804ZM3.52584 8.60975V9.09755H3.03804V8.60975H3.52584ZM3.52584 7.14633V7.63414H3.03804V7.14633H3.52584ZM3.03804 7.14633V7.63414H2.55023V7.14633H3.03804ZM3.03804 0.804871V1.29268H2.55023V0.804871H3.03804ZM3.52584 0.804871V1.29268H3.03804V0.804871H3.52584ZM3.52584 1.29268V1.78048H3.03804V1.29268H3.52584ZM3.03804 1.29268V1.78048H2.55023V1.29268H3.03804ZM3.03804 1.78048V2.26829H2.55023V1.78048H3.03804ZM3.52584 1.78048V2.26829H3.03804V1.78048H3.52584ZM3.52584 2.26829V2.75609H3.03804V2.26829H3.52584ZM3.03804 2.26829V2.75609H2.55023V2.26829H3.03804ZM3.03804 2.75609V3.2439H2.55023V2.75609H3.03804ZM3.52584 2.75609V3.2439H3.03804V2.75609H3.52584ZM4.01364 6.65853V7.14633H3.52584V6.65853H4.01364ZM4.50145 6.65853V7.14633H4.01364V6.65853H4.50145ZM4.98925 6.65853V7.14633H4.50145V6.65853H4.98925ZM5.47706 6.17072V6.65853H4.98925V6.17072H5.47706ZM5.96486 5.68292V6.17072H5.47706V5.68292H5.96486ZM5.96486 5.19512V5.68292H5.47706V5.19512H5.96486ZM5.96486 3.7317V4.21951H5.47706V3.7317H5.96486ZM5.47706 3.2439V3.7317H4.98925V3.2439H5.47706ZM4.98925 2.75609V3.2439H4.50145V2.75609H4.98925ZM4.50145 2.75609V3.2439H4.01364V2.75609H4.50145ZM4.01364 2.75609V3.2439H3.52584V2.75609H4.01364ZM4.01364 0.804871V1.29268H3.52584V0.804871H4.01364ZM4.50145 0.804871V1.29268H4.01364V0.804871H4.50145ZM4.98925 0.804871V1.29268H4.50145V0.804871H4.98925ZM5.47706 0.804871V1.29268H4.98925V0.804871H5.47706ZM5.47706 1.29268V1.78048H4.98925V1.29268H5.47706ZM5.47706 1.78048V2.26829H4.98925V1.78048H5.47706ZM5.47706 2.26829V2.75609H4.98925V2.26829H5.47706ZM4.98925 2.26829V2.75609H4.50145V2.26829H4.98925ZM4.98925 1.78048V2.26829H4.50145V1.78048H4.98925ZM4.50145 1.78048V2.26829H4.01364V1.78048H4.50145ZM4.01364 1.78048V2.26829H3.52584V1.78048H4.01364ZM4.01364 1.29268V1.78048H3.52584V1.29268H4.01364ZM4.50145 1.29268V1.78048H4.01364V1.29268H4.50145ZM4.98925 1.29268V1.78048H4.50145V1.29268H4.98925ZM4.01364 2.26829V2.75609H3.52584V2.26829H4.01364ZM4.50145 2.26829V2.75609H4.01364V2.26829H4.50145ZM5.47706 2.75609V3.2439H4.98925V2.75609H5.47706ZM5.96486 3.2439V3.7317H5.47706V3.2439H5.96486ZM5.96486 2.75609V3.2439H5.47706V2.75609H5.96486ZM5.96486 2.26829V2.75609H5.47706V2.26829H5.96486ZM5.96486 1.78048V2.26829H5.47706V1.78048H5.96486ZM5.96486 1.29268V1.78048H5.47706V1.29268H5.96486ZM5.96486 0.804871V1.29268H5.47706V0.804871H5.96486ZM5.96486 6.17072V6.65853H5.47706V6.17072H5.96486ZM5.96486 6.65853V7.14633H5.47706V6.65853H5.96486ZM5.96486 7.14633V7.63414H5.47706V7.14633H5.96486ZM5.96486 7.63414V8.12194H5.47706V7.63414H5.96486ZM5.47706 7.63414V8.12194H4.98925V7.63414H5.47706ZM4.98925 7.63414V8.12194H4.50145V7.63414H4.98925ZM4.50145 7.63414V8.12194H4.01364V7.63414H4.50145ZM4.01364 7.63414V8.12194H3.52584V7.63414H4.01364ZM4.01364 7.14633V7.63414H3.52584V7.14633H4.01364ZM4.50145 7.14633V7.63414H4.01364V7.14633H4.50145ZM4.98925 7.14633V7.63414H4.50145V7.14633H4.98925ZM5.47706 7.14633V7.63414H4.98925V7.14633H5.47706ZM5.47706 6.65853V7.14633H4.98925V6.65853H5.47706ZM4.01364 8.12194V8.60975H3.52584V8.12194H4.01364ZM4.50145 8.12194V8.60975H4.01364V8.12194H4.50145ZM4.98925 8.12194V8.60975H4.50145V8.12194H4.98925ZM5.47706 8.12194V8.60975H4.98925V8.12194H5.47706ZM5.96486 8.12194V8.60975H5.47706V8.12194H5.96486ZM5.96486 8.60975V9.09755H5.47706V8.60975H5.96486ZM5.47706 8.60975V9.09755H4.98925V8.60975H5.47706ZM4.98925 8.60975V9.09755H4.50145V8.60975H4.98925ZM4.50145 8.60975V9.09755H4.01364V8.60975H4.50145ZM4.01364 8.60975V9.09755H3.52584V8.60975H4.01364ZM6.45267 1.29268V1.78048H5.96486V1.29268H6.45267ZM6.94047 1.29268V1.78048H6.45267V1.29268H6.94047ZM6.94047 1.78048V2.26829H6.45267V1.78048H6.94047ZM7.42828 1.78048V2.26829H6.94047V1.78048H7.42828ZM7.42828 2.26829V2.75609H6.94047V2.26829H7.42828ZM7.42828 2.75609V3.2439H6.94047V2.75609H7.42828ZM7.91608 2.75609V3.2439H7.42828V2.75609H7.91608ZM7.91608 3.2439V3.7317H7.42828V3.2439H7.91608ZM7.91608 3.7317V4.21951H7.42828V3.7317H7.91608ZM7.91608 5.19512V5.68292H7.42828V5.19512H7.91608ZM7.91608 5.68292V6.17072H7.42828V5.68292H7.91608ZM7.91608 6.17072V6.65853H7.42828V6.17072H7.91608ZM7.91608 6.65853V7.14633H7.42828V6.65853H7.91608ZM7.42828 7.14633V7.63414H6.94047V7.14633H7.42828ZM6.94047 7.63414V8.12194H6.45267V7.63414H6.94047ZM6.45267 8.12194V8.60975H5.96486V8.12194H6.45267ZM6.94047 8.12194V8.60975H6.45267V8.12194H6.94047ZM6.45267 8.60975V9.09755H5.96486V8.60975H6.45267ZM6.45267 1.78048V2.26829H5.96486V1.78048H6.45267ZM6.45267 2.26829V2.75609H5.96486V2.26829H6.45267ZM6.45267 2.75609V3.2439H5.96486V2.75609H6.45267ZM6.45267 3.2439V3.7317H5.96486V3.2439H6.45267ZM6.45267 3.7317V4.21951H5.96486V3.7317H6.45267ZM6.45267 5.19512V5.68292H5.96486V5.19512H6.45267ZM6.45267 5.68292V6.17072H5.96486V5.68292H6.45267ZM6.45267 6.17072V6.65853H5.96486V6.17072H6.45267ZM6.45267 6.65853V7.14633H5.96486V6.65853H6.45267ZM6.45267 7.14633V7.63414H5.96486V7.14633H6.45267ZM6.45267 7.63414V8.12194H5.96486V7.63414H6.45267ZM6.94047 7.14633V7.63414H6.45267V7.14633H6.94047ZM6.94047 6.65853V7.14633H6.45267V6.65853H6.94047ZM6.94047 6.17072V6.65853H6.45267V6.17072H6.94047ZM6.94047 5.68292V6.17072H6.45267V5.68292H6.94047ZM6.94047 5.19512V5.68292H6.45267V5.19512H6.94047ZM6.94047 3.7317V4.21951H6.45267V3.7317H6.94047ZM6.94047 3.2439V3.7317H6.45267V3.2439H6.94047ZM6.94047 2.75609V3.2439H6.45267V2.75609H6.94047ZM6.94047 2.26829V2.75609H6.45267V2.26829H6.94047ZM7.42828 3.2439V3.7317H6.94047V3.2439H7.42828ZM7.42828 3.7317V4.21951H6.94047V3.7317H7.42828ZM7.42828 5.19512V5.68292H6.94047V5.19512H7.42828ZM7.42828 5.68292V6.17072H6.94047V5.68292H7.42828ZM7.42828 6.17072V6.65853H6.94047V6.17072H7.42828ZM7.42828 6.65853V7.14633H6.94047V6.65853H7.42828ZM2.55023 11.5366V12.0244H2.06243V11.5366H2.55023ZM2.55023 12.0244V12.5122H2.06243V12.0244H2.55023ZM2.55023 11.0488V11.5366H2.06243V11.0488H2.55023ZM5.96486 4.21951V4.70731H5.47706V4.21951H5.96486ZM6.45267 4.21951V4.70731H5.96486V4.21951H6.45267ZM6.94047 4.21951V4.70731H6.45267V4.21951H6.94047ZM7.42828 4.21951V4.70731H6.94047V4.21951H7.42828ZM7.91608 4.21951V4.70731H7.42828V4.21951H7.91608ZM7.91608 4.70731V5.19512H7.42828V4.70731H7.91608ZM7.42828 4.70731V5.19512H6.94047V4.70731H7.42828ZM6.94047 4.70731V5.19512H6.45267V4.70731H6.94047ZM6.45267 4.70731V5.19512H5.96486V4.70731H6.45267ZM5.96486 4.70731V5.19512H5.47706V4.70731H5.96486Z" fill="#FB85A8"/>
<path d="M10.5646 0.804871V1.29268H10.0768V0.804871H10.5646ZM10.5646 1.29268V1.78048H10.0768V1.29268H10.5646ZM10.5646 1.78048V2.26829H10.0768V1.78048H10.5646ZM12.0281 0.804871V1.29268H11.5402V0.804871H12.0281ZM12.0281 1.29268V1.78048H11.5402V1.29268H12.0281ZM12.0281 1.78048V2.26829H11.5402V1.78048H12.0281ZM12.5159 1.78048V2.26829H12.0281V1.78048H12.5159ZM12.5159 1.29268V1.78048H12.0281V1.29268H12.5159ZM12.5159 0.804871V1.29268H12.0281V0.804871H12.5159ZM11.5402 0.804871V1.29268H11.0524V0.804871H11.5402ZM11.0524 0.804871V1.29268H10.5646V0.804871H11.0524ZM11.0524 1.29268V1.78048H10.5646V1.29268H11.0524ZM11.5402 1.29268V1.78048H11.0524V1.29268H11.5402ZM11.5402 1.78048V2.26829H11.0524V1.78048H11.5402ZM11.0524 1.78048V2.26829H10.5646V1.78048H11.0524ZM10.5646 2.26829V2.75609H10.0768V2.26829H10.5646ZM11.0524 2.26829V2.75609H10.5646V2.26829H11.0524ZM11.5402 2.26829V2.75609H11.0524V2.26829H11.5402ZM12.0281 2.26829V2.75609H11.5402V2.26829H12.0281ZM12.5159 2.26829V2.75609H12.0281V2.26829H12.5159ZM10.5646 12.5122V13H10.0768V12.5122H10.5646ZM10.5646 12.0244V12.5122H10.0768V12.0244H10.5646ZM10.5646 11.5366V12.0244H10.0768V11.5366H10.5646ZM10.5646 11.0488V11.5366H10.0768V11.0488H10.5646ZM10.5646 10.561V11.0488H10.0768V10.561H10.5646ZM10.5646 10.0732V10.561H10.0768V10.0732H10.5646ZM10.5646 9.58536V10.0732H10.0768V9.58536H10.5646ZM10.5646 9.09755V9.58536H10.0768V9.09755H10.5646ZM10.5646 8.60975V9.09755H10.0768V8.60975H10.5646ZM10.5646 8.12194V8.60975H10.0768V8.12194H10.5646ZM10.5646 7.63414V8.12194H10.0768V7.63414H10.5646ZM10.5646 7.14633V7.63414H10.0768V7.14633H10.5646ZM10.5646 6.65853V7.14633H10.0768V6.65853H10.5646ZM10.5646 6.17072V6.65853H10.0768V6.17072H10.5646ZM10.5646 5.68292V6.17072H10.0768V5.68292H10.5646ZM11.0524 5.68292V6.17072H10.5646V5.68292H11.0524ZM11.0524 6.17072V6.65853H10.5646V6.17072H11.0524ZM11.0524 6.65853V7.14633H10.5646V6.65853H11.0524ZM11.0524 7.14633V7.63414H10.5646V7.14633H11.0524ZM11.0524 7.63414V8.12194H10.5646V7.63414H11.0524ZM11.0524 8.12194V8.60975H10.5646V8.12194H11.0524ZM11.0524 8.60975V9.09755H10.5646V8.60975H11.0524ZM11.5402 9.09755V9.58536H11.0524V9.09755H11.5402ZM11.5402 9.58536V10.0732H11.0524V9.58536H11.5402ZM11.5402 10.0732V10.561H11.0524V10.0732H11.5402ZM11.5402 10.561V11.0488H11.0524V10.561H11.5402ZM11.5402 11.0488V11.5366H11.0524V11.0488H11.5402ZM11.5402 11.5366V12.0244H11.0524V11.5366H11.5402ZM11.5402 12.0244V12.5122H11.0524V12.0244H11.5402ZM11.5402 12.5122V13H11.0524V12.5122H11.5402ZM12.0281 12.5122V13H11.5402V12.5122H12.0281ZM12.5159 12.5122V13H12.0281V12.5122H12.5159ZM12.5159 12.0244V12.5122H12.0281V12.0244H12.5159ZM12.5159 11.5366V12.0244H12.0281V11.5366H12.5159ZM12.5159 11.0488V11.5366H12.0281V11.0488H12.5159ZM12.5159 10.561V11.0488H12.0281V10.561H12.5159ZM12.5159 10.0732V10.561H12.0281V10.0732H12.5159ZM12.5159 9.58536V10.0732H12.0281V9.58536H12.5159ZM12.5159 9.09755V9.58536H12.0281V9.09755H12.5159ZM12.0281 9.09755V9.58536H11.5402V9.09755H12.0281ZM12.0281 8.60975V9.09755H11.5402V8.60975H12.0281ZM12.0281 9.58536V10.0732H11.5402V9.58536H12.0281ZM12.0281 10.0732V10.561H11.5402V10.0732H12.0281ZM12.0281 10.561V11.0488H11.5402V10.561H12.0281ZM12.0281 11.0488V11.5366H11.5402V11.0488H12.0281ZM12.0281 11.5366V12.0244H11.5402V11.5366H12.0281ZM12.0281 12.0244V12.5122H11.5402V12.0244H12.0281ZM11.0524 12.5122V13H10.5646V12.5122H11.0524ZM11.0524 12.0244V12.5122H10.5646V12.0244H11.0524ZM11.0524 11.5366V12.0244H10.5646V11.5366H11.0524ZM11.0524 11.0488V11.5366H10.5646V11.0488H11.0524ZM11.0524 10.561V11.0488H10.5646V10.561H11.0524ZM11.0524 10.0732V10.561H10.5646V10.0732H11.0524ZM11.0524 9.58536V10.0732H10.5646V9.58536H11.0524ZM11.0524 9.09755V9.58536H10.5646V9.09755H11.0524ZM10.5646 4.70731V5.19512H10.0768V4.70731H10.5646ZM10.5646 5.19512V5.68292H10.0768V5.19512H10.5646ZM12.0281 4.70731V5.19512H11.5402V4.70731H12.0281ZM12.0281 5.19512V5.68292H11.5402V5.19512H12.0281ZM12.0281 5.68292V6.17072H11.5402V5.68292H12.0281ZM12.0281 6.17072V6.65853H11.5402V6.17072H12.0281ZM12.0281 6.65853V7.14633H11.5402V6.65853H12.0281ZM12.0281 7.14633V7.63414H11.5402V7.14633H12.0281ZM12.5159 7.63414V8.12194H12.0281V7.63414H12.5159ZM12.5159 8.12194V8.60975H12.0281V8.12194H12.5159ZM12.5159 8.60975V9.09755H12.0281V8.60975H12.5159ZM12.5159 7.14633V7.63414H12.0281V7.14633H12.5159ZM12.5159 6.65853V7.14633H12.0281V6.65853H12.5159ZM12.5159 6.17072V6.65853H12.0281V6.17072H12.5159ZM12.5159 5.68292V6.17072H12.0281V5.68292H12.5159ZM12.5159 5.19512V5.68292H12.0281V5.19512H12.5159ZM12.5159 4.70731V5.19512H12.0281V4.70731H12.5159ZM11.0524 4.70731V5.19512H10.5646V4.70731H11.0524ZM11.0524 5.19512V5.68292H10.5646V5.19512H11.0524ZM11.5402 4.70731V5.19512H11.0524V4.70731H11.5402ZM11.5402 5.19512V5.68292H11.0524V5.19512H11.5402ZM11.5402 5.68292V6.17072H11.0524V5.68292H11.5402ZM11.5402 6.17072V6.65853H11.0524V6.17072H11.5402ZM11.5402 6.65853V7.14633H11.0524V6.65853H11.5402ZM11.5402 7.14633V7.63414H11.0524V7.14633H11.5402ZM11.5402 7.63414V8.12194H11.0524V7.63414H11.5402ZM11.5402 8.12194V8.60975H11.0524V8.12194H11.5402ZM11.5402 8.60975V9.09755H11.0524V8.60975H11.5402ZM12.0281 8.12194V8.60975H11.5402V8.12194H12.0281ZM12.0281 7.63414V8.12194H11.5402V7.63414H12.0281ZM12.0281 4.21951V4.70731H11.5402V4.21951H12.0281ZM12.5159 4.21951V4.70731H12.0281V4.21951H12.5159ZM11.5402 4.21951V4.70731H11.0524V4.21951H11.5402ZM11.0524 4.21951V4.70731H10.5646V4.21951H11.0524ZM10.5646 4.21951V4.70731H10.0768V4.21951H10.5646Z" fill="#FB85A8"/>
<path d="M15.1592 3.7317V4.21951H14.6714V3.7317H15.1592ZM15.647 3.7317V4.21951H15.1592V3.7317H15.647ZM16.1348 3.7317V4.21951H15.647V3.7317H16.1348ZM16.1348 4.21951V4.70731H15.647V4.21951H16.1348ZM16.6226 4.21951V4.70731H16.1348V4.21951H16.6226ZM17.1104 4.70731V5.19512H16.6226V4.70731H17.1104ZM17.1104 5.19512V5.68292H16.6226V5.19512H17.1104ZM17.1104 4.21951V4.70731H16.6226V4.21951H17.1104ZM17.1104 3.7317V4.21951H16.6226V3.7317H17.1104ZM16.6226 3.7317V4.21951H16.1348V3.7317H16.6226ZM15.647 4.21951V4.70731H15.1592V4.21951H15.647ZM15.647 4.70731V5.19512H15.1592V4.70731H15.647ZM15.1592 4.70731V5.19512H14.6714V4.70731H15.1592ZM15.1592 4.21951V4.70731H14.6714V4.21951H15.1592ZM15.1592 5.19512V5.68292H14.6714V5.19512H15.1592ZM15.1592 5.68292V6.17072H14.6714V5.68292H15.1592ZM15.1592 6.17072V6.65853H14.6714V6.17072H15.1592ZM15.647 6.17072V6.65853H15.1592V6.17072H15.647ZM16.1348 6.17072V6.65853H15.647V6.17072H16.1348ZM16.6226 6.17072V6.65853H16.1348V6.17072H16.6226ZM17.1104 6.17072V6.65853H16.6226V6.17072H17.1104ZM17.1104 5.68292V6.17072H16.6226V5.68292H17.1104ZM16.6226 5.68292V6.17072H16.1348V5.68292H16.6226ZM16.6226 5.19512V5.68292H16.1348V5.19512H16.6226ZM16.6226 4.70731V5.19512H16.1348V4.70731H16.6226ZM16.1348 4.70731V5.19512H15.647V4.70731H16.1348ZM16.1348 5.19512V5.68292H15.647V5.19512H16.1348ZM15.647 5.19512V5.68292H15.1592V5.19512H15.647ZM15.647 5.68292V6.17072H15.1592V5.68292H15.647ZM16.1348 5.68292V6.17072H15.647V5.68292H16.1348ZM15.647 6.65853V7.14633H15.1592V6.65853H15.647ZM16.1348 6.65853V7.14633H15.647V6.65853H16.1348ZM16.1348 7.14633V7.63414H15.647V7.14633H16.1348ZM16.6226 7.14633V7.63414H16.1348V7.14633H16.6226ZM16.6226 7.63414V8.12194H16.1348V7.63414H16.6226ZM17.1104 7.63414V8.12194H16.6226V7.63414H17.1104ZM17.1104 8.12194V8.60975H16.6226V8.12194H17.1104ZM17.1104 8.60975V9.09755H16.6226V8.60975H17.1104ZM17.1104 9.09755V9.58536H16.6226V9.09755H17.1104ZM16.6226 9.09755V9.58536H16.1348V9.09755H16.6226ZM16.6226 8.60975V9.09755H16.1348V8.60975H16.6226ZM16.1348 9.58536V10.0732H15.647V9.58536H16.1348ZM16.1348 9.09755V9.58536H15.647V9.09755H16.1348ZM16.1348 10.0732V10.561H15.647V10.0732H16.1348ZM15.647 10.0732V10.561H15.1592V10.0732H15.647ZM15.647 9.58536V10.0732H15.1592V9.58536H15.647ZM15.1592 10.0732V10.561H14.6714V10.0732H15.1592ZM16.1348 10.561V11.0488H15.647V10.561H16.1348ZM16.6226 10.561V11.0488H16.1348V10.561H16.6226ZM17.1104 10.561V11.0488H16.6226V10.561H17.1104ZM17.1104 10.0732V10.561H16.6226V10.0732H17.1104ZM17.5982 10.0732V10.561H17.1104V10.0732H17.5982ZM17.5982 9.58536V10.0732H17.1104V9.58536H17.5982ZM18.086 9.58536V10.0732H17.5982V9.58536H18.086ZM18.086 9.09755V9.58536H17.5982V9.09755H18.086ZM18.5738 9.09755V9.58536H18.086V9.09755H18.5738ZM19.0616 9.09755V9.58536H18.5738V9.09755H19.0616ZM19.5494 9.09755V9.58536H19.0616V9.09755H19.5494ZM19.5494 9.58536V10.0732H19.0616V9.58536H19.5494ZM20.0372 9.58536V10.0732H19.5494V9.58536H20.0372ZM20.0372 10.0732V10.561H19.5494V10.0732H20.0372ZM20.525 10.0732V10.561H20.0372V10.0732H20.525ZM20.525 10.561V11.0488H20.0372V10.561H20.525ZM21.0128 10.561V11.0488H20.525V10.561H21.0128ZM21.0128 10.0732V10.561H20.525V10.0732H21.0128ZM21.5006 10.0732V10.561H21.0128V10.0732H21.5006ZM21.9884 10.0732V10.561H21.5006V10.0732H21.9884ZM22.4762 10.0732V10.561H21.9884V10.0732H22.4762ZM22.4762 10.561V11.0488H21.9884V10.561H22.4762ZM21.9884 9.58536V10.0732H21.5006V9.58536H21.9884ZM21.5006 9.58536V10.0732H21.0128V9.58536H21.5006ZM21.5006 9.09755V9.58536H21.0128V9.09755H21.5006ZM21.0128 9.09755V9.58536H20.525V9.09755H21.0128ZM20.525 9.09755V9.58536H20.0372V9.09755H20.525ZM20.525 8.60975V9.09755H20.0372V8.60975H20.525ZM20.0372 9.09755V9.58536H19.5494V9.09755H20.0372ZM21.0128 9.58536V10.0732H20.525V9.58536H21.0128ZM20.525 9.58536V10.0732H20.0372V9.58536H20.525ZM18.086 8.12194V8.60975H17.5982V8.12194H18.086ZM18.5738 8.12194V8.60975H18.086V8.12194H18.5738ZM19.0616 8.12194V8.60975H18.5738V8.12194H19.0616ZM19.5494 8.12194V8.60975H19.0616V8.12194H19.5494ZM20.0372 8.12194V8.60975H19.5494V8.12194H20.0372ZM20.525 8.12194V8.60975H20.0372V8.12194H20.525ZM20.0372 8.60975V9.09755H19.5494V8.60975H20.0372ZM19.5494 8.60975V9.09755H19.0616V8.60975H19.5494ZM19.0616 8.60975V9.09755H18.5738V8.60975H19.0616ZM18.5738 8.60975V9.09755H18.086V8.60975H18.5738ZM18.086 8.60975V9.09755H17.5982V8.60975H18.086ZM17.5982 8.60975V9.09755H17.1104V8.60975H17.5982ZM17.5982 8.12194V8.60975H17.1104V8.12194H17.5982ZM17.5982 9.09755V9.58536H17.1104V9.09755H17.5982ZM17.1104 9.58536V10.0732H16.6226V9.58536H17.1104ZM16.6226 10.0732V10.561H16.1348V10.0732H16.6226ZM16.6226 9.58536V10.0732H16.1348V9.58536H16.6226ZM21.0128 8.60975V9.09755H20.525V8.60975H21.0128ZM21.0128 7.63414V8.12194H20.525V7.63414H21.0128ZM21.0128 7.14633V7.63414H20.525V7.14633H21.0128ZM21.5006 7.14633V7.63414H21.0128V7.14633H21.5006ZM21.5006 6.65853V7.14633H21.0128V6.65853H21.5006ZM21.9884 6.65853V7.14633H21.5006V6.65853H21.9884ZM21.9884 6.17072V6.65853H21.5006V6.17072H21.9884ZM22.4762 6.17072V6.65853H21.9884V6.17072H22.4762ZM22.4762 5.68292V6.17072H21.9884V5.68292H22.4762ZM22.4762 5.19512V5.68292H21.9884V5.19512H22.4762ZM22.4762 4.70731V5.19512H21.9884V4.70731H22.4762ZM22.4762 4.21951V4.70731H21.9884V4.21951H22.4762ZM22.4762 3.7317V4.21951H21.9884V3.7317H22.4762ZM21.9884 3.7317V4.21951H21.5006V3.7317H21.9884ZM21.5006 3.7317V4.21951H21.0128V3.7317H21.5006ZM21.0128 3.7317V4.21951H20.525V3.7317H21.0128ZM20.525 3.7317V4.21951H20.0372V3.7317H20.525ZM20.525 4.21951V4.70731H20.0372V4.21951H20.525ZM20.525 4.70731V5.19512H20.0372V4.70731H20.525ZM20.525 5.19512V5.68292H20.0372V5.19512H20.525ZM20.525 5.68292V6.17072H20.0372V5.68292H20.525ZM20.525 6.17072V6.65853H20.0372V6.17072H20.525ZM20.0372 6.17072V6.65853H19.5494V6.17072H20.0372ZM20.0372 6.65853V7.14633H19.5494V6.65853H20.0372ZM19.5494 6.65853V7.14633H19.0616V6.65853H19.5494ZM19.5494 7.14633V7.63414H19.0616V7.14633H19.5494ZM19.0616 7.14633V7.63414H18.5738V7.14633H19.0616ZM18.5738 7.14633V7.63414H18.086V7.14633H18.5738ZM18.086 6.65853V7.14633H17.5982V6.65853H18.086ZM17.5982 6.65853V7.14633H17.1104V6.65853H17.5982ZM17.5982 6.17072V6.65853H17.1104V6.17072H17.5982ZM17.1104 6.65853V7.14633H16.6226V6.65853H17.1104ZM16.6226 6.65853V7.14633H16.1348V6.65853H16.6226ZM17.1104 7.14633V7.63414H16.6226V7.14633H17.1104ZM17.5982 7.14633V7.63414H17.1104V7.14633H17.5982ZM18.086 7.14633V7.63414H17.5982V7.14633H18.086ZM18.086 7.63414V8.12194H17.5982V7.63414H18.086ZM17.5982 7.63414V8.12194H17.1104V7.63414H17.5982ZM18.5738 7.63414V8.12194H18.086V7.63414H18.5738ZM19.0616 7.63414V8.12194H18.5738V7.63414H19.0616ZM19.5494 7.63414V8.12194H19.0616V7.63414H19.5494ZM20.0372 7.63414V8.12194H19.5494V7.63414H20.0372ZM20.525 7.63414V8.12194H20.0372V7.63414H20.525ZM20.525 7.14633V7.63414H20.0372V7.14633H20.525ZM20.0372 7.14633V7.63414H19.5494V7.14633H20.0372ZM21.0128 4.21951V4.70731H20.525V4.21951H21.0128ZM21.5006 4.21951V4.70731H21.0128V4.21951H21.5006ZM21.9884 4.21951V4.70731H21.5006V4.21951H21.9884ZM21.9884 4.70731V5.19512H21.5006V4.70731H21.9884ZM21.9884 5.19512V5.68292H21.5006V5.19512H21.9884ZM21.9884 5.68292V6.17072H21.5006V5.68292H21.9884ZM21.5006 5.68292V6.17072H21.0128V5.68292H21.5006ZM21.5006 5.19512V5.68292H21.0128V5.19512H21.5006ZM21.5006 4.70731V5.19512H21.0128V4.70731H21.5006ZM21.0128 4.70731V5.19512H20.525V4.70731H21.0128ZM21.0128 5.19512V5.68292H20.525V5.19512H21.0128ZM21.0128 5.68292V6.17072H20.525V5.68292H21.0128ZM21.0128 6.17072V6.65853H20.525V6.17072H21.0128ZM21.5006 6.17072V6.65853H21.0128V6.17072H21.5006ZM21.0128 6.65853V7.14633H20.525V6.65853H21.0128ZM20.525 6.65853V7.14633H20.0372V6.65853H20.525ZM15.1592 10.561V11.0488H14.6714V10.561H15.1592ZM15.647 10.561V11.0488H15.1592V10.561H15.647ZM21.5006 10.561V11.0488H21.0128V10.561H21.5006ZM21.9884 10.561V11.0488H21.5006V10.561H21.9884ZM20.525 11.0488V11.5366H20.0372V11.0488H20.525ZM20.525 11.5366V12.0244H20.0372V11.5366H20.525ZM20.525 12.0244V12.5122H20.0372V12.0244H20.525ZM20.525 12.5122V13H20.0372V12.5122H20.525ZM21.0128 12.5122V13H20.525V12.5122H21.0128ZM21.5006 12.5122V13H21.0128V12.5122H21.5006ZM21.9884 12.5122V13H21.5006V12.5122H21.9884ZM22.4762 12.5122V13H21.9884V12.5122H22.4762ZM22.4762 12.0244V12.5122H21.9884V12.0244H22.4762ZM22.4762 11.5366V12.0244H21.9884V11.5366H22.4762ZM22.4762 11.0488V11.5366H21.9884V11.0488H22.4762ZM21.9884 11.0488V11.5366H21.5006V11.0488H21.9884ZM21.5006 11.0488V11.5366H21.0128V11.0488H21.5006ZM21.0128 11.0488V11.5366H20.525V11.0488H21.0128ZM21.0128 11.5366V12.0244H20.525V11.5366H21.0128ZM21.0128 12.0244V12.5122H20.525V12.0244H21.0128ZM21.5006 12.0244V12.5122H21.0128V12.0244H21.5006ZM21.9884 12.0244V12.5122H21.5006V12.0244H21.9884ZM21.9884 11.5366V12.0244H21.5006V11.5366H21.9884ZM21.5006 11.5366V12.0244H21.0128V11.5366H21.5006ZM15.1592 11.0488V11.5366H14.6714V11.0488H15.1592ZM15.1592 11.5366V12.0244H14.6714V11.5366H15.1592ZM15.1592 12.0244V12.5122H14.6714V12.0244H15.1592ZM15.647 12.0244V12.5122H15.1592V12.0244H15.647ZM15.647 12.5122V13H15.1592V12.5122H15.647ZM15.1592 12.5122V13H14.6714V12.5122H15.1592ZM16.1348 12.5122V13H15.647V12.5122H16.1348ZM16.6226 12.5122V13H16.1348V12.5122H16.6226ZM17.1104 12.5122V13H16.6226V12.5122H17.1104ZM17.1104 12.0244V12.5122H16.6226V12.0244H17.1104ZM17.1104 11.5366V12.0244H16.6226V11.5366H17.1104ZM17.1104 11.0488V11.5366H16.6226V11.0488H17.1104ZM16.6226 11.0488V11.5366H16.1348V11.0488H16.6226ZM16.6226 11.5366V12.0244H16.1348V11.5366H16.6226ZM16.6226 12.0244V12.5122H16.1348V12.0244H16.6226ZM16.1348 12.0244V12.5122H15.647V12.0244H16.1348ZM16.1348 11.5366V12.0244H15.647V11.5366H16.1348ZM16.1348 11.0488V11.5366H15.647V11.0488H16.1348ZM15.647 11.5366V12.0244H15.1592V11.5366H15.647ZM15.647 11.0488V11.5366H15.1592V11.0488H15.647Z" fill="#FB85A8"/>
<path d="M30.0028 6.65853V7.14633H29.515V6.65853H30.0028ZM30.4906 6.65853V7.14633H30.0028V6.65853H30.4906ZM30.9785 6.65853V7.14633H30.4906V6.65853H30.9785ZM31.4663 6.65853V7.14633H30.9785V6.65853H31.4663ZM31.9541 6.65853V7.14633H31.4663V6.65853H31.9541ZM31.9541 6.17072V6.65853H31.4663V6.17072H31.9541ZM31.9541 5.68292V6.17072H31.4663V5.68292H31.9541ZM31.4663 5.68292V6.17072H30.9785V5.68292H31.4663ZM30.9785 5.68292V6.17072H30.4906V5.68292H30.9785ZM30.4906 5.68292V6.17072H30.0028V5.68292H30.4906ZM30.4906 6.17072V6.65853H30.0028V6.17072H30.4906ZM30.0028 6.17072V6.65853H29.515V6.17072H30.0028ZM30.9785 6.17072V6.65853H30.4906V6.17072H30.9785ZM31.4663 6.17072V6.65853H30.9785V6.17072H31.4663ZM30.0028 5.68292V6.17072H29.515V5.68292H30.0028ZM29.515 5.68292V6.17072H29.0272V5.68292H29.515ZM29.515 5.19512V5.68292H29.0272V5.19512H29.515ZM30.0028 5.19512V5.68292H29.515V5.19512H30.0028ZM30.4906 5.19512V5.68292H30.0028V5.19512H30.4906ZM30.9785 5.19512V5.68292H30.4906V5.19512H30.9785ZM31.4663 5.19512V5.68292H30.9785V5.19512H31.4663ZM31.4663 4.70731V5.19512H30.9785V4.70731H31.4663ZM30.9785 4.70731V5.19512H30.4906V4.70731H30.9785ZM30.4906 4.70731V5.19512H30.0028V4.70731H30.4906ZM30.0028 4.70731V5.19512H29.515V4.70731H30.0028ZM29.515 4.70731V5.19512H29.0272V4.70731H29.515ZM30.4906 4.21951V4.70731H30.0028V4.21951H30.4906ZM30.9785 4.21951V4.70731H30.4906V4.21951H30.9785ZM30.0028 4.21951V4.70731H29.515V4.21951H30.0028ZM30.0028 3.7317V4.21951H29.515V3.7317H30.0028ZM29.515 3.7317V4.21951H29.0272V3.7317H29.515ZM29.515 4.21951V4.70731H29.0272V4.21951H29.515ZM29.0272 4.21951V4.70731H28.5394V4.21951H29.0272ZM29.0272 3.7317V4.21951H28.5394V3.7317H29.0272ZM29.0272 4.70731V5.19512H28.5394V4.70731H29.0272ZM28.5394 4.70731V5.19512H28.0516V4.70731H28.5394ZM28.5394 5.19512V5.68292H28.0516V5.19512H28.5394ZM29.0272 5.19512V5.68292H28.5394V5.19512H29.0272ZM28.0516 5.19512V5.68292H27.5638V5.19512H28.0516ZM28.0516 4.70731V5.19512H27.5638V4.70731H28.0516ZM28.0516 4.21951V4.70731H27.5638V4.21951H28.0516ZM28.0516 3.7317V4.21951H27.5638V3.7317H28.0516ZM28.5394 3.7317V4.21951H28.0516V3.7317H28.5394ZM28.5394 4.21951V4.70731H28.0516V4.21951H28.5394ZM27.5638 3.7317V4.21951H27.076V3.7317H27.5638ZM27.076 3.7317V4.21951H26.5882V3.7317H27.076ZM26.5882 3.7317V4.21951H26.1004V3.7317H26.5882ZM26.5882 4.21951V4.70731H26.1004V4.21951H26.5882ZM26.5882 4.70731V5.19512H26.1004V4.70731H26.5882ZM26.5882 5.19512V5.68292H26.1004V5.19512H26.5882ZM27.076 5.19512V5.68292H26.5882V5.19512H27.076ZM27.5638 5.19512V5.68292H27.076V5.19512H27.5638ZM27.5638 4.70731V5.19512H27.076V4.70731H27.5638ZM27.5638 4.21951V4.70731H27.076V4.21951H27.5638ZM27.076 4.21951V4.70731H26.5882V4.21951H27.076ZM27.076 4.70731V5.19512H26.5882V4.70731H27.076ZM26.1004 4.70731V5.19512H25.6126V4.70731H26.1004ZM26.1004 4.21951V4.70731H25.6126V4.21951H26.1004ZM25.6126 4.21951V4.70731H25.1248V4.21951H25.6126ZM25.6126 4.70731V5.19512H25.1248V4.70731H25.6126ZM25.1248 4.70731V5.19512H24.637V4.70731H25.1248ZM25.1248 5.19512V5.68292H24.637V5.19512H25.1248ZM25.1248 5.68292V6.17072H24.637V5.68292H25.1248ZM25.6126 5.68292V6.17072H25.1248V5.68292H25.6126ZM25.6126 5.19512V5.68292H25.1248V5.19512H25.6126ZM26.1004 5.19512V5.68292H25.6126V5.19512H26.1004ZM26.1004 5.68292V6.17072H25.6126V5.68292H26.1004ZM26.5882 5.68292V6.17072H26.1004V5.68292H26.5882ZM27.076 5.68292V6.17072H26.5882V5.68292H27.076ZM24.637 5.68292V6.17072H24.1492V5.68292H24.637ZM24.637 6.17072V6.65853H24.1492V6.17072H24.637ZM24.637 6.65853V7.14633H24.1492V6.65853H24.637ZM24.637 7.14633V7.63414H24.1492V7.14633H24.637ZM24.637 7.63414V8.12194H24.1492V7.63414H24.637ZM24.637 8.12194V8.60975H24.1492V8.12194H24.637ZM24.637 8.60975V9.09755H24.1492V8.60975H24.637ZM24.637 9.09755V9.58536H24.1492V9.09755H24.637ZM24.637 9.58536V10.0732H24.1492V9.58536H24.637ZM24.637 10.0732V10.561H24.1492V10.0732H24.637ZM25.1248 10.0732V10.561H24.637V10.0732H25.1248ZM25.1248 10.561V11.0488H24.637V10.561H25.1248ZM24.637 10.561V11.0488H24.1492V10.561H24.637ZM25.6126 10.561V11.0488H25.1248V10.561H25.6126ZM26.1004 10.561V11.0488H25.6126V10.561H26.1004ZM26.5882 10.561V11.0488H26.1004V10.561H26.5882ZM27.076 10.561V11.0488H26.5882V10.561H27.076ZM26.5882 10.0732V10.561H26.1004V10.0732H26.5882ZM26.5882 9.58536V10.0732H26.1004V9.58536H26.5882ZM26.5882 9.09755V9.58536H26.1004V9.09755H26.5882ZM26.5882 8.60975V9.09755H26.1004V8.60975H26.5882ZM26.5882 8.12194V8.60975H26.1004V8.12194H26.5882ZM26.5882 7.63414V8.12194H26.1004V7.63414H26.5882ZM26.5882 7.14633V7.63414H26.1004V7.14633H26.5882ZM26.5882 6.65853V7.14633H26.1004V6.65853H26.5882ZM26.5882 6.17072V6.65853H26.1004V6.17072H26.5882ZM26.1004 6.17072V6.65853H25.6126V6.17072H26.1004ZM25.6126 6.17072V6.65853H25.1248V6.17072H25.6126ZM25.1248 6.17072V6.65853H24.637V6.17072H25.1248ZM25.1248 6.65853V7.14633H24.637V6.65853H25.1248ZM25.1248 7.14633V7.63414H24.637V7.14633H25.1248ZM25.1248 7.63414V8.12194H24.637V7.63414H25.1248ZM25.1248 8.12194V8.60975H24.637V8.12194H25.1248ZM25.1248 8.60975V9.09755H24.637V8.60975H25.1248ZM25.1248 9.09755V9.58536H24.637V9.09755H25.1248ZM25.1248 9.58536V10.0732H24.637V9.58536H25.1248ZM25.6126 10.0732V10.561H25.1248V10.0732H25.6126ZM26.1004 10.0732V10.561H25.6126V10.0732H26.1004ZM26.1004 9.58536V10.0732H25.6126V9.58536H26.1004ZM26.1004 9.09755V9.58536H25.6126V9.09755H26.1004ZM26.1004 8.60975V9.09755H25.6126V8.60975H26.1004ZM26.1004 8.12194V8.60975H25.6126V8.12194H26.1004ZM25.6126 8.12194V8.60975H25.1248V8.12194H25.6126ZM25.6126 7.63414V8.12194H25.1248V7.63414H25.6126ZM25.6126 7.14633V7.63414H25.1248V7.14633H25.6126ZM25.6126 6.65853V7.14633H25.1248V6.65853H25.6126ZM26.1004 6.65853V7.14633H25.6126V6.65853H26.1004ZM26.1004 7.14633V7.63414H25.6126V7.14633H26.1004ZM26.1004 7.63414V8.12194H25.6126V7.63414H26.1004ZM25.6126 9.09755V9.58536H25.1248V9.09755H25.6126ZM25.6126 9.58536V10.0732H25.1248V9.58536H25.6126ZM25.6126 8.60975V9.09755H25.1248V8.60975H25.6126ZM30.0028 10.0732V10.561H29.515V10.0732H30.0028ZM30.4906 10.0732V10.561H30.0028V10.0732H30.4906ZM30.9785 10.0732V10.561H30.4906V10.0732H30.9785ZM31.4663 10.0732V10.561H30.9785V10.0732H31.4663ZM31.9541 10.0732V10.561H31.4663V10.0732H31.9541ZM31.9541 10.561V11.0488H31.4663V10.561H31.9541ZM31.4663 10.561V11.0488H30.9785V10.561H31.4663ZM30.9785 10.561V11.0488H30.4906V10.561H30.9785ZM30.4906 10.561V11.0488H30.0028V10.561H30.4906ZM30.0028 10.561V11.0488H29.515V10.561H30.0028ZM29.515 10.561V11.0488H29.0272V10.561H29.515ZM29.515 11.0488V11.5366H29.0272V11.0488H29.515ZM30.0028 11.0488V11.5366H29.515V11.0488H30.0028ZM30.4906 11.0488V11.5366H30.0028V11.0488H30.4906ZM30.9785 11.0488V11.5366H30.4906V11.0488H30.9785ZM30.9785 11.5366V12.0244H30.4906V11.5366H30.9785ZM31.4663 11.5366V12.0244H30.9785V11.5366H31.4663ZM31.4663 11.0488V11.5366H30.9785V11.0488H31.4663ZM30.9785 12.0244V12.5122H30.4906V12.0244H30.9785ZM30.4906 12.0244V12.5122H30.0028V12.0244H30.4906ZM30.4906 11.5366V12.0244H30.0028V11.5366H30.4906ZM30.0028 11.5366V12.0244H29.515V11.5366H30.0028ZM30.0028 12.0244V12.5122H29.515V12.0244H30.0028ZM30.0028 12.5122V13H29.515V12.5122H30.0028ZM29.515 12.5122V13H29.0272V12.5122H29.515ZM29.0272 12.5122V13H28.5394V12.5122H29.0272ZM28.5394 12.5122V13H28.0516V12.5122H28.5394ZM28.0516 12.5122V13H27.5638V12.5122H28.0516ZM27.5638 12.5122V13H27.076V12.5122H27.5638ZM27.076 12.5122V13H26.5882V12.5122H27.076ZM26.5882 12.5122V13H26.1004V12.5122H26.5882ZM27.076 12.0244V12.5122H26.5882V12.0244H27.076ZM27.5638 12.0244V12.5122H27.076V12.0244H27.5638ZM28.0516 12.0244V12.5122H27.5638V12.0244H28.0516ZM28.5394 12.0244V12.5122H28.0516V12.0244H28.5394ZM29.0272 12.0244V12.5122H28.5394V12.0244H29.0272ZM29.515 12.0244V12.5122H29.0272V12.0244H29.515ZM29.515 11.5366V12.0244H29.0272V11.5366H29.515ZM29.0272 11.5366V12.0244H28.5394V11.5366H29.0272ZM28.5394 11.5366V12.0244H28.0516V11.5366H28.5394ZM28.0516 11.5366V12.0244H27.5638V11.5366H28.0516ZM27.5638 11.5366V12.0244H27.076V11.5366H27.5638ZM27.076 11.5366V12.0244H26.5882V11.5366H27.076ZM26.5882 12.0244V12.5122H26.1004V12.0244H26.5882ZM26.1004 12.0244V12.5122H25.6126V12.0244H26.1004ZM25.6126 12.0244V12.5122H25.1248V12.0244H25.6126ZM25.6126 11.5366V12.0244H25.1248V11.5366H25.6126ZM25.1248 11.5366V12.0244H24.637V11.5366H25.1248ZM25.1248 11.0488V11.5366H24.637V11.0488H25.1248ZM25.6126 11.0488V11.5366H25.1248V11.0488H25.6126ZM26.1004 11.0488V11.5366H25.6126V11.0488H26.1004ZM26.5882 11.0488V11.5366H26.1004V11.0488H26.5882ZM27.076 11.0488V11.5366H26.5882V11.0488H27.076ZM27.5638 11.0488V11.5366H27.076V11.0488H27.5638ZM28.0516 11.0488V11.5366H27.5638V11.0488H28.0516ZM28.5394 11.0488V11.5366H28.0516V11.0488H28.5394ZM29.0272 11.0488V11.5366H28.5394V11.0488H29.0272ZM26.5882 11.5366V12.0244H26.1004V11.5366H26.5882ZM26.1004 11.5366V12.0244H25.6126V11.5366H26.1004ZM31.9541 7.14633V7.63414H31.4663V7.14633H31.9541ZM31.4663 7.14633V7.63414H30.9785V7.14633H31.4663ZM30.9785 7.14633V7.63414H30.4906V7.14633H30.9785ZM30.4906 7.14633V7.63414H30.0028V7.14633H30.4906ZM30.0028 7.14633V7.63414H29.515V7.14633H30.0028ZM31.9541 7.63414V8.12194H31.4663V7.63414H31.9541ZM30.9785 7.63414V8.12194H30.4906V7.63414H30.9785ZM30.4906 7.63414V8.12194H30.0028V7.63414H30.4906ZM29.515 7.63414V8.12194H29.0272V7.63414H29.515ZM29.0272 7.63414V8.12194H28.5394V7.63414H29.0272ZM28.5394 7.63414V8.12194H28.0516V7.63414H28.5394ZM28.0516 7.63414V8.12194H27.5638V7.63414H28.0516ZM27.5638 7.63414V8.12194H27.076V7.63414H27.5638ZM27.076 7.63414V8.12194H26.5882V7.63414H27.076ZM30.0028 7.63414V8.12194H29.515V7.63414H30.0028ZM31.4663 7.63414V8.12194H30.9785V7.63414H31.4663ZM31.9541 8.12194V8.60975H31.4663V8.12194H31.9541ZM31.4663 8.12194V8.60975H30.9785V8.12194H31.4663ZM30.9785 8.12194V8.60975H30.4906V8.12194H30.9785ZM30.4906 8.12194V8.60975H30.0028V8.12194H30.4906ZM30.0028 8.12194V8.60975H29.515V8.12194H30.0028ZM29.515 8.12194V8.60975H29.0272V8.12194H29.515ZM29.0272 8.12194V8.60975H28.5394V8.12194H29.0272ZM28.5394 8.12194V8.60975H28.0516V8.12194H28.5394ZM28.0516 8.12194V8.60975H27.5638V8.12194H28.0516ZM27.5638 8.12194V8.60975H27.076V8.12194H27.5638ZM27.076 8.12194V8.60975H26.5882V8.12194H27.076ZM27.076 8.60975V9.09755H26.5882V8.60975H27.076ZM27.5638 8.60975V9.09755H27.076V8.60975H27.5638ZM28.0516 8.60975V9.09755H27.5638V8.60975H28.0516ZM29.0272 8.60975V9.09755H28.5394V8.60975H29.0272ZM29.515 8.60975V9.09755H29.0272V8.60975H29.515ZM30.0028 8.60975V9.09755H29.515V8.60975H30.0028ZM30.4906 8.60975V9.09755H30.0028V8.60975H30.4906ZM30.9785 8.60975V9.09755H30.4906V8.60975H30.9785ZM31.4663 8.60975V9.09755H30.9785V8.60975H31.4663ZM31.9541 8.60975V9.09755H31.4663V8.60975H31.9541ZM28.5394 8.60975V9.09755H28.0516V8.60975H28.5394Z" fill="#FB85A8"/>
<path d="M34.1139 12.5122V13H33.626V12.5122H34.1139ZM34.1139 12.0244V12.5122H33.626V12.0244H34.1139ZM34.1139 11.5366V12.0244H33.626V11.5366H34.1139ZM34.1139 11.0488V11.5366H33.626V11.0488H34.1139ZM34.1139 10.561V11.0488H33.626V10.561H34.1139ZM34.1139 10.0732V10.561H33.626V10.0732H34.1139ZM34.1139 9.58536V10.0732H33.626V9.58536H34.1139ZM34.1139 9.09755V9.58536H33.626V9.09755H34.1139ZM34.1139 8.60975V9.09755H33.626V8.60975H34.1139ZM34.1139 8.12194V8.60975H33.626V8.12194H34.1139ZM34.1139 7.63414V8.12194H33.626V7.63414H34.1139ZM34.1139 7.14633V7.63414H33.626V7.14633H34.1139ZM34.1139 6.65853V7.14633H33.626V6.65853H34.1139ZM34.1139 6.17072V6.65853H33.626V6.17072H34.1139ZM34.1139 5.68292V6.17072H33.626V5.68292H34.1139ZM34.6017 5.68292V6.17072H34.1139V5.68292H34.6017ZM34.6017 6.17072V6.65853H34.1139V6.17072H34.6017ZM34.6017 6.65853V7.14633H34.1139V6.65853H34.6017ZM34.6017 7.14633V7.63414H34.1139V7.14633H34.6017ZM34.6017 7.63414V8.12194H34.1139V7.63414H34.6017ZM34.6017 8.12194V8.60975H34.1139V8.12194H34.6017ZM34.6017 8.60975V9.09755H34.1139V8.60975H34.6017ZM35.0895 9.09755V9.58536H34.6017V9.09755H35.0895ZM35.0895 9.58536V10.0732H34.6017V9.58536H35.0895ZM35.0895 10.0732V10.561H34.6017V10.0732H35.0895ZM35.0895 10.561V11.0488H34.6017V10.561H35.0895ZM35.0895 11.0488V11.5366H34.6017V11.0488H35.0895ZM35.0895 11.5366V12.0244H34.6017V11.5366H35.0895ZM35.0895 12.0244V12.5122H34.6017V12.0244H35.0895ZM35.0895 12.5122V13H34.6017V12.5122H35.0895ZM35.5773 12.5122V13H35.0895V12.5122H35.5773ZM36.0651 12.5122V13H35.5773V12.5122H36.0651ZM36.0651 12.0244V12.5122H35.5773V12.0244H36.0651ZM36.0651 11.5366V12.0244H35.5773V11.5366H36.0651ZM36.0651 11.0488V11.5366H35.5773V11.0488H36.0651ZM36.0651 10.561V11.0488H35.5773V10.561H36.0651ZM36.0651 10.0732V10.561H35.5773V10.0732H36.0651ZM36.0651 9.58536V10.0732H35.5773V9.58536H36.0651ZM36.0651 9.09755V9.58536H35.5773V9.09755H36.0651ZM35.5773 9.09755V9.58536H35.0895V9.09755H35.5773ZM35.5773 8.60975V9.09755H35.0895V8.60975H35.5773ZM35.5773 9.58536V10.0732H35.0895V9.58536H35.5773ZM35.5773 10.0732V10.561H35.0895V10.0732H35.5773ZM35.5773 10.561V11.0488H35.0895V10.561H35.5773ZM35.5773 11.0488V11.5366H35.0895V11.0488H35.5773ZM35.5773 11.5366V12.0244H35.0895V11.5366H35.5773ZM35.5773 12.0244V12.5122H35.0895V12.0244H35.5773ZM34.6017 12.5122V13H34.1139V12.5122H34.6017ZM34.6017 12.0244V12.5122H34.1139V12.0244H34.6017ZM34.6017 11.5366V12.0244H34.1139V11.5366H34.6017ZM34.6017 11.0488V11.5366H34.1139V11.0488H34.6017ZM34.6017 10.561V11.0488H34.1139V10.561H34.6017ZM34.6017 10.0732V10.561H34.1139V10.0732H34.6017ZM34.6017 9.58536V10.0732H34.1139V9.58536H34.6017ZM34.6017 9.09755V9.58536H34.1139V9.09755H34.6017ZM34.1139 0.804871V1.29268H33.626V0.804871H34.1139ZM34.1139 1.29268V1.78048H33.626V1.29268H34.1139ZM34.1139 1.78048V2.26829H33.626V1.78048H34.1139ZM34.1139 2.26829V2.75609H33.626V2.26829H34.1139ZM34.1139 2.75609V3.2439H33.626V2.75609H34.1139ZM34.1139 3.2439V3.7317H33.626V3.2439H34.1139ZM34.1139 3.7317V4.21951H33.626V3.7317H34.1139ZM34.1139 4.21951V4.70731H33.626V4.21951H34.1139ZM34.1139 4.70731V5.19512H33.626V4.70731H34.1139ZM34.1139 5.19512V5.68292H33.626V5.19512H34.1139ZM35.5773 0.804871V1.29268H35.0895V0.804871H35.5773ZM35.5773 1.29268V1.78048H35.0895V1.29268H35.5773ZM35.5773 1.78048V2.26829H35.0895V1.78048H35.5773ZM35.5773 2.26829V2.75609H35.0895V2.26829H35.5773ZM35.5773 2.75609V3.2439H35.0895V2.75609H35.5773ZM35.5773 3.2439V3.7317H35.0895V3.2439H35.5773ZM35.5773 4.21951V4.70731H35.0895V4.21951H35.5773ZM35.5773 4.70731V5.19512H35.0895V4.70731H35.5773ZM35.5773 5.19512V5.68292H35.0895V5.19512H35.5773ZM35.5773 5.68292V6.17072H35.0895V5.68292H35.5773ZM35.5773 6.17072V6.65853H35.0895V6.17072H35.5773ZM35.5773 6.65853V7.14633H35.0895V6.65853H35.5773ZM35.5773 7.14633V7.63414H35.0895V7.14633H35.5773ZM36.0651 7.63414V8.12194H35.5773V7.63414H36.0651ZM36.0651 8.12194V8.60975H35.5773V8.12194H36.0651ZM36.0651 8.60975V9.09755H35.5773V8.60975H36.0651ZM36.0651 7.14633V7.63414H35.5773V7.14633H36.0651ZM36.0651 6.65853V7.14633H35.5773V6.65853H36.0651ZM36.0651 6.17072V6.65853H35.5773V6.17072H36.0651ZM36.0651 5.68292V6.17072H35.5773V5.68292H36.0651ZM36.0651 5.19512V5.68292H35.5773V5.19512H36.0651ZM36.0651 4.70731V5.19512H35.5773V4.70731H36.0651ZM36.0651 4.21951V4.70731H35.5773V4.21951H36.0651ZM36.0651 3.7317V4.21951H35.5773V3.7317H36.0651ZM36.0651 3.2439V3.7317H35.5773V3.2439H36.0651ZM36.0651 2.75609V3.2439H35.5773V2.75609H36.0651ZM35.5773 3.7317V4.21951H35.0895V3.7317H35.5773ZM36.0651 2.26829V2.75609H35.5773V2.26829H36.0651ZM36.0651 1.78048V2.26829H35.5773V1.78048H36.0651ZM36.0651 1.29268V1.78048H35.5773V1.29268H36.0651ZM36.0651 0.804871V1.29268H35.5773V0.804871H36.0651ZM35.0895 0.804871V1.29268H34.6017V0.804871H35.0895ZM34.6017 0.804871V1.29268H34.1139V0.804871H34.6017ZM34.6017 1.29268V1.78048H34.1139V1.29268H34.6017ZM35.0895 1.29268V1.78048H34.6017V1.29268H35.0895ZM35.0895 1.78048V2.26829H34.6017V1.78048H35.0895ZM35.0895 2.26829V2.75609H34.6017V2.26829H35.0895ZM35.0895 2.75609V3.2439H34.6017V2.75609H35.0895ZM35.0895 3.2439V3.7317H34.6017V3.2439H35.0895ZM35.0895 3.7317V4.21951H34.6017V3.7317H35.0895ZM35.0895 4.21951V4.70731H34.6017V4.21951H35.0895ZM34.6017 4.70731V5.19512H34.1139V4.70731H34.6017ZM34.6017 5.19512V5.68292H34.1139V5.19512H34.6017ZM34.6017 4.21951V4.70731H34.1139V4.21951H34.6017ZM34.6017 3.7317V4.21951H34.1139V3.7317H34.6017ZM34.6017 3.2439V3.7317H34.1139V3.2439H34.6017ZM34.6017 2.75609V3.2439H34.1139V2.75609H34.6017ZM34.6017 2.26829V2.75609H34.1139V2.26829H34.6017ZM34.6017 1.78048V2.26829H34.1139V1.78048H34.6017ZM35.0895 4.70731V5.19512H34.6017V4.70731H35.0895ZM35.0895 5.19512V5.68292H34.6017V5.19512H35.0895ZM35.0895 5.68292V6.17072H34.6017V5.68292H35.0895ZM35.0895 6.17072V6.65853H34.6017V6.17072H35.0895ZM35.0895 6.65853V7.14633H34.6017V6.65853H35.0895ZM35.0895 7.14633V7.63414H34.6017V7.14633H35.0895ZM35.0895 7.63414V8.12194H34.6017V7.63414H35.0895ZM35.0895 8.12194V8.60975H34.6017V8.12194H35.0895ZM35.0895 8.60975V9.09755H34.6017V8.60975H35.0895ZM35.5773 8.12194V8.60975H35.0895V8.12194H35.5773ZM35.5773 7.63414V8.12194H35.0895V7.63414H35.5773Z" fill="#FB85A8"/>
<path d="M38.7084 12.5122V13H38.2206V12.5122H38.7084ZM38.7084 12.0244V12.5122H38.2206V12.0244H38.7084ZM38.7084 11.5366V12.0244H38.2206V11.5366H38.7084ZM38.7084 11.0488V11.5366H38.2206V11.0488H38.7084ZM38.7084 10.561V11.0488H38.2206V10.561H38.7084ZM38.7084 10.0732V10.561H38.2206V10.0732H38.7084ZM38.7084 9.58536V10.0732H38.2206V9.58536H38.7084ZM38.7084 9.09755V9.58536H38.2206V9.09755H38.7084ZM38.7084 8.60975V9.09755H38.2206V8.60975H38.7084ZM38.7084 8.12194V8.60975H38.2206V8.12194H38.7084ZM38.7084 7.63414V8.12194H38.2206V7.63414H38.7084ZM38.7084 7.14633V7.63414H38.2206V7.14633H38.7084ZM38.7084 6.65853V7.14633H38.2206V6.65853H38.7084ZM38.7084 6.17072V6.65853H38.2206V6.17072H38.7084ZM38.7084 5.68292V6.17072H38.2206V5.68292H38.7084ZM39.1962 5.68292V6.17072H38.7084V5.68292H39.1962ZM39.1962 6.17072V6.65853H38.7084V6.17072H39.1962ZM39.1962 6.65853V7.14633H38.7084V6.65853H39.1962ZM39.1962 7.14633V7.63414H38.7084V7.14633H39.1962ZM39.1962 7.63414V8.12194H38.7084V7.63414H39.1962ZM39.1962 8.12194V8.60975H38.7084V8.12194H39.1962ZM39.1962 8.60975V9.09755H38.7084V8.60975H39.1962ZM39.684 9.09755V9.58536H39.1962V9.09755H39.684ZM39.684 9.58536V10.0732H39.1962V9.58536H39.684ZM39.684 10.0732V10.561H39.1962V10.0732H39.684ZM39.684 10.561V11.0488H39.1962V10.561H39.684ZM39.684 11.0488V11.5366H39.1962V11.0488H39.684ZM39.684 11.5366V12.0244H39.1962V11.5366H39.684ZM39.684 12.0244V12.5122H39.1962V12.0244H39.684ZM39.684 12.5122V13H39.1962V12.5122H39.684ZM40.1718 12.5122V13H39.684V12.5122H40.1718ZM40.6596 12.5122V13H40.1718V12.5122H40.6596ZM40.6596 12.0244V12.5122H40.1718V12.0244H40.6596ZM40.6596 11.5366V12.0244H40.1718V11.5366H40.6596ZM40.6596 11.0488V11.5366H40.1718V11.0488H40.6596ZM40.6596 10.561V11.0488H40.1718V10.561H40.6596ZM40.6596 10.0732V10.561H40.1718V10.0732H40.6596ZM40.6596 9.58536V10.0732H40.1718V9.58536H40.6596ZM40.6596 9.09755V9.58536H40.1718V9.09755H40.6596ZM40.1718 9.09755V9.58536H39.684V9.09755H40.1718ZM40.1718 8.60975V9.09755H39.684V8.60975H40.1718ZM40.1718 9.58536V10.0732H39.684V9.58536H40.1718ZM40.1718 10.0732V10.561H39.684V10.0732H40.1718ZM40.1718 10.561V11.0488H39.684V10.561H40.1718ZM40.1718 11.0488V11.5366H39.684V11.0488H40.1718ZM40.1718 11.5366V12.0244H39.684V11.5366H40.1718ZM40.1718 12.0244V12.5122H39.684V12.0244H40.1718ZM39.1962 12.5122V13H38.7084V12.5122H39.1962ZM39.1962 12.0244V12.5122H38.7084V12.0244H39.1962ZM39.1962 11.5366V12.0244H38.7084V11.5366H39.1962ZM39.1962 11.0488V11.5366H38.7084V11.0488H39.1962ZM39.1962 10.561V11.0488H38.7084V10.561H39.1962ZM39.1962 10.0732V10.561H38.7084V10.0732H39.1962ZM39.1962 9.58536V10.0732H38.7084V9.58536H39.1962ZM39.1962 9.09755V9.58536H38.7084V9.09755H39.1962ZM38.7084 0.804871V1.29268H38.2206V0.804871H38.7084ZM38.7084 1.29268V1.78048H38.2206V1.29268H38.7084ZM38.7084 1.78048V2.26829H38.2206V1.78048H38.7084ZM38.7084 2.26829V2.75609H38.2206V2.26829H38.7084ZM38.7084 2.75609V3.2439H38.2206V2.75609H38.7084ZM38.7084 3.2439V3.7317H38.2206V3.2439H38.7084ZM38.7084 3.7317V4.21951H38.2206V3.7317H38.7084ZM38.7084 4.21951V4.70731H38.2206V4.21951H38.7084ZM38.7084 4.70731V5.19512H38.2206V4.70731H38.7084ZM38.7084 5.19512V5.68292H38.2206V5.19512H38.7084ZM40.1718 0.804871V1.29268H39.684V0.804871H40.1718ZM40.1718 1.29268V1.78048H39.684V1.29268H40.1718ZM40.1718 1.78048V2.26829H39.684V1.78048H40.1718ZM40.1718 2.26829V2.75609H39.684V2.26829H40.1718ZM40.1718 2.75609V3.2439H39.684V2.75609H40.1718ZM40.1718 3.2439V3.7317H39.684V3.2439H40.1718ZM40.1718 4.21951V4.70731H39.684V4.21951H40.1718ZM40.1718 4.70731V5.19512H39.684V4.70731H40.1718ZM40.1718 5.19512V5.68292H39.684V5.19512H40.1718ZM40.1718 5.68292V6.17072H39.684V5.68292H40.1718ZM40.1718 6.17072V6.65853H39.684V6.17072H40.1718ZM40.1718 6.65853V7.14633H39.684V6.65853H40.1718ZM40.1718 7.14633V7.63414H39.684V7.14633H40.1718ZM40.6596 7.63414V8.12194H40.1718V7.63414H40.6596ZM40.6596 8.12194V8.60975H40.1718V8.12194H40.6596ZM40.6596 8.60975V9.09755H40.1718V8.60975H40.6596ZM40.6596 7.14633V7.63414H40.1718V7.14633H40.6596ZM40.6596 6.65853V7.14633H40.1718V6.65853H40.6596ZM40.6596 6.17072V6.65853H40.1718V6.17072H40.6596ZM40.6596 5.68292V6.17072H40.1718V5.68292H40.6596ZM40.6596 5.19512V5.68292H40.1718V5.19512H40.6596ZM40.6596 4.70731V5.19512H40.1718V4.70731H40.6596ZM40.6596 4.21951V4.70731H40.1718V4.21951H40.6596ZM40.6596 3.7317V4.21951H40.1718V3.7317H40.6596ZM40.6596 3.2439V3.7317H40.1718V3.2439H40.6596ZM40.6596 2.75609V3.2439H40.1718V2.75609H40.6596ZM40.1718 3.7317V4.21951H39.684V3.7317H40.1718ZM40.6596 2.26829V2.75609H40.1718V2.26829H40.6596ZM40.6596 1.78048V2.26829H40.1718V1.78048H40.6596ZM40.6596 1.29268V1.78048H40.1718V1.29268H40.6596ZM40.6596 0.804871V1.29268H40.1718V0.804871H40.6596ZM39.684 0.804871V1.29268H39.1962V0.804871H39.684ZM39.1962 0.804871V1.29268H38.7084V0.804871H39.1962ZM39.1962 1.29268V1.78048H38.7084V1.29268H39.1962ZM39.684 1.29268V1.78048H39.1962V1.29268H39.684ZM39.684 1.78048V2.26829H39.1962V1.78048H39.684ZM39.684 2.26829V2.75609H39.1962V2.26829H39.684ZM39.684 2.75609V3.2439H39.1962V2.75609H39.684ZM39.684 3.2439V3.7317H39.1962V3.2439H39.684ZM39.684 3.7317V4.21951H39.1962V3.7317H39.684ZM39.684 4.21951V4.70731H39.1962V4.21951H39.684ZM39.1962 4.70731V5.19512H38.7084V4.70731H39.1962ZM39.1962 5.19512V5.68292H38.7084V5.19512H39.1962ZM39.1962 4.21951V4.70731H38.7084V4.21951H39.1962ZM39.1962 3.7317V4.21951H38.7084V3.7317H39.1962ZM39.1962 3.2439V3.7317H38.7084V3.2439H39.1962ZM39.1962 2.75609V3.2439H38.7084V2.75609H39.1962ZM39.1962 2.26829V2.75609H38.7084V2.26829H39.1962ZM39.1962 1.78048V2.26829H38.7084V1.78048H39.1962ZM39.684 4.70731V5.19512H39.1962V4.70731H39.684ZM39.684 5.19512V5.68292H39.1962V5.19512H39.684ZM39.684 5.68292V6.17072H39.1962V5.68292H39.684ZM39.684 6.17072V6.65853H39.1962V6.17072H39.684ZM39.684 6.65853V7.14633H39.1962V6.65853H39.684ZM39.684 7.14633V7.63414H39.1962V7.14633H39.684ZM39.684 7.63414V8.12194H39.1962V7.63414H39.684ZM39.684 8.12194V8.60975H39.1962V8.12194H39.684ZM39.684 8.60975V9.09755H39.1962V8.60975H39.684ZM40.1718 8.12194V8.60975H39.684V8.12194H40.1718ZM40.1718 7.63414V8.12194H39.684V7.63414H40.1718ZM41.1474 6.65853V7.14633H40.6596V6.65853H41.1474ZM41.6352 6.65853V7.14633H41.1474V6.65853H41.6352ZM41.6352 7.14633V7.63414H41.1474V7.14633H41.6352ZM41.1474 7.14633V7.63414H40.6596V7.14633H41.1474ZM41.1474 5.68292V6.17072H40.6596V5.68292H41.1474ZM41.6352 5.68292V6.17072H41.1474V5.68292H41.6352ZM41.1474 7.63414V8.12194H40.6596V7.63414H41.1474ZM41.6352 7.63414V8.12194H41.1474V7.63414H41.6352ZM41.6352 6.17072V6.65853H41.1474V6.17072H41.6352ZM41.1474 6.17072V6.65853H40.6596V6.17072H41.1474ZM41.1474 0.804871V1.29268H40.6596V0.804871H41.1474ZM41.6352 0.804871V1.29268H41.1474V0.804871H41.6352ZM41.6352 1.29268V1.78048H41.1474V1.29268H41.6352ZM41.1474 1.29268V1.78048H40.6596V1.29268H41.1474ZM41.1474 1.78048V2.26829H40.6596V1.78048H41.1474ZM41.6352 1.78048V2.26829H41.1474V1.78048H41.6352ZM41.6352 2.26829V2.75609H41.1474V2.26829H41.6352ZM41.1474 2.26829V2.75609H40.6596V2.26829H41.1474ZM41.1474 2.75609V3.2439H40.6596V2.75609H41.1474ZM41.6352 2.75609V3.2439H41.1474V2.75609H41.6352ZM41.1474 12.5122V13H40.6596V12.5122H41.1474ZM41.6352 12.5122V13H41.1474V12.5122H41.6352ZM41.6352 12.0244V12.5122H41.1474V12.0244H41.6352ZM41.6352 11.5366V12.0244H41.1474V11.5366H41.6352ZM41.6352 11.0488V11.5366H41.1474V11.0488H41.6352ZM41.6352 10.561V11.0488H41.1474V10.561H41.6352ZM41.1474 10.561V11.0488H40.6596V10.561H41.1474ZM41.1474 11.0488V11.5366H40.6596V11.0488H41.1474ZM41.1474 11.5366V12.0244H40.6596V11.5366H41.1474ZM41.1474 12.0244V12.5122H40.6596V12.0244H41.1474ZM42.123 5.68292V6.17072H41.6352V5.68292H42.123ZM42.6108 5.68292V6.17072H42.123V5.68292H42.6108ZM43.0986 5.68292V6.17072H42.6108V5.68292H43.0986ZM43.5864 5.19512V5.68292H43.0986V5.19512H43.5864ZM44.0742 4.70731V5.19512H43.5864V4.70731H44.0742ZM44.0742 4.21951V4.70731H43.5864V4.21951H44.0742ZM44.0742 3.7317V4.21951H43.5864V3.7317H44.0742ZM43.5864 3.2439V3.7317H43.0986V3.2439H43.5864ZM43.0986 2.75609V3.2439H42.6108V2.75609H43.0986ZM42.6108 2.75609V3.2439H42.123V2.75609H42.6108ZM42.123 2.75609V3.2439H41.6352V2.75609H42.123ZM42.123 0.804871V1.29268H41.6352V0.804871H42.123ZM42.6108 0.804871V1.29268H42.123V0.804871H42.6108ZM43.0986 0.804871V1.29268H42.6108V0.804871H43.0986ZM43.5864 0.804871V1.29268H43.0986V0.804871H43.5864ZM43.5864 1.29268V1.78048H43.0986V1.29268H43.5864ZM43.5864 1.78048V2.26829H43.0986V1.78048H43.5864ZM43.5864 2.26829V2.75609H43.0986V2.26829H43.5864ZM43.0986 2.26829V2.75609H42.6108V2.26829H43.0986ZM43.0986 1.78048V2.26829H42.6108V1.78048H43.0986ZM42.6108 1.78048V2.26829H42.123V1.78048H42.6108ZM42.123 1.78048V2.26829H41.6352V1.78048H42.123ZM42.123 1.29268V1.78048H41.6352V1.29268H42.123ZM42.6108 1.29268V1.78048H42.123V1.29268H42.6108ZM43.0986 1.29268V1.78048H42.6108V1.29268H43.0986ZM42.123 2.26829V2.75609H41.6352V2.26829H42.123ZM42.6108 2.26829V2.75609H42.123V2.26829H42.6108ZM43.5864 2.75609V3.2439H43.0986V2.75609H43.5864ZM44.0742 3.2439V3.7317H43.5864V3.2439H44.0742ZM44.0742 2.75609V3.2439H43.5864V2.75609H44.0742ZM44.0742 2.26829V2.75609H43.5864V2.26829H44.0742ZM44.0742 1.78048V2.26829H43.5864V1.78048H44.0742ZM44.0742 1.29268V1.78048H43.5864V1.29268H44.0742ZM44.0742 0.804871V1.29268H43.5864V0.804871H44.0742ZM44.0742 5.19512V5.68292H43.5864V5.19512H44.0742ZM44.0742 5.68292V6.17072H43.5864V5.68292H44.0742ZM44.0742 6.17072V6.65853H43.5864V6.17072H44.0742ZM44.0742 6.65853V7.14633H43.5864V6.65853H44.0742ZM43.5864 6.65853V7.14633H43.0986V6.65853H43.5864ZM43.0986 6.65853V7.14633H42.6108V6.65853H43.0986ZM42.6108 6.65853V7.14633H42.123V6.65853H42.6108ZM42.123 6.65853V7.14633H41.6352V6.65853H42.123ZM42.123 6.17072V6.65853H41.6352V6.17072H42.123ZM42.6108 6.17072V6.65853H42.123V6.17072H42.6108ZM43.0986 6.17072V6.65853H42.6108V6.17072H43.0986ZM43.5864 6.17072V6.65853H43.0986V6.17072H43.5864ZM43.5864 5.68292V6.17072H43.0986V5.68292H43.5864ZM42.123 7.14633V7.63414H41.6352V7.14633H42.123ZM42.6108 7.14633V7.63414H42.123V7.14633H42.6108ZM43.0986 7.14633V7.63414H42.6108V7.14633H43.0986ZM43.5864 7.14633V7.63414H43.0986V7.14633H43.5864ZM44.0742 7.14633V7.63414H43.5864V7.14633H44.0742ZM44.0742 7.63414V8.12194H43.5864V7.63414H44.0742ZM43.5864 7.63414V8.12194H43.0986V7.63414H43.5864ZM43.0986 7.63414V8.12194H42.6108V7.63414H43.0986ZM42.6108 7.63414V8.12194H42.123V7.63414H42.6108ZM42.123 7.63414V8.12194H41.6352V7.63414H42.123ZM43.5864 8.12194V8.60975H43.0986V8.12194H43.5864ZM44.0742 8.60975V9.09755H43.5864V8.60975H44.0742ZM44.0742 8.12194V8.60975H43.5864V8.12194H44.0742ZM44.0742 9.09755V9.58536H43.5864V9.09755H44.0742ZM44.0742 9.58536V10.0732H43.5864V9.58536H44.0742ZM42.123 10.561V11.0488H41.6352V10.561H42.123ZM42.6108 10.561V11.0488H42.123V10.561H42.6108ZM43.0986 10.561V11.0488H42.6108V10.561H43.0986ZM43.5864 10.0732V10.561H43.0986V10.0732H43.5864ZM44.0742 10.0732V10.561H43.5864V10.0732H44.0742ZM44.0742 10.561V11.0488H43.5864V10.561H44.0742ZM43.5864 10.561V11.0488H43.0986V10.561H43.5864ZM44.0742 11.0488V11.5366H43.5864V11.0488H44.0742ZM44.0742 11.5366V12.0244H43.5864V11.5366H44.0742ZM44.0742 12.0244V12.5122H43.5864V12.0244H44.0742ZM44.0742 12.5122V13H43.5864V12.5122H44.0742ZM43.5864 12.5122V13H43.0986V12.5122H43.5864ZM43.5864 12.0244V12.5122H43.0986V12.0244H43.5864ZM43.0986 12.0244V12.5122H42.6108V12.0244H43.0986ZM42.6108 12.5122V13H42.123V12.5122H42.6108ZM42.123 12.5122V13H41.6352V12.5122H42.123ZM43.0986 12.5122V13H42.6108V12.5122H43.0986ZM42.6108 12.0244V12.5122H42.123V12.0244H42.6108ZM42.123 12.0244V12.5122H41.6352V12.0244H42.123ZM42.123 11.5366V12.0244H41.6352V11.5366H42.123ZM42.6108 11.5366V12.0244H42.123V11.5366H42.6108ZM43.0986 11.5366V12.0244H42.6108V11.5366H43.0986ZM43.5864 11.5366V12.0244H43.0986V11.5366H43.5864ZM43.5864 11.0488V11.5366H43.0986V11.0488H43.5864ZM43.0986 11.0488V11.5366H42.6108V11.0488H43.0986ZM42.6108 11.0488V11.5366H42.123V11.0488H42.6108ZM42.123 11.0488V11.5366H41.6352V11.0488H42.123ZM44.562 1.29268V1.78048H44.0742V1.29268H44.562ZM45.0499 1.29268V1.78048H44.562V1.29268H45.0499ZM45.0499 1.78048V2.26829H44.562V1.78048H45.0499ZM45.5377 1.78048V2.26829H45.0499V1.78048H45.5377ZM45.5377 2.26829V2.75609H45.0499V2.26829H45.5377ZM45.5377 2.75609V3.2439H45.0499V2.75609H45.5377ZM46.0255 2.75609V3.2439H45.5377V2.75609H46.0255ZM46.0255 3.2439V3.7317H45.5377V3.2439H46.0255ZM46.0255 3.7317V4.21951H45.5377V3.7317H46.0255ZM46.0255 4.21951V4.70731H45.5377V4.21951H46.0255ZM46.0255 4.70731V5.19512H45.5377V4.70731H46.0255ZM46.0255 5.19512V5.68292H45.5377V5.19512H46.0255ZM46.0255 5.68292V6.17072H45.5377V5.68292H46.0255ZM45.5377 6.17072V6.65853H45.0499V6.17072H45.5377ZM45.0499 6.65853V7.14633H44.562V6.65853H45.0499ZM45.5377 7.14633V7.63414H45.0499V7.14633H45.5377ZM46.0255 7.63414V8.12194H45.5377V7.63414H46.0255ZM44.562 12.0244V12.5122H44.0742V12.0244H44.562ZM45.0499 12.0244V12.5122H44.562V12.0244H45.0499ZM45.5377 11.5366V12.0244H45.0499V11.5366H45.5377ZM46.0255 10.561V11.0488H45.5377V10.561H46.0255ZM45.0499 11.5366V12.0244H44.562V11.5366H45.0499ZM45.0499 11.0488V11.5366H44.562V11.0488H45.0499ZM45.5377 11.0488V11.5366H45.0499V11.0488H45.5377ZM46.0255 10.0732V10.561H45.5377V10.0732H46.0255ZM46.0255 9.58536V10.0732H45.5377V9.58536H46.0255ZM46.0255 9.09755V9.58536H45.5377V9.09755H46.0255ZM46.0255 8.60975V9.09755H45.5377V8.60975H46.0255ZM46.0255 8.12194V8.60975H45.5377V8.12194H46.0255ZM44.562 7.14633V7.63414H44.0742V7.14633H44.562ZM45.0499 7.14633V7.63414H44.562V7.14633H45.0499ZM45.0499 7.63414V8.12194H44.562V7.63414H45.0499ZM44.562 7.63414V8.12194H44.0742V7.63414H44.562ZM45.5377 7.63414V8.12194H45.0499V7.63414H45.5377ZM45.5377 8.12194V8.60975H45.0499V8.12194H45.5377ZM45.5377 8.60975V9.09755H45.0499V8.60975H45.5377ZM45.5377 9.09755V9.58536H45.0499V9.09755H45.5377ZM45.5377 9.58536V10.0732H45.0499V9.58536H45.5377ZM45.5377 10.0732V10.561H45.0499V10.0732H45.5377ZM45.5377 10.561V11.0488H45.0499V10.561H45.5377ZM45.0499 10.561V11.0488H44.562V10.561H45.0499ZM45.0499 10.0732V10.561H44.562V10.0732H45.0499ZM45.0499 9.58536V10.0732H44.562V9.58536H45.0499ZM45.0499 9.09755V9.58536H44.562V9.09755H45.0499ZM45.0499 8.60975V9.09755H44.562V8.60975H45.0499ZM45.0499 8.12194V8.60975H44.562V8.12194H45.0499ZM44.562 8.12194V8.60975H44.0742V8.12194H44.562ZM44.562 8.60975V9.09755H44.0742V8.60975H44.562ZM44.562 9.09755V9.58536H44.0742V9.09755H44.562ZM44.562 9.58536V10.0732H44.0742V9.58536H44.562ZM44.562 10.0732V10.561H44.0742V10.0732H44.562ZM44.562 10.561V11.0488H44.0742V10.561H44.562ZM44.562 11.0488V11.5366H44.0742V11.0488H44.562ZM44.562 11.5366V12.0244H44.0742V11.5366H44.562ZM44.562 1.78048V2.26829H44.0742V1.78048H44.562ZM44.562 2.26829V2.75609H44.0742V2.26829H44.562ZM44.562 2.75609V3.2439H44.0742V2.75609H44.562ZM44.562 3.2439V3.7317H44.0742V3.2439H44.562ZM44.562 3.7317V4.21951H44.0742V3.7317H44.562ZM44.562 4.21951V4.70731H44.0742V4.21951H44.562ZM44.562 4.70731V5.19512H44.0742V4.70731H44.562ZM44.562 5.19512V5.68292H44.0742V5.19512H44.562ZM44.562 5.68292V6.17072H44.0742V5.68292H44.562ZM44.562 6.17072V6.65853H44.0742V6.17072H44.562ZM44.562 6.65853V7.14633H44.0742V6.65853H44.562ZM45.0499 6.17072V6.65853H44.562V6.17072H45.0499ZM45.0499 5.68292V6.17072H44.562V5.68292H45.0499ZM45.0499 5.19512V5.68292H44.562V5.19512H45.0499ZM45.0499 4.70731V5.19512H44.562V4.70731H45.0499ZM45.0499 4.21951V4.70731H44.562V4.21951H45.0499ZM45.0499 3.7317V4.21951H44.562V3.7317H45.0499ZM45.0499 3.2439V3.7317H44.562V3.2439H45.0499ZM45.0499 2.75609V3.2439H44.562V2.75609H45.0499ZM45.0499 2.26829V2.75609H44.562V2.26829H45.0499ZM45.5377 3.2439V3.7317H45.0499V3.2439H45.5377ZM45.5377 3.7317V4.21951H45.0499V3.7317H45.5377ZM45.5377 4.21951V4.70731H45.0499V4.21951H45.5377ZM45.5377 4.70731V5.19512H45.0499V4.70731H45.5377ZM45.5377 5.19512V5.68292H45.0499V5.19512H45.5377ZM45.5377 5.68292V6.17072H45.0499V5.68292H45.5377Z" fill="#FAC551"/>
<path d="M53.5521 6.65853V7.14633H53.0643V6.65853H53.5521ZM54.0399 6.65853V7.14633H53.5521V6.65853H54.0399ZM54.5277 6.65853V7.14633H54.0399V6.65853H54.5277ZM55.0155 6.65853V7.14633H54.5277V6.65853H55.0155ZM55.5033 6.65853V7.14633H55.0155V6.65853H55.5033ZM55.5033 6.17072V6.65853H55.0155V6.17072H55.5033ZM55.5033 5.68292V6.17072H55.0155V5.68292H55.5033ZM55.0155 5.68292V6.17072H54.5277V5.68292H55.0155ZM54.5277 5.68292V6.17072H54.0399V5.68292H54.5277ZM54.0399 5.68292V6.17072H53.5521V5.68292H54.0399ZM54.0399 6.17072V6.65853H53.5521V6.17072H54.0399ZM53.5521 6.17072V6.65853H53.0643V6.17072H53.5521ZM54.5277 6.17072V6.65853H54.0399V6.17072H54.5277ZM55.0155 6.17072V6.65853H54.5277V6.17072H55.0155ZM53.5521 5.68292V6.17072H53.0643V5.68292H53.5521ZM53.0643 5.68292V6.17072H52.5765V5.68292H53.0643ZM53.0643 5.19512V5.68292H52.5765V5.19512H53.0643ZM53.5521 5.19512V5.68292H53.0643V5.19512H53.5521ZM54.0399 5.19512V5.68292H53.5521V5.19512H54.0399ZM54.5277 5.19512V5.68292H54.0399V5.19512H54.5277ZM55.0155 5.19512V5.68292H54.5277V5.19512H55.0155ZM55.0155 4.70731V5.19512H54.5277V4.70731H55.0155ZM54.5277 4.70731V5.19512H54.0399V4.70731H54.5277ZM54.0399 4.70731V5.19512H53.5521V4.70731H54.0399ZM53.5521 4.70731V5.19512H53.0643V4.70731H53.5521ZM53.0643 4.70731V5.19512H52.5765V4.70731H53.0643ZM54.0399 4.21951V4.70731H53.5521V4.21951H54.0399ZM54.5277 4.21951V4.70731H54.0399V4.21951H54.5277ZM53.5521 4.21951V4.70731H53.0643V4.21951H53.5521ZM53.5521 3.7317V4.21951H53.0643V3.7317H53.5521ZM53.0643 3.7317V4.21951H52.5765V3.7317H53.0643ZM53.0643 4.21951V4.70731H52.5765V4.21951H53.0643ZM52.5765 4.21951V4.70731H52.0886V4.21951H52.5765ZM52.5765 3.7317V4.21951H52.0886V3.7317H52.5765ZM52.5765 4.70731V5.19512H52.0886V4.70731H52.5765ZM52.0886 4.70731V5.19512H51.6008V4.70731H52.0886ZM52.0886 5.19512V5.68292H51.6008V5.19512H52.0886ZM52.5765 5.19512V5.68292H52.0886V5.19512H52.5765ZM51.6008 5.19512V5.68292H51.113V5.19512H51.6008ZM51.6008 4.70731V5.19512H51.113V4.70731H51.6008ZM51.6008 4.21951V4.70731H51.113V4.21951H51.6008ZM51.6008 3.7317V4.21951H51.113V3.7317H51.6008ZM52.0886 3.7317V4.21951H51.6008V3.7317H52.0886ZM52.0886 4.21951V4.70731H51.6008V4.21951H52.0886ZM51.113 3.7317V4.21951H50.6252V3.7317H51.113ZM50.6252 3.7317V4.21951H50.1374V3.7317H50.6252ZM50.1374 3.7317V4.21951H49.6496V3.7317H50.1374ZM50.1374 4.21951V4.70731H49.6496V4.21951H50.1374ZM50.1374 4.70731V5.19512H49.6496V4.70731H50.1374ZM50.1374 5.19512V5.68292H49.6496V5.19512H50.1374ZM50.6252 5.19512V5.68292H50.1374V5.19512H50.6252ZM51.113 5.19512V5.68292H50.6252V5.19512H51.113ZM51.113 4.70731V5.19512H50.6252V4.70731H51.113ZM51.113 4.21951V4.70731H50.6252V4.21951H51.113ZM50.6252 4.21951V4.70731H50.1374V4.21951H50.6252ZM50.6252 4.70731V5.19512H50.1374V4.70731H50.6252ZM49.6496 4.70731V5.19512H49.1618V4.70731H49.6496ZM49.6496 4.21951V4.70731H49.1618V4.21951H49.6496ZM49.1618 4.21951V4.70731H48.674V4.21951H49.1618ZM49.1618 4.70731V5.19512H48.674V4.70731H49.1618ZM48.674 4.70731V5.19512H48.1862V4.70731H48.674ZM48.674 5.19512V5.68292H48.1862V5.19512H48.674ZM48.674 5.68292V6.17072H48.1862V5.68292H48.674ZM49.1618 5.68292V6.17072H48.674V5.68292H49.1618ZM49.1618 5.19512V5.68292H48.674V5.19512H49.1618ZM49.6496 5.19512V5.68292H49.1618V5.19512H49.6496ZM49.6496 5.68292V6.17072H49.1618V5.68292H49.6496ZM50.1374 5.68292V6.17072H49.6496V5.68292H50.1374ZM50.6252 5.68292V6.17072H50.1374V5.68292H50.6252ZM48.1862 5.68292V6.17072H47.6984V5.68292H48.1862ZM48.1862 6.17072V6.65853H47.6984V6.17072H48.1862ZM48.1862 6.65853V7.14633H47.6984V6.65853H48.1862ZM48.1862 7.14633V7.63414H47.6984V7.14633H48.1862ZM48.1862 7.63414V8.12194H47.6984V7.63414H48.1862ZM48.1862 8.12194V8.60975H47.6984V8.12194H48.1862ZM48.1862 8.60975V9.09755H47.6984V8.60975H48.1862ZM48.1862 9.09755V9.58536H47.6984V9.09755H48.1862ZM48.1862 9.58536V10.0732H47.6984V9.58536H48.1862ZM48.1862 10.0732V10.561H47.6984V10.0732H48.1862ZM48.674 10.0732V10.561H48.1862V10.0732H48.674ZM48.674 10.561V11.0488H48.1862V10.561H48.674ZM48.1862 10.561V11.0488H47.6984V10.561H48.1862ZM49.1618 10.561V11.0488H48.674V10.561H49.1618ZM49.6496 10.561V11.0488H49.1618V10.561H49.6496ZM50.1374 10.561V11.0488H49.6496V10.561H50.1374ZM50.6252 10.561V11.0488H50.1374V10.561H50.6252ZM50.1374 10.0732V10.561H49.6496V10.0732H50.1374ZM50.1374 9.58536V10.0732H49.6496V9.58536H50.1374ZM50.1374 9.09755V9.58536H49.6496V9.09755H50.1374ZM50.1374 8.60975V9.09755H49.6496V8.60975H50.1374ZM50.1374 8.12194V8.60975H49.6496V8.12194H50.1374ZM50.1374 7.63414V8.12194H49.6496V7.63414H50.1374ZM50.1374 7.14633V7.63414H49.6496V7.14633H50.1374ZM50.1374 6.65853V7.14633H49.6496V6.65853H50.1374ZM50.1374 6.17072V6.65853H49.6496V6.17072H50.1374ZM49.6496 6.17072V6.65853H49.1618V6.17072H49.6496ZM49.1618 6.17072V6.65853H48.674V6.17072H49.1618ZM48.674 6.17072V6.65853H48.1862V6.17072H48.674ZM48.674 6.65853V7.14633H48.1862V6.65853H48.674ZM48.674 7.14633V7.63414H48.1862V7.14633H48.674ZM48.674 7.63414V8.12194H48.1862V7.63414H48.674ZM48.674 8.12194V8.60975H48.1862V8.12194H48.674ZM48.674 8.60975V9.09755H48.1862V8.60975H48.674ZM48.674 9.09755V9.58536H48.1862V9.09755H48.674ZM48.674 9.58536V10.0732H48.1862V9.58536H48.674ZM49.1618 10.0732V10.561H48.674V10.0732H49.1618ZM49.6496 10.0732V10.561H49.1618V10.0732H49.6496ZM49.6496 9.58536V10.0732H49.1618V9.58536H49.6496ZM49.6496 9.09755V9.58536H49.1618V9.09755H49.6496ZM49.6496 8.60975V9.09755H49.1618V8.60975H49.6496ZM49.6496 8.12194V8.60975H49.1618V8.12194H49.6496ZM49.1618 8.12194V8.60975H48.674V8.12194H49.1618ZM49.1618 7.63414V8.12194H48.674V7.63414H49.1618ZM49.1618 7.14633V7.63414H48.674V7.14633H49.1618ZM49.1618 6.65853V7.14633H48.674V6.65853H49.1618ZM49.6496 6.65853V7.14633H49.1618V6.65853H49.6496ZM49.6496 7.14633V7.63414H49.1618V7.14633H49.6496ZM49.6496 7.63414V8.12194H49.1618V7.63414H49.6496ZM49.1618 9.09755V9.58536H48.674V9.09755H49.1618ZM49.1618 9.58536V10.0732H48.674V9.58536H49.1618ZM49.1618 8.60975V9.09755H48.674V8.60975H49.1618ZM53.5521 9.58536V10.0732H53.0643V9.58536H53.5521ZM53.5521 10.0732V10.561H53.0643V10.0732H53.5521ZM54.0399 10.0732V10.561H53.5521V10.0732H54.0399ZM54.5277 10.0732V10.561H54.0399V10.0732H54.5277ZM55.0155 10.0732V10.561H54.5277V10.0732H55.0155ZM55.5033 10.0732V10.561H55.0155V10.0732H55.5033ZM55.5033 9.58536V10.0732H55.0155V9.58536H55.5033ZM55.0155 9.58536V10.0732H54.5277V9.58536H55.0155ZM54.5277 9.58536V10.0732H54.0399V9.58536H54.5277ZM54.0399 9.58536V10.0732H53.5521V9.58536H54.0399ZM55.5033 10.561V11.0488H55.0155V10.561H55.5033ZM55.0155 10.561V11.0488H54.5277V10.561H55.0155ZM54.5277 10.561V11.0488H54.0399V10.561H54.5277ZM54.0399 10.561V11.0488H53.5521V10.561H54.0399ZM53.5521 10.561V11.0488H53.0643V10.561H53.5521ZM53.0643 10.561V11.0488H52.5765V10.561H53.0643ZM53.0643 11.0488V11.5366H52.5765V11.0488H53.0643ZM53.5521 11.0488V11.5366H53.0643V11.0488H53.5521ZM54.0399 11.0488V11.5366H53.5521V11.0488H54.0399ZM54.5277 11.0488V11.5366H54.0399V11.0488H54.5277ZM54.5277 11.5366V12.0244H54.0399V11.5366H54.5277ZM55.0155 11.5366V12.0244H54.5277V11.5366H55.0155ZM55.0155 11.0488V11.5366H54.5277V11.0488H55.0155ZM54.5277 12.0244V12.5122H54.0399V12.0244H54.5277ZM54.0399 12.0244V12.5122H53.5521V12.0244H54.0399ZM54.0399 11.5366V12.0244H53.5521V11.5366H54.0399ZM53.5521 11.5366V12.0244H53.0643V11.5366H53.5521ZM53.5521 12.0244V12.5122H53.0643V12.0244H53.5521ZM53.5521 12.5122V13H53.0643V12.5122H53.5521ZM53.0643 12.5122V13H52.5765V12.5122H53.0643ZM52.5765 12.5122V13H52.0886V12.5122H52.5765ZM52.0886 12.5122V13H51.6008V12.5122H52.0886ZM51.6008 12.5122V13H51.113V12.5122H51.6008ZM51.113 12.5122V13H50.6252V12.5122H51.113ZM50.6252 12.5122V13H50.1374V12.5122H50.6252ZM50.1374 12.5122V13H49.6496V12.5122H50.1374ZM50.6252 12.0244V12.5122H50.1374V12.0244H50.6252ZM51.113 12.0244V12.5122H50.6252V12.0244H51.113ZM51.6008 12.0244V12.5122H51.113V12.0244H51.6008ZM52.0886 12.0244V12.5122H51.6008V12.0244H52.0886ZM52.5765 12.0244V12.5122H52.0886V12.0244H52.5765ZM53.0643 12.0244V12.5122H52.5765V12.0244H53.0643ZM53.0643 11.5366V12.0244H52.5765V11.5366H53.0643ZM52.5765 11.5366V12.0244H52.0886V11.5366H52.5765ZM52.0886 11.5366V12.0244H51.6008V11.5366H52.0886ZM51.6008 11.5366V12.0244H51.113V11.5366H51.6008ZM51.113 11.5366V12.0244H50.6252V11.5366H51.113ZM50.6252 11.5366V12.0244H50.1374V11.5366H50.6252ZM50.1374 12.0244V12.5122H49.6496V12.0244H50.1374ZM49.6496 12.0244V12.5122H49.1618V12.0244H49.6496ZM49.1618 12.0244V12.5122H48.674V12.0244H49.1618ZM49.1618 11.5366V12.0244H48.674V11.5366H49.1618ZM48.674 11.5366V12.0244H48.1862V11.5366H48.674ZM48.674 11.0488V11.5366H48.1862V11.0488H48.674ZM49.1618 11.0488V11.5366H48.674V11.0488H49.1618ZM49.6496 11.0488V11.5366H49.1618V11.0488H49.6496ZM50.1374 11.0488V11.5366H49.6496V11.0488H50.1374ZM50.6252 11.0488V11.5366H50.1374V11.0488H50.6252ZM51.113 11.0488V11.5366H50.6252V11.0488H51.113ZM51.6008 11.0488V11.5366H51.113V11.0488H51.6008ZM52.0886 11.0488V11.5366H51.6008V11.0488H52.0886ZM52.5765 11.0488V11.5366H52.0886V11.0488H52.5765ZM50.1374 11.5366V12.0244H49.6496V11.5366H50.1374ZM49.6496 11.5366V12.0244H49.1618V11.5366H49.6496ZM53.5521 7.14633V7.63414H53.0643V7.14633H53.5521ZM53.5521 7.63414V8.12194H53.0643V7.63414H53.5521ZM54.0399 7.63414V8.12194H53.5521V7.63414H54.0399ZM54.5277 7.63414V8.12194H54.0399V7.63414H54.5277ZM55.0155 7.63414V8.12194H54.5277V7.63414H55.0155ZM55.5033 7.63414V8.12194H55.0155V7.63414H55.5033ZM55.5033 7.14633V7.63414H55.0155V7.14633H55.5033ZM55.0155 7.14633V7.63414H54.5277V7.14633H55.0155ZM54.5277 7.14633V7.63414H54.0399V7.14633H54.5277ZM54.0399 7.14633V7.63414H53.5521V7.14633H54.0399ZM54.0399 8.12194V8.60975H53.5521V8.12194H54.0399ZM54.5277 8.12194V8.60975H54.0399V8.12194H54.5277ZM54.5277 8.60975V9.09755H54.0399V8.60975H54.5277ZM55.0155 8.60975V9.09755H54.5277V8.60975H55.0155ZM55.0155 8.12194V8.60975H54.5277V8.12194H55.0155ZM55.5033 8.12194V8.60975H55.0155V8.12194H55.5033ZM55.5033 8.60975V9.09755H55.0155V8.60975H55.5033ZM55.5033 9.09755V9.58536H55.0155V9.09755H55.5033ZM55.0155 9.09755V9.58536H54.5277V9.09755H55.0155ZM54.5277 9.09755V9.58536H54.0399V9.09755H54.5277ZM54.0399 9.09755V9.58536H53.5521V9.09755H54.0399ZM54.0399 8.60975V9.09755H53.5521V8.60975H54.0399ZM53.5521 8.60975V9.09755H53.0643V8.60975H53.5521ZM53.5521 8.12194V8.60975H53.0643V8.12194H53.5521ZM53.5521 9.09755V9.58536H53.0643V9.09755H53.5521Z" fill="#FAC551"/>
<path d="M62.5411 6.65853V7.14633H62.0533V6.65853H62.5411ZM63.0289 6.65853V7.14633H62.5411V6.65853H63.0289ZM63.5167 6.65853V7.14633H63.0289V6.65853H63.5167ZM64.0045 6.65853V7.14633H63.5167V6.65853H64.0045ZM64.4923 6.65853V7.14633H64.0045V6.65853H64.4923ZM64.4923 6.17072V6.65853H64.0045V6.17072H64.4923ZM64.4923 5.68292V6.17072H64.0045V5.68292H64.4923ZM64.0045 5.68292V6.17072H63.5167V5.68292H64.0045ZM63.5167 5.68292V6.17072H63.0289V5.68292H63.5167ZM63.0289 5.68292V6.17072H62.5411V5.68292H63.0289ZM63.0289 6.17072V6.65853H62.5411V6.17072H63.0289ZM62.5411 6.17072V6.65853H62.0533V6.17072H62.5411ZM63.5167 6.17072V6.65853H63.0289V6.17072H63.5167ZM64.0045 6.17072V6.65853H63.5167V6.17072H64.0045ZM62.5411 5.68292V6.17072H62.0533V5.68292H62.5411ZM62.0533 5.68292V6.17072H61.5655V5.68292H62.0533ZM62.0533 5.19512V5.68292H61.5655V5.19512H62.0533ZM62.5411 5.19512V5.68292H62.0533V5.19512H62.5411ZM63.0289 5.19512V5.68292H62.5411V5.19512H63.0289ZM63.5167 5.19512V5.68292H63.0289V5.19512H63.5167ZM64.0045 5.19512V5.68292H63.5167V5.19512H64.0045ZM64.0045 4.70731V5.19512H63.5167V4.70731H64.0045ZM63.5167 4.70731V5.19512H63.0289V4.70731H63.5167ZM63.0289 4.70731V5.19512H62.5411V4.70731H63.0289ZM62.5411 4.70731V5.19512H62.0533V4.70731H62.5411ZM62.0533 4.70731V5.19512H61.5655V4.70731H62.0533ZM63.0289 4.21951V4.70731H62.5411V4.21951H63.0289ZM63.5167 4.21951V4.70731H63.0289V4.21951H63.5167ZM62.5411 4.21951V4.70731H62.0533V4.21951H62.5411ZM62.5411 3.7317V4.21951H62.0533V3.7317H62.5411ZM62.0533 3.7317V4.21951H61.5655V3.7317H62.0533ZM62.0533 4.21951V4.70731H61.5655V4.21951H62.0533ZM61.5655 4.21951V4.70731H61.0777V4.21951H61.5655ZM61.5655 3.7317V4.21951H61.0777V3.7317H61.5655ZM61.5655 4.70731V5.19512H61.0777V4.70731H61.5655ZM61.0777 4.70731V5.19512H60.5899V4.70731H61.0777ZM61.0777 5.19512V5.68292H60.5899V5.19512H61.0777ZM61.5655 5.19512V5.68292H61.0777V5.19512H61.5655ZM60.5899 5.19512V5.68292H60.1021V5.19512H60.5899ZM60.5899 4.70731V5.19512H60.1021V4.70731H60.5899ZM60.5899 4.21951V4.70731H60.1021V4.21951H60.5899ZM60.5899 3.7317V4.21951H60.1021V3.7317H60.5899ZM61.0777 3.7317V4.21951H60.5899V3.7317H61.0777ZM61.0777 4.21951V4.70731H60.5899V4.21951H61.0777ZM60.1021 3.7317V4.21951H59.6143V3.7317H60.1021ZM59.6143 3.7317V4.21951H59.1265V3.7317H59.6143ZM59.1265 3.7317V4.21951H58.6387V3.7317H59.1265ZM59.1265 4.21951V4.70731H58.6387V4.21951H59.1265ZM59.1265 4.70731V5.19512H58.6387V4.70731H59.1265ZM59.1265 5.19512V5.68292H58.6387V5.19512H59.1265ZM59.6143 5.19512V5.68292H59.1265V5.19512H59.6143ZM60.1021 5.19512V5.68292H59.6143V5.19512H60.1021ZM60.1021 4.70731V5.19512H59.6143V4.70731H60.1021ZM60.1021 4.21951V4.70731H59.6143V4.21951H60.1021ZM59.6143 4.21951V4.70731H59.1265V4.21951H59.6143ZM59.6143 4.70731V5.19512H59.1265V4.70731H59.6143ZM58.6387 4.70731V5.19512H58.1509V4.70731H58.6387ZM58.6387 4.21951V4.70731H58.1509V4.21951H58.6387ZM58.1509 4.21951V4.70731H57.6631V4.21951H58.1509ZM58.1509 4.70731V5.19512H57.6631V4.70731H58.1509ZM57.6631 4.70731V5.19512H57.1753V4.70731H57.6631ZM57.6631 5.19512V5.68292H57.1753V5.19512H57.6631ZM57.6631 5.68292V6.17072H57.1753V5.68292H57.6631ZM58.1509 5.68292V6.17072H57.6631V5.68292H58.1509ZM58.1509 5.19512V5.68292H57.6631V5.19512H58.1509ZM58.6387 5.19512V5.68292H58.1509V5.19512H58.6387ZM58.6387 5.68292V6.17072H58.1509V5.68292H58.6387ZM59.1265 5.68292V6.17072H58.6387V5.68292H59.1265ZM59.6143 5.68292V6.17072H59.1265V5.68292H59.6143ZM57.1753 5.68292V6.17072H56.6875V5.68292H57.1753ZM57.1753 6.17072V6.65853H56.6875V6.17072H57.1753ZM57.1753 6.65853V7.14633H56.6875V6.65853H57.1753ZM57.1753 7.14633V7.63414H56.6875V7.14633H57.1753ZM57.1753 7.63414V8.12194H56.6875V7.63414H57.1753ZM57.1753 8.12194V8.60975H56.6875V8.12194H57.1753ZM57.1753 8.60975V9.09755H56.6875V8.60975H57.1753ZM57.1753 9.09755V9.58536H56.6875V9.09755H57.1753ZM57.1753 9.58536V10.0732H56.6875V9.58536H57.1753ZM57.1753 10.0732V10.561H56.6875V10.0732H57.1753ZM57.6631 10.0732V10.561H57.1753V10.0732H57.6631ZM57.6631 10.561V11.0488H57.1753V10.561H57.6631ZM57.1753 10.561V11.0488H56.6875V10.561H57.1753ZM58.1509 10.561V11.0488H57.6631V10.561H58.1509ZM58.6387 10.561V11.0488H58.1509V10.561H58.6387ZM59.1265 10.561V11.0488H58.6387V10.561H59.1265ZM59.6143 10.561V11.0488H59.1265V10.561H59.6143ZM59.1265 10.0732V10.561H58.6387V10.0732H59.1265ZM59.1265 9.58536V10.0732H58.6387V9.58536H59.1265ZM59.1265 9.09755V9.58536H58.6387V9.09755H59.1265ZM59.1265 8.60975V9.09755H58.6387V8.60975H59.1265ZM59.1265 8.12194V8.60975H58.6387V8.12194H59.1265ZM59.1265 7.63414V8.12194H58.6387V7.63414H59.1265ZM59.1265 7.14633V7.63414H58.6387V7.14633H59.1265ZM59.1265 6.65853V7.14633H58.6387V6.65853H59.1265ZM59.1265 6.17072V6.65853H58.6387V6.17072H59.1265ZM58.6387 6.17072V6.65853H58.1509V6.17072H58.6387ZM58.1509 6.17072V6.65853H57.6631V6.17072H58.1509ZM57.6631 6.17072V6.65853H57.1753V6.17072H57.6631ZM57.6631 6.65853V7.14633H57.1753V6.65853H57.6631ZM57.6631 7.14633V7.63414H57.1753V7.14633H57.6631ZM57.6631 7.63414V8.12194H57.1753V7.63414H57.6631ZM57.6631 8.12194V8.60975H57.1753V8.12194H57.6631ZM57.6631 8.60975V9.09755H57.1753V8.60975H57.6631ZM57.6631 9.09755V9.58536H57.1753V9.09755H57.6631ZM57.6631 9.58536V10.0732H57.1753V9.58536H57.6631ZM58.1509 10.0732V10.561H57.6631V10.0732H58.1509ZM58.6387 10.0732V10.561H58.1509V10.0732H58.6387ZM58.6387 9.58536V10.0732H58.1509V9.58536H58.6387ZM58.6387 9.09755V9.58536H58.1509V9.09755H58.6387ZM58.6387 8.60975V9.09755H58.1509V8.60975H58.6387ZM58.6387 8.12194V8.60975H58.1509V8.12194H58.6387ZM58.1509 8.12194V8.60975H57.6631V8.12194H58.1509ZM58.1509 7.63414V8.12194H57.6631V7.63414H58.1509ZM58.1509 7.14633V7.63414H57.6631V7.14633H58.1509ZM58.1509 6.65853V7.14633H57.6631V6.65853H58.1509ZM58.6387 6.65853V7.14633H58.1509V6.65853H58.6387ZM58.6387 7.14633V7.63414H58.1509V7.14633H58.6387ZM58.6387 7.63414V8.12194H58.1509V7.63414H58.6387ZM58.1509 9.09755V9.58536H57.6631V9.09755H58.1509ZM58.1509 9.58536V10.0732H57.6631V9.58536H58.1509ZM58.1509 8.60975V9.09755H57.6631V8.60975H58.1509ZM62.5411 9.58536V10.0732H62.0533V9.58536H62.5411ZM62.5411 10.0732V10.561H62.0533V10.0732H62.5411ZM63.0289 10.0732V10.561H62.5411V10.0732H63.0289ZM63.5167 10.0732V10.561H63.0289V10.0732H63.5167ZM64.0045 10.0732V10.561H63.5167V10.0732H64.0045ZM64.4923 10.0732V10.561H64.0045V10.0732H64.4923ZM64.4923 9.58536V10.0732H64.0045V9.58536H64.4923ZM64.0045 9.58536V10.0732H63.5167V9.58536H64.0045ZM63.5167 9.58536V10.0732H63.0289V9.58536H63.5167ZM63.0289 9.58536V10.0732H62.5411V9.58536H63.0289ZM64.4923 10.561V11.0488H64.0045V10.561H64.4923ZM64.0045 10.561V11.0488H63.5167V10.561H64.0045ZM63.5167 10.561V11.0488H63.0289V10.561H63.5167ZM63.0289 10.561V11.0488H62.5411V10.561H63.0289ZM62.5411 10.561V11.0488H62.0533V10.561H62.5411ZM62.0533 10.561V11.0488H61.5655V10.561H62.0533ZM62.0533 11.0488V11.5366H61.5655V11.0488H62.0533ZM62.5411 11.0488V11.5366H62.0533V11.0488H62.5411ZM63.0289 11.0488V11.5366H62.5411V11.0488H63.0289ZM63.5167 11.0488V11.5366H63.0289V11.0488H63.5167ZM63.5167 11.5366V12.0244H63.0289V11.5366H63.5167ZM64.0045 11.5366V12.0244H63.5167V11.5366H64.0045ZM64.0045 11.0488V11.5366H63.5167V11.0488H64.0045ZM63.5167 12.0244V12.5122H63.0289V12.0244H63.5167ZM63.0289 12.0244V12.5122H62.5411V12.0244H63.0289ZM63.0289 11.5366V12.0244H62.5411V11.5366H63.0289ZM62.5411 11.5366V12.0244H62.0533V11.5366H62.5411ZM62.5411 12.0244V12.5122H62.0533V12.0244H62.5411ZM62.5411 12.5122V13H62.0533V12.5122H62.5411ZM62.0533 12.5122V13H61.5655V12.5122H62.0533ZM61.5655 12.5122V13H61.0777V12.5122H61.5655ZM61.0777 12.5122V13H60.5899V12.5122H61.0777ZM60.5899 12.5122V13H60.1021V12.5122H60.5899ZM60.1021 12.5122V13H59.6143V12.5122H60.1021ZM59.6143 12.5122V13H59.1265V12.5122H59.6143ZM59.1265 12.5122V13H58.6387V12.5122H59.1265ZM59.6143 12.0244V12.5122H59.1265V12.0244H59.6143ZM60.1021 12.0244V12.5122H59.6143V12.0244H60.1021ZM60.5899 12.0244V12.5122H60.1021V12.0244H60.5899ZM61.0777 12.0244V12.5122H60.5899V12.0244H61.0777ZM61.5655 12.0244V12.5122H61.0777V12.0244H61.5655ZM62.0533 12.0244V12.5122H61.5655V12.0244H62.0533ZM62.0533 11.5366V12.0244H61.5655V11.5366H62.0533ZM61.5655 11.5366V12.0244H61.0777V11.5366H61.5655ZM61.0777 11.5366V12.0244H60.5899V11.5366H61.0777ZM60.5899 11.5366V12.0244H60.1021V11.5366H60.5899ZM60.1021 11.5366V12.0244H59.6143V11.5366H60.1021ZM59.6143 11.5366V12.0244H59.1265V11.5366H59.6143ZM59.1265 12.0244V12.5122H58.6387V12.0244H59.1265ZM58.6387 12.0244V12.5122H58.1509V12.0244H58.6387ZM58.1509 12.0244V12.5122H57.6631V12.0244H58.1509ZM58.1509 11.5366V12.0244H57.6631V11.5366H58.1509ZM57.6631 11.5366V12.0244H57.1753V11.5366H57.6631ZM57.6631 11.0488V11.5366H57.1753V11.0488H57.6631ZM58.1509 11.0488V11.5366H57.6631V11.0488H58.1509ZM58.6387 11.0488V11.5366H58.1509V11.0488H58.6387ZM59.1265 11.0488V11.5366H58.6387V11.0488H59.1265ZM59.6143 11.0488V11.5366H59.1265V11.0488H59.6143ZM60.1021 11.0488V11.5366H59.6143V11.0488H60.1021ZM60.5899 11.0488V11.5366H60.1021V11.0488H60.5899ZM61.0777 11.0488V11.5366H60.5899V11.0488H61.0777ZM61.5655 11.0488V11.5366H61.0777V11.0488H61.5655ZM59.1265 11.5366V12.0244H58.6387V11.5366H59.1265ZM58.6387 11.5366V12.0244H58.1509V11.5366H58.6387ZM62.5411 7.14633V7.63414H62.0533V7.14633H62.5411ZM62.5411 7.63414V8.12194H62.0533V7.63414H62.5411ZM63.0289 7.63414V8.12194H62.5411V7.63414H63.0289ZM63.5167 7.63414V8.12194H63.0289V7.63414H63.5167ZM64.0045 7.63414V8.12194H63.5167V7.63414H64.0045ZM64.4923 7.63414V8.12194H64.0045V7.63414H64.4923ZM64.4923 7.14633V7.63414H64.0045V7.14633H64.4923ZM64.0045 7.14633V7.63414H63.5167V7.14633H64.0045ZM63.5167 7.14633V7.63414H63.0289V7.14633H63.5167ZM63.0289 7.14633V7.63414H62.5411V7.14633H63.0289ZM63.0289 8.12194V8.60975H62.5411V8.12194H63.0289ZM63.5167 8.12194V8.60975H63.0289V8.12194H63.5167ZM63.5167 8.60975V9.09755H63.0289V8.60975H63.5167ZM64.0045 8.60975V9.09755H63.5167V8.60975H64.0045ZM64.0045 8.12194V8.60975H63.5167V8.12194H64.0045ZM64.4923 8.12194V8.60975H64.0045V8.12194H64.4923ZM64.4923 8.60975V9.09755H64.0045V8.60975H64.4923ZM64.4923 9.09755V9.58536H64.0045V9.09755H64.4923ZM64.0045 9.09755V9.58536H63.5167V9.09755H64.0045ZM63.5167 9.09755V9.58536H63.0289V9.09755H63.5167ZM63.0289 9.09755V9.58536H62.5411V9.09755H63.0289ZM63.0289 8.60975V9.09755H62.5411V8.60975H63.0289ZM62.5411 8.60975V9.09755H62.0533V8.60975H62.5411ZM62.5411 8.12194V8.60975H62.0533V8.12194H62.5411ZM62.5411 9.09755V9.58536H62.0533V9.09755H62.5411Z" fill="#FAC551"/>
<path d="M66.6521 12.5122V13H66.1643V12.5122H66.6521ZM66.6521 12.0244V12.5122H66.1643V12.0244H66.6521ZM66.6521 11.5366V12.0244H66.1643V11.5366H66.6521ZM66.6521 11.0488V11.5366H66.1643V11.0488H66.6521ZM66.6521 10.561V11.0488H66.1643V10.561H66.6521ZM66.6521 10.0732V10.561H66.1643V10.0732H66.6521ZM66.6521 9.58536V10.0732H66.1643V9.58536H66.6521ZM66.6521 9.09755V9.58536H66.1643V9.09755H66.6521ZM66.6521 8.60975V9.09755H66.1643V8.60975H66.6521ZM66.6521 8.12194V8.60975H66.1643V8.12194H66.6521ZM66.6521 7.63414V8.12194H66.1643V7.63414H66.6521ZM66.6521 7.14633V7.63414H66.1643V7.14633H66.6521ZM66.6521 6.65853V7.14633H66.1643V6.65853H66.6521ZM66.6521 6.17072V6.65853H66.1643V6.17072H66.6521ZM66.6521 5.68292V6.17072H66.1643V5.68292H66.6521ZM67.1399 5.68292V6.17072H66.6521V5.68292H67.1399ZM67.1399 6.17072V6.65853H66.6521V6.17072H67.1399ZM67.1399 6.65853V7.14633H66.6521V6.65853H67.1399ZM67.1399 7.14633V7.63414H66.6521V7.14633H67.1399ZM67.1399 7.63414V8.12194H66.6521V7.63414H67.1399ZM67.1399 8.12194V8.60975H66.6521V8.12194H67.1399ZM67.1399 8.60975V9.09755H66.6521V8.60975H67.1399ZM67.6277 9.09755V9.58536H67.1399V9.09755H67.6277ZM67.6277 9.58536V10.0732H67.1399V9.58536H67.6277ZM67.6277 10.0732V10.561H67.1399V10.0732H67.6277ZM67.6277 10.561V11.0488H67.1399V10.561H67.6277ZM67.6277 11.0488V11.5366H67.1399V11.0488H67.6277ZM67.6277 11.5366V12.0244H67.1399V11.5366H67.6277ZM67.6277 12.0244V12.5122H67.1399V12.0244H67.6277ZM67.6277 12.5122V13H67.1399V12.5122H67.6277ZM68.1156 12.5122V13H67.6277V12.5122H68.1156ZM68.6034 12.5122V13H68.1156V12.5122H68.6034ZM68.6034 12.0244V12.5122H68.1156V12.0244H68.6034ZM68.6034 11.5366V12.0244H68.1156V11.5366H68.6034ZM68.6034 11.0488V11.5366H68.1156V11.0488H68.6034ZM68.6034 10.561V11.0488H68.1156V10.561H68.6034ZM68.6034 10.0732V10.561H68.1156V10.0732H68.6034ZM68.6034 9.58536V10.0732H68.1156V9.58536H68.6034ZM68.6034 9.09755V9.58536H68.1156V9.09755H68.6034ZM68.1156 9.09755V9.58536H67.6277V9.09755H68.1156ZM68.1156 8.60975V9.09755H67.6277V8.60975H68.1156ZM68.1156 9.58536V10.0732H67.6277V9.58536H68.1156ZM68.1156 10.0732V10.561H67.6277V10.0732H68.1156ZM68.1156 10.561V11.0488H67.6277V10.561H68.1156ZM68.1156 11.0488V11.5366H67.6277V11.0488H68.1156ZM68.1156 11.5366V12.0244H67.6277V11.5366H68.1156ZM68.1156 12.0244V12.5122H67.6277V12.0244H68.1156ZM67.1399 12.5122V13H66.6521V12.5122H67.1399ZM67.1399 12.0244V12.5122H66.6521V12.0244H67.1399ZM67.1399 11.5366V12.0244H66.6521V11.5366H67.1399ZM67.1399 11.0488V11.5366H66.6521V11.0488H67.1399ZM67.1399 10.561V11.0488H66.6521V10.561H67.1399ZM67.1399 10.0732V10.561H66.6521V10.0732H67.1399ZM67.1399 9.58536V10.0732H66.6521V9.58536H67.1399ZM67.1399 9.09755V9.58536H66.6521V9.09755H67.1399ZM66.6521 3.7317V4.21951H66.1643V3.7317H66.6521ZM66.6521 4.21951V4.70731H66.1643V4.21951H66.6521ZM66.6521 4.70731V5.19512H66.1643V4.70731H66.6521ZM66.6521 5.19512V5.68292H66.1643V5.19512H66.6521ZM68.1156 4.21951V4.70731H67.6277V4.21951H68.1156ZM68.1156 4.70731V5.19512H67.6277V4.70731H68.1156ZM68.1156 5.19512V5.68292H67.6277V5.19512H68.1156ZM68.1156 5.68292V6.17072H67.6277V5.68292H68.1156ZM68.1156 6.17072V6.65853H67.6277V6.17072H68.1156ZM68.1156 6.65853V7.14633H67.6277V6.65853H68.1156ZM68.1156 7.14633V7.63414H67.6277V7.14633H68.1156ZM68.6034 7.63414V8.12194H68.1156V7.63414H68.6034ZM68.6034 8.12194V8.60975H68.1156V8.12194H68.6034ZM68.6034 8.60975V9.09755H68.1156V8.60975H68.6034ZM68.6034 7.14633V7.63414H68.1156V7.14633H68.6034ZM68.6034 6.65853V7.14633H68.1156V6.65853H68.6034ZM68.6034 6.17072V6.65853H68.1156V6.17072H68.6034ZM68.6034 5.68292V6.17072H68.1156V5.68292H68.6034ZM68.6034 5.19512V5.68292H68.1156V5.19512H68.6034ZM68.6034 4.70731V5.19512H68.1156V4.70731H68.6034ZM68.6034 4.21951V4.70731H68.1156V4.21951H68.6034ZM68.6034 3.7317V4.21951H68.1156V3.7317H68.6034ZM68.1156 3.7317V4.21951H67.6277V3.7317H68.1156ZM67.6277 3.7317V4.21951H67.1399V3.7317H67.6277ZM67.6277 4.21951V4.70731H67.1399V4.21951H67.6277ZM67.1399 4.70731V5.19512H66.6521V4.70731H67.1399ZM67.1399 5.19512V5.68292H66.6521V5.19512H67.1399ZM67.1399 4.21951V4.70731H66.6521V4.21951H67.1399ZM67.1399 3.7317V4.21951H66.6521V3.7317H67.1399ZM67.6277 4.70731V5.19512H67.1399V4.70731H67.6277ZM67.6277 5.19512V5.68292H67.1399V5.19512H67.6277ZM67.6277 5.68292V6.17072H67.1399V5.68292H67.6277ZM67.6277 6.17072V6.65853H67.1399V6.17072H67.6277ZM67.6277 6.65853V7.14633H67.1399V6.65853H67.6277ZM67.6277 7.14633V7.63414H67.1399V7.14633H67.6277ZM67.6277 7.63414V8.12194H67.1399V7.63414H67.6277ZM67.6277 8.12194V8.60975H67.1399V8.12194H67.6277ZM67.6277 8.60975V9.09755H67.1399V8.60975H67.6277ZM68.1156 8.12194V8.60975H67.6277V8.12194H68.1156ZM68.1156 7.63414V8.12194H67.6277V7.63414H68.1156ZM71.0424 12.5122V13H70.5546V12.5122H71.0424ZM71.5302 12.5122V13H71.0424V12.5122H71.5302ZM72.018 12.5122V13H71.5302V12.5122H72.018ZM72.5058 12.5122V13H72.018V12.5122H72.5058ZM72.9936 12.0244V12.5122H72.5058V12.0244H72.9936ZM72.9936 11.5366V12.0244H72.5058V11.5366H72.9936ZM72.9936 12.5122V13H72.5058V12.5122H72.9936ZM72.5058 12.0244V12.5122H72.018V12.0244H72.5058ZM72.018 12.0244V12.5122H71.5302V12.0244H72.018ZM71.5302 12.0244V12.5122H71.0424V12.0244H71.5302ZM71.0424 12.0244V12.5122H70.5546V12.0244H71.0424ZM71.0424 11.5366V12.0244H70.5546V11.5366H71.0424ZM71.0424 11.0488V11.5366H70.5546V11.0488H71.0424ZM71.5302 11.0488V11.5366H71.0424V11.0488H71.5302ZM72.018 11.0488V11.5366H71.5302V11.0488H72.018ZM72.5058 11.0488V11.5366H72.018V11.0488H72.5058ZM72.9936 11.0488V11.5366H72.5058V11.0488H72.9936ZM72.5058 11.5366V12.0244H72.018V11.5366H72.5058ZM72.018 11.5366V12.0244H71.5302V11.5366H72.018ZM71.5302 11.5366V12.0244H71.0424V11.5366H71.5302ZM72.5058 5.68292V6.17072H72.018V5.68292H72.5058ZM71.5302 5.68292V6.17072H71.0424V5.68292H71.5302ZM71.5302 6.17072V6.65853H71.0424V6.17072H71.5302ZM71.5302 6.65853V7.14633H71.0424V6.65853H71.5302ZM71.0424 7.14633V7.63414H70.5546V7.14633H71.0424ZM71.0424 7.63414V8.12194H70.5546V7.63414H71.0424ZM71.0424 8.12194V8.60975H70.5546V8.12194H71.0424ZM71.0424 8.60975V9.09755H70.5546V8.60975H71.0424ZM71.0424 9.09755V9.58536H70.5546V9.09755H71.0424ZM71.0424 9.58536V10.0732H70.5546V9.58536H71.0424ZM71.0424 10.0732V10.561H70.5546V10.0732H71.0424ZM71.0424 10.561V11.0488H70.5546V10.561H71.0424ZM71.5302 10.561V11.0488H71.0424V10.561H71.5302ZM72.018 10.561V11.0488H71.5302V10.561H72.018ZM72.5058 10.561V11.0488H72.018V10.561H72.5058ZM72.9936 10.561V11.0488H72.5058V10.561H72.9936ZM72.9936 10.0732V10.561H72.5058V10.0732H72.9936ZM72.9936 9.09755V9.58536H72.5058V9.09755H72.9936ZM72.9936 8.60975V9.09755H72.5058V8.60975H72.9936ZM72.9936 8.12194V8.60975H72.5058V8.12194H72.9936ZM72.9936 7.63414V8.12194H72.5058V7.63414H72.9936ZM72.9936 7.14633V7.63414H72.5058V7.14633H72.9936ZM72.9936 6.65853V7.14633H72.5058V6.65853H72.9936ZM72.5058 8.12194V8.60975H72.018V8.12194H72.5058ZM72.5058 9.09755V9.58536H72.018V9.09755H72.5058ZM72.5058 9.58536V10.0732H72.018V9.58536H72.5058ZM72.5058 10.0732V10.561H72.018V10.0732H72.5058ZM72.9936 9.58536V10.0732H72.5058V9.58536H72.9936ZM72.5058 7.14633V7.63414H72.018V7.14633H72.5058ZM72.018 7.14633V7.63414H71.5302V7.14633H72.018ZM71.5302 7.14633V7.63414H71.0424V7.14633H71.5302ZM71.5302 7.63414V8.12194H71.0424V7.63414H71.5302ZM71.5302 8.12194V8.60975H71.0424V8.12194H71.5302ZM71.5302 8.60975V9.09755H71.0424V8.60975H71.5302ZM71.5302 9.09755V9.58536H71.0424V9.09755H71.5302ZM71.5302 9.58536V10.0732H71.0424V9.58536H71.5302ZM71.5302 10.0732V10.561H71.0424V10.0732H71.5302ZM72.018 10.0732V10.561H71.5302V10.0732H72.018ZM72.018 9.58536V10.0732H71.5302V9.58536H72.018ZM72.018 9.09755V9.58536H71.5302V9.09755H72.018ZM72.018 8.60975V9.09755H71.5302V8.60975H72.018ZM72.018 8.12194V8.60975H71.5302V8.12194H72.018ZM72.018 7.63414V8.12194H71.5302V7.63414H72.018ZM72.5058 7.63414V8.12194H72.018V7.63414H72.5058ZM72.5058 8.60975V9.09755H72.018V8.60975H72.5058ZM72.5058 6.65853V7.14633H72.018V6.65853H72.5058ZM72.5058 6.17072V6.65853H72.018V6.17072H72.5058ZM72.018 6.17072V6.65853H71.5302V6.17072H72.018ZM72.018 6.65853V7.14633H71.5302V6.65853H72.018ZM71.0424 6.65853V7.14633H70.5546V6.65853H71.0424ZM71.0424 6.17072V6.65853H70.5546V6.17072H71.0424ZM71.0424 5.68292V6.17072H70.5546V5.68292H71.0424ZM72.018 5.68292V6.17072H71.5302V5.68292H72.018ZM71.0424 3.7317V4.21951H70.5546V3.7317H71.0424ZM71.0424 4.21951V4.70731H70.5546V4.21951H71.0424ZM71.5302 4.21951V4.70731H71.0424V4.21951H71.5302ZM72.018 4.21951V4.70731H71.5302V4.21951H72.018ZM72.018 4.70731V5.19512H71.5302V4.70731H72.018ZM72.5058 4.70731V5.19512H72.018V4.70731H72.5058ZM72.5058 5.19512V5.68292H72.018V5.19512H72.5058ZM72.018 5.19512V5.68292H71.5302V5.19512H72.018ZM71.5302 5.19512V5.68292H71.0424V5.19512H71.5302ZM71.5302 4.70731V5.19512H71.0424V4.70731H71.5302ZM71.0424 4.70731V5.19512H70.5546V4.70731H71.0424ZM70.5546 4.70731V5.19512H70.0668V4.70731H70.5546ZM70.5546 5.19512V5.68292H70.0668V5.19512H70.5546ZM71.0424 5.19512V5.68292H70.5546V5.19512H71.0424ZM70.5546 5.68292V6.17072H70.0668V5.68292H70.5546ZM70.5546 3.7317V4.21951H70.0668V3.7317H70.5546ZM70.5546 4.21951V4.70731H70.0668V4.21951H70.5546ZM70.0668 3.7317V4.21951H69.579V3.7317H70.0668ZM70.0668 4.21951V4.70731H69.579V4.21951H70.0668ZM70.0668 4.70731V5.19512H69.579V4.70731H70.0668ZM69.579 4.21951V4.70731H69.0912V4.21951H69.579ZM69.0912 4.70731V5.19512H68.6034V4.70731H69.0912ZM69.0912 5.19512V5.68292H68.6034V5.19512H69.0912ZM69.579 5.19512V5.68292H69.0912V5.19512H69.579ZM69.579 4.70731V5.19512H69.0912V4.70731H69.579ZM69.0912 5.68292V6.17072H68.6034V5.68292H69.0912ZM75.4326 12.5122V13H74.9448V12.5122H75.4326ZM75.9204 12.5122V13H75.4326V12.5122H75.9204ZM76.4082 12.5122V13H75.9204V12.5122H76.4082ZM76.896 12.5122V13H76.4082V12.5122H76.896ZM77.3838 12.0244V12.5122H76.896V12.0244H77.3838ZM77.3838 11.5366V12.0244H76.896V11.5366H77.3838ZM77.3838 12.5122V13H76.896V12.5122H77.3838ZM76.896 12.0244V12.5122H76.4082V12.0244H76.896ZM76.4082 12.0244V12.5122H75.9204V12.0244H76.4082ZM75.9204 12.0244V12.5122H75.4326V12.0244H75.9204ZM75.4326 12.0244V12.5122H74.9448V12.0244H75.4326ZM75.4326 11.5366V12.0244H74.9448V11.5366H75.4326ZM75.4326 11.0488V11.5366H74.9448V11.0488H75.4326ZM75.9204 11.0488V11.5366H75.4326V11.0488H75.9204ZM76.4082 11.0488V11.5366H75.9204V11.0488H76.4082ZM76.896 11.0488V11.5366H76.4082V11.0488H76.896ZM77.3838 11.0488V11.5366H76.896V11.0488H77.3838ZM76.896 11.5366V12.0244H76.4082V11.5366H76.896ZM76.4082 11.5366V12.0244H75.9204V11.5366H76.4082ZM75.9204 11.5366V12.0244H75.4326V11.5366H75.9204ZM77.3838 5.68292V6.17072H76.896V5.68292H77.3838ZM76.896 5.68292V6.17072H76.4082V5.68292H76.896ZM75.9204 5.68292V6.17072H75.4326V5.68292H75.9204ZM75.9204 6.17072V6.65853H75.4326V6.17072H75.9204ZM75.9204 6.65853V7.14633H75.4326V6.65853H75.9204ZM75.4326 7.14633V7.63414H74.9448V7.14633H75.4326ZM75.4326 7.63414V8.12194H74.9448V7.63414H75.4326ZM75.4326 8.12194V8.60975H74.9448V8.12194H75.4326ZM75.4326 8.60975V9.09755H74.9448V8.60975H75.4326ZM75.4326 9.09755V9.58536H74.9448V9.09755H75.4326ZM75.4326 9.58536V10.0732H74.9448V9.58536H75.4326ZM75.4326 10.0732V10.561H74.9448V10.0732H75.4326ZM75.4326 10.561V11.0488H74.9448V10.561H75.4326ZM75.9204 10.561V11.0488H75.4326V10.561H75.9204ZM76.4082 10.561V11.0488H75.9204V10.561H76.4082ZM76.896 10.561V11.0488H76.4082V10.561H76.896ZM77.3838 10.561V11.0488H76.896V10.561H77.3838ZM77.3838 10.0732V10.561H76.896V10.0732H77.3838ZM77.3838 9.09755V9.58536H76.896V9.09755H77.3838ZM77.3838 8.60975V9.09755H76.896V8.60975H77.3838ZM77.3838 8.12194V8.60975H76.896V8.12194H77.3838ZM77.3838 7.63414V8.12194H76.896V7.63414H77.3838ZM77.3838 7.14633V7.63414H76.896V7.14633H77.3838ZM77.3838 6.65853V7.14633H76.896V6.65853H77.3838ZM77.3838 6.17072V6.65853H76.896V6.17072H77.3838ZM76.896 8.12194V8.60975H76.4082V8.12194H76.896ZM76.896 9.09755V9.58536H76.4082V9.09755H76.896ZM76.896 9.58536V10.0732H76.4082V9.58536H76.896ZM76.896 10.0732V10.561H76.4082V10.0732H76.896ZM77.3838 9.58536V10.0732H76.896V9.58536H77.3838ZM76.896 7.14633V7.63414H76.4082V7.14633H76.896ZM76.4082 7.14633V7.63414H75.9204V7.14633H76.4082ZM75.9204 7.14633V7.63414H75.4326V7.14633H75.9204ZM75.9204 7.63414V8.12194H75.4326V7.63414H75.9204ZM75.9204 8.12194V8.60975H75.4326V8.12194H75.9204ZM75.9204 8.60975V9.09755H75.4326V8.60975H75.9204ZM75.9204 9.09755V9.58536H75.4326V9.09755H75.9204ZM75.9204 9.58536V10.0732H75.4326V9.58536H75.9204ZM75.9204 10.0732V10.561H75.4326V10.0732H75.9204ZM76.4082 10.0732V10.561H75.9204V10.0732H76.4082ZM76.4082 9.58536V10.0732H75.9204V9.58536H76.4082ZM76.4082 9.09755V9.58536H75.9204V9.09755H76.4082ZM76.4082 8.60975V9.09755H75.9204V8.60975H76.4082ZM76.4082 8.12194V8.60975H75.9204V8.12194H76.4082ZM76.4082 7.63414V8.12194H75.9204V7.63414H76.4082ZM76.896 7.63414V8.12194H76.4082V7.63414H76.896ZM76.896 8.60975V9.09755H76.4082V8.60975H76.896ZM76.896 6.65853V7.14633H76.4082V6.65853H76.896ZM76.896 6.17072V6.65853H76.4082V6.17072H76.896ZM76.4082 6.17072V6.65853H75.9204V6.17072H76.4082ZM76.4082 6.65853V7.14633H75.9204V6.65853H76.4082ZM75.4326 6.65853V7.14633H74.9448V6.65853H75.4326ZM75.4326 6.17072V6.65853H74.9448V6.17072H75.4326ZM75.4326 5.68292V6.17072H74.9448V5.68292H75.4326ZM76.4082 5.68292V6.17072H75.9204V5.68292H76.4082ZM75.4326 3.7317V4.21951H74.9448V3.7317H75.4326ZM75.4326 4.21951V4.70731H74.9448V4.21951H75.4326ZM75.9204 4.21951V4.70731H75.4326V4.21951H75.9204ZM76.4082 4.21951V4.70731H75.9204V4.21951H76.4082ZM76.4082 4.70731V5.19512H75.9204V4.70731H76.4082ZM76.896 4.70731V5.19512H76.4082V4.70731H76.896ZM76.896 5.19512V5.68292H76.4082V5.19512H76.896ZM76.4082 5.19512V5.68292H75.9204V5.19512H76.4082ZM75.9204 5.19512V5.68292H75.4326V5.19512H75.9204ZM75.9204 4.70731V5.19512H75.4326V4.70731H75.9204ZM75.4326 4.70731V5.19512H74.9448V4.70731H75.4326ZM74.9448 4.70731V5.19512H74.457V4.70731H74.9448ZM74.9448 5.19512V5.68292H74.457V5.19512H74.9448ZM75.4326 5.19512V5.68292H74.9448V5.19512H75.4326ZM74.9448 5.68292V6.17072H74.457V5.68292H74.9448ZM74.457 5.19512V5.68292H73.9692V5.19512H74.457ZM74.457 4.70731V5.19512H73.9692V4.70731H74.457ZM74.457 4.21951V4.70731H73.9692V4.21951H74.457ZM74.457 3.7317V4.21951H73.9692V3.7317H74.457ZM74.9448 3.7317V4.21951H74.457V3.7317H74.9448ZM74.9448 4.21951V4.70731H74.457V4.21951H74.9448ZM73.9692 3.7317V4.21951H73.4814V3.7317H73.9692ZM73.9692 4.21951V4.70731H73.4814V4.21951H73.9692ZM73.4814 4.21951V4.70731H72.9936V4.21951H73.4814ZM73.4814 4.70731V5.19512H72.9936V4.70731H73.4814ZM72.9936 4.70731V5.19512H72.5058V4.70731H72.9936ZM72.9936 5.19512V5.68292H72.5058V5.19512H72.9936ZM73.4814 5.19512V5.68292H72.9936V5.19512H73.4814ZM73.9692 5.19512V5.68292H73.4814V5.19512H73.9692ZM73.9692 4.70731V5.19512H73.4814V4.70731H73.9692ZM72.9936 5.68292V6.17072H72.5058V5.68292H72.9936ZM73.4814 5.68292V6.17072H72.9936V5.68292H73.4814ZM72.9936 6.17072V6.65853H72.5058V6.17072H72.9936ZM69.579 3.7317V4.21951H69.0912V3.7317H69.579ZM69.0912 4.21951V4.70731H68.6034V4.21951H69.0912ZM73.4814 3.7317V4.21951H72.9936V3.7317H73.4814ZM72.9936 4.21951V4.70731H72.5058V4.21951H72.9936ZM70.0668 5.19512V5.68292H69.579V5.19512H70.0668ZM71.5302 3.7317V4.21951H71.0424V3.7317H71.5302Z" fill="#FAC551"/>
</svg>
