<svg width="140" height="22" viewBox="0 0 140 22" fill="none" xmlns="http://www.w3.org/2000/svg">
<path d="M1.77807 21.122V22H0.900024V21.122H1.77807ZM1.77807 20.2439V21.122H0.900024V20.2439H1.77807ZM1.77807 19.3659V20.2439H0.900024V19.3659H1.77807ZM1.77807 18.4878V19.3659H0.900024V18.4878H1.77807ZM1.77807 17.6098V18.4878H0.900024V17.6098H1.77807ZM1.77807 16.7317V17.6098H0.900024V16.7317H1.77807ZM1.77807 15.8537V16.7317H0.900024V15.8537H1.77807ZM1.77807 14.9756V15.8537H0.900024V14.9756H1.77807ZM1.77807 14.0976V14.9756H0.900024V14.0976H1.77807ZM1.77807 13.2195V14.0976H0.900024V13.2195H1.77807ZM1.77807 12.3415V13.2195H0.900024V12.3415H1.77807ZM1.77807 11.4634V12.3415H0.900024V11.4634H1.77807ZM1.77807 10.5854V11.4634H0.900024V10.5854H1.77807ZM1.77807 9.70732V10.5854H0.900024V9.70732H1.77807ZM1.77807 8.82927V9.70732H0.900024V8.82927H1.77807ZM2.65612 8.82927V9.70732H1.77807V8.82927H2.65612ZM2.65612 9.70732V10.5854H1.77807V9.70732H2.65612ZM2.65612 10.5854V11.4634H1.77807V10.5854H2.65612ZM2.65612 11.4634V12.3415H1.77807V11.4634H2.65612ZM2.65612 12.3415V13.2195H1.77807V12.3415H2.65612ZM2.65612 13.2195V14.0976H1.77807V13.2195H2.65612ZM2.65612 14.0976V14.9756H1.77807V14.0976H2.65612ZM3.53417 14.9756V15.8537H2.65612V14.9756H3.53417ZM3.53417 15.8537V16.7317H2.65612V15.8537H3.53417ZM3.53417 16.7317V17.6098H2.65612V16.7317H3.53417ZM3.53417 17.6098V18.4878H2.65612V17.6098H3.53417ZM3.53417 18.4878V19.3659H2.65612V18.4878H3.53417ZM3.53417 19.3659V20.2439H2.65612V19.3659H3.53417ZM3.53417 20.2439V21.122H2.65612V20.2439H3.53417ZM3.53417 21.122V22H2.65612V21.122H3.53417ZM4.41222 21.122V22H3.53417V21.122H4.41222ZM5.29027 21.122V22H4.41222V21.122H5.29027ZM5.29027 17.6098V18.4878H4.41222V17.6098H5.29027ZM5.29027 16.7317V17.6098H4.41222V16.7317H5.29027ZM5.29027 15.8537V16.7317H4.41222V15.8537H5.29027ZM5.29027 14.9756V15.8537H4.41222V14.9756H5.29027ZM4.41222 14.9756V15.8537H3.53417V14.9756H4.41222ZM4.41222 14.0976V14.9756H3.53417V14.0976H4.41222ZM4.41222 15.8537V16.7317H3.53417V15.8537H4.41222ZM4.41222 16.7317V17.6098H3.53417V16.7317H4.41222ZM4.41222 17.6098V18.4878H3.53417V17.6098H4.41222ZM4.41222 18.4878V19.3659H3.53417V18.4878H4.41222ZM4.41222 19.3659V20.2439H3.53417V19.3659H4.41222ZM4.41222 20.2439V21.122H3.53417V20.2439H4.41222ZM2.65612 21.122V22H1.77807V21.122H2.65612ZM2.65612 20.2439V21.122H1.77807V20.2439H2.65612ZM2.65612 19.3659V20.2439H1.77807V19.3659H2.65612ZM2.65612 18.4878V19.3659H1.77807V18.4878H2.65612ZM2.65612 17.6098V18.4878H1.77807V17.6098H2.65612ZM2.65612 16.7317V17.6098H1.77807V16.7317H2.65612ZM2.65612 15.8537V16.7317H1.77807V15.8537H2.65612ZM2.65612 14.9756V15.8537H1.77807V14.9756H2.65612ZM1.77807 0.0487823V0.926832H0.900024V0.0487823H1.77807ZM1.77807 0.926832V1.80488H0.900024V0.926832H1.77807ZM1.77807 1.80488V2.68293H0.900024V1.80488H1.77807ZM1.77807 2.68293V3.56098H0.900024V2.68293H1.77807ZM1.77807 3.56098V4.43903H0.900024V3.56098H1.77807ZM1.77807 4.43903V5.31708H0.900024V4.43903H1.77807ZM1.77807 5.31708V6.19512H0.900024V5.31708H1.77807ZM1.77807 6.19512V7.07317H0.900024V6.19512H1.77807ZM1.77807 7.07317V7.95122H0.900024V7.07317H1.77807ZM1.77807 7.95122V8.82927H0.900024V7.95122H1.77807ZM4.41222 0.0487823V0.926832H3.53417V0.0487823H4.41222ZM4.41222 0.926832V1.80488H3.53417V0.926832H4.41222ZM4.41222 1.80488V2.68293H3.53417V1.80488H4.41222ZM4.41222 2.68293V3.56098H3.53417V2.68293H4.41222ZM4.41222 3.56098V4.43903H3.53417V3.56098H4.41222ZM4.41222 4.43903V5.31708H3.53417V4.43903H4.41222ZM4.41222 6.19512V7.07317H3.53417V6.19512H4.41222ZM4.41222 7.07317V7.95122H3.53417V7.07317H4.41222ZM4.41222 7.95122V8.82927H3.53417V7.95122H4.41222ZM4.41222 8.82927V9.70732H3.53417V8.82927H4.41222ZM4.41222 9.70732V10.5854H3.53417V9.70732H4.41222ZM4.41222 10.5854V11.4634H3.53417V10.5854H4.41222ZM4.41222 11.4634V12.3415H3.53417V11.4634H4.41222ZM5.29027 12.3415V13.2195H4.41222V12.3415H5.29027ZM5.29027 13.2195V14.0976H4.41222V13.2195H5.29027ZM5.29027 14.0976V14.9756H4.41222V14.0976H5.29027ZM5.29027 11.4634V12.3415H4.41222V11.4634H5.29027ZM5.29027 10.5854V11.4634H4.41222V10.5854H5.29027ZM5.29027 9.70732V10.5854H4.41222V9.70732H5.29027ZM5.29027 8.82927V9.70732H4.41222V8.82927H5.29027ZM5.29027 7.95122V8.82927H4.41222V7.95122H5.29027ZM5.29027 7.07317V7.95122H4.41222V7.07317H5.29027ZM5.29027 6.19512V7.07317H4.41222V6.19512H5.29027ZM5.29027 5.31708V6.19512H4.41222V5.31708H5.29027ZM5.29027 4.43903V5.31708H4.41222V4.43903H5.29027ZM5.29027 3.56098V4.43903H4.41222V3.56098H5.29027ZM4.41222 5.31708V6.19512H3.53417V5.31708H4.41222ZM5.29027 2.68293V3.56098H4.41222V2.68293H5.29027ZM5.29027 1.80488V2.68293H4.41222V1.80488H5.29027ZM5.29027 0.926832V1.80488H4.41222V0.926832H5.29027ZM5.29027 0.0487823V0.926832H4.41222V0.0487823H5.29027ZM3.53417 0.0487823V0.926832H2.65612V0.0487823H3.53417ZM2.65612 0.0487823V0.926832H1.77807V0.0487823H2.65612ZM2.65612 0.926832V1.80488H1.77807V0.926832H2.65612ZM3.53417 0.926832V1.80488H2.65612V0.926832H3.53417ZM3.53417 1.80488V2.68293H2.65612V1.80488H3.53417ZM3.53417 2.68293V3.56098H2.65612V2.68293H3.53417ZM3.53417 3.56098V4.43903H2.65612V3.56098H3.53417ZM3.53417 4.43903V5.31708H2.65612V4.43903H3.53417ZM3.53417 5.31708V6.19512H2.65612V5.31708H3.53417ZM3.53417 6.19512V7.07317H2.65612V6.19512H3.53417ZM2.65612 7.07317V7.95122H1.77807V7.07317H2.65612ZM2.65612 7.95122V8.82927H1.77807V7.95122H2.65612ZM2.65612 6.19512V7.07317H1.77807V6.19512H2.65612ZM2.65612 5.31708V6.19512H1.77807V5.31708H2.65612ZM2.65612 4.43903V5.31708H1.77807V4.43903H2.65612ZM2.65612 3.56098V4.43903H1.77807V3.56098H2.65612ZM2.65612 2.68293V3.56098H1.77807V2.68293H2.65612ZM2.65612 1.80488V2.68293H1.77807V1.80488H2.65612ZM3.53417 7.07317V7.95122H2.65612V7.07317H3.53417ZM3.53417 7.95122V8.82927H2.65612V7.95122H3.53417ZM3.53417 8.82927V9.70732H2.65612V8.82927H3.53417ZM3.53417 9.70732V10.5854H2.65612V9.70732H3.53417ZM3.53417 10.5854V11.4634H2.65612V10.5854H3.53417ZM3.53417 11.4634V12.3415H2.65612V11.4634H3.53417ZM3.53417 12.3415V13.2195H2.65612V12.3415H3.53417ZM3.53417 13.2195V14.0976H2.65612V13.2195H3.53417ZM3.53417 14.0976V14.9756H2.65612V14.0976H3.53417ZM4.41222 13.2195V14.0976H3.53417V13.2195H4.41222ZM4.41222 12.3415V13.2195H3.53417V12.3415H4.41222ZM6.16832 12.3415V13.2195H5.29027V12.3415H6.16832ZM7.04637 12.3415V13.2195H6.16832V12.3415H7.04637ZM7.04637 13.2195V14.0976H6.16832V13.2195H7.04637ZM6.16832 13.2195V14.0976H5.29027V13.2195H6.16832ZM6.16832 10.5854V11.4634H5.29027V10.5854H6.16832ZM7.04637 10.5854V11.4634H6.16832V10.5854H7.04637ZM6.16832 14.0976V14.9756H5.29027V14.0976H6.16832ZM7.04637 14.0976V14.9756H6.16832V14.0976H7.04637ZM7.04637 11.4634V12.3415H6.16832V11.4634H7.04637ZM6.16832 11.4634V12.3415H5.29027V11.4634H6.16832ZM6.16832 0.0487823V0.926832H5.29027V0.0487823H6.16832ZM7.04637 0.0487823V0.926832H6.16832V0.0487823H7.04637ZM7.04637 0.926832V1.80488H6.16832V0.926832H7.04637ZM6.16832 0.926832V1.80488H5.29027V0.926832H6.16832ZM6.16832 1.80488V2.68293H5.29027V1.80488H6.16832ZM7.04637 1.80488V2.68293H6.16832V1.80488H7.04637ZM7.04637 2.68293V3.56098H6.16832V2.68293H7.04637ZM6.16832 2.68293V3.56098H5.29027V2.68293H6.16832ZM6.16832 3.56098V4.43903H5.29027V3.56098H6.16832ZM7.04637 3.56098V4.43903H6.16832V3.56098H7.04637ZM7.92441 10.5854V11.4634H7.04637V10.5854H7.92441ZM8.80246 10.5854V11.4634H7.92441V10.5854H8.80246ZM9.68051 10.5854V11.4634H8.80246V10.5854H9.68051ZM10.5586 9.70732V10.5854H9.68051V9.70732H10.5586ZM11.4366 8.82927V9.70732H10.5586V8.82927H11.4366ZM11.4366 7.95122V8.82927H10.5586V7.95122H11.4366ZM11.4366 5.31708V6.19512H10.5586V5.31708H11.4366ZM10.5586 4.43903V5.31708H9.68051V4.43903H10.5586ZM9.68051 3.56098V4.43903H8.80246V3.56098H9.68051ZM8.80246 3.56098V4.43903H7.92441V3.56098H8.80246ZM7.92441 3.56098V4.43903H7.04637V3.56098H7.92441ZM7.92441 0.0487823V0.926832H7.04637V0.0487823H7.92441ZM8.80246 0.0487823V0.926832H7.92441V0.0487823H8.80246ZM9.68051 0.0487823V0.926832H8.80246V0.0487823H9.68051ZM10.5586 0.0487823V0.926832H9.68051V0.0487823H10.5586ZM10.5586 0.926832V1.80488H9.68051V0.926832H10.5586ZM10.5586 1.80488V2.68293H9.68051V1.80488H10.5586ZM10.5586 2.68293V3.56098H9.68051V2.68293H10.5586ZM9.68051 2.68293V3.56098H8.80246V2.68293H9.68051ZM9.68051 1.80488V2.68293H8.80246V1.80488H9.68051ZM8.80246 1.80488V2.68293H7.92441V1.80488H8.80246ZM7.92441 1.80488V2.68293H7.04637V1.80488H7.92441ZM7.92441 0.926832V1.80488H7.04637V0.926832H7.92441ZM8.80246 0.926832V1.80488H7.92441V0.926832H8.80246ZM9.68051 0.926832V1.80488H8.80246V0.926832H9.68051ZM7.92441 2.68293V3.56098H7.04637V2.68293H7.92441ZM8.80246 2.68293V3.56098H7.92441V2.68293H8.80246ZM10.5586 3.56098V4.43903H9.68051V3.56098H10.5586ZM11.4366 4.43903V5.31708H10.5586V4.43903H11.4366ZM11.4366 3.56098V4.43903H10.5586V3.56098H11.4366ZM11.4366 2.68293V3.56098H10.5586V2.68293H11.4366ZM11.4366 1.80488V2.68293H10.5586V1.80488H11.4366ZM11.4366 0.926832V1.80488H10.5586V0.926832H11.4366ZM11.4366 0.0487823V0.926832H10.5586V0.0487823H11.4366ZM11.4366 9.70732V10.5854H10.5586V9.70732H11.4366ZM11.4366 10.5854V11.4634H10.5586V10.5854H11.4366ZM11.4366 11.4634V12.3415H10.5586V11.4634H11.4366ZM11.4366 12.3415V13.2195H10.5586V12.3415H11.4366ZM10.5586 12.3415V13.2195H9.68051V12.3415H10.5586ZM9.68051 12.3415V13.2195H8.80246V12.3415H9.68051ZM8.80246 12.3415V13.2195H7.92441V12.3415H8.80246ZM7.92441 12.3415V13.2195H7.04637V12.3415H7.92441ZM7.92441 11.4634V12.3415H7.04637V11.4634H7.92441ZM8.80246 11.4634V12.3415H7.92441V11.4634H8.80246ZM9.68051 11.4634V12.3415H8.80246V11.4634H9.68051ZM10.5586 11.4634V12.3415H9.68051V11.4634H10.5586ZM10.5586 10.5854V11.4634H9.68051V10.5854H10.5586ZM7.92441 13.2195V14.0976H7.04637V13.2195H7.92441ZM8.80246 13.2195V14.0976H7.92441V13.2195H8.80246ZM9.68051 13.2195V14.0976H8.80246V13.2195H9.68051ZM10.5586 13.2195V14.0976H9.68051V13.2195H10.5586ZM11.4366 13.2195V14.0976H10.5586V13.2195H11.4366ZM11.4366 14.0976V14.9756H10.5586V14.0976H11.4366ZM10.5586 14.0976V14.9756H9.68051V14.0976H10.5586ZM9.68051 14.0976V14.9756H8.80246V14.0976H9.68051ZM8.80246 14.0976V14.9756H7.92441V14.0976H8.80246ZM7.92441 14.0976V14.9756H7.04637V14.0976H7.92441ZM12.3147 0.926832V1.80488H11.4366V0.926832H12.3147ZM13.1927 0.926832V1.80488H12.3147V0.926832H13.1927ZM13.1927 1.80488V2.68293H12.3147V1.80488H13.1927ZM14.0708 1.80488V2.68293H13.1927V1.80488H14.0708ZM14.0708 2.68293V3.56098H13.1927V2.68293H14.0708ZM14.0708 3.56098V4.43903H13.1927V3.56098H14.0708ZM14.9488 3.56098V4.43903H14.0708V3.56098H14.9488ZM14.9488 4.43903V5.31708H14.0708V4.43903H14.9488ZM14.9488 5.31708V6.19512H14.0708V5.31708H14.9488ZM14.9488 7.95122V8.82927H14.0708V7.95122H14.9488ZM14.9488 8.82927V9.70732H14.0708V8.82927H14.9488ZM14.9488 9.70732V10.5854H14.0708V9.70732H14.9488ZM14.9488 10.5854V11.4634H14.0708V10.5854H14.9488ZM14.0708 11.4634V12.3415H13.1927V11.4634H14.0708ZM13.1927 12.3415V13.2195H12.3147V12.3415H13.1927ZM12.3147 13.2195V14.0976H11.4366V13.2195H12.3147ZM13.1927 13.2195V14.0976H12.3147V13.2195H13.1927ZM12.3147 14.0976V14.9756H11.4366V14.0976H12.3147ZM12.3147 1.80488V2.68293H11.4366V1.80488H12.3147ZM12.3147 2.68293V3.56098H11.4366V2.68293H12.3147ZM12.3147 3.56098V4.43903H11.4366V3.56098H12.3147ZM12.3147 4.43903V5.31708H11.4366V4.43903H12.3147ZM12.3147 5.31708V6.19512H11.4366V5.31708H12.3147ZM12.3147 7.95122V8.82927H11.4366V7.95122H12.3147ZM12.3147 8.82927V9.70732H11.4366V8.82927H12.3147ZM12.3147 9.70732V10.5854H11.4366V9.70732H12.3147ZM12.3147 10.5854V11.4634H11.4366V10.5854H12.3147ZM12.3147 11.4634V12.3415H11.4366V11.4634H12.3147ZM12.3147 12.3415V13.2195H11.4366V12.3415H12.3147ZM13.1927 11.4634V12.3415H12.3147V11.4634H13.1927ZM13.1927 10.5854V11.4634H12.3147V10.5854H13.1927ZM13.1927 9.70732V10.5854H12.3147V9.70732H13.1927ZM13.1927 8.82927V9.70732H12.3147V8.82927H13.1927ZM13.1927 7.95122V8.82927H12.3147V7.95122H13.1927ZM13.1927 5.31708V6.19512H12.3147V5.31708H13.1927ZM13.1927 4.43903V5.31708H12.3147V4.43903H13.1927ZM13.1927 3.56098V4.43903H12.3147V3.56098H13.1927ZM13.1927 2.68293V3.56098H12.3147V2.68293H13.1927ZM14.0708 4.43903V5.31708H13.1927V4.43903H14.0708ZM14.0708 5.31708V6.19512H13.1927V5.31708H14.0708ZM14.0708 7.95122V8.82927H13.1927V7.95122H14.0708ZM14.0708 8.82927V9.70732H13.1927V8.82927H14.0708ZM14.0708 9.70732V10.5854H13.1927V9.70732H14.0708ZM14.0708 10.5854V11.4634H13.1927V10.5854H14.0708ZM5.29027 19.3659V20.2439H4.41222V19.3659H5.29027ZM5.29027 20.2439V21.122H4.41222V20.2439H5.29027ZM5.29027 18.4878V19.3659H4.41222V18.4878H5.29027ZM11.4366 6.19512V7.07317H10.5586V6.19512H11.4366ZM12.3147 6.19512V7.07317H11.4366V6.19512H12.3147ZM13.1927 6.19512V7.07317H12.3147V6.19512H13.1927ZM14.0708 6.19512V7.07317H13.1927V6.19512H14.0708ZM14.9488 6.19512V7.07317H14.0708V6.19512H14.9488ZM14.9488 7.07317V7.95122H14.0708V7.07317H14.9488ZM14.0708 7.07317V7.95122H13.1927V7.07317H14.0708ZM13.1927 7.07317V7.95122H12.3147V7.07317H13.1927ZM12.3147 7.07317V7.95122H11.4366V7.07317H12.3147ZM11.4366 7.07317V7.95122H10.5586V7.07317H11.4366Z" fill="#FB85A8"/>
<path d="M19.7162 0.0487823V0.926832H18.8382V0.0487823H19.7162ZM19.7162 0.926832V1.80488H18.8382V0.926832H19.7162ZM19.7162 1.80488V2.68293H18.8382V1.80488H19.7162ZM22.3503 0.0487823V0.926832H21.4723V0.0487823H22.3503ZM22.3503 0.926832V1.80488H21.4723V0.926832H22.3503ZM22.3503 1.80488V2.68293H21.4723V1.80488H22.3503ZM23.2284 1.80488V2.68293H22.3503V1.80488H23.2284ZM23.2284 0.926832V1.80488H22.3503V0.926832H23.2284ZM23.2284 0.0487823V0.926832H22.3503V0.0487823H23.2284ZM21.4723 0.0487823V0.926832H20.5942V0.0487823H21.4723ZM20.5942 0.0487823V0.926832H19.7162V0.0487823H20.5942ZM20.5942 0.926832V1.80488H19.7162V0.926832H20.5942ZM21.4723 0.926832V1.80488H20.5942V0.926832H21.4723ZM21.4723 1.80488V2.68293H20.5942V1.80488H21.4723ZM20.5942 1.80488V2.68293H19.7162V1.80488H20.5942ZM19.7162 2.68293V3.56098H18.8382V2.68293H19.7162ZM20.5942 2.68293V3.56098H19.7162V2.68293H20.5942ZM21.4723 2.68293V3.56098H20.5942V2.68293H21.4723ZM22.3503 2.68293V3.56098H21.4723V2.68293H22.3503ZM23.2284 2.68293V3.56098H22.3503V2.68293H23.2284ZM19.7162 21.122V22H18.8382V21.122H19.7162ZM19.7162 20.2439V21.122H18.8382V20.2439H19.7162ZM19.7162 19.3659V20.2439H18.8382V19.3659H19.7162ZM19.7162 18.4878V19.3659H18.8382V18.4878H19.7162ZM19.7162 17.6098V18.4878H18.8382V17.6098H19.7162ZM19.7162 16.7317V17.6098H18.8382V16.7317H19.7162ZM19.7162 15.8537V16.7317H18.8382V15.8537H19.7162ZM19.7162 14.9756V15.8537H18.8382V14.9756H19.7162ZM19.7162 14.0976V14.9756H18.8382V14.0976H19.7162ZM19.7162 13.2195V14.0976H18.8382V13.2195H19.7162ZM19.7162 12.3415V13.2195H18.8382V12.3415H19.7162ZM19.7162 11.4634V12.3415H18.8382V11.4634H19.7162ZM19.7162 10.5854V11.4634H18.8382V10.5854H19.7162ZM19.7162 9.70732V10.5854H18.8382V9.70732H19.7162ZM19.7162 8.82927V9.70732H18.8382V8.82927H19.7162ZM20.5942 8.82927V9.70732H19.7162V8.82927H20.5942ZM20.5942 9.70732V10.5854H19.7162V9.70732H20.5942ZM20.5942 10.5854V11.4634H19.7162V10.5854H20.5942ZM20.5942 11.4634V12.3415H19.7162V11.4634H20.5942ZM20.5942 12.3415V13.2195H19.7162V12.3415H20.5942ZM20.5942 13.2195V14.0976H19.7162V13.2195H20.5942ZM20.5942 14.0976V14.9756H19.7162V14.0976H20.5942ZM21.4723 14.9756V15.8537H20.5942V14.9756H21.4723ZM21.4723 15.8537V16.7317H20.5942V15.8537H21.4723ZM21.4723 16.7317V17.6098H20.5942V16.7317H21.4723ZM21.4723 17.6098V18.4878H20.5942V17.6098H21.4723ZM21.4723 18.4878V19.3659H20.5942V18.4878H21.4723ZM21.4723 19.3659V20.2439H20.5942V19.3659H21.4723ZM21.4723 20.2439V21.122H20.5942V20.2439H21.4723ZM21.4723 21.122V22H20.5942V21.122H21.4723ZM22.3503 21.122V22H21.4723V21.122H22.3503ZM23.2284 21.122V22H22.3503V21.122H23.2284ZM23.2284 20.2439V21.122H22.3503V20.2439H23.2284ZM23.2284 19.3659V20.2439H22.3503V19.3659H23.2284ZM23.2284 18.4878V19.3659H22.3503V18.4878H23.2284ZM23.2284 17.6098V18.4878H22.3503V17.6098H23.2284ZM23.2284 16.7317V17.6098H22.3503V16.7317H23.2284ZM23.2284 15.8537V16.7317H22.3503V15.8537H23.2284ZM23.2284 14.9756V15.8537H22.3503V14.9756H23.2284ZM22.3503 14.9756V15.8537H21.4723V14.9756H22.3503ZM22.3503 14.0976V14.9756H21.4723V14.0976H22.3503ZM22.3503 15.8537V16.7317H21.4723V15.8537H22.3503ZM22.3503 16.7317V17.6098H21.4723V16.7317H22.3503ZM22.3503 17.6098V18.4878H21.4723V17.6098H22.3503ZM22.3503 18.4878V19.3659H21.4723V18.4878H22.3503ZM22.3503 19.3659V20.2439H21.4723V19.3659H22.3503ZM22.3503 20.2439V21.122H21.4723V20.2439H22.3503ZM20.5942 21.122V22H19.7162V21.122H20.5942ZM20.5942 20.2439V21.122H19.7162V20.2439H20.5942ZM20.5942 19.3659V20.2439H19.7162V19.3659H20.5942ZM20.5942 18.4878V19.3659H19.7162V18.4878H20.5942ZM20.5942 17.6098V18.4878H19.7162V17.6098H20.5942ZM20.5942 16.7317V17.6098H19.7162V16.7317H20.5942ZM20.5942 15.8537V16.7317H19.7162V15.8537H20.5942ZM20.5942 14.9756V15.8537H19.7162V14.9756H20.5942ZM19.7162 7.07317V7.95122H18.8382V7.07317H19.7162ZM19.7162 7.95122V8.82927H18.8382V7.95122H19.7162ZM22.3503 7.07317V7.95122H21.4723V7.07317H22.3503ZM22.3503 7.95122V8.82927H21.4723V7.95122H22.3503ZM22.3503 8.82927V9.70732H21.4723V8.82927H22.3503ZM22.3503 9.70732V10.5854H21.4723V9.70732H22.3503ZM22.3503 10.5854V11.4634H21.4723V10.5854H22.3503ZM22.3503 11.4634V12.3415H21.4723V11.4634H22.3503ZM23.2284 12.3415V13.2195H22.3503V12.3415H23.2284ZM23.2284 13.2195V14.0976H22.3503V13.2195H23.2284ZM23.2284 14.0976V14.9756H22.3503V14.0976H23.2284ZM23.2284 11.4634V12.3415H22.3503V11.4634H23.2284ZM23.2284 10.5854V11.4634H22.3503V10.5854H23.2284ZM23.2284 9.70732V10.5854H22.3503V9.70732H23.2284ZM23.2284 8.82927V9.70732H22.3503V8.82927H23.2284ZM23.2284 7.95122V8.82927H22.3503V7.95122H23.2284ZM23.2284 7.07317V7.95122H22.3503V7.07317H23.2284ZM20.5942 7.07317V7.95122H19.7162V7.07317H20.5942ZM20.5942 7.95122V8.82927H19.7162V7.95122H20.5942ZM21.4723 7.07317V7.95122H20.5942V7.07317H21.4723ZM21.4723 7.95122V8.82927H20.5942V7.95122H21.4723ZM21.4723 8.82927V9.70732H20.5942V8.82927H21.4723ZM21.4723 9.70732V10.5854H20.5942V9.70732H21.4723ZM21.4723 10.5854V11.4634H20.5942V10.5854H21.4723ZM21.4723 11.4634V12.3415H20.5942V11.4634H21.4723ZM21.4723 12.3415V13.2195H20.5942V12.3415H21.4723ZM21.4723 13.2195V14.0976H20.5942V13.2195H21.4723ZM21.4723 14.0976V14.9756H20.5942V14.0976H21.4723ZM22.3503 13.2195V14.0976H21.4723V13.2195H22.3503ZM22.3503 12.3415V13.2195H21.4723V12.3415H22.3503ZM22.3503 6.19512V7.07317H21.4723V6.19512H22.3503ZM23.2284 6.19512V7.07317H22.3503V6.19512H23.2284ZM21.4723 6.19512V7.07317H20.5942V6.19512H21.4723ZM20.5942 6.19512V7.07317H19.7162V6.19512H20.5942ZM19.7162 6.19512V7.07317H18.8382V6.19512H19.7162Z" fill="#FB85A8"/>
<path d="M27.9864 5.31708V6.19512H27.1083V5.31708H27.9864ZM28.8644 5.31708V6.19512H27.9864V5.31708H28.8644ZM29.7425 5.31708V6.19512H28.8644V5.31708H29.7425ZM29.7425 6.19512V7.07317H28.8644V6.19512H29.7425ZM30.6205 6.19512V7.07317H29.7425V6.19512H30.6205ZM31.4985 7.07317V7.95122H30.6205V7.07317H31.4985ZM31.4985 7.95122V8.82927H30.6205V7.95122H31.4985ZM31.4985 6.19512V7.07317H30.6205V6.19512H31.4985ZM31.4985 5.31708V6.19512H30.6205V5.31708H31.4985ZM30.6205 5.31708V6.19512H29.7425V5.31708H30.6205ZM28.8644 6.19512V7.07317H27.9864V6.19512H28.8644ZM28.8644 7.07317V7.95122H27.9864V7.07317H28.8644ZM27.9864 7.07317V7.95122H27.1083V7.07317H27.9864ZM27.9864 6.19512V7.07317H27.1083V6.19512H27.9864ZM27.9864 7.95122V8.82927H27.1083V7.95122H27.9864ZM27.9864 8.82927V9.70732H27.1083V8.82927H27.9864ZM27.9864 9.70732V10.5854H27.1083V9.70732H27.9864ZM28.8644 9.70732V10.5854H27.9864V9.70732H28.8644ZM29.7425 9.70732V10.5854H28.8644V9.70732H29.7425ZM30.6205 9.70732V10.5854H29.7425V9.70732H30.6205ZM31.4985 9.70732V10.5854H30.6205V9.70732H31.4985ZM31.4985 8.82927V9.70732H30.6205V8.82927H31.4985ZM30.6205 8.82927V9.70732H29.7425V8.82927H30.6205ZM30.6205 7.95122V8.82927H29.7425V7.95122H30.6205ZM30.6205 7.07317V7.95122H29.7425V7.07317H30.6205ZM29.7425 7.07317V7.95122H28.8644V7.07317H29.7425ZM29.7425 7.95122V8.82927H28.8644V7.95122H29.7425ZM28.8644 7.95122V8.82927H27.9864V7.95122H28.8644ZM28.8644 8.82927V9.70732H27.9864V8.82927H28.8644ZM29.7425 8.82927V9.70732H28.8644V8.82927H29.7425ZM28.8644 10.5854V11.4634H27.9864V10.5854H28.8644ZM29.7425 10.5854V11.4634H28.8644V10.5854H29.7425ZM29.7425 11.4634V12.3415H28.8644V11.4634H29.7425ZM30.6205 11.4634V12.3415H29.7425V11.4634H30.6205ZM30.6205 12.3415V13.2195H29.7425V12.3415H30.6205ZM31.4985 12.3415V13.2195H30.6205V12.3415H31.4985ZM31.4985 13.2195V14.0976H30.6205V13.2195H31.4985ZM31.4985 14.0976V14.9756H30.6205V14.0976H31.4985ZM31.4985 14.9756V15.8537H30.6205V14.9756H31.4985ZM30.6205 14.9756V15.8537H29.7425V14.9756H30.6205ZM30.6205 14.0976V14.9756H29.7425V14.0976H30.6205ZM29.7425 15.8537V16.7317H28.8644V15.8537H29.7425ZM29.7425 14.9756V15.8537H28.8644V14.9756H29.7425ZM29.7425 16.7317V17.6098H28.8644V16.7317H29.7425ZM28.8644 16.7317V17.6098H27.9864V16.7317H28.8644ZM28.8644 15.8537V16.7317H27.9864V15.8537H28.8644ZM27.9864 16.7317V17.6098H27.1083V16.7317H27.9864ZM29.7425 17.6098V18.4878H28.8644V17.6098H29.7425ZM30.6205 17.6098V18.4878H29.7425V17.6098H30.6205ZM31.4985 17.6098V18.4878H30.6205V17.6098H31.4985ZM31.4985 16.7317V17.6098H30.6205V16.7317H31.4985ZM32.3766 16.7317V17.6098H31.4985V16.7317H32.3766ZM32.3766 15.8537V16.7317H31.4985V15.8537H32.3766ZM33.2546 15.8537V16.7317H32.3766V15.8537H33.2546ZM33.2546 14.9756V15.8537H32.3766V14.9756H33.2546ZM34.1327 14.9756V15.8537H33.2546V14.9756H34.1327ZM35.0107 14.9756V15.8537H34.1327V14.9756H35.0107ZM35.8888 14.9756V15.8537H35.0107V14.9756H35.8888ZM35.8888 15.8537V16.7317H35.0107V15.8537H35.8888ZM36.7668 15.8537V16.7317H35.8888V15.8537H36.7668ZM36.7668 16.7317V17.6098H35.8888V16.7317H36.7668ZM37.6449 16.7317V17.6098H36.7668V16.7317H37.6449ZM37.6449 17.6098V18.4878H36.7668V17.6098H37.6449ZM38.5229 17.6098V18.4878H37.6449V17.6098H38.5229ZM38.5229 16.7317V17.6098H37.6449V16.7317H38.5229ZM39.401 16.7317V17.6098H38.5229V16.7317H39.401ZM40.279 16.7317V17.6098H39.401V16.7317H40.279ZM41.1571 16.7317V17.6098H40.279V16.7317H41.1571ZM41.1571 17.6098V18.4878H40.279V17.6098H41.1571ZM40.279 15.8537V16.7317H39.401V15.8537H40.279ZM39.401 15.8537V16.7317H38.5229V15.8537H39.401ZM39.401 14.9756V15.8537H38.5229V14.9756H39.401ZM38.5229 14.9756V15.8537H37.6449V14.9756H38.5229ZM37.6449 14.9756V15.8537H36.7668V14.9756H37.6449ZM37.6449 14.0976V14.9756H36.7668V14.0976H37.6449ZM36.7668 14.9756V15.8537H35.8888V14.9756H36.7668ZM38.5229 15.8537V16.7317H37.6449V15.8537H38.5229ZM37.6449 15.8537V16.7317H36.7668V15.8537H37.6449ZM33.2546 13.2195V14.0976H32.3766V13.2195H33.2546ZM34.1327 13.2195V14.0976H33.2546V13.2195H34.1327ZM35.0107 13.2195V14.0976H34.1327V13.2195H35.0107ZM35.8888 13.2195V14.0976H35.0107V13.2195H35.8888ZM36.7668 13.2195V14.0976H35.8888V13.2195H36.7668ZM37.6449 13.2195V14.0976H36.7668V13.2195H37.6449ZM36.7668 14.0976V14.9756H35.8888V14.0976H36.7668ZM35.8888 14.0976V14.9756H35.0107V14.0976H35.8888ZM35.0107 14.0976V14.9756H34.1327V14.0976H35.0107ZM34.1327 14.0976V14.9756H33.2546V14.0976H34.1327ZM33.2546 14.0976V14.9756H32.3766V14.0976H33.2546ZM32.3766 14.0976V14.9756H31.4985V14.0976H32.3766ZM32.3766 13.2195V14.0976H31.4985V13.2195H32.3766ZM32.3766 14.9756V15.8537H31.4985V14.9756H32.3766ZM31.4985 15.8537V16.7317H30.6205V15.8537H31.4985ZM30.6205 16.7317V17.6098H29.7425V16.7317H30.6205ZM30.6205 15.8537V16.7317H29.7425V15.8537H30.6205ZM38.5229 14.0976V14.9756H37.6449V14.0976H38.5229ZM38.5229 12.3415V13.2195H37.6449V12.3415H38.5229ZM38.5229 11.4634V12.3415H37.6449V11.4634H38.5229ZM39.401 11.4634V12.3415H38.5229V11.4634H39.401ZM39.401 10.5854V11.4634H38.5229V10.5854H39.401ZM40.279 10.5854V11.4634H39.401V10.5854H40.279ZM40.279 9.70732V10.5854H39.401V9.70732H40.279ZM41.1571 9.70732V10.5854H40.279V9.70732H41.1571ZM41.1571 8.82927V9.70732H40.279V8.82927H41.1571ZM41.1571 7.95122V8.82927H40.279V7.95122H41.1571ZM41.1571 7.07317V7.95122H40.279V7.07317H41.1571ZM41.1571 6.19512V7.07317H40.279V6.19512H41.1571ZM41.1571 5.31708V6.19512H40.279V5.31708H41.1571ZM40.279 5.31708V6.19512H39.401V5.31708H40.279ZM39.401 5.31708V6.19512H38.5229V5.31708H39.401ZM38.5229 5.31708V6.19512H37.6449V5.31708H38.5229ZM37.6449 5.31708V6.19512H36.7668V5.31708H37.6449ZM37.6449 6.19512V7.07317H36.7668V6.19512H37.6449ZM37.6449 7.07317V7.95122H36.7668V7.07317H37.6449ZM37.6449 7.95122V8.82927H36.7668V7.95122H37.6449ZM37.6449 8.82927V9.70732H36.7668V8.82927H37.6449ZM37.6449 9.70732V10.5854H36.7668V9.70732H37.6449ZM36.7668 9.70732V10.5854H35.8888V9.70732H36.7668ZM36.7668 10.5854V11.4634H35.8888V10.5854H36.7668ZM35.8888 10.5854V11.4634H35.0107V10.5854H35.8888ZM35.8888 11.4634V12.3415H35.0107V11.4634H35.8888ZM35.0107 11.4634V12.3415H34.1327V11.4634H35.0107ZM34.1327 11.4634V12.3415H33.2546V11.4634H34.1327ZM33.2546 10.5854V11.4634H32.3766V10.5854H33.2546ZM32.3766 10.5854V11.4634H31.4985V10.5854H32.3766ZM32.3766 9.70732V10.5854H31.4985V9.70732H32.3766ZM31.4985 10.5854V11.4634H30.6205V10.5854H31.4985ZM30.6205 10.5854V11.4634H29.7425V10.5854H30.6205ZM31.4985 11.4634V12.3415H30.6205V11.4634H31.4985ZM32.3766 11.4634V12.3415H31.4985V11.4634H32.3766ZM33.2546 11.4634V12.3415H32.3766V11.4634H33.2546ZM33.2546 12.3415V13.2195H32.3766V12.3415H33.2546ZM32.3766 12.3415V13.2195H31.4985V12.3415H32.3766ZM34.1327 12.3415V13.2195H33.2546V12.3415H34.1327ZM35.0107 12.3415V13.2195H34.1327V12.3415H35.0107ZM35.8888 12.3415V13.2195H35.0107V12.3415H35.8888ZM36.7668 12.3415V13.2195H35.8888V12.3415H36.7668ZM37.6449 12.3415V13.2195H36.7668V12.3415H37.6449ZM37.6449 11.4634V12.3415H36.7668V11.4634H37.6449ZM36.7668 11.4634V12.3415H35.8888V11.4634H36.7668ZM38.5229 6.19512V7.07317H37.6449V6.19512H38.5229ZM39.401 6.19512V7.07317H38.5229V6.19512H39.401ZM40.279 6.19512V7.07317H39.401V6.19512H40.279ZM40.279 7.07317V7.95122H39.401V7.07317H40.279ZM40.279 7.95122V8.82927H39.401V7.95122H40.279ZM40.279 8.82927V9.70732H39.401V8.82927H40.279ZM39.401 8.82927V9.70732H38.5229V8.82927H39.401ZM39.401 7.95122V8.82927H38.5229V7.95122H39.401ZM39.401 7.07317V7.95122H38.5229V7.07317H39.401ZM38.5229 7.07317V7.95122H37.6449V7.07317H38.5229ZM38.5229 7.95122V8.82927H37.6449V7.95122H38.5229ZM38.5229 8.82927V9.70732H37.6449V8.82927H38.5229ZM38.5229 9.70732V10.5854H37.6449V9.70732H38.5229ZM39.401 9.70732V10.5854H38.5229V9.70732H39.401ZM38.5229 10.5854V11.4634H37.6449V10.5854H38.5229ZM37.6449 10.5854V11.4634H36.7668V10.5854H37.6449ZM27.9864 17.6098V18.4878H27.1083V17.6098H27.9864ZM28.8644 17.6098V18.4878H27.9864V17.6098H28.8644ZM39.401 17.6098V18.4878H38.5229V17.6098H39.401ZM40.279 17.6098V18.4878H39.401V17.6098H40.279ZM37.6449 18.4878V19.3659H36.7668V18.4878H37.6449ZM37.6449 19.3659V20.2439H36.7668V19.3659H37.6449ZM37.6449 20.2439V21.122H36.7668V20.2439H37.6449ZM37.6449 21.122V22H36.7668V21.122H37.6449ZM38.5229 21.122V22H37.6449V21.122H38.5229ZM39.401 21.122V22H38.5229V21.122H39.401ZM40.279 21.122V22H39.401V21.122H40.279ZM41.1571 21.122V22H40.279V21.122H41.1571ZM41.1571 20.2439V21.122H40.279V20.2439H41.1571ZM41.1571 19.3659V20.2439H40.279V19.3659H41.1571ZM41.1571 18.4878V19.3659H40.279V18.4878H41.1571ZM40.279 18.4878V19.3659H39.401V18.4878H40.279ZM39.401 18.4878V19.3659H38.5229V18.4878H39.401ZM38.5229 18.4878V19.3659H37.6449V18.4878H38.5229ZM38.5229 19.3659V20.2439H37.6449V19.3659H38.5229ZM38.5229 20.2439V21.122H37.6449V20.2439H38.5229ZM39.401 20.2439V21.122H38.5229V20.2439H39.401ZM40.279 20.2439V21.122H39.401V20.2439H40.279ZM40.279 19.3659V20.2439H39.401V19.3659H40.279ZM39.401 19.3659V20.2439H38.5229V19.3659H39.401ZM27.9864 18.4878V19.3659H27.1083V18.4878H27.9864ZM27.9864 19.3659V20.2439H27.1083V19.3659H27.9864ZM27.9864 20.2439V21.122H27.1083V20.2439H27.9864ZM28.8644 20.2439V21.122H27.9864V20.2439H28.8644ZM28.8644 21.122V22H27.9864V21.122H28.8644ZM27.9864 21.122V22H27.1083V21.122H27.9864ZM29.7425 21.122V22H28.8644V21.122H29.7425ZM30.6205 21.122V22H29.7425V21.122H30.6205ZM31.4985 21.122V22H30.6205V21.122H31.4985ZM31.4985 20.2439V21.122H30.6205V20.2439H31.4985ZM31.4985 19.3659V20.2439H30.6205V19.3659H31.4985ZM31.4985 18.4878V19.3659H30.6205V18.4878H31.4985ZM30.6205 18.4878V19.3659H29.7425V18.4878H30.6205ZM30.6205 19.3659V20.2439H29.7425V19.3659H30.6205ZM30.6205 20.2439V21.122H29.7425V20.2439H30.6205ZM29.7425 20.2439V21.122H28.8644V20.2439H29.7425ZM29.7425 19.3659V20.2439H28.8644V19.3659H29.7425ZM29.7425 18.4878V19.3659H28.8644V18.4878H29.7425ZM28.8644 19.3659V20.2439H27.9864V19.3659H28.8644ZM28.8644 18.4878V19.3659H27.9864V18.4878H28.8644Z" fill="#FB85A8"/>
<path d="M54.705 10.5854V11.4634H53.8269V10.5854H54.705ZM55.583 10.5854V11.4634H54.705V10.5854H55.583ZM56.4611 10.5854V11.4634H55.583V10.5854H56.4611ZM57.3391 10.5854V11.4634H56.4611V10.5854H57.3391ZM58.2172 10.5854V11.4634H57.3391V10.5854H58.2172ZM58.2172 9.70732V10.5854H57.3391V9.70732H58.2172ZM58.2172 8.82927V9.70732H57.3391V8.82927H58.2172ZM57.3391 8.82927V9.70732H56.4611V8.82927H57.3391ZM56.4611 8.82927V9.70732H55.583V8.82927H56.4611ZM55.583 8.82927V9.70732H54.705V8.82927H55.583ZM55.583 9.70732V10.5854H54.705V9.70732H55.583ZM54.705 9.70732V10.5854H53.8269V9.70732H54.705ZM56.4611 9.70732V10.5854H55.583V9.70732H56.4611ZM57.3391 9.70732V10.5854H56.4611V9.70732H57.3391ZM54.705 8.82927V9.70732H53.8269V8.82927H54.705ZM53.8269 8.82927V9.70732H52.9489V8.82927H53.8269ZM53.8269 7.95122V8.82927H52.9489V7.95122H53.8269ZM54.705 7.95122V8.82927H53.8269V7.95122H54.705ZM55.583 7.95122V8.82927H54.705V7.95122H55.583ZM56.4611 7.95122V8.82927H55.583V7.95122H56.4611ZM57.3391 7.95122V8.82927H56.4611V7.95122H57.3391ZM57.3391 7.07317V7.95122H56.4611V7.07317H57.3391ZM56.4611 7.07317V7.95122H55.583V7.07317H56.4611ZM55.583 7.07317V7.95122H54.705V7.07317H55.583ZM54.705 7.07317V7.95122H53.8269V7.07317H54.705ZM53.8269 7.07317V7.95122H52.9489V7.07317H53.8269ZM55.583 6.19512V7.07317H54.705V6.19512H55.583ZM56.4611 6.19512V7.07317H55.583V6.19512H56.4611ZM54.705 6.19512V7.07317H53.8269V6.19512H54.705ZM54.705 5.31708V6.19512H53.8269V5.31708H54.705ZM53.8269 5.31708V6.19512H52.9489V5.31708H53.8269ZM53.8269 6.19512V7.07317H52.9489V6.19512H53.8269ZM52.9489 6.19512V7.07317H52.0708V6.19512H52.9489ZM52.9489 5.31708V6.19512H52.0708V5.31708H52.9489ZM52.9489 7.07317V7.95122H52.0708V7.07317H52.9489ZM52.0708 7.07317V7.95122H51.1928V7.07317H52.0708ZM52.0708 7.95122V8.82927H51.1928V7.95122H52.0708ZM52.9489 7.95122V8.82927H52.0708V7.95122H52.9489ZM51.1928 7.95122V8.82927H50.3147V7.95122H51.1928ZM51.1928 7.07317V7.95122H50.3147V7.07317H51.1928ZM51.1928 6.19512V7.07317H50.3147V6.19512H51.1928ZM51.1928 5.31708V6.19512H50.3147V5.31708H51.1928ZM52.0708 5.31708V6.19512H51.1928V5.31708H52.0708ZM52.0708 6.19512V7.07317H51.1928V6.19512H52.0708ZM50.3147 5.31708V6.19512H49.4367V5.31708H50.3147ZM49.4367 5.31708V6.19512H48.5586V5.31708H49.4367ZM48.5586 5.31708V6.19512H47.6806V5.31708H48.5586ZM48.5586 6.19512V7.07317H47.6806V6.19512H48.5586ZM48.5586 7.07317V7.95122H47.6806V7.07317H48.5586ZM48.5586 7.95122V8.82927H47.6806V7.95122H48.5586ZM49.4367 7.95122V8.82927H48.5586V7.95122H49.4367ZM50.3147 7.95122V8.82927H49.4367V7.95122H50.3147ZM50.3147 7.07317V7.95122H49.4367V7.07317H50.3147ZM50.3147 6.19512V7.07317H49.4367V6.19512H50.3147ZM49.4367 6.19512V7.07317H48.5586V6.19512H49.4367ZM49.4367 7.07317V7.95122H48.5586V7.07317H49.4367ZM47.6806 7.07317V7.95122H46.8025V7.07317H47.6806ZM47.6806 6.19512V7.07317H46.8025V6.19512H47.6806ZM46.8025 6.19512V7.07317H45.9245V6.19512H46.8025ZM46.8025 7.07317V7.95122H45.9245V7.07317H46.8025ZM45.9245 7.07317V7.95122H45.0464V7.07317H45.9245ZM45.9245 7.95122V8.82927H45.0464V7.95122H45.9245ZM45.9245 8.82927V9.70732H45.0464V8.82927H45.9245ZM46.8025 8.82927V9.70732H45.9245V8.82927H46.8025ZM46.8025 7.95122V8.82927H45.9245V7.95122H46.8025ZM47.6806 7.95122V8.82927H46.8025V7.95122H47.6806ZM47.6806 8.82927V9.70732H46.8025V8.82927H47.6806ZM48.5586 8.82927V9.70732H47.6806V8.82927H48.5586ZM49.4367 8.82927V9.70732H48.5586V8.82927H49.4367ZM45.0464 8.82927V9.70732H44.1684V8.82927H45.0464ZM45.0464 9.70732V10.5854H44.1684V9.70732H45.0464ZM45.0464 10.5854V11.4634H44.1684V10.5854H45.0464ZM45.0464 11.4634V12.3415H44.1684V11.4634H45.0464ZM45.0464 12.3415V13.2195H44.1684V12.3415H45.0464ZM45.0464 13.2195V14.0976H44.1684V13.2195H45.0464ZM45.0464 14.0976V14.9756H44.1684V14.0976H45.0464ZM45.0464 14.9756V15.8537H44.1684V14.9756H45.0464ZM45.0464 15.8537V16.7317H44.1684V15.8537H45.0464ZM45.0464 16.7317V17.6098H44.1684V16.7317H45.0464ZM45.9245 16.7317V17.6098H45.0464V16.7317H45.9245ZM45.9245 17.6098V18.4878H45.0464V17.6098H45.9245ZM45.0464 17.6098V18.4878H44.1684V17.6098H45.0464ZM46.8025 17.6098V18.4878H45.9245V17.6098H46.8025ZM47.6806 17.6098V18.4878H46.8025V17.6098H47.6806ZM48.5586 17.6098V18.4878H47.6806V17.6098H48.5586ZM49.4367 17.6098V18.4878H48.5586V17.6098H49.4367ZM48.5586 16.7317V17.6098H47.6806V16.7317H48.5586ZM48.5586 15.8537V16.7317H47.6806V15.8537H48.5586ZM48.5586 14.9756V15.8537H47.6806V14.9756H48.5586ZM48.5586 14.0976V14.9756H47.6806V14.0976H48.5586ZM48.5586 13.2195V14.0976H47.6806V13.2195H48.5586ZM48.5586 12.3415V13.2195H47.6806V12.3415H48.5586ZM48.5586 11.4634V12.3415H47.6806V11.4634H48.5586ZM48.5586 10.5854V11.4634H47.6806V10.5854H48.5586ZM48.5586 9.70732V10.5854H47.6806V9.70732H48.5586ZM47.6806 9.70732V10.5854H46.8025V9.70732H47.6806ZM46.8025 9.70732V10.5854H45.9245V9.70732H46.8025ZM45.9245 9.70732V10.5854H45.0464V9.70732H45.9245ZM45.9245 10.5854V11.4634H45.0464V10.5854H45.9245ZM45.9245 11.4634V12.3415H45.0464V11.4634H45.9245ZM45.9245 12.3415V13.2195H45.0464V12.3415H45.9245ZM45.9245 13.2195V14.0976H45.0464V13.2195H45.9245ZM45.9245 14.0976V14.9756H45.0464V14.0976H45.9245ZM45.9245 14.9756V15.8537H45.0464V14.9756H45.9245ZM45.9245 15.8537V16.7317H45.0464V15.8537H45.9245ZM46.8025 16.7317V17.6098H45.9245V16.7317H46.8025ZM47.6806 16.7317V17.6098H46.8025V16.7317H47.6806ZM47.6806 15.8537V16.7317H46.8025V15.8537H47.6806ZM47.6806 14.9756V15.8537H46.8025V14.9756H47.6806ZM47.6806 14.0976V14.9756H46.8025V14.0976H47.6806ZM47.6806 13.2195V14.0976H46.8025V13.2195H47.6806ZM46.8025 13.2195V14.0976H45.9245V13.2195H46.8025ZM46.8025 12.3415V13.2195H45.9245V12.3415H46.8025ZM46.8025 11.4634V12.3415H45.9245V11.4634H46.8025ZM46.8025 10.5854V11.4634H45.9245V10.5854H46.8025ZM47.6806 10.5854V11.4634H46.8025V10.5854H47.6806ZM47.6806 11.4634V12.3415H46.8025V11.4634H47.6806ZM47.6806 12.3415V13.2195H46.8025V12.3415H47.6806ZM46.8025 14.9756V15.8537H45.9245V14.9756H46.8025ZM46.8025 15.8537V16.7317H45.9245V15.8537H46.8025ZM46.8025 14.0976V14.9756H45.9245V14.0976H46.8025ZM54.705 16.7317V17.6098H53.8269V16.7317H54.705ZM55.583 16.7317V17.6098H54.705V16.7317H55.583ZM56.4611 16.7317V17.6098H55.583V16.7317H56.4611ZM57.3391 16.7317V17.6098H56.4611V16.7317H57.3391ZM58.2172 16.7317V17.6098H57.3391V16.7317H58.2172ZM58.2172 17.6098V18.4878H57.3391V17.6098H58.2172ZM57.3391 17.6098V18.4878H56.4611V17.6098H57.3391ZM56.4611 17.6098V18.4878H55.583V17.6098H56.4611ZM55.583 17.6098V18.4878H54.705V17.6098H55.583ZM54.705 17.6098V18.4878H53.8269V17.6098H54.705ZM53.8269 17.6098V18.4878H52.9489V17.6098H53.8269ZM53.8269 18.4878V19.3659H52.9489V18.4878H53.8269ZM54.705 18.4878V19.3659H53.8269V18.4878H54.705ZM55.583 18.4878V19.3659H54.705V18.4878H55.583ZM56.4611 18.4878V19.3659H55.583V18.4878H56.4611ZM56.4611 19.3659V20.2439H55.583V19.3659H56.4611ZM57.3391 19.3659V20.2439H56.4611V19.3659H57.3391ZM57.3391 18.4878V19.3659H56.4611V18.4878H57.3391ZM56.4611 20.2439V21.122H55.583V20.2439H56.4611ZM55.583 20.2439V21.122H54.705V20.2439H55.583ZM55.583 19.3659V20.2439H54.705V19.3659H55.583ZM54.705 19.3659V20.2439H53.8269V19.3659H54.705ZM54.705 20.2439V21.122H53.8269V20.2439H54.705ZM54.705 21.122V22H53.8269V21.122H54.705ZM53.8269 21.122V22H52.9489V21.122H53.8269ZM52.9489 21.122V22H52.0708V21.122H52.9489ZM52.0708 21.122V22H51.1928V21.122H52.0708ZM51.1928 21.122V22H50.3147V21.122H51.1928ZM50.3147 21.122V22H49.4367V21.122H50.3147ZM49.4367 21.122V22H48.5586V21.122H49.4367ZM48.5586 21.122V22H47.6806V21.122H48.5586ZM49.4367 20.2439V21.122H48.5586V20.2439H49.4367ZM50.3147 20.2439V21.122H49.4367V20.2439H50.3147ZM51.1928 20.2439V21.122H50.3147V20.2439H51.1928ZM52.0708 20.2439V21.122H51.1928V20.2439H52.0708ZM52.9489 20.2439V21.122H52.0708V20.2439H52.9489ZM53.8269 20.2439V21.122H52.9489V20.2439H53.8269ZM53.8269 19.3659V20.2439H52.9489V19.3659H53.8269ZM52.9489 19.3659V20.2439H52.0708V19.3659H52.9489ZM52.0708 19.3659V20.2439H51.1928V19.3659H52.0708ZM51.1928 19.3659V20.2439H50.3147V19.3659H51.1928ZM50.3147 19.3659V20.2439H49.4367V19.3659H50.3147ZM49.4367 19.3659V20.2439H48.5586V19.3659H49.4367ZM48.5586 20.2439V21.122H47.6806V20.2439H48.5586ZM47.6806 20.2439V21.122H46.8025V20.2439H47.6806ZM46.8025 20.2439V21.122H45.9245V20.2439H46.8025ZM46.8025 19.3659V20.2439H45.9245V19.3659H46.8025ZM45.9245 19.3659V20.2439H45.0464V19.3659H45.9245ZM45.9245 18.4878V19.3659H45.0464V18.4878H45.9245ZM46.8025 18.4878V19.3659H45.9245V18.4878H46.8025ZM47.6806 18.4878V19.3659H46.8025V18.4878H47.6806ZM48.5586 18.4878V19.3659H47.6806V18.4878H48.5586ZM49.4367 18.4878V19.3659H48.5586V18.4878H49.4367ZM50.3147 18.4878V19.3659H49.4367V18.4878H50.3147ZM51.1928 18.4878V19.3659H50.3147V18.4878H51.1928ZM52.0708 18.4878V19.3659H51.1928V18.4878H52.0708ZM52.9489 18.4878V19.3659H52.0708V18.4878H52.9489ZM48.5586 19.3659V20.2439H47.6806V19.3659H48.5586ZM47.6806 19.3659V20.2439H46.8025V19.3659H47.6806ZM58.2172 11.4634V12.3415H57.3391V11.4634H58.2172ZM57.3391 11.4634V12.3415H56.4611V11.4634H57.3391ZM56.4611 11.4634V12.3415H55.583V11.4634H56.4611ZM55.583 11.4634V12.3415H54.705V11.4634H55.583ZM54.705 11.4634V12.3415H53.8269V11.4634H54.705ZM58.2172 12.3415V13.2195H57.3391V12.3415H58.2172ZM56.4611 12.3415V13.2195H55.583V12.3415H56.4611ZM55.583 12.3415V13.2195H54.705V12.3415H55.583ZM53.8269 12.3415V13.2195H52.9489V12.3415H53.8269ZM52.9489 12.3415V13.2195H52.0708V12.3415H52.9489ZM52.0708 12.3415V13.2195H51.1928V12.3415H52.0708ZM51.1928 12.3415V13.2195H50.3147V12.3415H51.1928ZM50.3147 12.3415V13.2195H49.4367V12.3415H50.3147ZM49.4367 12.3415V13.2195H48.5586V12.3415H49.4367ZM54.705 12.3415V13.2195H53.8269V12.3415H54.705ZM57.3391 12.3415V13.2195H56.4611V12.3415H57.3391ZM58.2172 13.2195V14.0976H57.3391V13.2195H58.2172ZM57.3391 13.2195V14.0976H56.4611V13.2195H57.3391ZM56.4611 13.2195V14.0976H55.583V13.2195H56.4611ZM55.583 13.2195V14.0976H54.705V13.2195H55.583ZM54.705 13.2195V14.0976H53.8269V13.2195H54.705ZM53.8269 13.2195V14.0976H52.9489V13.2195H53.8269ZM52.9489 13.2195V14.0976H52.0708V13.2195H52.9489ZM52.0708 13.2195V14.0976H51.1928V13.2195H52.0708ZM51.1928 13.2195V14.0976H50.3147V13.2195H51.1928ZM50.3147 13.2195V14.0976H49.4367V13.2195H50.3147ZM49.4367 13.2195V14.0976H48.5586V13.2195H49.4367ZM49.4367 14.0976V14.9756H48.5586V14.0976H49.4367ZM50.3147 14.0976V14.9756H49.4367V14.0976H50.3147ZM51.1928 14.0976V14.9756H50.3147V14.0976H51.1928ZM52.9489 14.0976V14.9756H52.0708V14.0976H52.9489ZM53.8269 14.0976V14.9756H52.9489V14.0976H53.8269ZM54.705 14.0976V14.9756H53.8269V14.0976H54.705ZM55.583 14.0976V14.9756H54.705V14.0976H55.583ZM56.4611 14.0976V14.9756H55.583V14.0976H56.4611ZM57.3391 14.0976V14.9756H56.4611V14.0976H57.3391ZM58.2172 14.0976V14.9756H57.3391V14.0976H58.2172ZM52.0708 14.0976V14.9756H51.1928V14.0976H52.0708Z" fill="#FB85A8"/>
<path d="M62.1048 21.122V22H61.2267V21.122H62.1048ZM62.1048 20.2439V21.122H61.2267V20.2439H62.1048ZM62.1048 19.3659V20.2439H61.2267V19.3659H62.1048ZM62.1048 18.4878V19.3659H61.2267V18.4878H62.1048ZM62.1048 17.6098V18.4878H61.2267V17.6098H62.1048ZM62.1048 16.7317V17.6098H61.2267V16.7317H62.1048ZM62.1048 15.8537V16.7317H61.2267V15.8537H62.1048ZM62.1048 14.9756V15.8537H61.2267V14.9756H62.1048ZM62.1048 14.0976V14.9756H61.2267V14.0976H62.1048ZM62.1048 13.2195V14.0976H61.2267V13.2195H62.1048ZM62.1048 12.3415V13.2195H61.2267V12.3415H62.1048ZM62.1048 11.4634V12.3415H61.2267V11.4634H62.1048ZM62.1048 10.5854V11.4634H61.2267V10.5854H62.1048ZM62.1048 9.70732V10.5854H61.2267V9.70732H62.1048ZM62.1048 8.82927V9.70732H61.2267V8.82927H62.1048ZM62.9828 8.82927V9.70732H62.1048V8.82927H62.9828ZM62.9828 9.70732V10.5854H62.1048V9.70732H62.9828ZM62.9828 10.5854V11.4634H62.1048V10.5854H62.9828ZM62.9828 11.4634V12.3415H62.1048V11.4634H62.9828ZM62.9828 12.3415V13.2195H62.1048V12.3415H62.9828ZM62.9828 13.2195V14.0976H62.1048V13.2195H62.9828ZM62.9828 14.0976V14.9756H62.1048V14.0976H62.9828ZM63.8609 14.9756V15.8537H62.9828V14.9756H63.8609ZM63.8609 15.8537V16.7317H62.9828V15.8537H63.8609ZM63.8609 16.7317V17.6098H62.9828V16.7317H63.8609ZM63.8609 17.6098V18.4878H62.9828V17.6098H63.8609ZM63.8609 18.4878V19.3659H62.9828V18.4878H63.8609ZM63.8609 19.3659V20.2439H62.9828V19.3659H63.8609ZM63.8609 20.2439V21.122H62.9828V20.2439H63.8609ZM63.8609 21.122V22H62.9828V21.122H63.8609ZM64.7389 21.122V22H63.8609V21.122H64.7389ZM65.617 21.122V22H64.7389V21.122H65.617ZM65.617 20.2439V21.122H64.7389V20.2439H65.617ZM65.617 19.3659V20.2439H64.7389V19.3659H65.617ZM65.617 18.4878V19.3659H64.7389V18.4878H65.617ZM65.617 17.6098V18.4878H64.7389V17.6098H65.617ZM65.617 16.7317V17.6098H64.7389V16.7317H65.617ZM65.617 15.8537V16.7317H64.7389V15.8537H65.617ZM65.617 14.9756V15.8537H64.7389V14.9756H65.617ZM64.7389 14.9756V15.8537H63.8609V14.9756H64.7389ZM64.7389 14.0976V14.9756H63.8609V14.0976H64.7389ZM64.7389 15.8537V16.7317H63.8609V15.8537H64.7389ZM64.7389 16.7317V17.6098H63.8609V16.7317H64.7389ZM64.7389 17.6098V18.4878H63.8609V17.6098H64.7389ZM64.7389 18.4878V19.3659H63.8609V18.4878H64.7389ZM64.7389 19.3659V20.2439H63.8609V19.3659H64.7389ZM64.7389 20.2439V21.122H63.8609V20.2439H64.7389ZM62.9828 21.122V22H62.1048V21.122H62.9828ZM62.9828 20.2439V21.122H62.1048V20.2439H62.9828ZM62.9828 19.3659V20.2439H62.1048V19.3659H62.9828ZM62.9828 18.4878V19.3659H62.1048V18.4878H62.9828ZM62.9828 17.6098V18.4878H62.1048V17.6098H62.9828ZM62.9828 16.7317V17.6098H62.1048V16.7317H62.9828ZM62.9828 15.8537V16.7317H62.1048V15.8537H62.9828ZM62.9828 14.9756V15.8537H62.1048V14.9756H62.9828ZM62.1048 0.0487823V0.926832H61.2267V0.0487823H62.1048ZM62.1048 0.926832V1.80488H61.2267V0.926832H62.1048ZM62.1048 1.80488V2.68293H61.2267V1.80488H62.1048ZM62.1048 2.68293V3.56098H61.2267V2.68293H62.1048ZM62.1048 3.56098V4.43903H61.2267V3.56098H62.1048ZM62.1048 4.43903V5.31708H61.2267V4.43903H62.1048ZM62.1048 5.31708V6.19512H61.2267V5.31708H62.1048ZM62.1048 6.19512V7.07317H61.2267V6.19512H62.1048ZM62.1048 7.07317V7.95122H61.2267V7.07317H62.1048ZM62.1048 7.95122V8.82927H61.2267V7.95122H62.1048ZM64.7389 0.0487823V0.926832H63.8609V0.0487823H64.7389ZM64.7389 0.926832V1.80488H63.8609V0.926832H64.7389ZM64.7389 1.80488V2.68293H63.8609V1.80488H64.7389ZM64.7389 2.68293V3.56098H63.8609V2.68293H64.7389ZM64.7389 3.56098V4.43903H63.8609V3.56098H64.7389ZM64.7389 4.43903V5.31708H63.8609V4.43903H64.7389ZM64.7389 6.19512V7.07317H63.8609V6.19512H64.7389ZM64.7389 7.07317V7.95122H63.8609V7.07317H64.7389ZM64.7389 7.95122V8.82927H63.8609V7.95122H64.7389ZM64.7389 8.82927V9.70732H63.8609V8.82927H64.7389ZM64.7389 9.70732V10.5854H63.8609V9.70732H64.7389ZM64.7389 10.5854V11.4634H63.8609V10.5854H64.7389ZM64.7389 11.4634V12.3415H63.8609V11.4634H64.7389ZM65.617 12.3415V13.2195H64.7389V12.3415H65.617ZM65.617 13.2195V14.0976H64.7389V13.2195H65.617ZM65.617 14.0976V14.9756H64.7389V14.0976H65.617ZM65.617 11.4634V12.3415H64.7389V11.4634H65.617ZM65.617 10.5854V11.4634H64.7389V10.5854H65.617ZM65.617 9.70732V10.5854H64.7389V9.70732H65.617ZM65.617 8.82927V9.70732H64.7389V8.82927H65.617ZM65.617 7.95122V8.82927H64.7389V7.95122H65.617ZM65.617 7.07317V7.95122H64.7389V7.07317H65.617ZM65.617 6.19512V7.07317H64.7389V6.19512H65.617ZM65.617 5.31708V6.19512H64.7389V5.31708H65.617ZM65.617 4.43903V5.31708H64.7389V4.43903H65.617ZM65.617 3.56098V4.43903H64.7389V3.56098H65.617ZM64.7389 5.31708V6.19512H63.8609V5.31708H64.7389ZM65.617 2.68293V3.56098H64.7389V2.68293H65.617ZM65.617 1.80488V2.68293H64.7389V1.80488H65.617ZM65.617 0.926832V1.80488H64.7389V0.926832H65.617ZM65.617 0.0487823V0.926832H64.7389V0.0487823H65.617ZM63.8609 0.0487823V0.926832H62.9828V0.0487823H63.8609ZM62.9828 0.0487823V0.926832H62.1048V0.0487823H62.9828ZM62.9828 0.926832V1.80488H62.1048V0.926832H62.9828ZM63.8609 0.926832V1.80488H62.9828V0.926832H63.8609ZM63.8609 1.80488V2.68293H62.9828V1.80488H63.8609ZM63.8609 2.68293V3.56098H62.9828V2.68293H63.8609ZM63.8609 3.56098V4.43903H62.9828V3.56098H63.8609ZM63.8609 4.43903V5.31708H62.9828V4.43903H63.8609ZM63.8609 5.31708V6.19512H62.9828V5.31708H63.8609ZM63.8609 6.19512V7.07317H62.9828V6.19512H63.8609ZM62.9828 7.07317V7.95122H62.1048V7.07317H62.9828ZM62.9828 7.95122V8.82927H62.1048V7.95122H62.9828ZM62.9828 6.19512V7.07317H62.1048V6.19512H62.9828ZM62.9828 5.31708V6.19512H62.1048V5.31708H62.9828ZM62.9828 4.43903V5.31708H62.1048V4.43903H62.9828ZM62.9828 3.56098V4.43903H62.1048V3.56098H62.9828ZM62.9828 2.68293V3.56098H62.1048V2.68293H62.9828ZM62.9828 1.80488V2.68293H62.1048V1.80488H62.9828ZM63.8609 7.07317V7.95122H62.9828V7.07317H63.8609ZM63.8609 7.95122V8.82927H62.9828V7.95122H63.8609ZM63.8609 8.82927V9.70732H62.9828V8.82927H63.8609ZM63.8609 9.70732V10.5854H62.9828V9.70732H63.8609ZM63.8609 10.5854V11.4634H62.9828V10.5854H63.8609ZM63.8609 11.4634V12.3415H62.9828V11.4634H63.8609ZM63.8609 12.3415V13.2195H62.9828V12.3415H63.8609ZM63.8609 13.2195V14.0976H62.9828V13.2195H63.8609ZM63.8609 14.0976V14.9756H62.9828V14.0976H63.8609ZM64.7389 13.2195V14.0976H63.8609V13.2195H64.7389ZM64.7389 12.3415V13.2195H63.8609V12.3415H64.7389Z" fill="#FB85A8"/>
<path d="M70.375 21.122V22H69.4969V21.122H70.375ZM70.375 20.2439V21.122H69.4969V20.2439H70.375ZM70.375 19.3659V20.2439H69.4969V19.3659H70.375ZM70.375 18.4878V19.3659H69.4969V18.4878H70.375ZM70.375 17.6098V18.4878H69.4969V17.6098H70.375ZM70.375 16.7317V17.6098H69.4969V16.7317H70.375ZM70.375 15.8537V16.7317H69.4969V15.8537H70.375ZM70.375 14.9756V15.8537H69.4969V14.9756H70.375ZM70.375 14.0976V14.9756H69.4969V14.0976H70.375ZM70.375 13.2195V14.0976H69.4969V13.2195H70.375ZM70.375 12.3415V13.2195H69.4969V12.3415H70.375ZM70.375 11.4634V12.3415H69.4969V11.4634H70.375ZM70.375 10.5854V11.4634H69.4969V10.5854H70.375ZM70.375 9.70732V10.5854H69.4969V9.70732H70.375ZM70.375 8.82927V9.70732H69.4969V8.82927H70.375ZM71.253 8.82927V9.70732H70.375V8.82927H71.253ZM71.253 9.70732V10.5854H70.375V9.70732H71.253ZM71.253 10.5854V11.4634H70.375V10.5854H71.253ZM71.253 11.4634V12.3415H70.375V11.4634H71.253ZM71.253 12.3415V13.2195H70.375V12.3415H71.253ZM71.253 13.2195V14.0976H70.375V13.2195H71.253ZM71.253 14.0976V14.9756H70.375V14.0976H71.253ZM72.1311 14.9756V15.8537H71.253V14.9756H72.1311ZM72.1311 15.8537V16.7317H71.253V15.8537H72.1311ZM72.1311 16.7317V17.6098H71.253V16.7317H72.1311ZM72.1311 17.6098V18.4878H71.253V17.6098H72.1311ZM72.1311 18.4878V19.3659H71.253V18.4878H72.1311ZM72.1311 19.3659V20.2439H71.253V19.3659H72.1311ZM72.1311 20.2439V21.122H71.253V20.2439H72.1311ZM72.1311 21.122V22H71.253V21.122H72.1311ZM73.0091 21.122V22H72.1311V21.122H73.0091ZM73.8871 21.122V22H73.0091V21.122H73.8871ZM73.8871 20.2439V21.122H73.0091V20.2439H73.8871ZM73.8871 19.3659V20.2439H73.0091V19.3659H73.8871ZM73.8871 18.4878V19.3659H73.0091V18.4878H73.8871ZM73.8871 17.6098V18.4878H73.0091V17.6098H73.8871ZM73.8871 16.7317V17.6098H73.0091V16.7317H73.8871ZM73.8871 15.8537V16.7317H73.0091V15.8537H73.8871ZM73.8871 14.9756V15.8537H73.0091V14.9756H73.8871ZM73.0091 14.9756V15.8537H72.1311V14.9756H73.0091ZM73.0091 14.0976V14.9756H72.1311V14.0976H73.0091ZM73.0091 15.8537V16.7317H72.1311V15.8537H73.0091ZM73.0091 16.7317V17.6098H72.1311V16.7317H73.0091ZM73.0091 17.6098V18.4878H72.1311V17.6098H73.0091ZM73.0091 18.4878V19.3659H72.1311V18.4878H73.0091ZM73.0091 19.3659V20.2439H72.1311V19.3659H73.0091ZM73.0091 20.2439V21.122H72.1311V20.2439H73.0091ZM71.253 21.122V22H70.375V21.122H71.253ZM71.253 20.2439V21.122H70.375V20.2439H71.253ZM71.253 19.3659V20.2439H70.375V19.3659H71.253ZM71.253 18.4878V19.3659H70.375V18.4878H71.253ZM71.253 17.6098V18.4878H70.375V17.6098H71.253ZM71.253 16.7317V17.6098H70.375V16.7317H71.253ZM71.253 15.8537V16.7317H70.375V15.8537H71.253ZM71.253 14.9756V15.8537H70.375V14.9756H71.253ZM70.375 0.0487823V0.926832H69.4969V0.0487823H70.375ZM70.375 0.926832V1.80488H69.4969V0.926832H70.375ZM70.375 1.80488V2.68293H69.4969V1.80488H70.375ZM70.375 2.68293V3.56098H69.4969V2.68293H70.375ZM70.375 3.56098V4.43903H69.4969V3.56098H70.375ZM70.375 4.43903V5.31708H69.4969V4.43903H70.375ZM70.375 5.31708V6.19512H69.4969V5.31708H70.375ZM70.375 6.19512V7.07317H69.4969V6.19512H70.375ZM70.375 7.07317V7.95122H69.4969V7.07317H70.375ZM70.375 7.95122V8.82927H69.4969V7.95122H70.375ZM73.0091 0.0487823V0.926832H72.1311V0.0487823H73.0091ZM73.0091 0.926832V1.80488H72.1311V0.926832H73.0091ZM73.0091 1.80488V2.68293H72.1311V1.80488H73.0091ZM73.0091 2.68293V3.56098H72.1311V2.68293H73.0091ZM73.0091 3.56098V4.43903H72.1311V3.56098H73.0091ZM73.0091 4.43903V5.31708H72.1311V4.43903H73.0091ZM73.0091 6.19512V7.07317H72.1311V6.19512H73.0091ZM73.0091 7.07317V7.95122H72.1311V7.07317H73.0091ZM73.0091 7.95122V8.82927H72.1311V7.95122H73.0091ZM73.0091 8.82927V9.70732H72.1311V8.82927H73.0091ZM73.0091 9.70732V10.5854H72.1311V9.70732H73.0091ZM73.0091 10.5854V11.4634H72.1311V10.5854H73.0091ZM73.0091 11.4634V12.3415H72.1311V11.4634H73.0091ZM73.8871 12.3415V13.2195H73.0091V12.3415H73.8871ZM73.8871 13.2195V14.0976H73.0091V13.2195H73.8871ZM73.8871 14.0976V14.9756H73.0091V14.0976H73.8871ZM73.8871 11.4634V12.3415H73.0091V11.4634H73.8871ZM73.8871 10.5854V11.4634H73.0091V10.5854H73.8871ZM73.8871 9.70732V10.5854H73.0091V9.70732H73.8871ZM73.8871 8.82927V9.70732H73.0091V8.82927H73.8871ZM73.8871 7.95122V8.82927H73.0091V7.95122H73.8871ZM73.8871 7.07317V7.95122H73.0091V7.07317H73.8871ZM73.8871 6.19512V7.07317H73.0091V6.19512H73.8871ZM73.8871 5.31708V6.19512H73.0091V5.31708H73.8871ZM73.8871 4.43903V5.31708H73.0091V4.43903H73.8871ZM73.8871 3.56098V4.43903H73.0091V3.56098H73.8871ZM73.0091 5.31708V6.19512H72.1311V5.31708H73.0091ZM73.8871 2.68293V3.56098H73.0091V2.68293H73.8871ZM73.8871 1.80488V2.68293H73.0091V1.80488H73.8871ZM73.8871 0.926832V1.80488H73.0091V0.926832H73.8871ZM73.8871 0.0487823V0.926832H73.0091V0.0487823H73.8871ZM72.1311 0.0487823V0.926832H71.253V0.0487823H72.1311ZM71.253 0.0487823V0.926832H70.375V0.0487823H71.253ZM71.253 0.926832V1.80488H70.375V0.926832H71.253ZM72.1311 0.926832V1.80488H71.253V0.926832H72.1311ZM72.1311 1.80488V2.68293H71.253V1.80488H72.1311ZM72.1311 2.68293V3.56098H71.253V2.68293H72.1311ZM72.1311 3.56098V4.43903H71.253V3.56098H72.1311ZM72.1311 4.43903V5.31708H71.253V4.43903H72.1311ZM72.1311 5.31708V6.19512H71.253V5.31708H72.1311ZM72.1311 6.19512V7.07317H71.253V6.19512H72.1311ZM71.253 7.07317V7.95122H70.375V7.07317H71.253ZM71.253 7.95122V8.82927H70.375V7.95122H71.253ZM71.253 6.19512V7.07317H70.375V6.19512H71.253ZM71.253 5.31708V6.19512H70.375V5.31708H71.253ZM71.253 4.43903V5.31708H70.375V4.43903H71.253ZM71.253 3.56098V4.43903H70.375V3.56098H71.253ZM71.253 2.68293V3.56098H70.375V2.68293H71.253ZM71.253 1.80488V2.68293H70.375V1.80488H71.253ZM72.1311 7.07317V7.95122H71.253V7.07317H72.1311ZM72.1311 7.95122V8.82927H71.253V7.95122H72.1311ZM72.1311 8.82927V9.70732H71.253V8.82927H72.1311ZM72.1311 9.70732V10.5854H71.253V9.70732H72.1311ZM72.1311 10.5854V11.4634H71.253V10.5854H72.1311ZM72.1311 11.4634V12.3415H71.253V11.4634H72.1311ZM72.1311 12.3415V13.2195H71.253V12.3415H72.1311ZM72.1311 13.2195V14.0976H71.253V13.2195H72.1311ZM72.1311 14.0976V14.9756H71.253V14.0976H72.1311ZM73.0091 13.2195V14.0976H72.1311V13.2195H73.0091ZM73.0091 12.3415V13.2195H72.1311V12.3415H73.0091ZM74.7652 10.5854V11.4634H73.8871V10.5854H74.7652ZM75.6432 10.5854V11.4634H74.7652V10.5854H75.6432ZM75.6432 11.4634V12.3415H74.7652V11.4634H75.6432ZM74.7652 11.4634V12.3415H73.8871V11.4634H74.7652ZM74.7652 8.82927V9.70732H73.8871V8.82927H74.7652ZM75.6432 8.82927V9.70732H74.7652V8.82927H75.6432ZM74.7652 12.3415V13.2195H73.8871V12.3415H74.7652ZM75.6432 12.3415V13.2195H74.7652V12.3415H75.6432ZM75.6432 9.70732V10.5854H74.7652V9.70732H75.6432ZM74.7652 9.70732V10.5854H73.8871V9.70732H74.7652ZM74.7652 0.0487823V0.926832H73.8871V0.0487823H74.7652ZM75.6432 0.0487823V0.926832H74.7652V0.0487823H75.6432ZM75.6432 0.926832V1.80488H74.7652V0.926832H75.6432ZM74.7652 0.926832V1.80488H73.8871V0.926832H74.7652ZM74.7652 1.80488V2.68293H73.8871V1.80488H74.7652ZM75.6432 1.80488V2.68293H74.7652V1.80488H75.6432ZM75.6432 2.68293V3.56098H74.7652V2.68293H75.6432ZM74.7652 2.68293V3.56098H73.8871V2.68293H74.7652ZM74.7652 3.56098V4.43903H73.8871V3.56098H74.7652ZM75.6432 3.56098V4.43903H74.7652V3.56098H75.6432ZM74.7652 21.122V22H73.8871V21.122H74.7652ZM75.6432 21.122V22H74.7652V21.122H75.6432ZM75.6432 20.2439V21.122H74.7652V20.2439H75.6432ZM75.6432 19.3659V20.2439H74.7652V19.3659H75.6432ZM75.6432 18.4878V19.3659H74.7652V18.4878H75.6432ZM75.6432 17.6098V18.4878H74.7652V17.6098H75.6432ZM74.7652 17.6098V18.4878H73.8871V17.6098H74.7652ZM74.7652 18.4878V19.3659H73.8871V18.4878H74.7652ZM74.7652 19.3659V20.2439H73.8871V19.3659H74.7652ZM74.7652 20.2439V21.122H73.8871V20.2439H74.7652ZM76.5213 8.82927V9.70732H75.6432V8.82927H76.5213ZM77.3993 8.82927V9.70732H76.5213V8.82927H77.3993ZM78.2774 8.82927V9.70732H77.3993V8.82927H78.2774ZM79.1554 7.95122V8.82927H78.2774V7.95122H79.1554ZM80.0335 7.07317V7.95122H79.1554V7.07317H80.0335ZM80.0335 6.19512V7.07317H79.1554V6.19512H80.0335ZM80.0335 5.31708V6.19512H79.1554V5.31708H80.0335ZM79.1554 4.43903V5.31708H78.2774V4.43903H79.1554ZM78.2774 3.56098V4.43903H77.3993V3.56098H78.2774ZM77.3993 3.56098V4.43903H76.5213V3.56098H77.3993ZM76.5213 3.56098V4.43903H75.6432V3.56098H76.5213ZM76.5213 0.0487823V0.926832H75.6432V0.0487823H76.5213ZM77.3993 0.0487823V0.926832H76.5213V0.0487823H77.3993ZM78.2774 0.0487823V0.926832H77.3993V0.0487823H78.2774ZM79.1554 0.0487823V0.926832H78.2774V0.0487823H79.1554ZM79.1554 0.926832V1.80488H78.2774V0.926832H79.1554ZM79.1554 1.80488V2.68293H78.2774V1.80488H79.1554ZM79.1554 2.68293V3.56098H78.2774V2.68293H79.1554ZM78.2774 2.68293V3.56098H77.3993V2.68293H78.2774ZM78.2774 1.80488V2.68293H77.3993V1.80488H78.2774ZM77.3993 1.80488V2.68293H76.5213V1.80488H77.3993ZM76.5213 1.80488V2.68293H75.6432V1.80488H76.5213ZM76.5213 0.926832V1.80488H75.6432V0.926832H76.5213ZM77.3993 0.926832V1.80488H76.5213V0.926832H77.3993ZM78.2774 0.926832V1.80488H77.3993V0.926832H78.2774ZM76.5213 2.68293V3.56098H75.6432V2.68293H76.5213ZM77.3993 2.68293V3.56098H76.5213V2.68293H77.3993ZM79.1554 3.56098V4.43903H78.2774V3.56098H79.1554ZM80.0335 4.43903V5.31708H79.1554V4.43903H80.0335ZM80.0335 3.56098V4.43903H79.1554V3.56098H80.0335ZM80.0335 2.68293V3.56098H79.1554V2.68293H80.0335ZM80.0335 1.80488V2.68293H79.1554V1.80488H80.0335ZM80.0335 0.926832V1.80488H79.1554V0.926832H80.0335ZM80.0335 0.0487823V0.926832H79.1554V0.0487823H80.0335ZM80.0335 7.95122V8.82927H79.1554V7.95122H80.0335ZM80.0335 8.82927V9.70732H79.1554V8.82927H80.0335ZM80.0335 9.70732V10.5854H79.1554V9.70732H80.0335ZM80.0335 10.5854V11.4634H79.1554V10.5854H80.0335ZM79.1554 10.5854V11.4634H78.2774V10.5854H79.1554ZM78.2774 10.5854V11.4634H77.3993V10.5854H78.2774ZM77.3993 10.5854V11.4634H76.5213V10.5854H77.3993ZM76.5213 10.5854V11.4634H75.6432V10.5854H76.5213ZM76.5213 9.70732V10.5854H75.6432V9.70732H76.5213ZM77.3993 9.70732V10.5854H76.5213V9.70732H77.3993ZM78.2774 9.70732V10.5854H77.3993V9.70732H78.2774ZM79.1554 9.70732V10.5854H78.2774V9.70732H79.1554ZM79.1554 8.82927V9.70732H78.2774V8.82927H79.1554ZM76.5213 11.4634V12.3415H75.6432V11.4634H76.5213ZM77.3993 11.4634V12.3415H76.5213V11.4634H77.3993ZM78.2774 11.4634V12.3415H77.3993V11.4634H78.2774ZM79.1554 11.4634V12.3415H78.2774V11.4634H79.1554ZM80.0335 11.4634V12.3415H79.1554V11.4634H80.0335ZM80.0335 12.3415V13.2195H79.1554V12.3415H80.0335ZM79.1554 12.3415V13.2195H78.2774V12.3415H79.1554ZM78.2774 12.3415V13.2195H77.3993V12.3415H78.2774ZM77.3993 12.3415V13.2195H76.5213V12.3415H77.3993ZM76.5213 12.3415V13.2195H75.6432V12.3415H76.5213ZM79.1554 13.2195V14.0976H78.2774V13.2195H79.1554ZM80.0335 14.0976V14.9756H79.1554V14.0976H80.0335ZM80.0335 13.2195V14.0976H79.1554V13.2195H80.0335ZM80.0335 14.9756V15.8537H79.1554V14.9756H80.0335ZM80.0335 15.8537V16.7317H79.1554V15.8537H80.0335ZM76.5213 17.6098V18.4878H75.6432V17.6098H76.5213ZM77.3993 17.6098V18.4878H76.5213V17.6098H77.3993ZM78.2774 17.6098V18.4878H77.3993V17.6098H78.2774ZM79.1554 16.7317V17.6098H78.2774V16.7317H79.1554ZM80.0335 16.7317V17.6098H79.1554V16.7317H80.0335ZM80.0335 17.6098V18.4878H79.1554V17.6098H80.0335ZM79.1554 17.6098V18.4878H78.2774V17.6098H79.1554ZM80.0335 18.4878V19.3659H79.1554V18.4878H80.0335ZM80.0335 19.3659V20.2439H79.1554V19.3659H80.0335ZM80.0335 20.2439V21.122H79.1554V20.2439H80.0335ZM80.0335 21.122V22H79.1554V21.122H80.0335ZM79.1554 21.122V22H78.2774V21.122H79.1554ZM79.1554 20.2439V21.122H78.2774V20.2439H79.1554ZM78.2774 20.2439V21.122H77.3993V20.2439H78.2774ZM77.3993 21.122V22H76.5213V21.122H77.3993ZM76.5213 21.122V22H75.6432V21.122H76.5213ZM78.2774 21.122V22H77.3993V21.122H78.2774ZM77.3993 20.2439V21.122H76.5213V20.2439H77.3993ZM76.5213 20.2439V21.122H75.6432V20.2439H76.5213ZM76.5213 19.3659V20.2439H75.6432V19.3659H76.5213ZM77.3993 19.3659V20.2439H76.5213V19.3659H77.3993ZM78.2774 19.3659V20.2439H77.3993V19.3659H78.2774ZM79.1554 19.3659V20.2439H78.2774V19.3659H79.1554ZM79.1554 18.4878V19.3659H78.2774V18.4878H79.1554ZM78.2774 18.4878V19.3659H77.3993V18.4878H78.2774ZM77.3993 18.4878V19.3659H76.5213V18.4878H77.3993ZM76.5213 18.4878V19.3659H75.6432V18.4878H76.5213ZM80.9115 0.926832V1.80488H80.0335V0.926832H80.9115ZM81.7896 0.926832V1.80488H80.9115V0.926832H81.7896ZM81.7896 1.80488V2.68293H80.9115V1.80488H81.7896ZM82.6676 1.80488V2.68293H81.7896V1.80488H82.6676ZM82.6676 2.68293V3.56098H81.7896V2.68293H82.6676ZM82.6676 3.56098V4.43903H81.7896V3.56098H82.6676ZM83.5457 3.56098V4.43903H82.6676V3.56098H83.5457ZM83.5457 4.43903V5.31708H82.6676V4.43903H83.5457ZM83.5457 5.31708V6.19512H82.6676V5.31708H83.5457ZM83.5457 6.19512V7.07317H82.6676V6.19512H83.5457ZM83.5457 7.07317V7.95122H82.6676V7.07317H83.5457ZM83.5457 7.95122V8.82927H82.6676V7.95122H83.5457ZM83.5457 8.82927V9.70732H82.6676V8.82927H83.5457ZM82.6676 9.70732V10.5854H81.7896V9.70732H82.6676ZM81.7896 10.5854V11.4634H80.9115V10.5854H81.7896ZM82.6676 11.4634V12.3415H81.7896V11.4634H82.6676ZM83.5457 12.3415V13.2195H82.6676V12.3415H83.5457ZM80.9115 20.2439V21.122H80.0335V20.2439H80.9115ZM81.7896 20.2439V21.122H80.9115V20.2439H81.7896ZM82.6676 19.3659V20.2439H81.7896V19.3659H82.6676ZM83.5457 17.6098V18.4878H82.6676V17.6098H83.5457ZM81.7896 19.3659V20.2439H80.9115V19.3659H81.7896ZM81.7896 18.4878V19.3659H80.9115V18.4878H81.7896ZM82.6676 18.4878V19.3659H81.7896V18.4878H82.6676ZM83.5457 16.7317V17.6098H82.6676V16.7317H83.5457ZM83.5457 15.8537V16.7317H82.6676V15.8537H83.5457ZM83.5457 14.9756V15.8537H82.6676V14.9756H83.5457ZM83.5457 14.0976V14.9756H82.6676V14.0976H83.5457ZM83.5457 13.2195V14.0976H82.6676V13.2195H83.5457ZM80.9115 11.4634V12.3415H80.0335V11.4634H80.9115ZM81.7896 11.4634V12.3415H80.9115V11.4634H81.7896ZM81.7896 12.3415V13.2195H80.9115V12.3415H81.7896ZM80.9115 12.3415V13.2195H80.0335V12.3415H80.9115ZM82.6676 12.3415V13.2195H81.7896V12.3415H82.6676ZM82.6676 13.2195V14.0976H81.7896V13.2195H82.6676ZM82.6676 14.0976V14.9756H81.7896V14.0976H82.6676ZM82.6676 14.9756V15.8537H81.7896V14.9756H82.6676ZM82.6676 15.8537V16.7317H81.7896V15.8537H82.6676ZM82.6676 16.7317V17.6098H81.7896V16.7317H82.6676ZM82.6676 17.6098V18.4878H81.7896V17.6098H82.6676ZM81.7896 17.6098V18.4878H80.9115V17.6098H81.7896ZM81.7896 16.7317V17.6098H80.9115V16.7317H81.7896ZM81.7896 15.8537V16.7317H80.9115V15.8537H81.7896ZM81.7896 14.9756V15.8537H80.9115V14.9756H81.7896ZM81.7896 14.0976V14.9756H80.9115V14.0976H81.7896ZM81.7896 13.2195V14.0976H80.9115V13.2195H81.7896ZM80.9115 13.2195V14.0976H80.0335V13.2195H80.9115ZM80.9115 14.0976V14.9756H80.0335V14.0976H80.9115ZM80.9115 14.9756V15.8537H80.0335V14.9756H80.9115ZM80.9115 15.8537V16.7317H80.0335V15.8537H80.9115ZM80.9115 16.7317V17.6098H80.0335V16.7317H80.9115ZM80.9115 17.6098V18.4878H80.0335V17.6098H80.9115ZM80.9115 18.4878V19.3659H80.0335V18.4878H80.9115ZM80.9115 19.3659V20.2439H80.0335V19.3659H80.9115ZM80.9115 1.80488V2.68293H80.0335V1.80488H80.9115ZM80.9115 2.68293V3.56098H80.0335V2.68293H80.9115ZM80.9115 3.56098V4.43903H80.0335V3.56098H80.9115ZM80.9115 4.43903V5.31708H80.0335V4.43903H80.9115ZM80.9115 5.31708V6.19512H80.0335V5.31708H80.9115ZM80.9115 6.19512V7.07317H80.0335V6.19512H80.9115ZM80.9115 7.07317V7.95122H80.0335V7.07317H80.9115ZM80.9115 7.95122V8.82927H80.0335V7.95122H80.9115ZM80.9115 8.82927V9.70732H80.0335V8.82927H80.9115ZM80.9115 9.70732V10.5854H80.0335V9.70732H80.9115ZM80.9115 10.5854V11.4634H80.0335V10.5854H80.9115ZM81.7896 9.70732V10.5854H80.9115V9.70732H81.7896ZM81.7896 8.82927V9.70732H80.9115V8.82927H81.7896ZM81.7896 7.95122V8.82927H80.9115V7.95122H81.7896ZM81.7896 7.07317V7.95122H80.9115V7.07317H81.7896ZM81.7896 6.19512V7.07317H80.9115V6.19512H81.7896ZM81.7896 5.31708V6.19512H80.9115V5.31708H81.7896ZM81.7896 4.43903V5.31708H80.9115V4.43903H81.7896ZM81.7896 3.56098V4.43903H80.9115V3.56098H81.7896ZM81.7896 2.68293V3.56098H80.9115V2.68293H81.7896ZM82.6676 4.43903V5.31708H81.7896V4.43903H82.6676ZM82.6676 5.31708V6.19512H81.7896V5.31708H82.6676ZM82.6676 6.19512V7.07317H81.7896V6.19512H82.6676ZM82.6676 7.07317V7.95122H81.7896V7.07317H82.6676ZM82.6676 7.95122V8.82927H81.7896V7.95122H82.6676ZM82.6676 8.82927V9.70732H81.7896V8.82927H82.6676Z" fill="#FAC551"/>
<path d="M97.0936 10.5854V11.4634H96.2155V10.5854H97.0936ZM97.9716 10.5854V11.4634H97.0936V10.5854H97.9716ZM98.8497 10.5854V11.4634H97.9716V10.5854H98.8497ZM99.7277 10.5854V11.4634H98.8497V10.5854H99.7277ZM100.606 10.5854V11.4634H99.7277V10.5854H100.606ZM100.606 9.70732V10.5854H99.7277V9.70732H100.606ZM100.606 8.82927V9.70732H99.7277V8.82927H100.606ZM99.7277 8.82927V9.70732H98.8497V8.82927H99.7277ZM98.8497 8.82927V9.70732H97.9716V8.82927H98.8497ZM97.9716 8.82927V9.70732H97.0936V8.82927H97.9716ZM97.9716 9.70732V10.5854H97.0936V9.70732H97.9716ZM97.0936 9.70732V10.5854H96.2155V9.70732H97.0936ZM98.8497 9.70732V10.5854H97.9716V9.70732H98.8497ZM99.7277 9.70732V10.5854H98.8497V9.70732H99.7277ZM97.0936 8.82927V9.70732H96.2155V8.82927H97.0936ZM96.2155 8.82927V9.70732H95.3375V8.82927H96.2155ZM96.2155 7.95122V8.82927H95.3375V7.95122H96.2155ZM97.0936 7.95122V8.82927H96.2155V7.95122H97.0936ZM97.9716 7.95122V8.82927H97.0936V7.95122H97.9716ZM98.8497 7.95122V8.82927H97.9716V7.95122H98.8497ZM99.7277 7.95122V8.82927H98.8497V7.95122H99.7277ZM99.7277 7.07317V7.95122H98.8497V7.07317H99.7277ZM98.8497 7.07317V7.95122H97.9716V7.07317H98.8497ZM97.9716 7.07317V7.95122H97.0936V7.07317H97.9716ZM97.0936 7.07317V7.95122H96.2155V7.07317H97.0936ZM96.2155 7.07317V7.95122H95.3375V7.07317H96.2155ZM97.9716 6.19512V7.07317H97.0936V6.19512H97.9716ZM98.8497 6.19512V7.07317H97.9716V6.19512H98.8497ZM97.0936 6.19512V7.07317H96.2155V6.19512H97.0936ZM97.0936 5.31708V6.19512H96.2155V5.31708H97.0936ZM96.2155 5.31708V6.19512H95.3375V5.31708H96.2155ZM96.2155 6.19512V7.07317H95.3375V6.19512H96.2155ZM95.3375 6.19512V7.07317H94.4594V6.19512H95.3375ZM95.3375 5.31708V6.19512H94.4594V5.31708H95.3375ZM95.3375 7.07317V7.95122H94.4594V7.07317H95.3375ZM94.4594 7.07317V7.95122H93.5814V7.07317H94.4594ZM94.4594 7.95122V8.82927H93.5814V7.95122H94.4594ZM95.3375 7.95122V8.82927H94.4594V7.95122H95.3375ZM93.5814 7.95122V8.82927H92.7033V7.95122H93.5814ZM93.5814 7.07317V7.95122H92.7033V7.07317H93.5814ZM93.5814 6.19512V7.07317H92.7033V6.19512H93.5814ZM93.5814 5.31708V6.19512H92.7033V5.31708H93.5814ZM94.4594 5.31708V6.19512H93.5814V5.31708H94.4594ZM94.4594 6.19512V7.07317H93.5814V6.19512H94.4594ZM92.7033 5.31708V6.19512H91.8253V5.31708H92.7033ZM91.8253 5.31708V6.19512H90.9472V5.31708H91.8253ZM90.9472 5.31708V6.19512H90.0692V5.31708H90.9472ZM90.9472 6.19512V7.07317H90.0692V6.19512H90.9472ZM90.9472 7.07317V7.95122H90.0692V7.07317H90.9472ZM90.9472 7.95122V8.82927H90.0692V7.95122H90.9472ZM91.8253 7.95122V8.82927H90.9472V7.95122H91.8253ZM92.7033 7.95122V8.82927H91.8253V7.95122H92.7033ZM92.7033 7.07317V7.95122H91.8253V7.07317H92.7033ZM92.7033 6.19512V7.07317H91.8253V6.19512H92.7033ZM91.8253 6.19512V7.07317H90.9472V6.19512H91.8253ZM91.8253 7.07317V7.95122H90.9472V7.07317H91.8253ZM90.0692 7.07317V7.95122H89.1911V7.07317H90.0692ZM90.0692 6.19512V7.07317H89.1911V6.19512H90.0692ZM89.1911 6.19512V7.07317H88.3131V6.19512H89.1911ZM89.1911 7.07317V7.95122H88.3131V7.07317H89.1911ZM88.3131 7.07317V7.95122H87.435V7.07317H88.3131ZM88.3131 7.95122V8.82927H87.435V7.95122H88.3131ZM88.3131 8.82927V9.70732H87.435V8.82927H88.3131ZM89.1911 8.82927V9.70732H88.3131V8.82927H89.1911ZM89.1911 7.95122V8.82927H88.3131V7.95122H89.1911ZM90.0692 7.95122V8.82927H89.1911V7.95122H90.0692ZM90.0692 8.82927V9.70732H89.1911V8.82927H90.0692ZM90.9472 8.82927V9.70732H90.0692V8.82927H90.9472ZM91.8253 8.82927V9.70732H90.9472V8.82927H91.8253ZM87.435 8.82927V9.70732H86.557V8.82927H87.435ZM87.435 9.70732V10.5854H86.557V9.70732H87.435ZM87.435 10.5854V11.4634H86.557V10.5854H87.435ZM87.435 11.4634V12.3415H86.557V11.4634H87.435ZM87.435 12.3415V13.2195H86.557V12.3415H87.435ZM87.435 13.2195V14.0976H86.557V13.2195H87.435ZM87.435 14.0976V14.9756H86.557V14.0976H87.435ZM87.435 14.9756V15.8537H86.557V14.9756H87.435ZM87.435 15.8537V16.7317H86.557V15.8537H87.435ZM87.435 16.7317V17.6098H86.557V16.7317H87.435ZM88.3131 16.7317V17.6098H87.435V16.7317H88.3131ZM88.3131 17.6098V18.4878H87.435V17.6098H88.3131ZM87.435 17.6098V18.4878H86.557V17.6098H87.435ZM89.1911 17.6098V18.4878H88.3131V17.6098H89.1911ZM90.0692 17.6098V18.4878H89.1911V17.6098H90.0692ZM90.9472 17.6098V18.4878H90.0692V17.6098H90.9472ZM91.8253 17.6098V18.4878H90.9472V17.6098H91.8253ZM90.9472 16.7317V17.6098H90.0692V16.7317H90.9472ZM90.9472 15.8537V16.7317H90.0692V15.8537H90.9472ZM90.9472 14.9756V15.8537H90.0692V14.9756H90.9472ZM90.9472 14.0976V14.9756H90.0692V14.0976H90.9472ZM90.9472 13.2195V14.0976H90.0692V13.2195H90.9472ZM90.9472 12.3415V13.2195H90.0692V12.3415H90.9472ZM90.9472 11.4634V12.3415H90.0692V11.4634H90.9472ZM90.9472 10.5854V11.4634H90.0692V10.5854H90.9472ZM90.9472 9.70732V10.5854H90.0692V9.70732H90.9472ZM90.0692 9.70732V10.5854H89.1911V9.70732H90.0692ZM89.1911 9.70732V10.5854H88.3131V9.70732H89.1911ZM88.3131 9.70732V10.5854H87.435V9.70732H88.3131ZM88.3131 10.5854V11.4634H87.435V10.5854H88.3131ZM88.3131 11.4634V12.3415H87.435V11.4634H88.3131ZM88.3131 12.3415V13.2195H87.435V12.3415H88.3131ZM88.3131 13.2195V14.0976H87.435V13.2195H88.3131ZM88.3131 14.0976V14.9756H87.435V14.0976H88.3131ZM88.3131 14.9756V15.8537H87.435V14.9756H88.3131ZM88.3131 15.8537V16.7317H87.435V15.8537H88.3131ZM89.1911 16.7317V17.6098H88.3131V16.7317H89.1911ZM90.0692 16.7317V17.6098H89.1911V16.7317H90.0692ZM90.0692 15.8537V16.7317H89.1911V15.8537H90.0692ZM90.0692 14.9756V15.8537H89.1911V14.9756H90.0692ZM90.0692 14.0976V14.9756H89.1911V14.0976H90.0692ZM90.0692 13.2195V14.0976H89.1911V13.2195H90.0692ZM89.1911 13.2195V14.0976H88.3131V13.2195H89.1911ZM89.1911 12.3415V13.2195H88.3131V12.3415H89.1911ZM89.1911 11.4634V12.3415H88.3131V11.4634H89.1911ZM89.1911 10.5854V11.4634H88.3131V10.5854H89.1911ZM90.0692 10.5854V11.4634H89.1911V10.5854H90.0692ZM90.0692 11.4634V12.3415H89.1911V11.4634H90.0692ZM90.0692 12.3415V13.2195H89.1911V12.3415H90.0692ZM89.1911 14.9756V15.8537H88.3131V14.9756H89.1911ZM89.1911 15.8537V16.7317H88.3131V15.8537H89.1911ZM89.1911 14.0976V14.9756H88.3131V14.0976H89.1911ZM97.0936 15.8537V16.7317H96.2155V15.8537H97.0936ZM97.0936 16.7317V17.6098H96.2155V16.7317H97.0936ZM97.9716 16.7317V17.6098H97.0936V16.7317H97.9716ZM98.8497 16.7317V17.6098H97.9716V16.7317H98.8497ZM99.7277 16.7317V17.6098H98.8497V16.7317H99.7277ZM100.606 16.7317V17.6098H99.7277V16.7317H100.606ZM100.606 15.8537V16.7317H99.7277V15.8537H100.606ZM99.7277 15.8537V16.7317H98.8497V15.8537H99.7277ZM98.8497 15.8537V16.7317H97.9716V15.8537H98.8497ZM97.9716 15.8537V16.7317H97.0936V15.8537H97.9716ZM100.606 17.6098V18.4878H99.7277V17.6098H100.606ZM99.7277 17.6098V18.4878H98.8497V17.6098H99.7277ZM98.8497 17.6098V18.4878H97.9716V17.6098H98.8497ZM97.9716 17.6098V18.4878H97.0936V17.6098H97.9716ZM97.0936 17.6098V18.4878H96.2155V17.6098H97.0936ZM96.2155 17.6098V18.4878H95.3375V17.6098H96.2155ZM96.2155 18.4878V19.3659H95.3375V18.4878H96.2155ZM97.0936 18.4878V19.3659H96.2155V18.4878H97.0936ZM97.9716 18.4878V19.3659H97.0936V18.4878H97.9716ZM98.8497 18.4878V19.3659H97.9716V18.4878H98.8497ZM98.8497 19.3659V20.2439H97.9716V19.3659H98.8497ZM99.7277 19.3659V20.2439H98.8497V19.3659H99.7277ZM99.7277 18.4878V19.3659H98.8497V18.4878H99.7277ZM98.8497 20.2439V21.122H97.9716V20.2439H98.8497ZM97.9716 20.2439V21.122H97.0936V20.2439H97.9716ZM97.9716 19.3659V20.2439H97.0936V19.3659H97.9716ZM97.0936 19.3659V20.2439H96.2155V19.3659H97.0936ZM97.0936 20.2439V21.122H96.2155V20.2439H97.0936ZM97.0936 21.122V22H96.2155V21.122H97.0936ZM96.2155 21.122V22H95.3375V21.122H96.2155ZM95.3375 21.122V22H94.4594V21.122H95.3375ZM94.4594 21.122V22H93.5814V21.122H94.4594ZM93.5814 21.122V22H92.7033V21.122H93.5814ZM92.7033 21.122V22H91.8253V21.122H92.7033ZM91.8253 21.122V22H90.9472V21.122H91.8253ZM90.9472 21.122V22H90.0692V21.122H90.9472ZM91.8253 20.2439V21.122H90.9472V20.2439H91.8253ZM92.7033 20.2439V21.122H91.8253V20.2439H92.7033ZM93.5814 20.2439V21.122H92.7033V20.2439H93.5814ZM94.4594 20.2439V21.122H93.5814V20.2439H94.4594ZM95.3375 20.2439V21.122H94.4594V20.2439H95.3375ZM96.2155 20.2439V21.122H95.3375V20.2439H96.2155ZM96.2155 19.3659V20.2439H95.3375V19.3659H96.2155ZM95.3375 19.3659V20.2439H94.4594V19.3659H95.3375ZM94.4594 19.3659V20.2439H93.5814V19.3659H94.4594ZM93.5814 19.3659V20.2439H92.7033V19.3659H93.5814ZM92.7033 19.3659V20.2439H91.8253V19.3659H92.7033ZM91.8253 19.3659V20.2439H90.9472V19.3659H91.8253ZM90.9472 20.2439V21.122H90.0692V20.2439H90.9472ZM90.0692 20.2439V21.122H89.1911V20.2439H90.0692ZM89.1911 20.2439V21.122H88.3131V20.2439H89.1911ZM89.1911 19.3659V20.2439H88.3131V19.3659H89.1911ZM88.3131 19.3659V20.2439H87.435V19.3659H88.3131ZM88.3131 18.4878V19.3659H87.435V18.4878H88.3131ZM89.1911 18.4878V19.3659H88.3131V18.4878H89.1911ZM90.0692 18.4878V19.3659H89.1911V18.4878H90.0692ZM90.9472 18.4878V19.3659H90.0692V18.4878H90.9472ZM91.8253 18.4878V19.3659H90.9472V18.4878H91.8253ZM92.7033 18.4878V19.3659H91.8253V18.4878H92.7033ZM93.5814 18.4878V19.3659H92.7033V18.4878H93.5814ZM94.4594 18.4878V19.3659H93.5814V18.4878H94.4594ZM95.3375 18.4878V19.3659H94.4594V18.4878H95.3375ZM90.9472 19.3659V20.2439H90.0692V19.3659H90.9472ZM90.0692 19.3659V20.2439H89.1911V19.3659H90.0692ZM97.0936 11.4634V12.3415H96.2155V11.4634H97.0936ZM97.0936 12.3415V13.2195H96.2155V12.3415H97.0936ZM97.9716 12.3415V13.2195H97.0936V12.3415H97.9716ZM98.8497 12.3415V13.2195H97.9716V12.3415H98.8497ZM99.7277 12.3415V13.2195H98.8497V12.3415H99.7277ZM100.606 12.3415V13.2195H99.7277V12.3415H100.606ZM100.606 11.4634V12.3415H99.7277V11.4634H100.606ZM99.7277 11.4634V12.3415H98.8497V11.4634H99.7277ZM98.8497 11.4634V12.3415H97.9716V11.4634H98.8497ZM97.9716 11.4634V12.3415H97.0936V11.4634H97.9716ZM97.9716 13.2195V14.0976H97.0936V13.2195H97.9716ZM98.8497 13.2195V14.0976H97.9716V13.2195H98.8497ZM98.8497 14.0976V14.9756H97.9716V14.0976H98.8497ZM99.7277 14.0976V14.9756H98.8497V14.0976H99.7277ZM99.7277 13.2195V14.0976H98.8497V13.2195H99.7277ZM100.606 13.2195V14.0976H99.7277V13.2195H100.606ZM100.606 14.0976V14.9756H99.7277V14.0976H100.606ZM100.606 14.9756V15.8537H99.7277V14.9756H100.606ZM99.7277 14.9756V15.8537H98.8497V14.9756H99.7277ZM98.8497 14.9756V15.8537H97.9716V14.9756H98.8497ZM97.9716 14.9756V15.8537H97.0936V14.9756H97.9716ZM97.9716 14.0976V14.9756H97.0936V14.0976H97.9716ZM97.0936 14.0976V14.9756H96.2155V14.0976H97.0936ZM97.0936 13.2195V14.0976H96.2155V13.2195H97.0936ZM97.0936 14.9756V15.8537H96.2155V14.9756H97.0936Z" fill="#FAC551"/>
<path d="M113.274 10.5854V11.4634H112.396V10.5854H113.274ZM114.152 10.5854V11.4634H113.274V10.5854H114.152ZM115.03 10.5854V11.4634H114.152V10.5854H115.03ZM115.908 10.5854V11.4634H115.03V10.5854H115.908ZM116.786 10.5854V11.4634H115.908V10.5854H116.786ZM116.786 9.70732V10.5854H115.908V9.70732H116.786ZM116.786 8.82927V9.70732H115.908V8.82927H116.786ZM115.908 8.82927V9.70732H115.03V8.82927H115.908ZM115.03 8.82927V9.70732H114.152V8.82927H115.03ZM114.152 8.82927V9.70732H113.274V8.82927H114.152ZM114.152 9.70732V10.5854H113.274V9.70732H114.152ZM113.274 9.70732V10.5854H112.396V9.70732H113.274ZM115.03 9.70732V10.5854H114.152V9.70732H115.03ZM115.908 9.70732V10.5854H115.03V9.70732H115.908ZM113.274 8.82927V9.70732H112.396V8.82927H113.274ZM112.396 8.82927V9.70732H111.518V8.82927H112.396ZM112.396 7.95122V8.82927H111.518V7.95122H112.396ZM113.274 7.95122V8.82927H112.396V7.95122H113.274ZM114.152 7.95122V8.82927H113.274V7.95122H114.152ZM115.03 7.95122V8.82927H114.152V7.95122H115.03ZM115.908 7.95122V8.82927H115.03V7.95122H115.908ZM115.908 7.07317V7.95122H115.03V7.07317H115.908ZM115.03 7.07317V7.95122H114.152V7.07317H115.03ZM114.152 7.07317V7.95122H113.274V7.07317H114.152ZM113.274 7.07317V7.95122H112.396V7.07317H113.274ZM112.396 7.07317V7.95122H111.518V7.07317H112.396ZM114.152 6.19512V7.07317H113.274V6.19512H114.152ZM115.03 6.19512V7.07317H114.152V6.19512H115.03ZM113.274 6.19512V7.07317H112.396V6.19512H113.274ZM113.274 5.31708V6.19512H112.396V5.31708H113.274ZM112.396 5.31708V6.19512H111.518V5.31708H112.396ZM112.396 6.19512V7.07317H111.518V6.19512H112.396ZM111.518 6.19512V7.07317H110.64V6.19512H111.518ZM111.518 5.31708V6.19512H110.64V5.31708H111.518ZM111.518 7.07317V7.95122H110.64V7.07317H111.518ZM110.64 7.07317V7.95122H109.762V7.07317H110.64ZM110.64 7.95122V8.82927H109.762V7.95122H110.64ZM111.518 7.95122V8.82927H110.64V7.95122H111.518ZM109.762 7.95122V8.82927H108.884V7.95122H109.762ZM109.762 7.07317V7.95122H108.884V7.07317H109.762ZM109.762 6.19512V7.07317H108.884V6.19512H109.762ZM109.762 5.31708V6.19512H108.884V5.31708H109.762ZM110.64 5.31708V6.19512H109.762V5.31708H110.64ZM110.64 6.19512V7.07317H109.762V6.19512H110.64ZM108.884 5.31708V6.19512H108.006V5.31708H108.884ZM108.006 5.31708V6.19512H107.128V5.31708H108.006ZM107.128 5.31708V6.19512H106.249V5.31708H107.128ZM107.128 6.19512V7.07317H106.249V6.19512H107.128ZM107.128 7.07317V7.95122H106.249V7.07317H107.128ZM107.128 7.95122V8.82927H106.249V7.95122H107.128ZM108.006 7.95122V8.82927H107.128V7.95122H108.006ZM108.884 7.95122V8.82927H108.006V7.95122H108.884ZM108.884 7.07317V7.95122H108.006V7.07317H108.884ZM108.884 6.19512V7.07317H108.006V6.19512H108.884ZM108.006 6.19512V7.07317H107.128V6.19512H108.006ZM108.006 7.07317V7.95122H107.128V7.07317H108.006ZM106.249 7.07317V7.95122H105.371V7.07317H106.249ZM106.249 6.19512V7.07317H105.371V6.19512H106.249ZM105.371 6.19512V7.07317H104.493V6.19512H105.371ZM105.371 7.07317V7.95122H104.493V7.07317H105.371ZM104.493 7.07317V7.95122H103.615V7.07317H104.493ZM104.493 7.95122V8.82927H103.615V7.95122H104.493ZM104.493 8.82927V9.70732H103.615V8.82927H104.493ZM105.371 8.82927V9.70732H104.493V8.82927H105.371ZM105.371 7.95122V8.82927H104.493V7.95122H105.371ZM106.249 7.95122V8.82927H105.371V7.95122H106.249ZM106.249 8.82927V9.70732H105.371V8.82927H106.249ZM107.128 8.82927V9.70732H106.249V8.82927H107.128ZM108.006 8.82927V9.70732H107.128V8.82927H108.006ZM103.615 8.82927V9.70732H102.737V8.82927H103.615ZM103.615 9.70732V10.5854H102.737V9.70732H103.615ZM103.615 10.5854V11.4634H102.737V10.5854H103.615ZM103.615 11.4634V12.3415H102.737V11.4634H103.615ZM103.615 12.3415V13.2195H102.737V12.3415H103.615ZM103.615 13.2195V14.0976H102.737V13.2195H103.615ZM103.615 14.0976V14.9756H102.737V14.0976H103.615ZM103.615 14.9756V15.8537H102.737V14.9756H103.615ZM103.615 15.8537V16.7317H102.737V15.8537H103.615ZM103.615 16.7317V17.6098H102.737V16.7317H103.615ZM104.493 16.7317V17.6098H103.615V16.7317H104.493ZM104.493 17.6098V18.4878H103.615V17.6098H104.493ZM103.615 17.6098V18.4878H102.737V17.6098H103.615ZM105.371 17.6098V18.4878H104.493V17.6098H105.371ZM106.249 17.6098V18.4878H105.371V17.6098H106.249ZM107.128 17.6098V18.4878H106.249V17.6098H107.128ZM108.006 17.6098V18.4878H107.128V17.6098H108.006ZM107.128 16.7317V17.6098H106.249V16.7317H107.128ZM107.128 15.8537V16.7317H106.249V15.8537H107.128ZM107.128 14.9756V15.8537H106.249V14.9756H107.128ZM107.128 14.0976V14.9756H106.249V14.0976H107.128ZM107.128 13.2195V14.0976H106.249V13.2195H107.128ZM107.128 12.3415V13.2195H106.249V12.3415H107.128ZM107.128 11.4634V12.3415H106.249V11.4634H107.128ZM107.128 10.5854V11.4634H106.249V10.5854H107.128ZM107.128 9.70732V10.5854H106.249V9.70732H107.128ZM106.249 9.70732V10.5854H105.371V9.70732H106.249ZM105.371 9.70732V10.5854H104.493V9.70732H105.371ZM104.493 9.70732V10.5854H103.615V9.70732H104.493ZM104.493 10.5854V11.4634H103.615V10.5854H104.493ZM104.493 11.4634V12.3415H103.615V11.4634H104.493ZM104.493 12.3415V13.2195H103.615V12.3415H104.493ZM104.493 13.2195V14.0976H103.615V13.2195H104.493ZM104.493 14.0976V14.9756H103.615V14.0976H104.493ZM104.493 14.9756V15.8537H103.615V14.9756H104.493ZM104.493 15.8537V16.7317H103.615V15.8537H104.493ZM105.371 16.7317V17.6098H104.493V16.7317H105.371ZM106.249 16.7317V17.6098H105.371V16.7317H106.249ZM106.249 15.8537V16.7317H105.371V15.8537H106.249ZM106.249 14.9756V15.8537H105.371V14.9756H106.249ZM106.249 14.0976V14.9756H105.371V14.0976H106.249ZM106.249 13.2195V14.0976H105.371V13.2195H106.249ZM105.371 13.2195V14.0976H104.493V13.2195H105.371ZM105.371 12.3415V13.2195H104.493V12.3415H105.371ZM105.371 11.4634V12.3415H104.493V11.4634H105.371ZM105.371 10.5854V11.4634H104.493V10.5854H105.371ZM106.249 10.5854V11.4634H105.371V10.5854H106.249ZM106.249 11.4634V12.3415H105.371V11.4634H106.249ZM106.249 12.3415V13.2195H105.371V12.3415H106.249ZM105.371 14.9756V15.8537H104.493V14.9756H105.371ZM105.371 15.8537V16.7317H104.493V15.8537H105.371ZM105.371 14.0976V14.9756H104.493V14.0976H105.371ZM113.274 15.8537V16.7317H112.396V15.8537H113.274ZM113.274 16.7317V17.6098H112.396V16.7317H113.274ZM114.152 16.7317V17.6098H113.274V16.7317H114.152ZM115.03 16.7317V17.6098H114.152V16.7317H115.03ZM115.908 16.7317V17.6098H115.03V16.7317H115.908ZM116.786 16.7317V17.6098H115.908V16.7317H116.786ZM116.786 15.8537V16.7317H115.908V15.8537H116.786ZM115.908 15.8537V16.7317H115.03V15.8537H115.908ZM115.03 15.8537V16.7317H114.152V15.8537H115.03ZM114.152 15.8537V16.7317H113.274V15.8537H114.152ZM116.786 17.6098V18.4878H115.908V17.6098H116.786ZM115.908 17.6098V18.4878H115.03V17.6098H115.908ZM115.03 17.6098V18.4878H114.152V17.6098H115.03ZM114.152 17.6098V18.4878H113.274V17.6098H114.152ZM113.274 17.6098V18.4878H112.396V17.6098H113.274ZM112.396 17.6098V18.4878H111.518V17.6098H112.396ZM112.396 18.4878V19.3659H111.518V18.4878H112.396ZM113.274 18.4878V19.3659H112.396V18.4878H113.274ZM114.152 18.4878V19.3659H113.274V18.4878H114.152ZM115.03 18.4878V19.3659H114.152V18.4878H115.03ZM115.03 19.3659V20.2439H114.152V19.3659H115.03ZM115.908 19.3659V20.2439H115.03V19.3659H115.908ZM115.908 18.4878V19.3659H115.03V18.4878H115.908ZM115.03 20.2439V21.122H114.152V20.2439H115.03ZM114.152 20.2439V21.122H113.274V20.2439H114.152ZM114.152 19.3659V20.2439H113.274V19.3659H114.152ZM113.274 19.3659V20.2439H112.396V19.3659H113.274ZM113.274 20.2439V21.122H112.396V20.2439H113.274ZM113.274 21.122V22H112.396V21.122H113.274ZM112.396 21.122V22H111.518V21.122H112.396ZM111.518 21.122V22H110.64V21.122H111.518ZM110.64 21.122V22H109.762V21.122H110.64ZM109.762 21.122V22H108.884V21.122H109.762ZM108.884 21.122V22H108.006V21.122H108.884ZM108.006 21.122V22H107.128V21.122H108.006ZM107.128 21.122V22H106.249V21.122H107.128ZM108.006 20.2439V21.122H107.128V20.2439H108.006ZM108.884 20.2439V21.122H108.006V20.2439H108.884ZM109.762 20.2439V21.122H108.884V20.2439H109.762ZM110.64 20.2439V21.122H109.762V20.2439H110.64ZM111.518 20.2439V21.122H110.64V20.2439H111.518ZM112.396 20.2439V21.122H111.518V20.2439H112.396ZM112.396 19.3659V20.2439H111.518V19.3659H112.396ZM111.518 19.3659V20.2439H110.64V19.3659H111.518ZM110.64 19.3659V20.2439H109.762V19.3659H110.64ZM109.762 19.3659V20.2439H108.884V19.3659H109.762ZM108.884 19.3659V20.2439H108.006V19.3659H108.884ZM108.006 19.3659V20.2439H107.128V19.3659H108.006ZM107.128 20.2439V21.122H106.249V20.2439H107.128ZM106.249 20.2439V21.122H105.371V20.2439H106.249ZM105.371 20.2439V21.122H104.493V20.2439H105.371ZM105.371 19.3659V20.2439H104.493V19.3659H105.371ZM104.493 19.3659V20.2439H103.615V19.3659H104.493ZM104.493 18.4878V19.3659H103.615V18.4878H104.493ZM105.371 18.4878V19.3659H104.493V18.4878H105.371ZM106.249 18.4878V19.3659H105.371V18.4878H106.249ZM107.128 18.4878V19.3659H106.249V18.4878H107.128ZM108.006 18.4878V19.3659H107.128V18.4878H108.006ZM108.884 18.4878V19.3659H108.006V18.4878H108.884ZM109.762 18.4878V19.3659H108.884V18.4878H109.762ZM110.64 18.4878V19.3659H109.762V18.4878H110.64ZM111.518 18.4878V19.3659H110.64V18.4878H111.518ZM107.128 19.3659V20.2439H106.249V19.3659H107.128ZM106.249 19.3659V20.2439H105.371V19.3659H106.249ZM113.274 11.4634V12.3415H112.396V11.4634H113.274ZM113.274 12.3415V13.2195H112.396V12.3415H113.274ZM114.152 12.3415V13.2195H113.274V12.3415H114.152ZM115.03 12.3415V13.2195H114.152V12.3415H115.03ZM115.908 12.3415V13.2195H115.03V12.3415H115.908ZM116.786 12.3415V13.2195H115.908V12.3415H116.786ZM116.786 11.4634V12.3415H115.908V11.4634H116.786ZM115.908 11.4634V12.3415H115.03V11.4634H115.908ZM115.03 11.4634V12.3415H114.152V11.4634H115.03ZM114.152 11.4634V12.3415H113.274V11.4634H114.152ZM114.152 13.2195V14.0976H113.274V13.2195H114.152ZM115.03 13.2195V14.0976H114.152V13.2195H115.03ZM115.03 14.0976V14.9756H114.152V14.0976H115.03ZM115.908 14.0976V14.9756H115.03V14.0976H115.908ZM115.908 13.2195V14.0976H115.03V13.2195H115.908ZM116.786 13.2195V14.0976H115.908V13.2195H116.786ZM116.786 14.0976V14.9756H115.908V14.0976H116.786ZM116.786 14.9756V15.8537H115.908V14.9756H116.786ZM115.908 14.9756V15.8537H115.03V14.9756H115.908ZM115.03 14.9756V15.8537H114.152V14.9756H115.03ZM114.152 14.9756V15.8537H113.274V14.9756H114.152ZM114.152 14.0976V14.9756H113.274V14.0976H114.152ZM113.274 14.0976V14.9756H112.396V14.0976H113.274ZM113.274 13.2195V14.0976H112.396V13.2195H113.274ZM113.274 14.9756V15.8537H112.396V14.9756H113.274Z" fill="#FAC551"/>
<path d="M120.674 21.122V22H119.796V21.122H120.674ZM120.674 20.2439V21.122H119.796V20.2439H120.674ZM120.674 19.3659V20.2439H119.796V19.3659H120.674ZM120.674 18.4878V19.3659H119.796V18.4878H120.674ZM120.674 17.6098V18.4878H119.796V17.6098H120.674ZM120.674 16.7317V17.6098H119.796V16.7317H120.674ZM120.674 15.8537V16.7317H119.796V15.8537H120.674ZM120.674 14.9756V15.8537H119.796V14.9756H120.674ZM120.674 14.0976V14.9756H119.796V14.0976H120.674ZM120.674 13.2195V14.0976H119.796V13.2195H120.674ZM120.674 12.3415V13.2195H119.796V12.3415H120.674ZM120.674 11.4634V12.3415H119.796V11.4634H120.674ZM120.674 10.5854V11.4634H119.796V10.5854H120.674ZM120.674 9.70732V10.5854H119.796V9.70732H120.674ZM120.674 8.82927V9.70732H119.796V8.82927H120.674ZM121.552 8.82927V9.70732H120.674V8.82927H121.552ZM121.552 9.70732V10.5854H120.674V9.70732H121.552ZM121.552 10.5854V11.4634H120.674V10.5854H121.552ZM121.552 11.4634V12.3415H120.674V11.4634H121.552ZM121.552 12.3415V13.2195H120.674V12.3415H121.552ZM121.552 13.2195V14.0976H120.674V13.2195H121.552ZM121.552 14.0976V14.9756H120.674V14.0976H121.552ZM122.43 14.9756V15.8537H121.552V14.9756H122.43ZM122.43 15.8537V16.7317H121.552V15.8537H122.43ZM122.43 16.7317V17.6098H121.552V16.7317H122.43ZM122.43 17.6098V18.4878H121.552V17.6098H122.43ZM122.43 18.4878V19.3659H121.552V18.4878H122.43ZM122.43 19.3659V20.2439H121.552V19.3659H122.43ZM122.43 20.2439V21.122H121.552V20.2439H122.43ZM122.43 21.122V22H121.552V21.122H122.43ZM123.308 21.122V22H122.43V21.122H123.308ZM124.186 21.122V22H123.308V21.122H124.186ZM124.186 20.2439V21.122H123.308V20.2439H124.186ZM124.186 19.3659V20.2439H123.308V19.3659H124.186ZM124.186 18.4878V19.3659H123.308V18.4878H124.186ZM124.186 17.6098V18.4878H123.308V17.6098H124.186ZM124.186 16.7317V17.6098H123.308V16.7317H124.186ZM124.186 15.8537V16.7317H123.308V15.8537H124.186ZM124.186 14.9756V15.8537H123.308V14.9756H124.186ZM123.308 14.9756V15.8537H122.43V14.9756H123.308ZM123.308 14.0976V14.9756H122.43V14.0976H123.308ZM123.308 15.8537V16.7317H122.43V15.8537H123.308ZM123.308 16.7317V17.6098H122.43V16.7317H123.308ZM123.308 17.6098V18.4878H122.43V17.6098H123.308ZM123.308 18.4878V19.3659H122.43V18.4878H123.308ZM123.308 19.3659V20.2439H122.43V19.3659H123.308ZM123.308 20.2439V21.122H122.43V20.2439H123.308ZM121.552 21.122V22H120.674V21.122H121.552ZM121.552 20.2439V21.122H120.674V20.2439H121.552ZM121.552 19.3659V20.2439H120.674V19.3659H121.552ZM121.552 18.4878V19.3659H120.674V18.4878H121.552ZM121.552 17.6098V18.4878H120.674V17.6098H121.552ZM121.552 16.7317V17.6098H120.674V16.7317H121.552ZM121.552 15.8537V16.7317H120.674V15.8537H121.552ZM121.552 14.9756V15.8537H120.674V14.9756H121.552ZM120.674 5.31708V6.19512H119.796V5.31708H120.674ZM120.674 6.19512V7.07317H119.796V6.19512H120.674ZM120.674 7.07317V7.95122H119.796V7.07317H120.674ZM120.674 7.95122V8.82927H119.796V7.95122H120.674ZM123.308 6.19512V7.07317H122.43V6.19512H123.308ZM123.308 7.07317V7.95122H122.43V7.07317H123.308ZM123.308 7.95122V8.82927H122.43V7.95122H123.308ZM123.308 8.82927V9.70732H122.43V8.82927H123.308ZM123.308 9.70732V10.5854H122.43V9.70732H123.308ZM123.308 10.5854V11.4634H122.43V10.5854H123.308ZM123.308 11.4634V12.3415H122.43V11.4634H123.308ZM124.186 12.3415V13.2195H123.308V12.3415H124.186ZM124.186 13.2195V14.0976H123.308V13.2195H124.186ZM124.186 14.0976V14.9756H123.308V14.0976H124.186ZM124.186 11.4634V12.3415H123.308V11.4634H124.186ZM124.186 10.5854V11.4634H123.308V10.5854H124.186ZM124.186 9.70732V10.5854H123.308V9.70732H124.186ZM124.186 8.82927V9.70732H123.308V8.82927H124.186ZM124.186 7.95122V8.82927H123.308V7.95122H124.186ZM124.186 7.07317V7.95122H123.308V7.07317H124.186ZM124.186 6.19512V7.07317H123.308V6.19512H124.186ZM124.186 5.31708V6.19512H123.308V5.31708H124.186ZM123.308 5.31708V6.19512H122.43V5.31708H123.308ZM122.43 5.31708V6.19512H121.552V5.31708H122.43ZM122.43 6.19512V7.07317H121.552V6.19512H122.43ZM121.552 7.07317V7.95122H120.674V7.07317H121.552ZM121.552 7.95122V8.82927H120.674V7.95122H121.552ZM121.552 6.19512V7.07317H120.674V6.19512H121.552ZM121.552 5.31708V6.19512H120.674V5.31708H121.552ZM122.43 7.07317V7.95122H121.552V7.07317H122.43ZM122.43 7.95122V8.82927H121.552V7.95122H122.43ZM122.43 8.82927V9.70732H121.552V8.82927H122.43ZM122.43 9.70732V10.5854H121.552V9.70732H122.43ZM122.43 10.5854V11.4634H121.552V10.5854H122.43ZM122.43 11.4634V12.3415H121.552V11.4634H122.43ZM122.43 12.3415V13.2195H121.552V12.3415H122.43ZM122.43 13.2195V14.0976H121.552V13.2195H122.43ZM122.43 14.0976V14.9756H121.552V14.0976H122.43ZM123.308 13.2195V14.0976H122.43V13.2195H123.308ZM123.308 12.3415V13.2195H122.43V12.3415H123.308ZM128.576 21.122V22H127.698V21.122H128.576ZM129.454 21.122V22H128.576V21.122H129.454ZM130.332 21.122V22H129.454V21.122H130.332ZM131.21 21.122V22H130.332V21.122H131.21ZM132.088 20.2439V21.122H131.21V20.2439H132.088ZM132.088 19.3659V20.2439H131.21V19.3659H132.088ZM132.088 21.122V22H131.21V21.122H132.088ZM131.21 20.2439V21.122H130.332V20.2439H131.21ZM130.332 20.2439V21.122H129.454V20.2439H130.332ZM129.454 20.2439V21.122H128.576V20.2439H129.454ZM128.576 20.2439V21.122H127.698V20.2439H128.576ZM128.576 19.3659V20.2439H127.698V19.3659H128.576ZM128.576 18.4878V19.3659H127.698V18.4878H128.576ZM129.454 18.4878V19.3659H128.576V18.4878H129.454ZM130.332 18.4878V19.3659H129.454V18.4878H130.332ZM131.21 18.4878V19.3659H130.332V18.4878H131.21ZM132.088 18.4878V19.3659H131.21V18.4878H132.088ZM131.21 19.3659V20.2439H130.332V19.3659H131.21ZM130.332 19.3659V20.2439H129.454V19.3659H130.332ZM129.454 19.3659V20.2439H128.576V19.3659H129.454ZM131.21 8.82927V9.70732H130.332V8.82927H131.21ZM129.454 8.82927V9.70732H128.576V8.82927H129.454ZM129.454 9.70732V10.5854H128.576V9.70732H129.454ZM129.454 10.5854V11.4634H128.576V10.5854H129.454ZM128.576 11.4634V12.3415H127.698V11.4634H128.576ZM128.576 12.3415V13.2195H127.698V12.3415H128.576ZM128.576 13.2195V14.0976H127.698V13.2195H128.576ZM128.576 14.0976V14.9756H127.698V14.0976H128.576ZM128.576 14.9756V15.8537H127.698V14.9756H128.576ZM128.576 15.8537V16.7317H127.698V15.8537H128.576ZM128.576 16.7317V17.6098H127.698V16.7317H128.576ZM128.576 17.6098V18.4878H127.698V17.6098H128.576ZM129.454 17.6098V18.4878H128.576V17.6098H129.454ZM130.332 17.6098V18.4878H129.454V17.6098H130.332ZM131.21 17.6098V18.4878H130.332V17.6098H131.21ZM132.088 17.6098V18.4878H131.21V17.6098H132.088ZM132.088 16.7317V17.6098H131.21V16.7317H132.088ZM132.088 14.9756V15.8537H131.21V14.9756H132.088ZM132.088 14.0976V14.9756H131.21V14.0976H132.088ZM132.088 13.2195V14.0976H131.21V13.2195H132.088ZM132.088 12.3415V13.2195H131.21V12.3415H132.088ZM132.088 11.4634V12.3415H131.21V11.4634H132.088ZM132.088 10.5854V11.4634H131.21V10.5854H132.088ZM131.21 13.2195V14.0976H130.332V13.2195H131.21ZM131.21 14.9756V15.8537H130.332V14.9756H131.21ZM131.21 15.8537V16.7317H130.332V15.8537H131.21ZM131.21 16.7317V17.6098H130.332V16.7317H131.21ZM132.088 15.8537V16.7317H131.21V15.8537H132.088ZM131.21 11.4634V12.3415H130.332V11.4634H131.21ZM130.332 11.4634V12.3415H129.454V11.4634H130.332ZM129.454 11.4634V12.3415H128.576V11.4634H129.454ZM129.454 12.3415V13.2195H128.576V12.3415H129.454ZM129.454 13.2195V14.0976H128.576V13.2195H129.454ZM129.454 14.0976V14.9756H128.576V14.0976H129.454ZM129.454 14.9756V15.8537H128.576V14.9756H129.454ZM129.454 15.8537V16.7317H128.576V15.8537H129.454ZM129.454 16.7317V17.6098H128.576V16.7317H129.454ZM130.332 16.7317V17.6098H129.454V16.7317H130.332ZM130.332 15.8537V16.7317H129.454V15.8537H130.332ZM130.332 14.9756V15.8537H129.454V14.9756H130.332ZM130.332 14.0976V14.9756H129.454V14.0976H130.332ZM130.332 13.2195V14.0976H129.454V13.2195H130.332ZM130.332 12.3415V13.2195H129.454V12.3415H130.332ZM131.21 12.3415V13.2195H130.332V12.3415H131.21ZM131.21 14.0976V14.9756H130.332V14.0976H131.21ZM131.21 10.5854V11.4634H130.332V10.5854H131.21ZM131.21 9.70732V10.5854H130.332V9.70732H131.21ZM130.332 9.70732V10.5854H129.454V9.70732H130.332ZM130.332 10.5854V11.4634H129.454V10.5854H130.332ZM128.576 10.5854V11.4634H127.698V10.5854H128.576ZM128.576 9.70732V10.5854H127.698V9.70732H128.576ZM128.576 8.82927V9.70732H127.698V8.82927H128.576ZM130.332 8.82927V9.70732H129.454V8.82927H130.332ZM128.576 5.31708V6.19512H127.698V5.31708H128.576ZM128.576 6.19512V7.07317H127.698V6.19512H128.576ZM129.454 6.19512V7.07317H128.576V6.19512H129.454ZM130.332 6.19512V7.07317H129.454V6.19512H130.332ZM130.332 7.07317V7.95122H129.454V7.07317H130.332ZM131.21 7.07317V7.95122H130.332V7.07317H131.21ZM131.21 7.95122V8.82927H130.332V7.95122H131.21ZM130.332 7.95122V8.82927H129.454V7.95122H130.332ZM129.454 7.95122V8.82927H128.576V7.95122H129.454ZM129.454 7.07317V7.95122H128.576V7.07317H129.454ZM128.576 7.07317V7.95122H127.698V7.07317H128.576ZM127.698 7.07317V7.95122H126.82V7.07317H127.698ZM127.698 7.95122V8.82927H126.82V7.95122H127.698ZM128.576 7.95122V8.82927H127.698V7.95122H128.576ZM127.698 8.82927V9.70732H126.82V8.82927H127.698ZM127.698 5.31708V6.19512H126.82V5.31708H127.698ZM127.698 6.19512V7.07317H126.82V6.19512H127.698ZM126.82 5.31708V6.19512H125.942V5.31708H126.82ZM126.82 6.19512V7.07317H125.942V6.19512H126.82ZM126.82 7.07317V7.95122H125.942V7.07317H126.82ZM125.942 6.19512V7.07317H125.064V6.19512H125.942ZM125.064 7.07317V7.95122H124.186V7.07317H125.064ZM125.064 7.95122V8.82927H124.186V7.95122H125.064ZM125.942 7.95122V8.82927H125.064V7.95122H125.942ZM125.942 7.07317V7.95122H125.064V7.07317H125.942ZM125.064 8.82927V9.70732H124.186V8.82927H125.064ZM136.479 21.122V22H135.601V21.122H136.479ZM137.357 21.122V22H136.479V21.122H137.357ZM138.235 21.122V22H137.357V21.122H138.235ZM139.113 21.122V22H138.235V21.122H139.113ZM139.991 20.2439V21.122H139.113V20.2439H139.991ZM139.991 19.3659V20.2439H139.113V19.3659H139.991ZM139.991 21.122V22H139.113V21.122H139.991ZM139.113 20.2439V21.122H138.235V20.2439H139.113ZM138.235 20.2439V21.122H137.357V20.2439H138.235ZM137.357 20.2439V21.122H136.479V20.2439H137.357ZM136.479 20.2439V21.122H135.601V20.2439H136.479ZM136.479 19.3659V20.2439H135.601V19.3659H136.479ZM136.479 18.4878V19.3659H135.601V18.4878H136.479ZM137.357 18.4878V19.3659H136.479V18.4878H137.357ZM138.235 18.4878V19.3659H137.357V18.4878H138.235ZM139.113 18.4878V19.3659H138.235V18.4878H139.113ZM139.991 18.4878V19.3659H139.113V18.4878H139.991ZM139.113 19.3659V20.2439H138.235V19.3659H139.113ZM138.235 19.3659V20.2439H137.357V19.3659H138.235ZM137.357 19.3659V20.2439H136.479V19.3659H137.357ZM139.991 8.82927V9.70732H139.113V8.82927H139.991ZM139.113 8.82927V9.70732H138.235V8.82927H139.113ZM137.357 8.82927V9.70732H136.479V8.82927H137.357ZM137.357 9.70732V10.5854H136.479V9.70732H137.357ZM137.357 10.5854V11.4634H136.479V10.5854H137.357ZM136.479 11.4634V12.3415H135.601V11.4634H136.479ZM136.479 12.3415V13.2195H135.601V12.3415H136.479ZM136.479 13.2195V14.0976H135.601V13.2195H136.479ZM136.479 14.0976V14.9756H135.601V14.0976H136.479ZM136.479 14.9756V15.8537H135.601V14.9756H136.479ZM136.479 15.8537V16.7317H135.601V15.8537H136.479ZM136.479 16.7317V17.6098H135.601V16.7317H136.479ZM136.479 17.6098V18.4878H135.601V17.6098H136.479ZM137.357 17.6098V18.4878H136.479V17.6098H137.357ZM138.235 17.6098V18.4878H137.357V17.6098H138.235ZM139.113 17.6098V18.4878H138.235V17.6098H139.113ZM139.991 17.6098V18.4878H139.113V17.6098H139.991ZM139.991 16.7317V17.6098H139.113V16.7317H139.991ZM139.991 14.9756V15.8537H139.113V14.9756H139.991ZM139.991 14.0976V14.9756H139.113V14.0976H139.991ZM139.991 13.2195V14.0976H139.113V13.2195H139.991ZM139.991 12.3415V13.2195H139.113V12.3415H139.991ZM139.991 11.4634V12.3415H139.113V11.4634H139.991ZM139.991 10.5854V11.4634H139.113V10.5854H139.991ZM139.991 9.70732V10.5854H139.113V9.70732H139.991ZM139.113 13.2195V14.0976H138.235V13.2195H139.113ZM139.113 14.9756V15.8537H138.235V14.9756H139.113ZM139.113 15.8537V16.7317H138.235V15.8537H139.113ZM139.113 16.7317V17.6098H138.235V16.7317H139.113ZM139.991 15.8537V16.7317H139.113V15.8537H139.991ZM139.113 11.4634V12.3415H138.235V11.4634H139.113ZM138.235 11.4634V12.3415H137.357V11.4634H138.235ZM137.357 11.4634V12.3415H136.479V11.4634H137.357ZM137.357 12.3415V13.2195H136.479V12.3415H137.357ZM137.357 13.2195V14.0976H136.479V13.2195H137.357ZM137.357 14.0976V14.9756H136.479V14.0976H137.357ZM137.357 14.9756V15.8537H136.479V14.9756H137.357ZM137.357 15.8537V16.7317H136.479V15.8537H137.357ZM137.357 16.7317V17.6098H136.479V16.7317H137.357ZM138.235 16.7317V17.6098H137.357V16.7317H138.235ZM138.235 15.8537V16.7317H137.357V15.8537H138.235ZM138.235 14.9756V15.8537H137.357V14.9756H138.235ZM138.235 14.0976V14.9756H137.357V14.0976H138.235ZM138.235 13.2195V14.0976H137.357V13.2195H138.235ZM138.235 12.3415V13.2195H137.357V12.3415H138.235ZM139.113 12.3415V13.2195H138.235V12.3415H139.113ZM139.113 14.0976V14.9756H138.235V14.0976H139.113ZM139.113 10.5854V11.4634H138.235V10.5854H139.113ZM139.113 9.70732V10.5854H138.235V9.70732H139.113ZM138.235 9.70732V10.5854H137.357V9.70732H138.235ZM138.235 10.5854V11.4634H137.357V10.5854H138.235ZM136.479 10.5854V11.4634H135.601V10.5854H136.479ZM136.479 9.70732V10.5854H135.601V9.70732H136.479ZM136.479 8.82927V9.70732H135.601V8.82927H136.479ZM138.235 8.82927V9.70732H137.357V8.82927H138.235ZM136.479 5.31708V6.19512H135.601V5.31708H136.479ZM136.479 6.19512V7.07317H135.601V6.19512H136.479ZM137.357 6.19512V7.07317H136.479V6.19512H137.357ZM138.235 6.19512V7.07317H137.357V6.19512H138.235ZM138.235 7.07317V7.95122H137.357V7.07317H138.235ZM139.113 7.07317V7.95122H138.235V7.07317H139.113ZM139.113 7.95122V8.82927H138.235V7.95122H139.113ZM138.235 7.95122V8.82927H137.357V7.95122H138.235ZM137.357 7.95122V8.82927H136.479V7.95122H137.357ZM137.357 7.07317V7.95122H136.479V7.07317H137.357ZM136.479 7.07317V7.95122H135.601V7.07317H136.479ZM135.601 7.07317V7.95122H134.722V7.07317H135.601ZM135.601 7.95122V8.82927H134.722V7.95122H135.601ZM136.479 7.95122V8.82927H135.601V7.95122H136.479ZM135.601 8.82927V9.70732H134.722V8.82927H135.601ZM134.722 7.95122V8.82927H133.844V7.95122H134.722ZM134.722 7.07317V7.95122H133.844V7.07317H134.722ZM134.722 6.19512V7.07317H133.844V6.19512H134.722ZM134.722 5.31708V6.19512H133.844V5.31708H134.722ZM135.601 5.31708V6.19512H134.722V5.31708H135.601ZM135.601 6.19512V7.07317H134.722V6.19512H135.601ZM133.844 5.31708V6.19512H132.966V5.31708H133.844ZM133.844 6.19512V7.07317H132.966V6.19512H133.844ZM132.966 6.19512V7.07317H132.088V6.19512H132.966ZM132.966 7.07317V7.95122H132.088V7.07317H132.966ZM132.088 7.07317V7.95122H131.21V7.07317H132.088ZM132.088 7.95122V8.82927H131.21V7.95122H132.088ZM132.966 7.95122V8.82927H132.088V7.95122H132.966ZM133.844 7.95122V8.82927H132.966V7.95122H133.844ZM133.844 7.07317V7.95122H132.966V7.07317H133.844ZM132.088 8.82927V9.70732H131.21V8.82927H132.088ZM132.966 8.82927V9.70732H132.088V8.82927H132.966ZM132.088 9.70732V10.5854H131.21V9.70732H132.088ZM125.942 5.31708V6.19512H125.064V5.31708H125.942ZM125.064 6.19512V7.07317H124.186V6.19512H125.064ZM132.966 5.31708V6.19512H132.088V5.31708H132.966ZM132.088 6.19512V7.07317H131.21V6.19512H132.088ZM126.82 7.95122V8.82927H125.942V7.95122H126.82ZM129.454 5.31708V6.19512H128.576V5.31708H129.454Z" fill="#FAC551"/>
</svg>
