<svg width="90" height="75" viewBox="0 0 90 75" fill="none" xmlns="http://www.w3.org/2000/svg">
<path d="M75.0001 7.4999H82.5001V14.9999H75.0001V7.4999Z" fill="#995500"/>
<path d="M67.5 0H75L75.0001 7.4999L67.5 7.5V0Z" fill="#995500"/>
<path d="M60 0H67.5V7.5H60V0Z" fill="#995500"/>
<path d="M52.5 0H60V7.5H52.5V0Z" fill="#995500"/>
<path d="M45 0H52.5V7.5H45V0Z" fill="#995500"/>
<path d="M37.5 7.4999L45 7.5L45 14.9999H37.5V7.4999Z" fill="#995500"/>
<path d="M30 7.4999H37.5V14.9999H30V7.4999Z" fill="#995500"/>
<path d="M22.5 7.4999H30V14.9999H22.5V7.4999Z" fill="#995500"/>
<path d="M15 15.0001L22.5 14.9999L22.5 22.5001H15V15.0001Z" fill="#995500"/>
<path d="M7.50005 22.5L15 22.5001L15 30H7.50005V22.5Z" fill="#995500"/>
<path d="M0 29.9999L7.50005 30L7.5 37.4999H0V29.9999Z" fill="#995500"/>
<path d="M0 37.4999H7.5V45.0001H0V37.4999Z" fill="#995500"/>
<path d="M0 45.0001H7.5V52.5H0V45.0001Z" fill="#6E3505"/>
<path d="M0 52.5H7.5V59.9999H0V52.5Z" fill="#6E3505"/>
<path d="M7.5 59.9999L15 60.0001V67.5001H7.50005L7.5 59.9999Z" fill="#6E3505"/>
<path d="M15 67.5001L22.5 67.5V75H15L15 67.5001Z" fill="#6E3505"/>
<path d="M15 60.0001H22.5V67.5L15 67.5001V60.0001Z" fill="#856941"/>
<path d="M75.0001 29.9999H82.5001V37.4999H75.0001V29.9999Z" fill="#856941"/>
<path d="M45 7.5H52.5L52.5 14.9999H45L45 7.5Z" fill="#9D772E"/>
<path d="M22.5 14.9999H30L30 22.5001H22.5L22.5 14.9999Z" fill="#9D772E"/>
<path d="M52.5 52.4999H60V59.9999H52.5V52.4999Z" fill="#9D772E"/>
<path d="M60 45H67.5V52.5L60 52.4999L60 45Z" fill="#9D772E"/>
<path d="M67.5 45H75V52.5H67.5V45Z" fill="#9D772E"/>
<path d="M67.5 37.5001L75.0001 37.4999L75 45H67.5L67.5 37.5001Z" fill="#9D772E"/>
<path d="M75.0001 37.4999H82.5001V45.0001L75 45L75.0001 37.4999Z" fill="#9D772E"/>
<path d="M37.5 60.0001H45V67.5001H37.5V60.0001Z" fill="#9D772E"/>
<path d="M7.5 52.5L15 52.4999V60.0001L7.5 59.9999V52.5Z" fill="#9D772E"/>
<path d="M15 45H22.5V52.5L15 52.4999L15 45Z" fill="#B18348"/>
<path d="M15 52.4999L22.5 52.5V60.0001H15V52.4999Z" fill="#B18348"/>
<path d="M22.5 60.0001H30V67.5001L22.5 67.5V60.0001Z" fill="#B18348"/>
<path d="M30 60.0001H37.5V67.5001H30V60.0001Z" fill="#B18348"/>
<path d="M45 45H52.5L52.5 52.4999L45 52.5V45Z" fill="#B18348"/>
<path d="M67.5 7.5L75.0001 7.4999V14.9999H67.5V7.5Z" fill="#B18348"/>
<path d="M30 14.9999H37.5L37.5 22.5001H30L30 14.9999Z" fill="#B18348"/>
<path d="M60 7.5H67.5V14.9999H60V7.5Z" fill="#C8973A"/>
<path d="M52.5 14.9999H60L60 22.5001H52.5L52.5 14.9999Z" fill="#C8973A"/>
<path d="M75.0001 14.9999H82.5001V22.5001H75.0001V14.9999Z" fill="#C8973A"/>
<path d="M75.0001 22.5001H82.5001V29.9999H75.0001V22.5001Z" fill="#C8973A"/>
<path d="M67.5 22.5L75.0001 22.5001V29.9999L67.5 30V22.5Z" fill="#C8973A"/>
<path d="M67.5 30L75.0001 29.9999V37.4999L67.5 37.5001V30Z" fill="#C8973A"/>
<path d="M60 37.5001H67.5L67.5 45H60V37.5001Z" fill="#C8973A"/>
<path d="M52.5 45H60L60 52.4999H52.5L52.5 45Z" fill="#C8973A"/>
<path d="M45 52.5L52.5 52.4999V59.9999L45 60.0001L45 52.5Z" fill="#C8973A"/>
<path d="M37.5 52.4999L45 52.5L45 60.0001H37.5V52.4999Z" fill="#C8973A"/>
<path d="M22.5 52.5L30 52.4999V60.0001H22.5V52.5Z" fill="#C8973A"/>
<path d="M7.5 45.0001L15 45L15 52.4999L7.5 52.5V45.0001Z" fill="#C8973A"/>
<path d="M7.50005 30H15V37.4999H7.5L7.50005 30Z" fill="#C8973A"/>
<path d="M22.5 37.5001H30V45.0001L22.5 45L22.5 37.5001Z" fill="#F8D186"/>
<path d="M22.5 29.9999H30V37.5001H22.5V29.9999Z" fill="#F8D186"/>
<path d="M30 29.9999H37.5V37.4999L30 37.5001V29.9999Z" fill="#F8D186"/>
<path d="M30 37.5001L37.5 37.4999V45.0001H30V37.5001Z" fill="#F8D186"/>
<path d="M22.5 45L30 45.0001V52.4999L22.5 52.5V45Z" fill="#E9BA62"/>
<path d="M22.5 22.5001H30V29.9999H22.5L22.5 22.5001Z" fill="#E9BA62"/>
<path d="M30 22.5001H37.5V29.9999H30V22.5001Z" fill="#E9BA62"/>
<path d="M37.5 22.5001L45 22.5V30L37.5 29.9999V22.5001Z" fill="#E9BA62"/>
<path d="M37.5 29.9999L45 30V37.4999H37.5V29.9999Z" fill="#E9BA62"/>
<path d="M30 52.4999H37.5V60.0001H30V52.4999Z" fill="#D9AA52"/>
<path d="M30 45.0001H37.5L37.5 52.4999H30V45.0001Z" fill="#D9AA52"/>
<path d="M37.5 45.0001L45 45V52.5L37.5 52.4999L37.5 45.0001Z" fill="#D9AA52"/>
<path d="M37.5 37.4999H45L45 45L37.5 45.0001V37.4999Z" fill="#D9AA52"/>
<path d="M45 37.4999L52.5 37.5001V45H45L45 37.4999Z" fill="#D9AA52"/>
<path d="M52.5 37.5001H60V45H52.5V37.5001Z" fill="#D9AA52"/>
<path d="M52.5 29.9999H60L60 37.5001H52.5L52.5 29.9999Z" fill="#D9AA52"/>
<path d="M45 30L52.5 29.9999L52.5 37.5001L45 37.4999V30Z" fill="#D9AA52"/>
<path d="M45 22.5L52.5 22.5001V29.9999L45 30V22.5Z" fill="#D9AA52"/>
<path d="M45 14.9999H52.5L52.5 22.5001L45 22.5V14.9999Z" fill="#D9AA52"/>
<path d="M37.5 14.9999H45V22.5L37.5 22.5001L37.5 14.9999Z" fill="#D9AA52"/>
<path d="M52.5 7.5H60V14.9999H52.5L52.5 7.5Z" fill="#D9AA52"/>
<path d="M60 14.9999H67.5V22.5L60 22.5001L60 14.9999Z" fill="#D9AA52"/>
<path d="M67.5 14.9999H75.0001V22.5001L67.5 22.5V14.9999Z" fill="#D9AA52"/>
<path d="M52.5 22.5001H60V29.9999H52.5V22.5001Z" fill="#D9AA52"/>
<path d="M60 22.5001L67.5 22.5V30L60 29.9999V22.5001Z" fill="#D9AA52"/>
<path d="M60 29.9999L67.5 30V37.5001H60L60 29.9999Z" fill="#D9AA52"/>
<path d="M15 37.4999L22.5 37.5001L22.5 45H15L15 37.4999Z" fill="#E9BA62"/>
<path d="M7.5 37.4999H15L15 45L7.5 45.0001V37.4999Z" fill="#DBA952"/>
<path d="M15 22.5001H22.5L22.5 29.9999L15 30L15 22.5001Z" fill="#DBA952"/>
<path d="M15 30L22.5 29.9999V37.5001L15 37.4999V30Z" fill="#E9BA62"/>
<path d="M22.5 67.5L30 67.5001V75H22.5V67.5Z" fill="#6E3505"/>
<path d="M30 67.5001H37.5L37.5 75H30V67.5001Z" fill="#6E3505"/>
<path d="M37.5 67.5001H45V75H37.5L37.5 67.5001Z" fill="#6E3505"/>
<path d="M45 60.0001L52.5 59.9999L52.5 67.5001H45V60.0001Z" fill="#6E3505"/>
<path d="M52.5 59.9999H60V67.5001H52.5L52.5 59.9999Z" fill="#6E3505"/>
<path d="M60 52.4999L67.5 52.5V59.9999H60V52.4999Z" fill="#6E3505"/>
<path d="M67.5 52.5H75V59.9999H67.5V52.5Z" fill="#6E3505"/>
<path d="M75 45L82.5001 45.0001V52.5H75V45Z" fill="#6E3505"/>
<path d="M82.5001 37.4999L90 37.5001V45.0001H82.5001V37.4999Z" fill="#6E3505"/>
<path d="M82.5001 29.9999H90V37.5001L82.5001 37.4999V29.9999Z" fill="#6E3505"/>
<path d="M82.5001 22.5001L90 22.5V29.9999H82.5001V22.5001Z" fill="#6E3505"/>
<path d="M82.5001 14.9999L90 15.0001V22.5L82.5001 22.5001V14.9999Z" fill="#995500"/>
</svg>
