<svg width="100" height="100" viewBox="0 0 100 100" fill="none" xmlns="http://www.w3.org/2000/svg">
<path d="M80.0001 19.9999H87.5001V27.4999H80.0001V19.9999Z" fill="#995500"/>
<path d="M72.5 12.5H80L80.0001 19.9999L72.5 20V12.5Z" fill="#995500"/>
<path d="M65 12.5H72.5V20H65V12.5Z" fill="#995500"/>
<path d="M57.5 12.5H65V20H57.5V12.5Z" fill="#995500"/>
<path d="M50 12.5H57.5V20H50V12.5Z" fill="#995500"/>
<path d="M42.5 19.9999L50 20L50 27.4999H42.5V19.9999Z" fill="#995500"/>
<path d="M35 19.9999H42.5V27.4999H35V19.9999Z" fill="#995500"/>
<path d="M27.5 19.9999H35V27.4999H27.5V19.9999Z" fill="#995500"/>
<path d="M20 27.5001L27.5 27.4999L27.5 35.0001H20V27.5001Z" fill="#995500"/>
<path d="M12.5 35L20 35.0001L20 42.5H12.5V35Z" fill="#995500"/>
<path d="M5 42.4999L12.5 42.5L12.5 49.9999H5V42.4999Z" fill="#995500"/>
<path d="M5 49.9999H12.5V57.5001H5V49.9999Z" fill="#995500"/>
<path d="M5 57.5001H12.5V65H5V57.5001Z" fill="#6E3505"/>
<path d="M5 65H12.5V72.4999H5V65Z" fill="#6E3505"/>
<path d="M12.5 72.4999L20 72.5001V80.0001H12.5L12.5 72.4999Z" fill="#6E3505"/>
<path d="M20 80.0001L27.5 80V87.5H20L20 80.0001Z" fill="#6E3505"/>
<path d="M20 72.5001H27.5V80L20 80.0001V72.5001Z" fill="#856941"/>
<path d="M80.0001 42.4999H87.5001V49.9999H80.0001V42.4999Z" fill="#856941"/>
<path d="M50 20H57.5L57.5 27.4999H50L50 20Z" fill="#9D772E"/>
<path d="M27.5 27.4999H35L35 35.0001H27.5L27.5 27.4999Z" fill="#9D772E"/>
<path d="M57.5 64.9999H65V72.4999H57.5V64.9999Z" fill="#9D772E"/>
<path d="M65 57.5H72.5V65L65 64.9999L65 57.5Z" fill="#9D772E"/>
<path d="M72.5 57.5H80V65H72.5V57.5Z" fill="#9D772E"/>
<path d="M72.5 50.0001L80.0001 49.9999L80 57.5H72.5L72.5 50.0001Z" fill="#9D772E"/>
<path d="M80.0001 49.9999H87.5001V57.5001L80 57.5L80.0001 49.9999Z" fill="#9D772E"/>
<path d="M42.5 72.5001H50V80.0001H42.5V72.5001Z" fill="#9D772E"/>
<path d="M12.5 65L20 64.9999V72.5001L12.5 72.4999V65Z" fill="#9D772E"/>
<path d="M20 57.5H27.5V65L20 64.9999L20 57.5Z" fill="#B18348"/>
<path d="M20 64.9999L27.5 65V72.5001H20V64.9999Z" fill="#B18348"/>
<path d="M27.5 72.5001H35V80.0001L27.5 80V72.5001Z" fill="#B18348"/>
<path d="M35 72.5001H42.5V80.0001H35V72.5001Z" fill="#B18348"/>
<path d="M50 57.5H57.5L57.5 64.9999L50 65V57.5Z" fill="#B18348"/>
<path d="M72.5 20L80.0001 19.9999V27.4999H72.5V20Z" fill="#B18348"/>
<path d="M35 27.4999H42.5L42.5 35.0001H35L35 27.4999Z" fill="#B18348"/>
<path d="M65 20H72.5V27.4999H65V20Z" fill="#C8973A"/>
<path d="M57.5 27.4999H65L65 35.0001H57.5L57.5 27.4999Z" fill="#C8973A"/>
<path d="M80.0001 27.4999H87.5001V35.0001H80.0001V27.4999Z" fill="#C8973A"/>
<path d="M80.0001 35.0001H87.5001V42.4999H80.0001V35.0001Z" fill="#C8973A"/>
<path d="M72.5 35L80.0001 35.0001V42.4999L72.5 42.5V35Z" fill="#C8973A"/>
<path d="M72.5 42.5L80.0001 42.4999V49.9999L72.5 50.0001V42.5Z" fill="#C8973A"/>
<path d="M65 50.0001H72.5L72.5 57.5H65V50.0001Z" fill="#C8973A"/>
<path d="M57.5 57.5H65L65 64.9999H57.5L57.5 57.5Z" fill="#C8973A"/>
<path d="M50 65L57.5 64.9999V72.4999L50 72.5001L50 65Z" fill="#C8973A"/>
<path d="M42.5 64.9999L50 65L50 72.5001H42.5V64.9999Z" fill="#C8973A"/>
<path d="M27.5 65L35 64.9999V72.5001H27.5V65Z" fill="#C8973A"/>
<path d="M12.5 57.5001L20 57.5L20 64.9999L12.5 65V57.5001Z" fill="#C8973A"/>
<path d="M12.5 42.5H20V49.9999H12.5L12.5 42.5Z" fill="#C8973A"/>
<path d="M27.5 50.0001H35V57.5001L27.5 57.5L27.5 50.0001Z" fill="#F8D186"/>
<path d="M27.5 42.4999H35V50.0001H27.5V42.4999Z" fill="#F8D186"/>
<path d="M35 42.4999H42.5V49.9999L35 50.0001V42.4999Z" fill="#F8D186"/>
<path d="M35 50.0001L42.5 49.9999V57.5001H35V50.0001Z" fill="#F8D186"/>
<path d="M27.5 57.5L35 57.5001V64.9999L27.5 65V57.5Z" fill="#E9BA62"/>
<path d="M27.5 35.0001H35V42.4999H27.5L27.5 35.0001Z" fill="#E9BA62"/>
<path d="M35 35.0001H42.5V42.4999H35V35.0001Z" fill="#E9BA62"/>
<path d="M42.5 35.0001L50 35V42.5L42.5 42.4999V35.0001Z" fill="#E9BA62"/>
<path d="M42.5 42.4999L50 42.5V49.9999H42.5V42.4999Z" fill="#E9BA62"/>
<path d="M35 64.9999H42.5V72.5001H35V64.9999Z" fill="#D9AA52"/>
<path d="M35 57.5001H42.5L42.5 64.9999H35V57.5001Z" fill="#D9AA52"/>
<path d="M42.5 57.5001L50 57.5V65L42.5 64.9999L42.5 57.5001Z" fill="#D9AA52"/>
<path d="M42.5 49.9999H50L50 57.5L42.5 57.5001V49.9999Z" fill="#D9AA52"/>
<path d="M50 49.9999L57.5 50.0001V57.5H50L50 49.9999Z" fill="#D9AA52"/>
<path d="M57.5 50.0001H65V57.5H57.5V50.0001Z" fill="#D9AA52"/>
<path d="M57.5 42.4999H65L65 50.0001H57.5L57.5 42.4999Z" fill="#D9AA52"/>
<path d="M50 42.5L57.5 42.4999L57.5 50.0001L50 49.9999V42.5Z" fill="#D9AA52"/>
<path d="M50 35L57.5 35.0001V42.4999L50 42.5V35Z" fill="#D9AA52"/>
<path d="M50 27.4999H57.5L57.5 35.0001L50 35V27.4999Z" fill="#D9AA52"/>
<path d="M42.5 27.4999H50V35L42.5 35.0001L42.5 27.4999Z" fill="#D9AA52"/>
<path d="M57.5 20H65V27.4999H57.5L57.5 20Z" fill="#D9AA52"/>
<path d="M65 27.4999H72.5V35L65 35.0001L65 27.4999Z" fill="#D9AA52"/>
<path d="M72.5 27.4999H80.0001V35.0001L72.5 35V27.4999Z" fill="#D9AA52"/>
<path d="M57.5 35.0001H65V42.4999H57.5V35.0001Z" fill="#D9AA52"/>
<path d="M65 35.0001L72.5 35V42.5L65 42.4999V35.0001Z" fill="#D9AA52"/>
<path d="M65 42.4999L72.5 42.5V50.0001H65L65 42.4999Z" fill="#D9AA52"/>
<path d="M20 49.9999L27.5 50.0001L27.5 57.5H20L20 49.9999Z" fill="#E9BA62"/>
<path d="M12.5 49.9999H20L20 57.5L12.5 57.5001V49.9999Z" fill="#DBA952"/>
<path d="M20 35.0001H27.5L27.5 42.4999L20 42.5L20 35.0001Z" fill="#DBA952"/>
<path d="M20 42.5L27.5 42.4999V50.0001L20 49.9999V42.5Z" fill="#E9BA62"/>
<path d="M27.5 80L35 80.0001V87.5H27.5V80Z" fill="#6E3505"/>
<path d="M35 80.0001H42.5L42.5 87.5H35V80.0001Z" fill="#6E3505"/>
<path d="M42.5 80.0001H50V87.5H42.5L42.5 80.0001Z" fill="#6E3505"/>
<path d="M50 72.5001L57.5 72.4999L57.5 80.0001H50V72.5001Z" fill="#6E3505"/>
<path d="M57.5 72.4999H65V80.0001H57.5L57.5 72.4999Z" fill="#6E3505"/>
<path d="M65 64.9999L72.5 65V72.4999H65V64.9999Z" fill="#6E3505"/>
<path d="M72.5 65H80V72.4999H72.5V65Z" fill="#6E3505"/>
<path d="M80 57.5L87.5001 57.5001V65H80V57.5Z" fill="#6E3505"/>
<path d="M87.5001 49.9999L95 50.0001V57.5001H87.5001V49.9999Z" fill="#6E3505"/>
<path d="M87.5001 42.4999H95V50.0001L87.5001 49.9999V42.4999Z" fill="#6E3505"/>
<path d="M87.5001 35.0001L95 35V42.4999H87.5001V35.0001Z" fill="#6E3505"/>
<path d="M87.5001 27.4999L95 27.5001V35L87.5001 35.0001V27.4999Z" fill="#995500"/>
</svg>
